<svg width="22" height="28" viewBox="0 0 22 28" fill="none" xmlns="http://www.w3.org/2000/svg">
<path d="M19.9012 12.8502C19.1543 12.2229 18.2037 11.8744 17.0494 11.8047C17.7284 11.3167 18.2716 10.6197 18.6111 9.85293C18.9506 9.08618 19.0184 8.24972 18.8147 7.48296C18.679 6.71621 18.3395 6.08886 17.8642 5.53122C17.3889 4.97358 16.8457 4.62506 16.1667 4.34624C15.5556 4.06742 14.8766 3.99771 14.1298 3.99771C13.5187 3.99771 12.7039 4.13712 11.6854 4.34624L10.8027 0.0942383L8.35835 0.651877L9.24103 4.90388L7.61144 5.2524L6.72877 1.0004L4.28442 1.55804L5.1671 5.81004L4.6918 5.87975L3.74124 6.08886L0.549988 6.78591L1.09317 9.29529L4.28442 8.59824L6.79669 21.0057L3.60544 21.7028L4.14862 24.2122L7.33987 23.5151L8.29043 23.306L8.76573 23.2363L9.64841 27.4883L12.0928 26.9306L11.2101 22.6786L12.8397 22.3301L13.7223 26.5821L16.1667 26.0245L15.284 21.7725C16.5062 21.4937 17.3889 21.2845 17.7963 21.1451C18.7469 20.8663 19.4938 20.3784 20.037 19.8207C20.5802 19.2631 20.9875 18.4963 21.2591 17.6599C21.4628 16.8234 21.5307 15.987 21.327 15.2202C21.1233 14.314 20.648 13.4776 19.9012 12.8502ZM14.6051 7.55267C15.0124 7.83149 15.2161 8.24972 15.3519 8.73765C15.4877 9.29529 15.3519 9.78323 15.0803 10.2015C14.8087 10.6197 14.3334 10.9682 13.7223 11.1076C13.3828 11.247 12.5002 11.4561 11.0743 11.735L8.69785 12.2229L7.88305 8.18001L9.9879 7.76178C11.6854 7.41326 12.7039 7.20414 13.1113 7.13444C13.7903 7.20414 14.2656 7.27385 14.6051 7.55267ZM17.321 17.5205C17.0494 17.9387 16.642 18.2872 16.1667 18.4963C15.8272 18.6358 15.0124 18.8449 13.7223 19.1237L10.3274 19.8207L9.37684 15.1505L12.2965 14.5232C13.9261 14.1746 15.0124 14.0352 15.5556 14.1049C16.0988 14.1746 16.5062 14.314 16.8457 14.6626C17.1852 14.9414 17.3889 15.3596 17.5247 15.9173C17.6605 16.5446 17.5926 17.1022 17.321 17.5205Z" fill="#07062E"/>
</svg>
