<?xml version="1.0" encoding="utf-8"?>
<!-- Generator: Adobe Illustrator 15.0.0, SVG Export Plug-In . SVG Version: 6.00 Build 0)  -->
<!DOCTYPE svg PUBLIC "-//W3C//DTD SVG 1.1//EN" "http://www.w3.org/Graphics/SVG/1.1/DTD/svg11.dtd">
<svg version="1.1" id="Layer_1" xmlns="http://www.w3.org/2000/svg" xmlns:xlink="http://www.w3.org/1999/xlink" x="0px" y="0px"
	 width="38px" height="40px" viewBox="0 0 38 40" enable-background="new 0 0 38 40" xml:space="preserve">
<ellipse fill="#47C947" cx="19" cy="19.791" rx="19" ry="19.567"/>
<path fill="#07062E" d="M26.901,18.85c-0.747-0.627-1.698-0.976-2.853-1.045c0.68-0.488,1.223-1.185,1.563-1.952
	c0.34-0.767,0.407-1.604,0.203-2.37c-0.135-0.767-0.475-1.394-0.95-1.952s-1.019-0.906-1.698-1.185
	c-0.61-0.279-1.289-0.349-2.036-0.349c-0.611,0-1.426,0.14-2.444,0.349l-0.883-4.252l-2.444,0.558l0.883,4.252l-1.63,0.349L13.729,7
	l-2.445,0.558l0.883,4.252l-0.475,0.07l-0.951,0.209L7.55,12.786l0.543,2.509l3.191-0.697l2.513,12.408l-3.191,0.697l0.543,2.51
	l3.191-0.697l0.951-0.209l0.475-0.07l0.883,4.252l2.444-0.558l-0.883-4.252l1.63-0.349l0.883,4.252l2.443-0.558l-0.882-4.252
	c1.222-0.278,2.104-0.487,2.513-0.628c0.95-0.278,1.697-0.766,2.24-1.324c0.543-0.557,0.95-1.324,1.223-2.16
	c0.203-0.837,0.271-1.674,0.067-2.439C28.123,20.314,27.648,19.478,26.901,18.85z M21.605,13.553
	c0.406,0.279,0.611,0.697,0.746,1.185c0.137,0.558,0,1.045-0.271,1.464c-0.271,0.418-0.746,0.767-1.357,0.906
	c-0.34,0.14-1.223,0.349-2.648,0.627l-2.376,0.488l-0.815-4.042l2.105-0.418c1.698-0.349,2.716-0.558,3.124-0.627
	C20.791,13.204,21.266,13.274,21.605,13.553z M24.32,23.521c-0.271,0.418-0.678,0.767-1.154,0.976
	c-0.339,0.14-1.154,0.349-2.443,0.627l-3.395,0.697l-0.951-4.67l2.92-0.627c1.629-0.349,2.715-0.488,3.259-0.418
	c0.543,0.07,0.95,0.209,1.29,0.557c0.34,0.279,0.543,0.697,0.68,1.256C24.66,22.545,24.593,23.102,24.32,23.521z"/>
</svg>
