<?xml version="1.0" encoding="utf-8"?>
<!-- Generator: Adobe Illustrator 15.0.0, SVG Export Plug-In . SVG Version: 6.00 Build 0)  -->
<!DOCTYPE svg PUBLIC "-//W3C//DTD SVG 1.1//EN" "http://www.w3.org/Graphics/SVG/1.1/DTD/svg11.dtd">
<svg version="1.1" id="Layer_1" xmlns="http://www.w3.org/2000/svg" xmlns:xlink="http://www.w3.org/1999/xlink" x="0px" y="0px"
	 width="38px" height="40px" viewBox="0 0 38 40" enable-background="new 0 0 38 40" xml:space="preserve">
<ellipse fill="#07062E" cx="19" cy="19.858" rx="18.95" ry="19.5"/>
<path fill="#74522A" d="M37.13,25.661c0.565-1.854,0.87-3.826,0.87-5.87C38,8.984,29.493,0.224,19,0.224S0,8.984,0,19.791
	c0,2.044,0.305,4.017,0.87,5.87h5.78V10.008L19,21.747l12.35-11.739v15.653H37.13z M35.458,29.573H27.55v-9.782L19,28.106
	l-8.55-8.315v9.782H2.542c3.285,5.85,9.425,9.785,16.458,9.785S32.173,35.423,35.458,29.573z"/>
</svg>
