<svg width="75" height="24" viewBox="0 0 75 24" fill="none" xmlns="http://www.w3.org/2000/svg">
<path d="M25.3203 17V5.625H29.0391C30.2734 5.625 31.2005 5.88021 31.8203 6.39062C32.4453 6.90104 32.7578 7.65625 32.7578 8.65625C32.7578 9.1875 32.6068 9.65885 32.3047 10.0703C32.0026 10.4766 31.5911 10.7917 31.0703 11.0156C31.6849 11.1875 32.1693 11.5156 32.5234 12C32.8828 12.4792 33.0625 13.0521 33.0625 13.7188C33.0625 14.7396 32.7318 15.5417 32.0703 16.125C31.4089 16.7083 30.474 17 29.2656 17H25.3203ZM26.8203 11.6797V15.7734H29.2969C29.9948 15.7734 30.5443 15.5938 30.9453 15.2344C31.3516 14.8698 31.5547 14.3698 31.5547 13.7344C31.5547 12.3646 30.8099 11.6797 29.3203 11.6797H26.8203ZM26.8203 10.4766H29.0859C29.7422 10.4766 30.2656 10.3125 30.6562 9.98438C31.0521 9.65625 31.25 9.21094 31.25 8.64844C31.25 8.02344 31.0677 7.57031 30.7031 7.28906C30.3385 7.0026 29.7839 6.85938 29.0391 6.85938H26.8203V10.4766ZM38.5703 17.1562C37.4245 17.1562 36.4922 16.7812 35.7734 16.0312C35.0547 15.276 34.6953 14.2682 34.6953 13.0078V12.7422C34.6953 11.9036 34.8542 11.1562 35.1719 10.5C35.4948 9.83854 35.9427 9.32292 36.5156 8.95312C37.0938 8.57812 37.7188 8.39062 38.3906 8.39062C39.4896 8.39062 40.3438 8.7526 40.9531 9.47656C41.5625 10.2005 41.8672 11.237 41.8672 12.5859V13.1875H36.1406C36.1615 14.0208 36.4036 14.6953 36.8672 15.2109C37.3359 15.7214 37.9297 15.9766 38.6484 15.9766C39.1589 15.9766 39.5911 15.8724 39.9453 15.6641C40.2995 15.4557 40.6094 15.1797 40.875 14.8359L41.7578 15.5234C41.0495 16.612 39.987 17.1562 38.5703 17.1562ZM38.3906 9.57812C37.8073 9.57812 37.3177 9.79167 36.9219 10.2188C36.526 10.6406 36.2812 11.2344 36.1875 12H40.4219V11.8906C40.3802 11.1562 40.1823 10.5885 39.8281 10.1875C39.474 9.78125 38.9948 9.57812 38.3906 9.57812ZM45.5078 6.5V8.54688H47.0859V9.66406H45.5078V14.9062C45.5078 15.2448 45.5781 15.5 45.7188 15.6719C45.8594 15.8385 46.099 15.9219 46.4375 15.9219C46.6042 15.9219 46.8333 15.8906 47.125 15.8281V17C46.7448 17.1042 46.375 17.1562 46.0156 17.1562C45.3698 17.1562 44.8828 16.9609 44.5547 16.5703C44.2266 16.1797 44.0625 15.625 44.0625 14.9062V9.66406H42.5234V8.54688H44.0625V6.5H45.5078ZM50.7422 6.5V8.54688H52.3203V9.66406H50.7422V14.9062C50.7422 15.2448 50.8125 15.5 50.9531 15.6719C51.0938 15.8385 51.3333 15.9219 51.6719 15.9219C51.8385 15.9219 52.0677 15.8906 52.3594 15.8281V17C51.9792 17.1042 51.6094 17.1562 51.25 17.1562C50.6042 17.1562 50.1172 16.9609 49.7891 16.5703C49.4609 16.1797 49.2969 15.625 49.2969 14.9062V9.66406H47.7578V8.54688H49.2969V6.5H50.7422ZM55.5859 17H54.1406V8.54688H55.5859V17ZM54.0234 6.30469C54.0234 6.07031 54.0938 5.8724 54.2344 5.71094C54.3802 5.54948 54.5938 5.46875 54.875 5.46875C55.1562 5.46875 55.3698 5.54948 55.5156 5.71094C55.6615 5.8724 55.7344 6.07031 55.7344 6.30469C55.7344 6.53906 55.6615 6.73438 55.5156 6.89062C55.3698 7.04688 55.1562 7.125 54.875 7.125C54.5938 7.125 54.3802 7.04688 54.2344 6.89062C54.0938 6.73438 54.0234 6.53906 54.0234 6.30469ZM59.2734 8.54688L59.3203 9.60938C59.9661 8.79688 60.8099 8.39062 61.8516 8.39062C63.638 8.39062 64.5391 9.39844 64.5547 11.4141V17H63.1094V11.4062C63.1042 10.7969 62.9635 10.3464 62.6875 10.0547C62.4167 9.76302 61.9922 9.61719 61.4141 9.61719C60.9453 9.61719 60.5339 9.74219 60.1797 9.99219C59.8255 10.2422 59.5495 10.5703 59.3516 10.9766V17H57.9062V8.54688H59.2734ZM66.3906 12.7031C66.3906 11.3854 66.6953 10.3385 67.3047 9.5625C67.9141 8.78125 68.7214 8.39062 69.7266 8.39062C70.7578 8.39062 71.5625 8.75521 72.1406 9.48438L72.2109 8.54688H73.5312V16.7969C73.5312 17.8906 73.2057 18.7526 72.5547 19.3828C71.9089 20.013 71.0391 20.3281 69.9453 20.3281C69.3359 20.3281 68.7396 20.1979 68.1562 19.9375C67.5729 19.6771 67.1276 19.3203 66.8203 18.8672L67.5703 18C68.1901 18.7656 68.9479 19.1484 69.8438 19.1484C70.5469 19.1484 71.0938 18.9505 71.4844 18.5547C71.8802 18.1589 72.0781 17.6016 72.0781 16.8828V16.1562C71.5 16.8229 70.7109 17.1562 69.7109 17.1562C68.7214 17.1562 67.9193 16.7578 67.3047 15.9609C66.6953 15.1641 66.3906 14.0781 66.3906 12.7031ZM67.8438 12.8672C67.8438 13.8203 68.0391 14.5703 68.4297 15.1172C68.8203 15.6589 69.3672 15.9297 70.0703 15.9297C70.9818 15.9297 71.651 15.5156 72.0781 14.6875V10.8281C71.6354 10.0208 70.9714 9.61719 70.0859 9.61719C69.3828 9.61719 68.8333 9.89062 68.4375 10.4375C68.0417 10.9844 67.8438 11.7943 67.8438 12.8672Z" fill="#AFABCA"/>
<path d="M13.6569 5.34316C12.1459 3.83216 10.1369 3 8 3C5.86312 3 3.85413 3.83216 2.34313 5.34316C0.832156 6.85416 0 8.86312 0 11C0 13.1369 0.832156 15.1459 2.34313 16.6569C3.85413 18.1678 5.86312 19 8 19C10.1369 19 12.1459 18.1678 13.6569 16.6569C15.1678 15.1459 16 13.1369 16 11C16 8.86312 15.1678 6.85416 13.6569 5.34316ZM15.046 10.5223L13.2654 10.5246C13.2097 9.90238 13.0458 9.31094 12.7926 8.76912L14.3336 7.87769C14.733 8.68469 14.9826 9.57834 15.046 10.5223ZM13.8631 7.06681L12.322 7.95831C11.9703 7.46012 11.5348 7.02525 11.0362 6.67422L11.9257 5.13203C12.6901 5.645 13.3492 6.30316 13.8631 7.06681ZM8.46875 3.95344C9.41291 4.01562 10.3068 4.26406 11.1143 4.66244L10.2248 6.20456C9.68272 5.95206 9.09109 5.78891 8.46875 5.73397V3.95344ZM7.53125 3.95344V5.73397C6.89962 5.78972 6.29963 5.95694 5.75097 6.21591L4.85372 4.67838C5.6695 4.27069 6.57463 4.01644 7.53125 3.95344ZM4.04456 5.15188L4.94181 6.68941C4.445 7.04291 4.01194 7.48022 3.66275 7.98025L2.11725 7.09662C2.62744 6.33028 3.28297 5.66862 4.04456 5.15188ZM1.6505 7.90972L3.19609 8.79338C2.94569 9.33628 2.78478 9.92856 2.73219 10.5512L0.95175 10.558C1.01038 9.61338 1.25528 8.71847 1.6505 7.90972ZM0.955125 11.4955L2.73575 11.4888C2.79303 12.1107 2.95844 12.7018 3.21306 13.243L1.67438 14.1383C1.27281 13.3322 1.02087 12.4392 0.955125 11.4955ZM2.14678 14.9481L3.68563 14.0527C4.0385 14.5499 4.47522 14.9836 4.97478 15.3334L4.08919 16.8778C3.3235 16.3667 2.66259 15.7104 2.14678 14.9481ZM4.90169 17.3455L5.78728 15.8011C6.32997 16.0522 6.922 16.2138 7.54456 16.2672L7.54906 18.0477C6.60459 17.9879 5.71 17.7418 4.90169 17.3455ZM3.65044 11C3.65044 8.60162 5.60166 6.65047 8 6.65047C10.3983 6.65047 12.3495 8.60166 12.3495 11C12.3495 13.3983 10.3983 15.3496 8 15.3496C5.60166 15.3496 3.65044 13.3984 3.65044 11ZM8.48656 18.0454L8.48206 16.2648C9.10416 16.2083 9.69541 16.0437 10.2369 15.7898L11.1303 17.3296C10.3237 17.7301 9.43038 17.9809 8.48656 18.0454ZM11.9407 16.8582L11.0472 15.3182C11.5449 14.9659 11.9792 14.5298 12.3297 14.0307L13.8729 14.9183C13.3608 15.6833 12.7036 16.3433 11.9407 16.8582ZM12.7983 13.2188C13.0501 12.6764 13.2125 12.0845 13.2666 11.4621L15.0471 11.4598C14.9861 12.4042 14.7389 13.2984 14.3415 14.1063L12.7983 13.2188Z" fill="#AFABCA"/>
<path d="M9.40932 11.1234C9.35429 10.9996 9.27647 10.8943 9.17563 10.8075C9.07476 10.7209 8.95176 10.6483 8.80669 10.5899C8.66154 10.5315 8.49879 10.4776 8.31832 10.428L8.14844 10.3855V9.66358C8.24748 9.67776 8.34566 9.70164 8.44307 9.73523C8.54035 9.76892 8.62888 9.80423 8.70851 9.84139C8.78813 9.87855 8.85357 9.91305 8.90491 9.94492C8.95619 9.9768 8.98719 9.99983 8.99782 10.014L9.38004 9.29198C9.23141 9.20704 9.05622 9.12395 8.85451 9.04248C8.65279 8.96111 8.43688 8.90976 8.20688 8.88854V8.35239H7.8406V8.88854C7.67073 8.90629 7.51232 8.94429 7.36548 9.00267C7.21857 9.06104 7.09119 9.14161 6.98329 9.2442C6.87529 9.34689 6.78951 9.46983 6.72582 9.61314C6.6621 9.75645 6.63026 9.9202 6.63026 10.1042C6.63026 10.2458 6.65057 10.3696 6.69132 10.4758C6.73198 10.5819 6.79391 10.6757 6.87713 10.7571C6.96023 10.8385 7.06557 10.9102 7.19298 10.9721C7.32038 11.0341 7.47076 11.0915 7.64419 11.1446L7.89901 11.219V11.925C7.7716 11.9073 7.64769 11.8781 7.52741 11.8374C7.40707 11.7968 7.29913 11.7543 7.2036 11.71C7.10804 11.6658 7.02926 11.6233 6.96738 11.5826C6.90541 11.542 6.86735 11.5127 6.85326 11.495L6.47107 12.2541C6.66216 12.3815 6.87716 12.4842 7.11604 12.562C7.35491 12.6399 7.59644 12.6894 7.84066 12.7106V13.3317H8.20694V12.716C8.37682 12.7088 8.53873 12.6823 8.69266 12.6363C8.8466 12.5904 8.98282 12.5222 9.10141 12.432C9.21994 12.3417 9.3146 12.2258 9.38541 12.0843C9.45616 11.9428 9.4916 11.771 9.4916 11.5693C9.4916 11.396 9.46413 11.2473 9.40932 11.1234ZM7.89894 10.3112C7.77504 10.2723 7.68213 10.2272 7.62026 10.1759C7.55832 10.1246 7.52735 10.0547 7.52735 9.96617C7.52735 9.7822 7.65119 9.67951 7.89894 9.65826V10.3112ZM8.14844 11.9356V11.2986C8.27229 11.3411 8.37141 11.388 8.44573 11.4393C8.52004 11.4906 8.55719 11.5623 8.55719 11.6543C8.55719 11.8313 8.42091 11.925 8.14844 11.9356Z" fill="#AFABCA"/>
</svg>
