<svg width="67" height="24" viewBox="0 0 67 24" fill="none" xmlns="http://www.w3.org/2000/svg">
<path d="M34.6875 13.3906C34.5469 14.5938 34.1016 15.5234 33.3516 16.1797C32.6068 16.8307 31.6146 17.1562 30.375 17.1562C29.0312 17.1562 27.9531 16.6745 27.1406 15.7109C26.3333 14.7474 25.9297 13.4583 25.9297 11.8438V10.75C25.9297 9.69271 26.1172 8.76302 26.4922 7.96094C26.8724 7.15885 27.4089 6.54427 28.1016 6.11719C28.7943 5.6849 29.5964 5.46875 30.5078 5.46875C31.7161 5.46875 32.6849 5.80729 33.4141 6.48438C34.1432 7.15625 34.5677 8.08854 34.6875 9.28125H33.1797C33.0495 8.375 32.7656 7.71875 32.3281 7.3125C31.8958 6.90625 31.2891 6.70312 30.5078 6.70312C29.5495 6.70312 28.7969 7.05729 28.25 7.76562C27.7083 8.47396 27.4375 9.48177 27.4375 10.7891V11.8906C27.4375 13.125 27.6953 14.1068 28.2109 14.8359C28.7266 15.5651 29.4479 15.9297 30.375 15.9297C31.2083 15.9297 31.8464 15.7422 32.2891 15.3672C32.737 14.987 33.0339 14.3281 33.1797 13.3906H34.6875ZM41.7344 17C41.651 16.8333 41.5833 16.5365 41.5312 16.1094C40.8594 16.8073 40.0573 17.1562 39.125 17.1562C38.2917 17.1562 37.6068 16.9219 37.0703 16.4531C36.5391 15.9792 36.2734 15.3802 36.2734 14.6562C36.2734 13.776 36.6068 13.0938 37.2734 12.6094C37.9453 12.1198 38.888 11.875 40.1016 11.875H41.5078V11.2109C41.5078 10.7057 41.3568 10.3047 41.0547 10.0078C40.7526 9.70573 40.3073 9.55469 39.7188 9.55469C39.2031 9.55469 38.7708 9.6849 38.4219 9.94531C38.0729 10.2057 37.8984 10.5208 37.8984 10.8906H36.4453C36.4453 10.4688 36.5938 10.0625 36.8906 9.67188C37.1927 9.27604 37.599 8.96354 38.1094 8.73438C38.625 8.50521 39.1901 8.39062 39.8047 8.39062C40.7786 8.39062 41.5417 8.63542 42.0938 9.125C42.6458 9.60938 42.9323 10.2786 42.9531 11.1328V15.0234C42.9531 15.7995 43.0521 16.4167 43.25 16.875V17H41.7344ZM39.3359 15.8984C39.7891 15.8984 40.2188 15.7812 40.625 15.5469C41.0312 15.3125 41.3255 15.0078 41.5078 14.6328V12.8984H40.375C38.6042 12.8984 37.7188 13.4167 37.7188 14.4531C37.7188 14.9062 37.8698 15.2604 38.1719 15.5156C38.474 15.7708 38.862 15.8984 39.3359 15.8984ZM49.3047 9.84375C49.0859 9.80729 48.849 9.78906 48.5938 9.78906C47.6458 9.78906 47.0026 10.1927 46.6641 11V17H45.2188V8.54688H46.625L46.6484 9.52344C47.1224 8.76823 47.7943 8.39062 48.6641 8.39062C48.9453 8.39062 49.1589 8.42708 49.3047 8.5V9.84375ZM50.1328 12.7031C50.1328 11.4062 50.4401 10.3646 51.0547 9.57812C51.6693 8.78646 52.474 8.39062 53.4688 8.39062C54.4583 8.39062 55.2422 8.72917 55.8203 9.40625V5H57.2656V17H55.9375L55.8672 16.0938C55.2891 16.8021 54.4844 17.1562 53.4531 17.1562C52.474 17.1562 51.6745 16.7552 51.0547 15.9531C50.4401 15.151 50.1328 14.1042 50.1328 12.8125V12.7031ZM51.5781 12.8672C51.5781 13.8255 51.776 14.5755 52.1719 15.1172C52.5677 15.6589 53.1146 15.9297 53.8125 15.9297C54.7292 15.9297 55.3984 15.5182 55.8203 14.6953V10.8125C55.388 10.0156 54.724 9.61719 53.8281 9.61719C53.1198 9.61719 52.5677 9.89062 52.1719 10.4375C51.776 10.9844 51.5781 11.7943 51.5781 12.8672ZM64.4375 14.7578C64.4375 14.3672 64.2891 14.0651 63.9922 13.8516C63.7005 13.6328 63.1875 13.4453 62.4531 13.2891C61.724 13.1328 61.1432 12.9453 60.7109 12.7266C60.2839 12.5078 59.9661 12.2474 59.7578 11.9453C59.5547 11.6432 59.4531 11.2839 59.4531 10.8672C59.4531 10.1745 59.7448 9.58854 60.3281 9.10938C60.9167 8.63021 61.6667 8.39062 62.5781 8.39062C63.5365 8.39062 64.3125 8.63802 64.9062 9.13281C65.5052 9.6276 65.8047 10.2604 65.8047 11.0312H64.3516C64.3516 10.6354 64.1823 10.2943 63.8438 10.0078C63.5104 9.72135 63.0885 9.57812 62.5781 9.57812C62.0521 9.57812 61.6406 9.69271 61.3438 9.92188C61.0469 10.151 60.8984 10.4505 60.8984 10.8203C60.8984 11.1693 61.0365 11.4323 61.3125 11.6094C61.5885 11.7865 62.0859 11.9557 62.8047 12.1172C63.5286 12.2786 64.1146 12.4714 64.5625 12.6953C65.0104 12.9193 65.3411 13.1901 65.5547 13.5078C65.7734 13.8203 65.8828 14.2031 65.8828 14.6562C65.8828 15.4115 65.5807 16.0182 64.9766 16.4766C64.3724 16.9297 63.5885 17.1562 62.625 17.1562C61.9479 17.1562 61.349 17.0365 60.8281 16.7969C60.3073 16.5573 59.8984 16.224 59.6016 15.7969C59.3099 15.3646 59.1641 14.8984 59.1641 14.3984H60.6094C60.6354 14.8828 60.8281 15.2682 61.1875 15.5547C61.5521 15.8359 62.0312 15.9766 62.625 15.9766C63.1719 15.9766 63.6094 15.8672 63.9375 15.6484C64.2708 15.4245 64.4375 15.1276 64.4375 14.7578Z" fill="#AFABCA"/>
<path d="M10.5992 16.8666V15.5333C10.5992 15.4256 10.5343 15.3283 10.4346 15.2869C10.3349 15.2459 10.2205 15.2685 10.144 15.3448L9.61059 15.8781C9.50631 15.9824 9.50631 16.1509 9.61059 16.2552C9.7146 16.3595 9.88341 16.3595 9.98767 16.2552L10.0658 16.1771V16.8666C9.91832 16.8666 9.79913 16.9861 9.79913 17.1333C9.79913 17.2805 9.91832 17.3999 10.0658 17.3999H10.5992C10.7463 17.3999 10.8658 17.2805 10.8658 17.1333C10.8658 16.9861 10.7464 16.8666 10.5992 16.8666Z" fill="#AFABCA"/>
<path d="M3.39935 8.33385V7.00055C3.39935 6.89283 3.33454 6.79549 3.23454 6.75415C3.13481 6.71281 3.0204 6.73574 2.94412 6.81202L2.41079 7.34535C2.30651 7.44963 2.30651 7.61815 2.41079 7.7224C2.5148 7.82668 2.68361 7.82668 2.78787 7.7224L2.86599 7.64428V8.33385C2.71852 8.33385 2.59933 8.45331 2.59933 8.6005C2.59933 8.74768 2.71852 8.86714 2.86599 8.86714H3.39935C3.54654 8.86714 3.66602 8.74768 3.66602 8.6005C3.66602 8.45331 3.54658 8.33385 3.39935 8.33385Z" fill="#AFABCA"/>
<path d="M10.9782 4.77812L7.94978 3.67579C7.94976 3.67578 7.94973 3.67577 7.94971 3.67576C7.77488 3.61229 7.58749 3.62072 7.42015 3.69902L7.41996 3.69911C7.25206 3.77724 7.12537 3.91555 7.06215 4.08952L7.06081 4.09323L7.06073 4.0932L6.89379 4.50172L6.89367 4.50201C6.82778 4.66183 6.6594 4.75142 6.49321 4.72447L6.49233 4.72433L6.49233 4.72432L4.98588 4.46621L4.98524 4.4661C4.80044 4.4332 4.61502 4.47454 4.46084 4.58189C4.30773 4.68929 4.20597 4.84947 4.17351 5.03378L4.17338 5.03453L4.17337 5.03453L4.09392 5.46643L4.0939 5.46652L3.99555 5.44842L10.9782 4.77812ZM10.9782 4.77812L7.97118 4.24785L7.97116 4.24785C7.77155 4.2127 7.58145 4.34566 7.54651 4.54528M10.9782 4.77812L11.5669 17.6734V17.6667V6.46705C11.5669 6.08123 11.2528 5.76707 10.8669 5.76707H4.73317C4.5304 5.76707 4.3665 5.60277 4.3665 5.40042C4.3665 5.19808 4.5304 5.03378 4.73317 5.03378H8.20458L7.84364 4.97014L7.84363 4.97014C7.64424 4.93496 7.51106 4.74475 7.54651 4.54528M7.54651 4.54528C7.54652 4.5452 7.54654 4.54512 7.54655 4.54505L7.645 4.56261L7.54649 4.5454C7.54649 4.54536 7.5465 4.54532 7.54651 4.54528ZM12.3003 16.1498V6.46705C12.3003 6.19109 12.2198 5.93515 12.0838 5.71771L13.388 5.94767L13.3881 5.94768C13.7681 6.01462 14.023 6.37847 13.9563 6.75845L12.3003 16.1498ZM12.3003 16.1498L13.9563 6.75853L12.3003 16.1498ZM12.9341 16.7765L16.3251 7.46117L12.9341 16.7765ZM12.9341 16.7765L14.6783 6.88575L14.6783 6.88571C14.7273 6.60737 14.6903 6.3346 14.589 6.09221L15.9113 6.57355C16.2695 6.70397 16.4553 7.10228 16.3251 7.46109L12.9341 16.7765ZM16.1619 5.88457L16.1618 5.88456L8.20056 2.98653L8.20054 2.98652C7.84279 2.8564 7.45477 2.87361 7.11022 3.03438C6.7661 3.19471 6.50407 3.47966 6.37724 3.82713L6.32641 3.9518L5.11152 3.74357C5.11146 3.74356 5.11139 3.74355 5.11132 3.74354C4.73439 3.67744 4.35403 3.76178 4.04061 3.98118C3.72698 4.20055 3.5175 4.52952 3.45148 4.90439C3.45146 4.9045 3.45144 4.90461 3.45143 4.90471L3.42786 5.03375H2.33338C1.54295 5.03375 0.9 5.67662 0.9 6.46705V17.6667C0.9 18.4571 1.54292 19.1 2.33338 19.1H10.867H11.1336H11.4003C11.7657 19.1 12.1412 19.0738 12.4633 18.9438C12.7909 18.8116 13.0603 18.5731 13.2106 18.1607L13.2106 18.1606L17.0142 7.71162L17.0142 7.71158C17.2826 6.97305 16.9004 6.15361 16.1619 5.88457Z" fill="#AFABCA" stroke="#AFABCA" stroke-width="0.2"/>
<path d="M7.93933 10.6828C7.53851 10.358 7.12412 10.022 6.82865 9.52973C6.73236 9.3692 6.46782 9.3692 6.37129 9.52973C6.06728 10.0366 5.68168 10.378 5.3086 10.7078C4.73846 11.2123 4.20004 11.6888 4.20004 12.6003C4.20004 13.3355 4.79818 13.9336 5.53342 13.9336C5.89103 13.9336 6.14091 13.8397 6.33345 13.6885V14.4669C6.33345 14.6141 6.45264 14.7336 6.60011 14.7336C6.7473 14.7336 6.86677 14.6141 6.86677 14.4669V13.6885C7.05906 13.8397 7.30919 13.9336 7.66679 13.9336C8.32763 13.9336 8.8367 13.4427 8.99483 12.6526C9.18684 11.6937 8.55266 11.1798 7.93933 10.6828ZM8.47188 12.548C8.43188 12.748 8.25559 13.4003 7.66679 13.4003C7.23078 13.4003 7.09131 13.2534 6.83849 12.7478C6.82596 12.723 6.80996 12.7014 6.79102 12.6824C6.78702 12.6779 6.78168 12.675 6.77743 12.6707C6.75849 12.6539 6.73824 12.6403 6.71583 12.6294C6.70811 12.6257 6.70064 12.6222 6.69236 12.619C6.66302 12.608 6.63236 12.6003 6.60008 12.6003C6.5678 12.6003 6.53689 12.608 6.50779 12.619C6.49951 12.6222 6.49179 12.6256 6.48407 12.6294C6.46167 12.6403 6.44142 12.6539 6.42301 12.6707C6.4182 12.675 6.41314 12.6779 6.40889 12.6824C6.39023 12.7016 6.3737 12.723 6.36142 12.7478C6.1086 13.2534 5.96912 13.4003 5.53339 13.4003C5.09204 13.4003 4.73337 13.0414 4.73337 12.6003C4.73337 11.9292 5.12297 11.5844 5.66221 11.1073C5.96675 10.8377 6.30329 10.5399 6.60252 10.1404C6.91052 10.5353 7.27425 10.8302 7.60336 11.0972C8.25853 11.6281 8.59482 11.9339 8.47188 12.548Z" fill="#AFABCA"/>
</svg>
