<svg width="113" height="24" viewBox="0 0 113 24" fill="none" xmlns="http://www.w3.org/2000/svg">
<path d="M35.5938 11.9766H30.8203V17H29.3203V5.625H36.3672V6.85938H30.8203V10.75H35.5938V11.9766ZM39.5078 17H38.0625V8.54688H39.5078V17ZM37.9453 6.30469C37.9453 6.07031 38.0156 5.8724 38.1562 5.71094C38.3021 5.54948 38.5156 5.46875 38.7969 5.46875C39.0781 5.46875 39.2917 5.54948 39.4375 5.71094C39.5833 5.8724 39.6562 6.07031 39.6562 6.30469C39.6562 6.53906 39.5833 6.73438 39.4375 6.89062C39.2917 7.04688 39.0781 7.125 38.7969 7.125C38.5156 7.125 38.3021 7.04688 38.1562 6.89062C38.0156 6.73438 37.9453 6.53906 37.9453 6.30469ZM46.75 14.7578C46.75 14.3672 46.6016 14.0651 46.3047 13.8516C46.013 13.6328 45.5 13.4453 44.7656 13.2891C44.0365 13.1328 43.4557 12.9453 43.0234 12.7266C42.5964 12.5078 42.2786 12.2474 42.0703 11.9453C41.8672 11.6432 41.7656 11.2839 41.7656 10.8672C41.7656 10.1745 42.0573 9.58854 42.6406 9.10938C43.2292 8.63021 43.9792 8.39062 44.8906 8.39062C45.849 8.39062 46.625 8.63802 47.2188 9.13281C47.8177 9.6276 48.1172 10.2604 48.1172 11.0312H46.6641C46.6641 10.6354 46.4948 10.2943 46.1562 10.0078C45.8229 9.72135 45.401 9.57812 44.8906 9.57812C44.3646 9.57812 43.9531 9.69271 43.6562 9.92188C43.3594 10.151 43.2109 10.4505 43.2109 10.8203C43.2109 11.1693 43.349 11.4323 43.625 11.6094C43.901 11.7865 44.3984 11.9557 45.1172 12.1172C45.8411 12.2786 46.4271 12.4714 46.875 12.6953C47.3229 12.9193 47.6536 13.1901 47.8672 13.5078C48.0859 13.8203 48.1953 14.2031 48.1953 14.6562C48.1953 15.4115 47.8932 16.0182 47.2891 16.4766C46.6849 16.9297 45.901 17.1562 44.9375 17.1562C44.2604 17.1562 43.6615 17.0365 43.1406 16.7969C42.6198 16.5573 42.2109 16.224 41.9141 15.7969C41.6224 15.3646 41.4766 14.8984 41.4766 14.3984H42.9219C42.9479 14.8828 43.1406 15.2682 43.5 15.5547C43.8646 15.8359 44.3438 15.9766 44.9375 15.9766C45.4844 15.9766 45.9219 15.8672 46.25 15.6484C46.5833 15.4245 46.75 15.1276 46.75 14.7578ZM51.5234 9.57031C52.1641 8.78385 52.9974 8.39062 54.0234 8.39062C55.8099 8.39062 56.7109 9.39844 56.7266 11.4141V17H55.2812V11.4062C55.276 10.7969 55.1354 10.3464 54.8594 10.0547C54.5885 9.76302 54.1641 9.61719 53.5859 9.61719C53.1172 9.61719 52.7057 9.74219 52.3516 9.99219C51.9974 10.2422 51.7214 10.5703 51.5234 10.9766V17H50.0781V5H51.5234V9.57031ZM71.4844 15.5078C71.099 16.0599 70.5599 16.474 69.8672 16.75C69.1797 17.0208 68.3776 17.1562 67.4609 17.1562C66.5339 17.1562 65.7109 16.9401 64.9922 16.5078C64.2734 16.0703 63.7161 15.4505 63.3203 14.6484C62.9297 13.8464 62.7292 12.9167 62.7188 11.8594V10.8672C62.7188 9.15365 63.1172 7.82552 63.9141 6.88281C64.7161 5.9401 65.8411 5.46875 67.2891 5.46875C68.4766 5.46875 69.4323 5.77344 70.1562 6.38281C70.8802 6.98698 71.3229 7.84635 71.4844 8.96094H69.9844C69.7031 7.45573 68.8073 6.70312 67.2969 6.70312C66.2917 6.70312 65.5286 7.05729 65.0078 7.76562C64.4922 8.46875 64.2318 9.48958 64.2266 10.8281V11.7578C64.2266 13.0339 64.5182 14.0495 65.1016 14.8047C65.6849 15.5547 66.474 15.9297 67.4688 15.9297C68.0312 15.9297 68.5234 15.8672 68.9453 15.7422C69.3672 15.6172 69.7161 15.4062 69.9922 15.1094V12.5547H67.3594V11.3359H71.4844V15.5078ZM78.9844 17C78.901 16.8333 78.8333 16.5365 78.7812 16.1094C78.1094 16.8073 77.3073 17.1562 76.375 17.1562C75.5417 17.1562 74.8568 16.9219 74.3203 16.4531C73.7891 15.9792 73.5234 15.3802 73.5234 14.6562C73.5234 13.776 73.8568 13.0938 74.5234 12.6094C75.1953 12.1198 76.138 11.875 77.3516 11.875H78.7578V11.2109C78.7578 10.7057 78.6068 10.3047 78.3047 10.0078C78.0026 9.70573 77.5573 9.55469 76.9688 9.55469C76.4531 9.55469 76.0208 9.6849 75.6719 9.94531C75.3229 10.2057 75.1484 10.5208 75.1484 10.8906H73.6953C73.6953 10.4688 73.8438 10.0625 74.1406 9.67188C74.4427 9.27604 74.849 8.96354 75.3594 8.73438C75.875 8.50521 76.4401 8.39062 77.0547 8.39062C78.0286 8.39062 78.7917 8.63542 79.3438 9.125C79.8958 9.60938 80.1823 10.2786 80.2031 11.1328V15.0234C80.2031 15.7995 80.3021 16.4167 80.5 16.875V17H78.9844ZM76.5859 15.8984C77.0391 15.8984 77.4688 15.7812 77.875 15.5469C78.2812 15.3125 78.5755 15.0078 78.7578 14.6328V12.8984H77.625C75.8542 12.8984 74.9688 13.4167 74.9688 14.4531C74.9688 14.9062 75.1198 15.2604 75.4219 15.5156C75.724 15.7708 76.112 15.8984 76.5859 15.8984ZM83.8281 8.54688L83.8672 9.48438C84.487 8.75521 85.3229 8.39062 86.375 8.39062C87.5573 8.39062 88.362 8.84375 88.7891 9.75C89.0703 9.34375 89.4349 9.01562 89.8828 8.76562C90.3359 8.51562 90.8698 8.39062 91.4844 8.39062C93.3385 8.39062 94.2812 9.3724 94.3125 11.3359V17H92.8672V11.4219C92.8672 10.8177 92.7292 10.3672 92.4531 10.0703C92.1771 9.76823 91.7135 9.61719 91.0625 9.61719C90.526 9.61719 90.0807 9.77865 89.7266 10.1016C89.3724 10.4193 89.1667 10.849 89.1094 11.3906V17H87.6562V11.4609C87.6562 10.2318 87.0547 9.61719 85.8516 9.61719C84.9036 9.61719 84.2552 10.0208 83.9062 10.8281V17H82.4609V8.54688H83.8281ZM100.008 17.1562C98.862 17.1562 97.9297 16.7812 97.2109 16.0312C96.4922 15.276 96.1328 14.2682 96.1328 13.0078V12.7422C96.1328 11.9036 96.2917 11.1562 96.6094 10.5C96.9323 9.83854 97.3802 9.32292 97.9531 8.95312C98.5312 8.57812 99.1562 8.39062 99.8281 8.39062C100.927 8.39062 101.781 8.7526 102.391 9.47656C103 10.2005 103.305 11.237 103.305 12.5859V13.1875H97.5781C97.599 14.0208 97.8411 14.6953 98.3047 15.2109C98.7734 15.7214 99.3672 15.9766 100.086 15.9766C100.596 15.9766 101.029 15.8724 101.383 15.6641C101.737 15.4557 102.047 15.1797 102.312 14.8359L103.195 15.5234C102.487 16.612 101.424 17.1562 100.008 17.1562ZM99.8281 9.57812C99.2448 9.57812 98.7552 9.79167 98.3594 10.2188C97.9635 10.6406 97.7188 11.2344 97.625 12H101.859V11.8906C101.818 11.1562 101.62 10.5885 101.266 10.1875C100.911 9.78125 100.432 9.57812 99.8281 9.57812ZM109.906 14.7578C109.906 14.3672 109.758 14.0651 109.461 13.8516C109.169 13.6328 108.656 13.4453 107.922 13.2891C107.193 13.1328 106.612 12.9453 106.18 12.7266C105.753 12.5078 105.435 12.2474 105.227 11.9453C105.023 11.6432 104.922 11.2839 104.922 10.8672C104.922 10.1745 105.214 9.58854 105.797 9.10938C106.385 8.63021 107.135 8.39062 108.047 8.39062C109.005 8.39062 109.781 8.63802 110.375 9.13281C110.974 9.6276 111.273 10.2604 111.273 11.0312H109.82C109.82 10.6354 109.651 10.2943 109.312 10.0078C108.979 9.72135 108.557 9.57812 108.047 9.57812C107.521 9.57812 107.109 9.69271 106.812 9.92188C106.516 10.151 106.367 10.4505 106.367 10.8203C106.367 11.1693 106.505 11.4323 106.781 11.6094C107.057 11.7865 107.555 11.9557 108.273 12.1172C108.997 12.2786 109.583 12.4714 110.031 12.6953C110.479 12.9193 110.81 13.1901 111.023 13.5078C111.242 13.8203 111.352 14.2031 111.352 14.6562C111.352 15.4115 111.049 16.0182 110.445 16.4766C109.841 16.9297 109.057 17.1562 108.094 17.1562C107.417 17.1562 106.818 17.0365 106.297 16.7969C105.776 16.5573 105.367 16.224 105.07 15.7969C104.779 15.3646 104.633 14.8984 104.633 14.3984H106.078C106.104 14.8828 106.297 15.2682 106.656 15.5547C107.021 15.8359 107.5 15.9766 108.094 15.9766C108.641 15.9766 109.078 15.8672 109.406 15.6484C109.74 15.4245 109.906 15.1276 109.906 14.7578Z" fill="#AFABCA"/>
<path d="M0.0527935 11.2279C1.71854 8.04732 4.45696 6.10241 7.66662 5.742C9.27581 3.5741 14.3251 3.02489 14.543 3.00227C14.685 2.98664 14.8279 3.0526 14.9149 3.17589C15.0024 3.29831 15.024 3.4606 14.9719 3.60426C14.4768 4.97492 13.9697 6.53395 13.8355 7.17178C14.7524 7.61932 15.5538 8.09523 16.0705 8.49182C17.1912 6.57949 19.4787 6.55562 19.5833 6.55562C19.8136 6.55562 20 6.75441 20 7.00007C20 9.57514 19.1585 10.8677 18.5958 11.4445C19.1585 12.0213 20 13.3138 20 15.8889C20 16.1346 19.8136 16.3333 19.5833 16.3333C19.4787 16.3333 17.1911 16.3095 16.0705 14.3972C15.3841 14.9241 14.1972 15.5904 12.9002 16.1443C13.1868 16.6387 13.3333 17.4252 13.3333 18.5555C13.3333 18.8012 13.1469 19 12.9166 19C12.7927 19 9.95925 18.9738 8.54815 17.2082C4.95946 17.1343 1.86929 15.1294 0.0527935 11.661C-0.0175972 11.5265 -0.0175972 11.3625 0.0527935 11.2279ZM13.949 3.9758C12.5489 4.19197 10.2504 4.7238 8.95151 5.67575C10.1492 5.72567 11.6773 6.20866 13.0626 6.81474C13.247 6.0335 13.6563 4.81296 13.949 3.9758ZM12.4902 18.0855C12.4347 16.8492 12.1673 16.5333 12.0923 16.4686C11.2803 16.7726 10.4577 17.0142 9.71069 17.1354C10.6146 17.8138 11.8467 18.0249 12.4902 18.0855ZM12.1407 16.4523L12.1405 16.4511C12.1394 16.4515 12.1382 16.4518 12.1371 16.4523C12.1395 16.4519 12.1382 16.4526 12.1407 16.4523ZM8.74995 16.3333C11.1848 16.3333 15.166 14.201 15.9033 13.3963C15.9822 13.3099 16.0901 13.2626 16.2012 13.2626C16.2264 13.2626 16.252 13.2652 16.2772 13.27C16.4136 13.2969 16.5287 13.395 16.5837 13.5308C17.146 14.9219 18.4684 15.3016 19.1557 15.4054C19.0255 12.6202 17.7897 11.8759 17.7262 11.8399C17.5891 11.7648 17.5045 11.6133 17.5024 11.4488C17.5004 11.2826 17.5879 11.1277 17.7258 11.0495C17.7816 11.0179 19.0247 10.2787 19.1557 7.4862C18.4689 7.5934 17.1415 7.97882 16.5837 9.35814C16.5287 9.49398 16.4136 9.5921 16.2772 9.61897C16.1397 9.64631 16.0001 9.59856 15.9033 9.49268C15.166 8.68798 11.1848 6.55562 8.74995 6.55562C5.46012 6.55562 2.61058 8.33382 0.896704 11.4445C2.61058 14.5552 5.46012 16.3333 8.74995 16.3333Z" fill="#AFABCA"/>
<path d="M7.49993 11.4444C7.49993 9.39928 6.74348 8.14666 6.73575 8.13408C6.60961 7.9292 6.6625 7.65404 6.85375 7.51862C7.045 7.38408 7.30297 7.43921 7.42993 7.64233C7.46696 7.70137 8.33325 9.11453 8.33325 11.4444C8.33325 13.7743 7.46696 15.1874 7.42993 15.2464C7.34977 15.3749 7.2175 15.4444 7.08286 15.4444C7.00352 15.4444 6.92336 15.4201 6.85215 15.3697C6.66051 15.2334 6.60883 14.9578 6.73661 14.7534C6.7443 14.7413 7.49993 13.5082 7.49993 11.4444Z" fill="#AFABCA"/>
<path d="M8.52038 7.51887C8.71202 7.38433 8.96921 7.43945 9.09655 7.64258C9.13358 7.70157 9.99988 9.11477 9.99988 11.4446C9.99988 12.689 9.74843 13.6668 9.53722 14.2679C9.47456 14.4463 9.31585 14.5565 9.14698 14.5565C9.09854 14.5565 9.04893 14.5474 9.00089 14.5283C8.78522 14.4424 8.67616 14.1863 8.75674 13.9563C8.9435 13.4237 9.16651 12.5557 9.16651 11.4446C9.16651 9.39948 8.41006 8.14686 8.40233 8.13428C8.27623 7.92945 8.32912 7.65428 8.52038 7.51887Z" fill="#AFABCA"/>
<path d="M4.99993 10.9999C4.5397 10.9999 4.1666 10.6019 4.1666 10.111C4.1666 9.62013 4.5397 9.22217 4.99993 9.22217C5.46016 9.22217 5.83325 9.62013 5.83325 10.111C5.83325 10.6019 5.46016 10.9999 4.99993 10.9999Z" fill="#AFABCA"/>
</svg>
