<svg width="54" height="24" viewBox="0 0 54 24" fill="none" xmlns="http://www.w3.org/2000/svg">
<path d="M27.8281 15.7734H33.2188V17H26.3203V5.625H27.8281V15.7734ZM36.2734 17H34.8281V8.54688H36.2734V17ZM34.7109 6.30469C34.7109 6.07031 34.7812 5.8724 34.9219 5.71094C35.0677 5.54948 35.2812 5.46875 35.5625 5.46875C35.8438 5.46875 36.0573 5.54948 36.2031 5.71094C36.349 5.8724 36.4219 6.07031 36.4219 6.30469C36.4219 6.53906 36.349 6.73438 36.2031 6.89062C36.0573 7.04688 35.8438 7.125 35.5625 7.125C35.2812 7.125 35.0677 7.04688 34.9219 6.89062C34.7812 6.73438 34.7109 6.53906 34.7109 6.30469ZM41.3828 15.0391L43.4766 8.54688H44.9531L41.9219 17H40.8203L37.7578 8.54688H39.2344L41.3828 15.0391ZM49.7422 17.1562C48.5964 17.1562 47.6641 16.7812 46.9453 16.0312C46.2266 15.276 45.8672 14.2682 45.8672 13.0078V12.7422C45.8672 11.9036 46.026 11.1562 46.3438 10.5C46.6667 9.83854 47.1146 9.32292 47.6875 8.95312C48.2656 8.57812 48.8906 8.39062 49.5625 8.39062C50.6615 8.39062 51.5156 8.7526 52.125 9.47656C52.7344 10.2005 53.0391 11.237 53.0391 12.5859V13.1875H47.3125C47.3333 14.0208 47.5755 14.6953 48.0391 15.2109C48.5078 15.7214 49.1016 15.9766 49.8203 15.9766C50.3307 15.9766 50.763 15.8724 51.1172 15.6641C51.4714 15.4557 51.7812 15.1797 52.0469 14.8359L52.9297 15.5234C52.2214 16.612 51.1589 17.1562 49.7422 17.1562ZM49.5625 9.57812C48.9792 9.57812 48.4896 9.79167 48.0938 10.2188C47.6979 10.6406 47.4531 11.2344 47.3594 12H51.5938V11.8906C51.5521 11.1562 51.3542 10.5885 51 10.1875C50.6458 9.78125 50.1667 9.57812 49.5625 9.57812Z" fill="#AFABCA"/>
<rect x="1" y="9.26086" width="11.8261" height="9.73913" stroke="#AFABCA" stroke-linejoin="round"/>
<path d="M12.8261 12.0435L17 9.26086V19L12.8261 15.8696" stroke="#AFABCA" stroke-linejoin="round"/>
<path d="M4.82611 6.55083C5.52176 5.97112 7.33046 5.15953 9.00002 6.55083" stroke="#AFABCA" stroke-linecap="round" stroke-linejoin="round"/>
<path d="M1.69568 5.35582C3.43481 3.96462 7.2609 0.834197 12.1305 5.35582" stroke="#AFABCA" stroke-linecap="round" stroke-linejoin="round"/>
</svg>
