<svg width="54" height="24" viewBox="0 0 54 24" fill="none" xmlns="http://www.w3.org/2000/svg">
<path d="M24.8281 15.7734H30.2188V17H23.3203V5.625H24.8281V15.7734ZM31.3203 12.6953C31.3203 11.8672 31.4818 11.1224 31.8047 10.4609C32.1328 9.79948 32.5859 9.28906 33.1641 8.92969C33.7474 8.57031 34.4115 8.39062 35.1562 8.39062C36.3073 8.39062 37.237 8.78906 37.9453 9.58594C38.6589 10.3828 39.0156 11.4427 39.0156 12.7656V12.8672C39.0156 13.6901 38.8568 14.4297 38.5391 15.0859C38.2266 15.737 37.776 16.2448 37.1875 16.6094C36.6042 16.974 35.9323 17.1562 35.1719 17.1562C34.026 17.1562 33.0964 16.7578 32.3828 15.9609C31.6745 15.1641 31.3203 14.1094 31.3203 12.7969V12.6953ZM32.7734 12.8672C32.7734 13.8047 32.9896 14.5573 33.4219 15.125C33.8594 15.6927 34.4427 15.9766 35.1719 15.9766C35.9062 15.9766 36.4896 15.6901 36.9219 15.1172C37.3542 14.5391 37.5703 13.7318 37.5703 12.6953C37.5703 11.7682 37.349 11.0182 36.9062 10.4453C36.4688 9.86719 35.8854 9.57812 35.1562 9.57812C34.4427 9.57812 33.8672 9.86198 33.4297 10.4297C32.9922 10.9974 32.7734 11.8099 32.7734 12.8672ZM42.7891 6.5V8.54688H44.3672V9.66406H42.7891V14.9062C42.7891 15.2448 42.8594 15.5 43 15.6719C43.1406 15.8385 43.3802 15.9219 43.7188 15.9219C43.8854 15.9219 44.1146 15.8906 44.4062 15.8281V17C44.026 17.1042 43.6562 17.1562 43.2969 17.1562C42.651 17.1562 42.1641 16.9609 41.8359 16.5703C41.5078 16.1797 41.3438 15.625 41.3438 14.9062V9.66406H39.8047V8.54688H41.3438V6.5H42.7891ZM45.5234 12.6953C45.5234 11.8672 45.6849 11.1224 46.0078 10.4609C46.3359 9.79948 46.7891 9.28906 47.3672 8.92969C47.9505 8.57031 48.6146 8.39062 49.3594 8.39062C50.5104 8.39062 51.4401 8.78906 52.1484 9.58594C52.862 10.3828 53.2188 11.4427 53.2188 12.7656V12.8672C53.2188 13.6901 53.0599 14.4297 52.7422 15.0859C52.4297 15.737 51.9792 16.2448 51.3906 16.6094C50.8073 16.974 50.1354 17.1562 49.375 17.1562C48.2292 17.1562 47.2995 16.7578 46.5859 15.9609C45.8776 15.1641 45.5234 14.1094 45.5234 12.7969V12.6953ZM46.9766 12.8672C46.9766 13.8047 47.1927 14.5573 47.625 15.125C48.0625 15.6927 48.6458 15.9766 49.375 15.9766C50.1094 15.9766 50.6927 15.6901 51.125 15.1172C51.5573 14.5391 51.7734 13.7318 51.7734 12.6953C51.7734 11.7682 51.5521 11.0182 51.1094 10.4453C50.6719 9.86719 50.0885 9.57812 49.3594 9.57812C48.6458 9.57812 48.0703 9.86198 47.6328 10.4297C47.1953 10.9974 46.9766 11.8099 46.9766 12.8672Z" fill="#AFABCA"/>
<mask id="path-2-outside-1" maskUnits="userSpaceOnUse" x="0" y="2" width="15" height="18" fill="black">
<rect fill="white" y="2" width="15" height="18"/>
<path d="M11.6288 14.7358C11.8926 14.5146 12.1405 14.2714 12.3697 14.0075C13.421 12.797 14 11.2394 14 9.62143C14 5.9704 11.0841 3 7.5 3C3.91586 3 1 5.9704 1 9.62131C1 11.2171 1.56505 12.7586 2.59106 13.9619C2.81782 14.2277 3.06379 14.4733 3.32584 14.6969L1.52219 18.5523C1.47681 18.6493 1.48342 18.7631 1.53972 18.854C1.59602 18.945 1.69409 19 1.79961 19H3.08744C3.17747 19 3.26282 18.9595 3.32128 18.8897C3.37962 18.82 3.40495 18.7273 3.39079 18.6367C3.36582 18.4772 3.22573 18.3657 3.07159 18.3739H2.28639L3.82559 15.084C3.83639 15.0916 3.84743 15.0987 3.85836 15.1062C4.39531 15.4766 4.98701 15.7652 5.60763 15.9572C5.7889 16.0133 5.97269 16.0614 6.15815 16.1011C6.16956 16.1036 6.18084 16.1063 6.19225 16.1087L5.99189 16.8784H5.27787C5.10813 16.8784 4.97056 17.0185 4.97056 17.1914C4.97056 17.3643 5.10813 17.5045 5.27787 17.5045H9.58492C9.75466 17.5045 9.89223 17.3643 9.89223 17.1914C9.89223 17.0185 9.75466 16.8784 9.58492 16.8784H8.8805L8.68975 16.1321C8.70056 16.1301 8.71124 16.1277 8.72204 16.1256C9.38168 15.9976 10.0209 15.764 10.6104 15.4364C10.776 15.3444 10.9374 15.2448 11.0946 15.1385C11.1048 15.1315 11.1152 15.1249 11.1254 15.118L12.6121 18.3739H5.87821C5.87317 18.3737 5.86813 18.3735 5.86297 18.3735C5.69322 18.3735 5.55565 18.514 5.55565 18.687C5.55565 18.8599 5.69322 19 5.86297 19H13.0939C13.1989 19 13.2967 18.9455 13.3531 18.8552C13.4095 18.7651 13.4168 18.6519 13.3727 18.5549L11.6288 14.7358ZM3.05515 13.5513C2.12613 12.462 1.61462 11.0663 1.61462 9.62131C1.61462 6.31561 4.25474 3.62609 7.5 3.62609C10.7453 3.62609 13.3854 6.31561 13.3854 9.62131C13.3854 11.0864 12.8611 12.4967 11.9093 13.5926C11.6465 13.8951 11.3565 14.1676 11.0446 14.4076C10.493 14.8322 9.86786 15.1567 9.20606 15.3606C9.01915 15.4182 8.82948 15.4666 8.63789 15.5048C8.60344 15.5116 8.56887 15.5176 8.53442 15.5238L8.39565 14.9806C9.91912 14.6992 11.2678 13.7392 12.0507 12.3607C12.0515 12.3594 12.0522 12.3578 12.0529 12.3564C12.5171 11.5376 12.7625 10.6029 12.7625 9.65286C12.7625 8.701 12.5163 7.76455 12.0505 6.94464C12.0505 6.94451 12.0504 6.94439 12.0503 6.94427C11.5913 6.13646 10.9316 5.45889 10.1422 4.98491C9.32838 4.49627 8.39637 4.238 7.44682 4.238C6.49728 4.238 5.56526 4.49627 4.7516 4.98491C3.96196 5.45889 3.30208 6.13658 2.84315 6.94451C2.84315 6.94464 2.84303 6.94464 2.84291 6.94476C2.3775 7.76467 2.13141 8.70112 2.13141 9.65286C2.13141 10.6044 2.3775 11.5407 2.84291 12.3606C2.84315 12.3611 2.84351 12.3613 2.84363 12.3618C3.62451 13.7356 4.9684 14.6943 6.48647 14.9784L6.35034 15.5017C6.32261 15.4961 6.295 15.4908 6.26751 15.4848C5.64473 15.3495 5.04247 15.1098 4.49567 14.7772C4.33997 14.6825 4.18824 14.5813 4.04154 14.4727C3.99833 14.4408 3.95571 14.408 3.91346 14.3749C3.60315 14.1318 3.31528 13.8564 3.05515 13.5513ZM6.62788 16.8784L7.44418 13.7431L8.24547 16.8784H6.62788ZM7.75425 12.4708V11.5434C8.2025 11.4672 8.61112 11.2268 8.90043 10.8693L11.3559 12.3133C10.639 13.4029 9.50569 14.1528 8.24043 14.3733L7.75425 12.4708ZM11.6636 11.7713L9.20798 10.3273C9.28697 10.1128 9.32802 9.8841 9.32802 9.65286C9.32802 9.42162 9.28697 9.19295 9.20798 8.97846L11.6636 7.53417C11.9811 8.18973 12.1478 8.91598 12.1478 9.65286C12.1478 10.3895 11.9811 11.1156 11.6636 11.7713ZM8.90019 8.43638C8.611 8.07894 8.20226 7.83853 7.75413 7.76247V4.87425C8.48676 4.92292 9.19874 5.14511 9.83005 5.52419C10.4401 5.89055 10.9627 6.39424 11.3558 6.9922L8.90019 8.43638ZM8.54402 9.00781C8.69503 9.2514 8.74125 9.57117 8.69828 9.8523C8.65662 10.1245 8.52829 10.3792 8.33526 10.5721C7.97717 10.93 7.43158 11.0408 6.96713 10.8465C6.4663 10.6368 6.14435 10.1117 6.18336 9.56029C6.22142 9.02261 6.59607 8.55707 7.10482 8.41094C7.59027 8.2713 8.12435 8.44897 8.4385 8.85043C8.47752 8.90008 8.51269 8.95278 8.54402 9.00781ZM7.13951 7.76247C6.69127 7.83865 6.28252 8.07894 5.99333 8.4365L3.53784 6.9922C3.93086 6.39424 4.45353 5.89055 5.06372 5.52419C5.69502 5.14523 6.407 4.92304 7.13951 4.87425V7.76247ZM3.23017 7.53417L5.68566 8.97846C5.60655 9.19295 5.5655 9.42162 5.5655 9.65286C5.5655 9.88398 5.60655 10.1126 5.68566 10.3271L3.23017 11.7712C2.91265 11.1155 2.74603 10.3894 2.74603 9.65286C2.74603 8.9161 2.91265 8.18985 3.23017 7.53417ZM5.99345 10.8693C6.28264 11.2268 6.69139 11.4672 7.13963 11.5434V12.4693L6.64445 14.3717C5.38303 14.1492 4.25306 13.4 3.53796 12.3133L5.99345 10.8693Z"/>
</mask>
<path d="M11.6288 14.7358C11.8926 14.5146 12.1405 14.2714 12.3697 14.0075C13.421 12.797 14 11.2394 14 9.62143C14 5.9704 11.0841 3 7.5 3C3.91586 3 1 5.9704 1 9.62131C1 11.2171 1.56505 12.7586 2.59106 13.9619C2.81782 14.2277 3.06379 14.4733 3.32584 14.6969L1.52219 18.5523C1.47681 18.6493 1.48342 18.7631 1.53972 18.854C1.59602 18.945 1.69409 19 1.79961 19H3.08744C3.17747 19 3.26282 18.9595 3.32128 18.8897C3.37962 18.82 3.40495 18.7273 3.39079 18.6367C3.36582 18.4772 3.22573 18.3657 3.07159 18.3739H2.28639L3.82559 15.084C3.83639 15.0916 3.84743 15.0987 3.85836 15.1062C4.39531 15.4766 4.98701 15.7652 5.60763 15.9572C5.7889 16.0133 5.97269 16.0614 6.15815 16.1011C6.16956 16.1036 6.18084 16.1063 6.19225 16.1087L5.99189 16.8784H5.27787C5.10813 16.8784 4.97056 17.0185 4.97056 17.1914C4.97056 17.3643 5.10813 17.5045 5.27787 17.5045H9.58492C9.75466 17.5045 9.89223 17.3643 9.89223 17.1914C9.89223 17.0185 9.75466 16.8784 9.58492 16.8784H8.8805L8.68975 16.1321C8.70056 16.1301 8.71124 16.1277 8.72204 16.1256C9.38168 15.9976 10.0209 15.764 10.6104 15.4364C10.776 15.3444 10.9374 15.2448 11.0946 15.1385C11.1048 15.1315 11.1152 15.1249 11.1254 15.118L12.6121 18.3739H5.87821C5.87317 18.3737 5.86813 18.3735 5.86297 18.3735C5.69322 18.3735 5.55565 18.514 5.55565 18.687C5.55565 18.8599 5.69322 19 5.86297 19H13.0939C13.1989 19 13.2967 18.9455 13.3531 18.8552C13.4095 18.7651 13.4168 18.6519 13.3727 18.5549L11.6288 14.7358ZM3.05515 13.5513C2.12613 12.462 1.61462 11.0663 1.61462 9.62131C1.61462 6.31561 4.25474 3.62609 7.5 3.62609C10.7453 3.62609 13.3854 6.31561 13.3854 9.62131C13.3854 11.0864 12.8611 12.4967 11.9093 13.5926C11.6465 13.8951 11.3565 14.1676 11.0446 14.4076C10.493 14.8322 9.86786 15.1567 9.20606 15.3606C9.01915 15.4182 8.82948 15.4666 8.63789 15.5048C8.60344 15.5116 8.56887 15.5176 8.53442 15.5238L8.39565 14.9806C9.91912 14.6992 11.2678 13.7392 12.0507 12.3607C12.0515 12.3594 12.0522 12.3578 12.0529 12.3564C12.5171 11.5376 12.7625 10.6029 12.7625 9.65286C12.7625 8.701 12.5163 7.76455 12.0505 6.94464C12.0505 6.94451 12.0504 6.94439 12.0503 6.94427C11.5913 6.13646 10.9316 5.45889 10.1422 4.98491C9.32838 4.49627 8.39637 4.238 7.44682 4.238C6.49728 4.238 5.56526 4.49627 4.7516 4.98491C3.96196 5.45889 3.30208 6.13658 2.84315 6.94451C2.84315 6.94464 2.84303 6.94464 2.84291 6.94476C2.3775 7.76467 2.13141 8.70112 2.13141 9.65286C2.13141 10.6044 2.3775 11.5407 2.84291 12.3606C2.84315 12.3611 2.84351 12.3613 2.84363 12.3618C3.62451 13.7356 4.9684 14.6943 6.48647 14.9784L6.35034 15.5017C6.32261 15.4961 6.295 15.4908 6.26751 15.4848C5.64473 15.3495 5.04247 15.1098 4.49567 14.7772C4.33997 14.6825 4.18824 14.5813 4.04154 14.4727C3.99833 14.4408 3.95571 14.408 3.91346 14.3749C3.60315 14.1318 3.31528 13.8564 3.05515 13.5513ZM6.62788 16.8784L7.44418 13.7431L8.24547 16.8784H6.62788ZM7.75425 12.4708V11.5434C8.2025 11.4672 8.61112 11.2268 8.90043 10.8693L11.3559 12.3133C10.639 13.4029 9.50569 14.1528 8.24043 14.3733L7.75425 12.4708ZM11.6636 11.7713L9.20798 10.3273C9.28697 10.1128 9.32802 9.8841 9.32802 9.65286C9.32802 9.42162 9.28697 9.19295 9.20798 8.97846L11.6636 7.53417C11.9811 8.18973 12.1478 8.91598 12.1478 9.65286C12.1478 10.3895 11.9811 11.1156 11.6636 11.7713ZM8.90019 8.43638C8.611 8.07894 8.20226 7.83853 7.75413 7.76247V4.87425C8.48676 4.92292 9.19874 5.14511 9.83005 5.52419C10.4401 5.89055 10.9627 6.39424 11.3558 6.9922L8.90019 8.43638ZM8.54402 9.00781C8.69503 9.2514 8.74125 9.57117 8.69828 9.8523C8.65662 10.1245 8.52829 10.3792 8.33526 10.5721C7.97717 10.93 7.43158 11.0408 6.96713 10.8465C6.4663 10.6368 6.14435 10.1117 6.18336 9.56029C6.22142 9.02261 6.59607 8.55707 7.10482 8.41094C7.59027 8.2713 8.12435 8.44897 8.4385 8.85043C8.47752 8.90008 8.51269 8.95278 8.54402 9.00781ZM7.13951 7.76247C6.69127 7.83865 6.28252 8.07894 5.99333 8.4365L3.53784 6.9922C3.93086 6.39424 4.45353 5.89055 5.06372 5.52419C5.69502 5.14523 6.407 4.92304 7.13951 4.87425V7.76247ZM3.23017 7.53417L5.68566 8.97846C5.60655 9.19295 5.5655 9.42162 5.5655 9.65286C5.5655 9.88398 5.60655 10.1126 5.68566 10.3271L3.23017 11.7712C2.91265 11.1155 2.74603 10.3894 2.74603 9.65286C2.74603 8.9161 2.91265 8.18985 3.23017 7.53417ZM5.99345 10.8693C6.28264 11.2268 6.69139 11.4672 7.13963 11.5434V12.4693L6.64445 14.3717C5.38303 14.1492 4.25306 13.4 3.53796 12.3133L5.99345 10.8693Z" fill="#AFABCA"/>
<path d="M11.6288 14.7358C11.8926 14.5146 12.1405 14.2714 12.3697 14.0075C13.421 12.797 14 11.2394 14 9.62143C14 5.9704 11.0841 3 7.5 3C3.91586 3 1 5.9704 1 9.62131C1 11.2171 1.56505 12.7586 2.59106 13.9619C2.81782 14.2277 3.06379 14.4733 3.32584 14.6969L1.52219 18.5523C1.47681 18.6493 1.48342 18.7631 1.53972 18.854C1.59602 18.945 1.69409 19 1.79961 19H3.08744C3.17747 19 3.26282 18.9595 3.32128 18.8897C3.37962 18.82 3.40495 18.7273 3.39079 18.6367C3.36582 18.4772 3.22573 18.3657 3.07159 18.3739H2.28639L3.82559 15.084C3.83639 15.0916 3.84743 15.0987 3.85836 15.1062C4.39531 15.4766 4.98701 15.7652 5.60763 15.9572C5.7889 16.0133 5.97269 16.0614 6.15815 16.1011C6.16956 16.1036 6.18084 16.1063 6.19225 16.1087L5.99189 16.8784H5.27787C5.10813 16.8784 4.97056 17.0185 4.97056 17.1914C4.97056 17.3643 5.10813 17.5045 5.27787 17.5045H9.58492C9.75466 17.5045 9.89223 17.3643 9.89223 17.1914C9.89223 17.0185 9.75466 16.8784 9.58492 16.8784H8.8805L8.68975 16.1321C8.70056 16.1301 8.71124 16.1277 8.72204 16.1256C9.38168 15.9976 10.0209 15.764 10.6104 15.4364C10.776 15.3444 10.9374 15.2448 11.0946 15.1385C11.1048 15.1315 11.1152 15.1249 11.1254 15.118L12.6121 18.3739H5.87821C5.87317 18.3737 5.86813 18.3735 5.86297 18.3735C5.69322 18.3735 5.55565 18.514 5.55565 18.687C5.55565 18.8599 5.69322 19 5.86297 19H13.0939C13.1989 19 13.2967 18.9455 13.3531 18.8552C13.4095 18.7651 13.4168 18.6519 13.3727 18.5549L11.6288 14.7358ZM3.05515 13.5513C2.12613 12.462 1.61462 11.0663 1.61462 9.62131C1.61462 6.31561 4.25474 3.62609 7.5 3.62609C10.7453 3.62609 13.3854 6.31561 13.3854 9.62131C13.3854 11.0864 12.8611 12.4967 11.9093 13.5926C11.6465 13.8951 11.3565 14.1676 11.0446 14.4076C10.493 14.8322 9.86786 15.1567 9.20606 15.3606C9.01915 15.4182 8.82948 15.4666 8.63789 15.5048C8.60344 15.5116 8.56887 15.5176 8.53442 15.5238L8.39565 14.9806C9.91912 14.6992 11.2678 13.7392 12.0507 12.3607C12.0515 12.3594 12.0522 12.3578 12.0529 12.3564C12.5171 11.5376 12.7625 10.6029 12.7625 9.65286C12.7625 8.701 12.5163 7.76455 12.0505 6.94464C12.0505 6.94451 12.0504 6.94439 12.0503 6.94427C11.5913 6.13646 10.9316 5.45889 10.1422 4.98491C9.32838 4.49627 8.39637 4.238 7.44682 4.238C6.49728 4.238 5.56526 4.49627 4.7516 4.98491C3.96196 5.45889 3.30208 6.13658 2.84315 6.94451C2.84315 6.94464 2.84303 6.94464 2.84291 6.94476C2.3775 7.76467 2.13141 8.70112 2.13141 9.65286C2.13141 10.6044 2.3775 11.5407 2.84291 12.3606C2.84315 12.3611 2.84351 12.3613 2.84363 12.3618C3.62451 13.7356 4.9684 14.6943 6.48647 14.9784L6.35034 15.5017C6.32261 15.4961 6.295 15.4908 6.26751 15.4848C5.64473 15.3495 5.04247 15.1098 4.49567 14.7772C4.33997 14.6825 4.18824 14.5813 4.04154 14.4727C3.99833 14.4408 3.95571 14.408 3.91346 14.3749C3.60315 14.1318 3.31528 13.8564 3.05515 13.5513ZM6.62788 16.8784L7.44418 13.7431L8.24547 16.8784H6.62788ZM7.75425 12.4708V11.5434C8.2025 11.4672 8.61112 11.2268 8.90043 10.8693L11.3559 12.3133C10.639 13.4029 9.50569 14.1528 8.24043 14.3733L7.75425 12.4708ZM11.6636 11.7713L9.20798 10.3273C9.28697 10.1128 9.32802 9.8841 9.32802 9.65286C9.32802 9.42162 9.28697 9.19295 9.20798 8.97846L11.6636 7.53417C11.9811 8.18973 12.1478 8.91598 12.1478 9.65286C12.1478 10.3895 11.9811 11.1156 11.6636 11.7713ZM8.90019 8.43638C8.611 8.07894 8.20226 7.83853 7.75413 7.76247V4.87425C8.48676 4.92292 9.19874 5.14511 9.83005 5.52419C10.4401 5.89055 10.9627 6.39424 11.3558 6.9922L8.90019 8.43638ZM8.54402 9.00781C8.69503 9.2514 8.74125 9.57117 8.69828 9.8523C8.65662 10.1245 8.52829 10.3792 8.33526 10.5721C7.97717 10.93 7.43158 11.0408 6.96713 10.8465C6.4663 10.6368 6.14435 10.1117 6.18336 9.56029C6.22142 9.02261 6.59607 8.55707 7.10482 8.41094C7.59027 8.2713 8.12435 8.44897 8.4385 8.85043C8.47752 8.90008 8.51269 8.95278 8.54402 9.00781ZM7.13951 7.76247C6.69127 7.83865 6.28252 8.07894 5.99333 8.4365L3.53784 6.9922C3.93086 6.39424 4.45353 5.89055 5.06372 5.52419C5.69502 5.14523 6.407 4.92304 7.13951 4.87425V7.76247ZM3.23017 7.53417L5.68566 8.97846C5.60655 9.19295 5.5655 9.42162 5.5655 9.65286C5.5655 9.88398 5.60655 10.1126 5.68566 10.3271L3.23017 11.7712C2.91265 11.1155 2.74603 10.3894 2.74603 9.65286C2.74603 8.9161 2.91265 8.18985 3.23017 7.53417ZM5.99345 10.8693C6.28264 11.2268 6.69139 11.4672 7.13963 11.5434V12.4693L6.64445 14.3717C5.38303 14.1492 4.25306 13.4 3.53796 12.3133L5.99345 10.8693Z" stroke="#AFABCA" stroke-width="0.2" mask="url(#path-2-outside-1)"/>
</svg>
