<svg width="41" height="12" viewBox="0 0 41 12" fill="none" xmlns="http://www.w3.org/2000/svg">
<path d="M4.77148 1.04688L5.72168 7.95117L9.05762 1.04688H12.1748L10.4521 11H8.10059L8.52441 8.55957L9.53613 4.06152L6.0498 11H4.49805L3.37012 3.80176L2.74121 8.79199L2.35156 11H0.0136719L1.73633 1.04688H4.77148ZM16.7986 11.1367C15.7641 11.1139 14.9347 10.7721 14.3104 10.1113C13.686 9.45052 13.3328 8.56641 13.2508 7.45898C13.2052 6.91211 13.2485 6.26953 13.3807 5.53125C13.5128 4.78841 13.7475 4.10482 14.0848 3.48047C14.422 2.85612 14.8436 2.33659 15.3494 1.92188C16.1971 1.22461 17.1723 0.88737 18.2752 0.910156C18.9542 0.923828 19.5467 1.08105 20.0525 1.38184C20.563 1.67806 20.9708 2.10645 21.2762 2.66699C21.5815 3.22754 21.7592 3.86556 21.8094 4.58105C21.8458 5.08691 21.8139 5.66341 21.7137 6.31055C21.618 6.95312 21.438 7.56836 21.1736 8.15625C20.9139 8.73958 20.5766 9.25456 20.1619 9.70117C19.7472 10.1478 19.2573 10.5033 18.6922 10.7676C18.1316 11.0273 17.5005 11.1504 16.7986 11.1367ZM19.4646 4.56055C19.4191 3.42122 18.977 2.82878 18.1385 2.7832C17.4913 2.7513 16.9559 3.00879 16.532 3.55566C16.1082 4.09798 15.8279 4.90007 15.6912 5.96191C15.6046 6.61816 15.5727 7.1263 15.5955 7.48633C15.6411 8.64388 16.0877 9.23861 16.9354 9.27051C17.4913 9.29785 17.9699 9.09961 18.3709 8.67578C18.7719 8.2474 19.0613 7.6276 19.2391 6.81641C19.4168 6.00065 19.492 5.2487 19.4646 4.56055ZM27.0895 7.48633H25.7906L25.1754 11H22.8375L24.5602 1.04688L28.0738 1.05371C29.1995 1.05371 30.0654 1.31803 30.6715 1.84668C31.2822 2.37077 31.5556 3.08854 31.4918 4C31.4417 4.72005 31.2343 5.31706 30.8697 5.79102C30.5051 6.26042 29.9947 6.63184 29.3385 6.90527L30.6783 10.8838V11H28.1832L27.0895 7.48633ZM26.1051 5.63379L27.4723 5.64746C27.846 5.64746 28.1695 5.55632 28.443 5.37402C28.721 5.19173 28.9192 4.94336 29.0377 4.62891C29.1562 4.3099 29.1904 4.00228 29.1402 3.70605C29.0491 3.2002 28.7255 2.93359 28.1695 2.90625L26.5836 2.89941L26.1051 5.63379ZM39.1986 6.78223H35.5414L35.1244 9.1543H39.4516L39.1303 11H32.4652L34.1879 1.04688H40.8666L40.5453 2.89941H36.2113L35.8422 4.99805H39.5062L39.1986 6.78223Z" fill="white"/>
</svg>
