<?xml version="1.0" encoding="utf-8"?>
<!-- Generator: Adobe Illustrator 15.0.0, SVG Export Plug-In . SVG Version: 6.00 Build 0)  -->
<!DOCTYPE svg PUBLIC "-//W3C//DTD SVG 1.1//EN" "http://www.w3.org/Graphics/SVG/1.1/DTD/svg11.dtd">
<svg version="1.1" id="Layer_1" xmlns="http://www.w3.org/2000/svg" xmlns:xlink="http://www.w3.org/1999/xlink" x="0px" y="0px"
	 width="110px" height="44px" viewBox="0 0 110 44" enable-background="new 0 0 110 44" xml:space="preserve">
<linearGradient id="SVGID_1_" gradientUnits="userSpaceOnUse" x1="-250.5" y1="396.5" x2="-140.5" y2="396.5">
	<stop  offset="0" style="stop-color:#00FFD1"/>
	<stop  offset="0.3929" style="stop-color:#00B2FF"/>
	<stop  offset="1" style="stop-color:#8F00FF"/>
</linearGradient>
<path fill="#11183A" stroke="url(#SVGID_1_)" stroke-width="2" d="M22,43h66c11.598,0,21-9.402,21-21l0,0c0-11.598-9.402-21-21-21
	H22C10.402,1,1,10.402,1,22l0,0C1,33.598,10.402,43,22,43z"/>
<path fill="#FFFFFF" d="M27.271,17.047l0.95,6.904l3.336-6.904h3.117L32.952,27h-2.352l0.424-2.44l1.012-4.498L28.55,27h-1.552
	l-1.128-7.198l-0.629,4.99L24.852,27h-2.338l1.723-9.953H27.271z M39.299,27.137c-1.035-0.023-1.864-0.365-2.488-1.025
	c-0.625-0.66-0.978-1.545-1.06-2.652c-0.046-0.547-0.002-1.189,0.13-1.928c0.132-0.743,0.367-1.426,0.704-2.051
	c0.337-0.625,0.759-1.144,1.265-1.559c0.848-0.697,1.823-1.035,2.926-1.012c0.679,0.014,1.271,0.171,1.777,0.472
	c0.51,0.296,0.918,0.725,1.224,1.285s0.483,1.199,0.533,1.914c0.036,0.506,0.005,1.083-0.096,1.729
	c-0.096,0.643-0.276,1.258-0.54,1.846c-0.26,0.584-0.597,1.098-1.012,1.545c-0.415,0.447-0.905,0.803-1.47,1.066
	C40.632,27.027,40,27.15,39.299,27.137z M41.965,20.561c-0.046-1.139-0.488-1.732-1.326-1.777c-0.647-0.032-1.183,0.226-1.606,0.772
	c-0.424,0.542-0.704,1.344-0.841,2.406c-0.087,0.656-0.119,1.165-0.096,1.524c0.045,1.158,0.492,1.752,1.34,1.784
	c0.556,0.027,1.034-0.171,1.436-0.595c0.401-0.428,0.69-1.049,0.868-1.859C41.917,22,41.992,21.249,41.965,20.561z M49.59,23.486
	h-1.299L47.676,27h-2.338l1.723-9.953l3.514,0.007c1.125,0,1.991,0.264,2.598,0.793c0.61,0.524,0.884,1.242,0.82,2.153
	c-0.051,0.72-0.258,1.317-0.623,1.791c-0.364,0.469-0.875,0.841-1.531,1.114l1.34,3.979V27h-2.494L49.59,23.486z M48.605,21.634
	l1.367,0.014c0.373,0,0.697-0.091,0.971-0.273c0.277-0.182,0.477-0.431,0.594-0.745c0.119-0.319,0.153-0.626,0.104-0.923
	c-0.092-0.506-0.415-0.772-0.971-0.8l-1.586-0.007L48.605,21.634z M61.699,22.782h-3.658l-0.416,2.372h4.326L61.631,27h-6.666
	l1.723-9.953h6.68l-0.322,1.853h-4.334l-0.369,2.099h3.664L61.699,22.782z"/>
<path fill="#FFFFFF" d="M74,18.943l1.887-1.887L82,23.17l6.113-6.113L90,18.943l-8,8L74,18.943z"/>
</svg>
