<svg width="57" height="24" viewBox="0 0 57 24" fill="none" xmlns="http://www.w3.org/2000/svg">
<path d="M35.0625 17H33.5547L27.8281 8.23438V17H26.3203V5.625H27.8281L33.5703 14.4297V5.625H35.0625V17ZM41.0078 17.1562C39.862 17.1562 38.9297 16.7812 38.2109 16.0312C37.4922 15.276 37.1328 14.2682 37.1328 13.0078V12.7422C37.1328 11.9036 37.2917 11.1562 37.6094 10.5C37.9323 9.83854 38.3802 9.32292 38.9531 8.95312C39.5312 8.57812 40.1562 8.39062 40.8281 8.39062C41.9271 8.39062 42.7812 8.7526 43.3906 9.47656C44 10.2005 44.3047 11.237 44.3047 12.5859V13.1875H38.5781C38.599 14.0208 38.8411 14.6953 39.3047 15.2109C39.7734 15.7214 40.3672 15.9766 41.0859 15.9766C41.5964 15.9766 42.0286 15.8724 42.3828 15.6641C42.737 15.4557 43.0469 15.1797 43.3125 14.8359L44.1953 15.5234C43.487 16.612 42.4245 17.1562 41.0078 17.1562ZM40.8281 9.57812C40.2448 9.57812 39.7552 9.79167 39.3594 10.2188C38.9635 10.6406 38.7188 11.2344 38.625 12H42.8594V11.8906C42.8177 11.1562 42.6198 10.5885 42.2656 10.1875C41.9115 9.78125 41.4323 9.57812 40.8281 9.57812ZM53.4688 15.0078L55.0938 8.54688H56.5391L54.0781 17H52.9062L50.8516 10.5938L48.8516 17H47.6797L45.2266 8.54688H46.6641L48.3281 14.875L50.2969 8.54688H51.4609L53.4688 15.0078Z" fill="#AFABCA"/>
<mask id="path-2-outside-1" maskUnits="userSpaceOnUse" x="0" y="2" width="18" height="18" fill="black">
<rect fill="white" y="2" width="18" height="18"/>
<path d="M16.5534 11L16.9838 9.86115C17.0151 9.7783 17.0004 9.68508 16.945 9.61593L16.1837 8.6658L16.2411 7.44971C16.2453 7.36127 16.2024 7.27711 16.1284 7.22852L15.1109 6.56011L14.7897 5.3858C14.7663 5.30036 14.6996 5.23361 14.6142 5.21027L13.4398 4.88908L12.7714 3.87155C12.7228 3.79752 12.6387 3.75483 12.5502 3.75886L11.3342 3.81624L10.384 3.05502C10.3149 2.99964 10.2217 2.98486 10.1388 3.01618L8.99997 3.44655L7.86119 3.01621C7.77828 2.98486 7.6851 2.99964 7.61597 3.05505L6.66585 3.81627L5.44975 3.75889C5.36088 3.75471 5.27716 3.79758 5.22857 3.87158L4.56019 4.88914L3.38588 5.21033C3.30044 5.23371 3.23369 5.30046 3.21035 5.38586L2.88916 6.56018L1.8716 7.22855C1.79757 7.27718 1.75473 7.3613 1.75891 7.44974L1.81629 8.66583L1.05507 9.61596C0.999697 9.68508 0.984916 9.7783 1.01623 9.86118L1.44657 11L1.0162 12.1388C0.984853 12.2216 0.999635 12.3149 1.05504 12.384L1.81626 13.3341L1.75888 14.5502C1.7547 14.6387 1.79757 14.7228 1.87157 14.7714L2.88913 15.4398L3.21032 16.6141C3.23369 16.6996 3.30044 16.7663 3.38585 16.7897L4.56016 17.1109L5.22854 18.1284C5.27716 18.2025 5.36144 18.245 5.44972 18.2411L6.66582 18.1837L7.61594 18.945C7.68506 19.0004 7.77831 19.0151 7.86116 18.9838L9 18.5534L10.1388 18.9838C10.1676 18.9946 10.1976 19 10.2274 19C10.2835 19 10.3389 18.9811 10.384 18.945L11.3342 18.1837L12.5502 18.2411C12.639 18.2451 12.7228 18.2024 12.7714 18.1284L13.4398 17.1109L14.6142 16.7897C14.6996 16.7663 14.7663 16.6996 14.7897 16.6141L15.1109 15.4398L16.1284 14.7714C16.2025 14.7228 16.2453 14.6387 16.2411 14.5502L16.1837 13.3341L16.945 12.384C17.0003 12.3149 17.0151 12.2217 16.9838 12.1388L16.5534 11ZM16.0513 11.0886L16.4646 12.1823L15.7335 13.0947C15.6954 13.1423 15.6759 13.2022 15.6788 13.2632L15.7339 14.4311L14.7567 15.073C14.7057 15.1065 14.6686 15.1574 14.6526 15.2163L14.3441 16.3441L13.2163 16.6526C13.1575 16.6686 13.1065 16.7057 13.073 16.7567L12.4311 17.7339L11.2632 17.6788C11.2022 17.676 11.1423 17.6954 11.0947 17.7335L10.1823 18.4646L9.08856 18.0513C9.06003 18.0405 9.03 18.0351 9 18.0351C8.97 18.0351 8.93997 18.0405 8.91144 18.0513L7.81772 18.4646L6.90525 17.7335C6.85766 17.6954 6.79766 17.676 6.73682 17.6788L5.56891 17.7339L4.927 16.7567C4.89354 16.7057 4.84257 16.6686 4.78369 16.6526L3.65591 16.3441L3.34744 15.2163C3.33135 15.1575 3.29432 15.1065 3.24332 15.073L2.2661 14.4311L2.32123 13.2632C2.3241 13.2022 2.30463 13.1423 2.26648 13.0947L1.53542 12.1823L1.94876 11.0886C1.97032 11.0315 1.97032 10.9685 1.94876 10.9114L1.53542 9.81771L2.26648 8.90524C2.30463 8.85765 2.3241 8.79774 2.32123 8.7368L2.2661 7.56889L3.24332 6.92699C3.29429 6.89352 3.33135 6.84255 3.34744 6.78368L3.65591 5.65589L4.78369 5.34743C4.84254 5.33133 4.89347 5.2943 4.927 5.2433L5.56891 4.26608L6.73682 4.32121C6.79769 4.32405 6.85766 4.30461 6.90525 4.26646L7.81772 3.53539L8.91144 3.94874C8.96853 3.9703 9.0315 3.9703 9.08856 3.94874L10.1823 3.53539L11.0947 4.26646C11.1423 4.30464 11.2023 4.32408 11.2632 4.32121L12.4311 4.26608L13.073 5.2433C13.1065 5.29427 13.1574 5.33133 13.2163 5.34743L14.3441 5.65589L14.6526 6.78368C14.6686 6.84252 14.7057 6.89346 14.7567 6.92699L15.7339 7.56889L15.6788 8.7368C15.6759 8.79777 15.6954 8.85765 15.7335 8.90524L16.4646 9.81771L16.0512 10.9114C16.0297 10.9685 16.0297 11.0315 16.0513 11.0886Z"/>
</mask>
<path d="M16.5534 11L16.9838 9.86115C17.0151 9.7783 17.0004 9.68508 16.945 9.61593L16.1837 8.6658L16.2411 7.44971C16.2453 7.36127 16.2024 7.27711 16.1284 7.22852L15.1109 6.56011L14.7897 5.3858C14.7663 5.30036 14.6996 5.23361 14.6142 5.21027L13.4398 4.88908L12.7714 3.87155C12.7228 3.79752 12.6387 3.75483 12.5502 3.75886L11.3342 3.81624L10.384 3.05502C10.3149 2.99964 10.2217 2.98486 10.1388 3.01618L8.99997 3.44655L7.86119 3.01621C7.77828 2.98486 7.6851 2.99964 7.61597 3.05505L6.66585 3.81627L5.44975 3.75889C5.36088 3.75471 5.27716 3.79758 5.22857 3.87158L4.56019 4.88914L3.38588 5.21033C3.30044 5.23371 3.23369 5.30046 3.21035 5.38586L2.88916 6.56018L1.8716 7.22855C1.79757 7.27718 1.75473 7.3613 1.75891 7.44974L1.81629 8.66583L1.05507 9.61596C0.999697 9.68508 0.984916 9.7783 1.01623 9.86118L1.44657 11L1.0162 12.1388C0.984853 12.2216 0.999635 12.3149 1.05504 12.384L1.81626 13.3341L1.75888 14.5502C1.7547 14.6387 1.79757 14.7228 1.87157 14.7714L2.88913 15.4398L3.21032 16.6141C3.23369 16.6996 3.30044 16.7663 3.38585 16.7897L4.56016 17.1109L5.22854 18.1284C5.27716 18.2025 5.36144 18.245 5.44972 18.2411L6.66582 18.1837L7.61594 18.945C7.68506 19.0004 7.77831 19.0151 7.86116 18.9838L9 18.5534L10.1388 18.9838C10.1676 18.9946 10.1976 19 10.2274 19C10.2835 19 10.3389 18.9811 10.384 18.945L11.3342 18.1837L12.5502 18.2411C12.639 18.2451 12.7228 18.2024 12.7714 18.1284L13.4398 17.1109L14.6142 16.7897C14.6996 16.7663 14.7663 16.6996 14.7897 16.6141L15.1109 15.4398L16.1284 14.7714C16.2025 14.7228 16.2453 14.6387 16.2411 14.5502L16.1837 13.3341L16.945 12.384C17.0003 12.3149 17.0151 12.2217 16.9838 12.1388L16.5534 11ZM16.0513 11.0886L16.4646 12.1823L15.7335 13.0947C15.6954 13.1423 15.6759 13.2022 15.6788 13.2632L15.7339 14.4311L14.7567 15.073C14.7057 15.1065 14.6686 15.1574 14.6526 15.2163L14.3441 16.3441L13.2163 16.6526C13.1575 16.6686 13.1065 16.7057 13.073 16.7567L12.4311 17.7339L11.2632 17.6788C11.2022 17.676 11.1423 17.6954 11.0947 17.7335L10.1823 18.4646L9.08856 18.0513C9.06003 18.0405 9.03 18.0351 9 18.0351C8.97 18.0351 8.93997 18.0405 8.91144 18.0513L7.81772 18.4646L6.90525 17.7335C6.85766 17.6954 6.79766 17.676 6.73682 17.6788L5.56891 17.7339L4.927 16.7567C4.89354 16.7057 4.84257 16.6686 4.78369 16.6526L3.65591 16.3441L3.34744 15.2163C3.33135 15.1575 3.29432 15.1065 3.24332 15.073L2.2661 14.4311L2.32123 13.2632C2.3241 13.2022 2.30463 13.1423 2.26648 13.0947L1.53542 12.1823L1.94876 11.0886C1.97032 11.0315 1.97032 10.9685 1.94876 10.9114L1.53542 9.81771L2.26648 8.90524C2.30463 8.85765 2.3241 8.79774 2.32123 8.7368L2.2661 7.56889L3.24332 6.92699C3.29429 6.89352 3.33135 6.84255 3.34744 6.78368L3.65591 5.65589L4.78369 5.34743C4.84254 5.33133 4.89347 5.2943 4.927 5.2433L5.56891 4.26608L6.73682 4.32121C6.79769 4.32405 6.85766 4.30461 6.90525 4.26646L7.81772 3.53539L8.91144 3.94874C8.96853 3.9703 9.0315 3.9703 9.08856 3.94874L10.1823 3.53539L11.0947 4.26646C11.1423 4.30464 11.2023 4.32408 11.2632 4.32121L12.4311 4.26608L13.073 5.2433C13.1065 5.29427 13.1574 5.33133 13.2163 5.34743L14.3441 5.65589L14.6526 6.78368C14.6686 6.84252 14.7057 6.89346 14.7567 6.92699L15.7339 7.56889L15.6788 8.7368C15.6759 8.79777 15.6954 8.85765 15.7335 8.90524L16.4646 9.81771L16.0512 10.9114C16.0297 10.9685 16.0297 11.0315 16.0513 11.0886Z" fill="#AFABCA"/>
<path d="M16.5534 11L16.9838 9.86115C17.0151 9.7783 17.0004 9.68508 16.945 9.61593L16.1837 8.6658L16.2411 7.44971C16.2453 7.36127 16.2024 7.27711 16.1284 7.22852L15.1109 6.56011L14.7897 5.3858C14.7663 5.30036 14.6996 5.23361 14.6142 5.21027L13.4398 4.88908L12.7714 3.87155C12.7228 3.79752 12.6387 3.75483 12.5502 3.75886L11.3342 3.81624L10.384 3.05502C10.3149 2.99964 10.2217 2.98486 10.1388 3.01618L8.99997 3.44655L7.86119 3.01621C7.77828 2.98486 7.6851 2.99964 7.61597 3.05505L6.66585 3.81627L5.44975 3.75889C5.36088 3.75471 5.27716 3.79758 5.22857 3.87158L4.56019 4.88914L3.38588 5.21033C3.30044 5.23371 3.23369 5.30046 3.21035 5.38586L2.88916 6.56018L1.8716 7.22855C1.79757 7.27718 1.75473 7.3613 1.75891 7.44974L1.81629 8.66583L1.05507 9.61596C0.999697 9.68508 0.984916 9.7783 1.01623 9.86118L1.44657 11L1.0162 12.1388C0.984853 12.2216 0.999635 12.3149 1.05504 12.384L1.81626 13.3341L1.75888 14.5502C1.7547 14.6387 1.79757 14.7228 1.87157 14.7714L2.88913 15.4398L3.21032 16.6141C3.23369 16.6996 3.30044 16.7663 3.38585 16.7897L4.56016 17.1109L5.22854 18.1284C5.27716 18.2025 5.36144 18.245 5.44972 18.2411L6.66582 18.1837L7.61594 18.945C7.68506 19.0004 7.77831 19.0151 7.86116 18.9838L9 18.5534L10.1388 18.9838C10.1676 18.9946 10.1976 19 10.2274 19C10.2835 19 10.3389 18.9811 10.384 18.945L11.3342 18.1837L12.5502 18.2411C12.639 18.2451 12.7228 18.2024 12.7714 18.1284L13.4398 17.1109L14.6142 16.7897C14.6996 16.7663 14.7663 16.6996 14.7897 16.6141L15.1109 15.4398L16.1284 14.7714C16.2025 14.7228 16.2453 14.6387 16.2411 14.5502L16.1837 13.3341L16.945 12.384C17.0003 12.3149 17.0151 12.2217 16.9838 12.1388L16.5534 11ZM16.0513 11.0886L16.4646 12.1823L15.7335 13.0947C15.6954 13.1423 15.6759 13.2022 15.6788 13.2632L15.7339 14.4311L14.7567 15.073C14.7057 15.1065 14.6686 15.1574 14.6526 15.2163L14.3441 16.3441L13.2163 16.6526C13.1575 16.6686 13.1065 16.7057 13.073 16.7567L12.4311 17.7339L11.2632 17.6788C11.2022 17.676 11.1423 17.6954 11.0947 17.7335L10.1823 18.4646L9.08856 18.0513C9.06003 18.0405 9.03 18.0351 9 18.0351C8.97 18.0351 8.93997 18.0405 8.91144 18.0513L7.81772 18.4646L6.90525 17.7335C6.85766 17.6954 6.79766 17.676 6.73682 17.6788L5.56891 17.7339L4.927 16.7567C4.89354 16.7057 4.84257 16.6686 4.78369 16.6526L3.65591 16.3441L3.34744 15.2163C3.33135 15.1575 3.29432 15.1065 3.24332 15.073L2.2661 14.4311L2.32123 13.2632C2.3241 13.2022 2.30463 13.1423 2.26648 13.0947L1.53542 12.1823L1.94876 11.0886C1.97032 11.0315 1.97032 10.9685 1.94876 10.9114L1.53542 9.81771L2.26648 8.90524C2.30463 8.85765 2.3241 8.79774 2.32123 8.7368L2.2661 7.56889L3.24332 6.92699C3.29429 6.89352 3.33135 6.84255 3.34744 6.78368L3.65591 5.65589L4.78369 5.34743C4.84254 5.33133 4.89347 5.2943 4.927 5.2433L5.56891 4.26608L6.73682 4.32121C6.79769 4.32405 6.85766 4.30461 6.90525 4.26646L7.81772 3.53539L8.91144 3.94874C8.96853 3.9703 9.0315 3.9703 9.08856 3.94874L10.1823 3.53539L11.0947 4.26646C11.1423 4.30464 11.2023 4.32408 11.2632 4.32121L12.4311 4.26608L13.073 5.2433C13.1065 5.29427 13.1574 5.33133 13.2163 5.34743L14.3441 5.65589L14.6526 6.78368C14.6686 6.84252 14.7057 6.89346 14.7567 6.92699L15.7339 7.56889L15.6788 8.7368C15.6759 8.79777 15.6954 8.85765 15.7335 8.90524L16.4646 9.81771L16.0512 10.9114C16.0297 10.9685 16.0297 11.0315 16.0513 11.0886Z" stroke="#AFABCA" stroke-width="0.4" mask="url(#path-2-outside-1)"/>
<path d="M6.70801 13H5.97559L4.5498 10.6611V13H3.81738V9.44531H4.5498L5.97803 11.7891V9.44531H6.70801V13ZM9.48633 11.4595H8.08008V12.4116H9.73047V13H7.34766V9.44531H9.72559V10.0386H8.08008V10.8857H9.48633V11.4595ZM12.9287 11.9746L13.4072 9.44531H14.1372L13.3486 13H12.6113L12.0327 10.6221L11.4541 13H10.7168L9.92822 9.44531H10.6582L11.1392 11.9697L11.7251 9.44531H12.3452L12.9287 11.9746Z" fill="#AFABCA"/>
</svg>
