<svg width="63" height="24" viewBox="0 0 63 24" fill="none" xmlns="http://www.w3.org/2000/svg">
<path d="M34.0703 11.6797C34.0703 12.7943 33.8828 13.7682 33.5078 14.6016C33.1328 15.4297 32.6016 16.0625 31.9141 16.5C31.2266 16.9375 30.4245 17.1562 29.5078 17.1562C28.612 17.1562 27.8177 16.9375 27.125 16.5C26.4323 16.0573 25.8932 15.4297 25.5078 14.6172C25.1276 13.7995 24.9323 12.8542 24.9219 11.7812V10.9609C24.9219 9.86719 25.112 8.90104 25.4922 8.0625C25.8724 7.22396 26.4089 6.58333 27.1016 6.14062C27.7995 5.69271 28.5964 5.46875 29.4922 5.46875C30.4036 5.46875 31.2057 5.6901 31.8984 6.13281C32.5964 6.57031 33.1328 7.20833 33.5078 8.04688C33.8828 8.88021 34.0703 9.85156 34.0703 10.9609V11.6797ZM32.5781 10.9453C32.5781 9.59635 32.3073 8.5625 31.7656 7.84375C31.224 7.11979 30.4661 6.75781 29.4922 6.75781C28.5443 6.75781 27.7969 7.11979 27.25 7.84375C26.7083 8.5625 26.4297 9.5625 26.4141 10.8438V11.6797C26.4141 12.987 26.6875 14.0156 27.2344 14.7656C27.7865 15.5104 28.5443 15.8828 29.5078 15.8828C30.4766 15.8828 31.2266 15.5312 31.7578 14.8281C32.2891 14.1198 32.5625 13.1068 32.5781 11.7891V10.9453ZM38.0547 6.5V8.54688H39.6328V9.66406H38.0547V14.9062C38.0547 15.2448 38.125 15.5 38.2656 15.6719C38.4062 15.8385 38.6458 15.9219 38.9844 15.9219C39.151 15.9219 39.3802 15.8906 39.6719 15.8281V17C39.2917 17.1042 38.9219 17.1562 38.5625 17.1562C37.9167 17.1562 37.4297 16.9609 37.1016 16.5703C36.7734 16.1797 36.6094 15.625 36.6094 14.9062V9.66406H35.0703V8.54688H36.6094V6.5H38.0547ZM42.7734 9.57031C43.4141 8.78385 44.2474 8.39062 45.2734 8.39062C47.0599 8.39062 47.9609 9.39844 47.9766 11.4141V17H46.5312V11.4062C46.526 10.7969 46.3854 10.3464 46.1094 10.0547C45.8385 9.76302 45.4141 9.61719 44.8359 9.61719C44.3672 9.61719 43.9557 9.74219 43.6016 9.99219C43.2474 10.2422 42.9714 10.5703 42.7734 10.9766V17H41.3281V5H42.7734V9.57031ZM53.6484 17.1562C52.5026 17.1562 51.5703 16.7812 50.8516 16.0312C50.1328 15.276 49.7734 14.2682 49.7734 13.0078V12.7422C49.7734 11.9036 49.9323 11.1562 50.25 10.5C50.5729 9.83854 51.0208 9.32292 51.5938 8.95312C52.1719 8.57812 52.7969 8.39062 53.4688 8.39062C54.5677 8.39062 55.4219 8.7526 56.0312 9.47656C56.6406 10.2005 56.9453 11.237 56.9453 12.5859V13.1875H51.2188C51.2396 14.0208 51.4818 14.6953 51.9453 15.2109C52.4141 15.7214 53.0078 15.9766 53.7266 15.9766C54.237 15.9766 54.6693 15.8724 55.0234 15.6641C55.3776 15.4557 55.6875 15.1797 55.9531 14.8359L56.8359 15.5234C56.1276 16.612 55.0651 17.1562 53.6484 17.1562ZM53.4688 9.57812C52.8854 9.57812 52.3958 9.79167 52 10.2188C51.6042 10.6406 51.3594 11.2344 51.2656 12H55.5V11.8906C55.4583 11.1562 55.2604 10.5885 54.9062 10.1875C54.5521 9.78125 54.0729 9.57812 53.4688 9.57812ZM62.7109 9.84375C62.4922 9.80729 62.2552 9.78906 62 9.78906C61.0521 9.78906 60.4089 10.1927 60.0703 11V17H58.625V8.54688H60.0312L60.0547 9.52344C60.5286 8.76823 61.2005 8.39062 62.0703 8.39062C62.3516 8.39062 62.5651 8.42708 62.7109 8.5V9.84375Z" fill="#AFABCA"/>
<path d="M6.63924 12.36C6.48885 12.2096 6.24538 12.2096 6.09499 12.36C5.94498 12.51 5.94498 12.7535 6.09499 12.9039C6.24538 13.0539 6.48885 13.0539 6.63924 12.9039C6.78925 12.7535 6.78925 12.51 6.63924 12.36Z" fill="#AFABCA"/>
<path d="M11.5346 7.46445C10.783 6.71292 9.56632 6.71288 8.81471 7.46445C8.0651 8.21406 8.06506 9.43412 8.81482 10.1843C9.5647 10.9338 10.7848 10.9341 11.5346 10.1843C12.2861 9.43277 12.2862 8.21606 11.5346 7.46445ZM10.9906 9.64028C10.5409 10.0901 9.80875 10.0901 9.35877 9.64036C8.90894 9.19026 8.90891 8.45815 9.3587 8.0084C9.8096 7.5575 10.5396 7.55742 10.9906 8.0084C11.4415 8.45927 11.4416 9.18934 10.9906 9.64028Z" fill="#AFABCA"/>
<path d="M15.8873 3.11266C15.8118 3.03716 15.7087 2.99623 15.6016 3.00027C15.5146 3.00339 13.4439 3.08662 10.9825 3.95662C9.01006 4.65304 7.36603 5.65012 6.09601 6.92018C5.81142 7.20477 5.53448 7.50656 5.26951 7.82007C4.01376 7.08088 3.00748 7.31266 2.37134 7.6531C0.906618 8.43698 0 10.5654 0 12.0878C0.00011539 12.2433 0.0938505 12.3836 0.237549 12.4431C0.285128 12.4628 0.335131 12.4724 0.384671 12.4724C0.484791 12.4724 0.583142 12.4333 0.656722 12.3597C1.42918 11.5873 2.38195 11.6356 2.6932 11.6765L2.8279 11.8112C2.56281 12.442 2.34926 13.0693 2.19264 13.6793C2.1361 13.9001 2.15517 14.1337 2.23922 14.3474C1.86889 14.5181 1.51161 14.7687 1.20052 15.0798C0.210433 16.0699 0.0093852 18.4829 0.00130791 18.5851C-0.00753864 18.6973 0.0331553 18.8078 0.112736 18.8873C0.185162 18.9597 0.283128 19 0.384671 19C0.394749 19 0.404865 18.9996 0.41498 18.9988C0.517216 18.9908 2.93025 18.7897 3.92033 17.7996C4.23131 17.4887 4.48186 17.1314 4.65252 16.7612C4.87876 16.8501 5.11162 16.8611 5.32101 16.8074C5.93081 16.6509 6.55799 16.4374 7.18887 16.1723L7.32356 16.307C7.36445 16.6182 7.41276 17.571 6.64034 18.3434C6.53037 18.4534 6.49745 18.6188 6.55699 18.7625C6.61649 18.9063 6.75673 19 6.91231 19C8.43469 19 10.5631 18.0933 11.3469 16.6286C11.6874 15.9926 11.9192 14.9863 11.18 13.7305C11.4933 13.4656 11.7952 13.1887 12.0799 12.904C13.3499 11.6339 14.347 9.9899 15.0434 8.01765C15.9134 5.55608 15.9966 3.48537 15.9997 3.39844C16.0036 3.29171 15.9628 3.1882 15.8873 3.11266ZM0.859962 11.2605C1.0989 10.1041 1.79289 8.83527 2.73447 8.33132C3.36369 7.99462 4.05145 8.02762 4.78272 8.4279C4.15973 9.24725 3.61813 10.13 3.16668 11.0621C3.16095 11.0586 3.09172 10.9716 2.9631 10.9426C2.91021 10.9306 1.89251 10.7117 0.859962 11.2605ZM3.37638 17.2557C2.84751 17.7845 1.60688 18.0635 0.82273 18.1773C0.936658 17.3932 1.21563 16.1526 1.74446 15.6237C2.04063 15.3276 2.38403 15.103 2.7292 14.9765L4.02357 16.2709C3.8971 16.6161 3.67259 16.9595 3.37638 17.2557ZM5.12993 16.0623C5.01861 16.0908 4.88968 16.0489 4.79383 15.9532C4.29623 15.4556 4.10157 15.2609 4.04049 15.1999C3.92849 15.0879 3.65382 14.8132 3.04714 14.2065C2.95121 14.1104 2.90936 13.9815 2.93779 13.8704C3.06099 13.3906 3.22211 12.8983 3.41804 12.4014L6.59876 15.5821C6.1017 15.778 5.60952 15.9391 5.12993 16.0623ZM10.6688 16.2656C10.1648 17.2072 8.89602 17.9012 7.73974 18.1401C8.10841 17.4464 8.18968 16.5632 8.05498 16.0277C8.02371 15.9033 7.94255 15.8407 7.93801 15.8334C8.8701 15.382 9.75279 14.8403 10.5722 14.2174C10.9725 14.9487 11.0055 15.6365 10.6688 16.2656ZM11.536 12.36C11.1894 12.7066 10.8162 13.0414 10.4267 13.3552C9.49043 14.109 8.45992 14.7476 7.36049 15.2559L3.74417 11.6397C4.2525 10.5402 4.89107 9.50968 5.64487 8.57353C5.95889 8.18378 6.29367 7.81053 6.64011 7.46413C7.77958 6.32462 9.25019 5.41773 11.0123 4.76493L14.2352 7.98785C13.5825 9.74989 12.6756 11.2205 11.536 12.36ZM14.5119 7.17662L11.8235 4.48819C13.2882 4.03324 14.5625 3.86289 15.1985 3.80166C15.1372 4.4378 14.9668 5.71205 14.5119 7.17662Z" fill="#AFABCA"/>
<path d="M8.27301 10.728C8.12277 10.5778 7.8793 10.5778 7.72903 10.728L7.18516 11.2718C7.03496 11.422 7.03496 11.6656 7.18516 11.8158C7.33539 11.966 7.5789 11.966 7.72914 11.8158L8.27301 11.2719C8.4232 11.1217 8.4232 10.8782 8.27301 10.728Z" fill="#AFABCA"/>
</svg>
