<svg width="79" height="24" viewBox="0 0 79 24" fill="none" xmlns="http://www.w3.org/2000/svg">
<path d="M26.8203 12.5469V17H25.3203V5.625H29.5156C30.7604 5.625 31.7344 5.94271 32.4375 6.57812C33.1458 7.21354 33.5 8.05469 33.5 9.10156C33.5 10.2057 33.1536 11.0573 32.4609 11.6562C31.7734 12.25 30.7865 12.5469 29.5 12.5469H26.8203ZM26.8203 11.3203H29.5156C30.3177 11.3203 30.9323 11.1328 31.3594 10.7578C31.7865 10.3776 32 9.83073 32 9.11719C32 8.4401 31.7865 7.89844 31.3594 7.49219C30.9323 7.08594 30.3464 6.875 29.6016 6.85938H26.8203V11.3203ZM34.6953 12.6953C34.6953 11.8672 34.8568 11.1224 35.1797 10.4609C35.5078 9.79948 35.9609 9.28906 36.5391 8.92969C37.1224 8.57031 37.7865 8.39062 38.5312 8.39062C39.6823 8.39062 40.612 8.78906 41.3203 9.58594C42.0339 10.3828 42.3906 11.4427 42.3906 12.7656V12.8672C42.3906 13.6901 42.2318 14.4297 41.9141 15.0859C41.6016 15.737 41.151 16.2448 40.5625 16.6094C39.9792 16.974 39.3073 17.1562 38.5469 17.1562C37.401 17.1562 36.4714 16.7578 35.7578 15.9609C35.0495 15.1641 34.6953 14.1094 34.6953 12.7969V12.6953ZM36.1484 12.8672C36.1484 13.8047 36.3646 14.5573 36.7969 15.125C37.2344 15.6927 37.8177 15.9766 38.5469 15.9766C39.2812 15.9766 39.8646 15.6901 40.2969 15.1172C40.7292 14.5391 40.9453 13.7318 40.9453 12.6953C40.9453 11.7682 40.724 11.0182 40.2812 10.4453C39.8438 9.86719 39.2604 9.57812 38.5312 9.57812C37.8177 9.57812 37.2422 9.86198 36.8047 10.4297C36.3672 10.9974 36.1484 11.8099 36.1484 12.8672ZM51.3438 12.8672C51.3438 14.1536 51.0495 15.1901 50.4609 15.9766C49.8724 16.763 49.0755 17.1562 48.0703 17.1562C47.0443 17.1562 46.237 16.8307 45.6484 16.1797V20.25H44.2031V8.54688H45.5234L45.5938 9.48438C46.1823 8.75521 47 8.39062 48.0469 8.39062C49.0625 8.39062 49.8646 8.77344 50.4531 9.53906C51.0469 10.3047 51.3438 11.3698 51.3438 12.7344V12.8672ZM49.8984 12.7031C49.8984 11.75 49.6953 10.9974 49.2891 10.4453C48.8828 9.89323 48.3255 9.61719 47.6172 9.61719C46.7422 9.61719 46.0859 10.0052 45.6484 10.7812V14.8203C46.0807 15.5911 46.7422 15.9766 47.6328 15.9766C48.3255 15.9766 48.875 15.7031 49.2812 15.1562C49.6927 14.6042 49.8984 13.7865 49.8984 12.7031ZM58.4062 16.1641C57.8438 16.8255 57.0182 17.1562 55.9297 17.1562C55.0286 17.1562 54.3411 16.8958 53.8672 16.375C53.3984 15.849 53.1615 15.0729 53.1562 14.0469V8.54688H54.6016V14.0078C54.6016 15.2891 55.1224 15.9297 56.1641 15.9297C57.2682 15.9297 58.0026 15.5182 58.3672 14.6953V8.54688H59.8125V17H58.4375L58.4062 16.1641ZM63.5859 17H62.1406V5H63.5859V17ZM71.125 17C71.0417 16.8333 70.974 16.5365 70.9219 16.1094C70.25 16.8073 69.4479 17.1562 68.5156 17.1562C67.6823 17.1562 66.9974 16.9219 66.4609 16.4531C65.9297 15.9792 65.6641 15.3802 65.6641 14.6562C65.6641 13.776 65.9974 13.0938 66.6641 12.6094C67.3359 12.1198 68.2786 11.875 69.4922 11.875H70.8984V11.2109C70.8984 10.7057 70.7474 10.3047 70.4453 10.0078C70.1432 9.70573 69.6979 9.55469 69.1094 9.55469C68.5938 9.55469 68.1615 9.6849 67.8125 9.94531C67.4635 10.2057 67.2891 10.5208 67.2891 10.8906H65.8359C65.8359 10.4688 65.9844 10.0625 66.2812 9.67188C66.5833 9.27604 66.9896 8.96354 67.5 8.73438C68.0156 8.50521 68.5807 8.39062 69.1953 8.39062C70.1693 8.39062 70.9323 8.63542 71.4844 9.125C72.0365 9.60938 72.3229 10.2786 72.3438 11.1328V15.0234C72.3438 15.7995 72.4427 16.4167 72.6406 16.875V17H71.125ZM68.7266 15.8984C69.1797 15.8984 69.6094 15.7812 70.0156 15.5469C70.4219 15.3125 70.7161 15.0078 70.8984 14.6328V12.8984H69.7656C67.9948 12.8984 67.1094 13.4167 67.1094 14.4531C67.1094 14.9062 67.2604 15.2604 67.5625 15.5156C67.8646 15.7708 68.2526 15.8984 68.7266 15.8984ZM78.6953 9.84375C78.4766 9.80729 78.2396 9.78906 77.9844 9.78906C77.0365 9.78906 76.3932 10.1927 76.0547 11V17H74.6094V8.54688H76.0156L76.0391 9.52344C76.513 8.76823 77.1849 8.39062 78.0547 8.39062C78.3359 8.39062 78.5495 8.42708 78.6953 8.5V9.84375Z" fill="#AFABCA"/>
<g clip-path="url(#clip0)">
<path d="M10.8164 9.78258C10.7437 9.78258 10.6715 9.78449 10.5996 9.78783C10.4216 8.86608 10.4227 7.66605 10.9898 6.31584C11.5269 6.15943 12.0989 6.04352 12.7059 5.96943L12.5923 5.03887C11.1133 5.21949 9.79881 5.63877 8.67794 6.28512C8.68825 5.48221 8.44581 4.80746 7.95269 4.27278C6.50378 2.70169 3.4062 3.02178 3.27498 3.03619L2.76198 3.0925L2.86726 3.59772C2.89417 3.7269 3.5487 6.7714 5.49122 7.66293C5.84797 7.82665 6.22075 7.90843 6.60797 7.90843C6.62935 7.90843 6.65085 7.90771 6.67232 7.90721C6.42603 8.18221 6.19775 8.47439 5.98907 8.78383C5.75675 9.12827 5.56588 9.46749 5.40919 9.7882C5.33432 9.78458 5.25916 9.78267 5.18379 9.78267C2.64245 9.78267 0.574921 11.8502 0.574921 14.3915C0.574921 16.9327 2.64245 19 5.18379 19C6.21128 19 7.19719 18.6609 8.00175 18.038C8.78087 18.6407 9.7574 19 10.8165 19C13.3577 19 15.4251 16.9326 15.4251 14.3914C15.4251 11.85 13.3576 9.78258 10.8164 9.78258ZM5.88369 6.81155C4.78776 6.30977 4.18116 4.76178 3.92795 3.93662C4.9036 3.92159 6.49782 4.07806 7.26363 4.90837C7.66703 5.34577 7.81356 5.92834 7.70903 6.68458C7.02297 7.01771 6.4241 7.05896 5.88369 6.81155ZM6.76625 9.30792C7.53406 8.16949 8.56503 7.30968 9.84628 6.7344C9.47606 7.98674 9.51512 9.09096 9.67072 9.92677C9.05562 10.0847 8.48994 10.3669 8.00169 10.7446C7.51794 10.3701 6.96863 10.0983 6.38407 9.94098C6.49475 9.73517 6.62138 9.52277 6.76625 9.30792ZM5.18376 18.0625C3.15935 18.0625 1.51236 16.4157 1.51236 14.3915C1.51236 12.4219 3.07132 10.8099 5.02001 10.7239C4.78391 11.4061 4.72279 11.8757 4.71857 11.9101L5.64897 12.0249C5.64997 12.0169 5.71491 11.5186 5.98666 10.8086C6.463 10.915 6.91341 11.1156 7.31288 11.4006C6.62422 12.2062 6.20772 13.251 6.20772 14.3913C6.20772 15.5317 6.62422 16.5765 7.31288 17.382C6.69425 17.8234 5.95372 18.0625 5.18376 18.0625ZM10.8164 18.0625C8.79206 18.0625 7.14516 16.4156 7.14516 14.3913C7.14516 12.6806 8.32128 11.2396 9.90737 10.834C10.1999 11.7014 10.5722 12.2185 10.5905 12.2437L11.348 11.6913C11.3414 11.6823 11.0904 11.3291 10.8624 10.7207C12.8656 10.7454 14.4877 12.3824 14.4877 14.3913C14.4876 16.4156 12.8407 18.0625 10.8164 18.0625Z" fill="#AFABCA"/>
</g>
<defs>
<clipPath id="clip0">
<rect width="16" height="16" fill="white" transform="translate(0 3)"/>
</clipPath>
</defs>
</svg>
