<svg width="132" height="24" viewBox="0 0 132 24" fill="none" xmlns="http://www.w3.org/2000/svg">
<path d="M29.4922 12.3984H26.8203V17H25.3125V5.625H29.0781C30.3594 5.625 31.3438 5.91667 32.0312 6.5C32.724 7.08333 33.0703 7.93229 33.0703 9.04688C33.0703 9.75521 32.8776 10.3724 32.4922 10.8984C32.112 11.4245 31.5807 11.8177 30.8984 12.0781L33.5703 16.9062V17H31.9609L29.4922 12.3984ZM26.8203 11.1719H29.125C29.8698 11.1719 30.4609 10.9792 30.8984 10.5938C31.3411 10.2083 31.5625 9.69271 31.5625 9.04688C31.5625 8.34375 31.3516 7.80469 30.9297 7.42969C30.513 7.05469 29.9089 6.86458 29.1172 6.85938H26.8203V11.1719ZM38.4609 17.1562C37.3151 17.1562 36.3828 16.7812 35.6641 16.0312C34.9453 15.276 34.5859 14.2682 34.5859 13.0078V12.7422C34.5859 11.9036 34.7448 11.1562 35.0625 10.5C35.3854 9.83854 35.8333 9.32292 36.4062 8.95312C36.9844 8.57812 37.6094 8.39062 38.2812 8.39062C39.3802 8.39062 40.2344 8.7526 40.8438 9.47656C41.4531 10.2005 41.7578 11.237 41.7578 12.5859V13.1875H36.0312C36.0521 14.0208 36.2943 14.6953 36.7578 15.2109C37.2266 15.7214 37.8203 15.9766 38.5391 15.9766C39.0495 15.9766 39.4818 15.8724 39.8359 15.6641C40.1901 15.4557 40.5 15.1797 40.7656 14.8359L41.6484 15.5234C40.9401 16.612 39.8776 17.1562 38.4609 17.1562ZM38.2812 9.57812C37.6979 9.57812 37.2083 9.79167 36.8125 10.2188C36.4167 10.6406 36.1719 11.2344 36.0781 12H40.3125V11.8906C40.2708 11.1562 40.0729 10.5885 39.7188 10.1875C39.3646 9.78125 38.8854 9.57812 38.2812 9.57812ZM46.8281 15.9766C47.3438 15.9766 47.7943 15.8203 48.1797 15.5078C48.5651 15.1953 48.7786 14.8047 48.8203 14.3359H50.1875C50.1615 14.8203 49.9948 15.2812 49.6875 15.7188C49.3802 16.1562 48.9688 16.5052 48.4531 16.7656C47.9427 17.026 47.401 17.1562 46.8281 17.1562C45.6771 17.1562 44.7604 16.7734 44.0781 16.0078C43.401 15.237 43.0625 14.1849 43.0625 12.8516V12.6094C43.0625 11.7865 43.2135 11.0547 43.5156 10.4141C43.8177 9.77344 44.25 9.27604 44.8125 8.92188C45.3802 8.56771 46.0495 8.39062 46.8203 8.39062C47.7682 8.39062 48.5547 8.67448 49.1797 9.24219C49.8099 9.8099 50.1458 10.5469 50.1875 11.4531H48.8203C48.7786 10.9062 48.5703 10.4583 48.1953 10.1094C47.8255 9.75521 47.3672 9.57812 46.8203 9.57812C46.0859 9.57812 45.5156 9.84375 45.1094 10.375C44.7083 10.901 44.5078 11.6641 44.5078 12.6641V12.9375C44.5078 13.9115 44.7083 14.6615 45.1094 15.1875C45.5104 15.7135 46.0833 15.9766 46.8281 15.9766ZM51.4297 12.6953C51.4297 11.8672 51.5911 11.1224 51.9141 10.4609C52.2422 9.79948 52.6953 9.28906 53.2734 8.92969C53.8568 8.57031 54.5208 8.39062 55.2656 8.39062C56.4167 8.39062 57.3464 8.78906 58.0547 9.58594C58.7682 10.3828 59.125 11.4427 59.125 12.7656V12.8672C59.125 13.6901 58.9661 14.4297 58.6484 15.0859C58.3359 15.737 57.8854 16.2448 57.2969 16.6094C56.7135 16.974 56.0417 17.1562 55.2812 17.1562C54.1354 17.1562 53.2057 16.7578 52.4922 15.9609C51.7839 15.1641 51.4297 14.1094 51.4297 12.7969V12.6953ZM52.8828 12.8672C52.8828 13.8047 53.099 14.5573 53.5312 15.125C53.9688 15.6927 54.5521 15.9766 55.2812 15.9766C56.0156 15.9766 56.599 15.6901 57.0312 15.1172C57.4635 14.5391 57.6797 13.7318 57.6797 12.6953C57.6797 11.7682 57.4583 11.0182 57.0156 10.4453C56.5781 9.86719 55.9948 9.57812 55.2656 9.57812C54.5521 9.57812 53.9766 9.86198 53.5391 10.4297C53.1016 10.9974 52.8828 11.8099 52.8828 12.8672ZM62.2969 8.54688L62.3359 9.48438C62.9557 8.75521 63.7917 8.39062 64.8438 8.39062C66.026 8.39062 66.8307 8.84375 67.2578 9.75C67.5391 9.34375 67.9036 9.01562 68.3516 8.76562C68.8047 8.51562 69.3385 8.39062 69.9531 8.39062C71.8073 8.39062 72.75 9.3724 72.7812 11.3359V17H71.3359V11.4219C71.3359 10.8177 71.1979 10.3672 70.9219 10.0703C70.6458 9.76823 70.1823 9.61719 69.5312 9.61719C68.9948 9.61719 68.5495 9.77865 68.1953 10.1016C67.8411 10.4193 67.6354 10.849 67.5781 11.3906V17H66.125V11.4609C66.125 10.2318 65.5234 9.61719 64.3203 9.61719C63.3724 9.61719 62.724 10.0208 62.375 10.8281V17H60.9297V8.54688H62.2969ZM76.3281 8.54688L76.3672 9.48438C76.987 8.75521 77.8229 8.39062 78.875 8.39062C80.0573 8.39062 80.862 8.84375 81.2891 9.75C81.5703 9.34375 81.9349 9.01562 82.3828 8.76562C82.8359 8.51562 83.3698 8.39062 83.9844 8.39062C85.8385 8.39062 86.7812 9.3724 86.8125 11.3359V17H85.3672V11.4219C85.3672 10.8177 85.2292 10.3672 84.9531 10.0703C84.6771 9.76823 84.2135 9.61719 83.5625 9.61719C83.026 9.61719 82.5807 9.77865 82.2266 10.1016C81.8724 10.4193 81.6667 10.849 81.6094 11.3906V17H80.1562V11.4609C80.1562 10.2318 79.5547 9.61719 78.3516 9.61719C77.4036 9.61719 76.7552 10.0208 76.4062 10.8281V17H74.9609V8.54688H76.3281ZM92.5078 17.1562C91.362 17.1562 90.4297 16.7812 89.7109 16.0312C88.9922 15.276 88.6328 14.2682 88.6328 13.0078V12.7422C88.6328 11.9036 88.7917 11.1562 89.1094 10.5C89.4323 9.83854 89.8802 9.32292 90.4531 8.95312C91.0312 8.57812 91.6562 8.39062 92.3281 8.39062C93.4271 8.39062 94.2812 8.7526 94.8906 9.47656C95.5 10.2005 95.8047 11.237 95.8047 12.5859V13.1875H90.0781C90.099 14.0208 90.3411 14.6953 90.8047 15.2109C91.2734 15.7214 91.8672 15.9766 92.5859 15.9766C93.0964 15.9766 93.5286 15.8724 93.8828 15.6641C94.237 15.4557 94.5469 15.1797 94.8125 14.8359L95.6953 15.5234C94.987 16.612 93.9245 17.1562 92.5078 17.1562ZM92.3281 9.57812C91.7448 9.57812 91.2552 9.79167 90.8594 10.2188C90.4635 10.6406 90.2188 11.2344 90.125 12H94.3594V11.8906C94.3177 11.1562 94.1198 10.5885 93.7656 10.1875C93.4115 9.78125 92.9323 9.57812 92.3281 9.57812ZM98.8516 8.54688L98.8984 9.60938C99.5443 8.79688 100.388 8.39062 101.43 8.39062C103.216 8.39062 104.117 9.39844 104.133 11.4141V17H102.688V11.4062C102.682 10.7969 102.542 10.3464 102.266 10.0547C101.995 9.76302 101.57 9.61719 100.992 9.61719C100.523 9.61719 100.112 9.74219 99.7578 9.99219C99.4036 10.2422 99.1276 10.5703 98.9297 10.9766V17H97.4844V8.54688H98.8516ZM105.961 12.7031C105.961 11.4062 106.268 10.3646 106.883 9.57812C107.497 8.78646 108.302 8.39062 109.297 8.39062C110.286 8.39062 111.07 8.72917 111.648 9.40625V5H113.094V17H111.766L111.695 16.0938C111.117 16.8021 110.312 17.1562 109.281 17.1562C108.302 17.1562 107.503 16.7552 106.883 15.9531C106.268 15.151 105.961 14.1042 105.961 12.8125V12.7031ZM107.406 12.8672C107.406 13.8255 107.604 14.5755 108 15.1172C108.396 15.6589 108.943 15.9297 109.641 15.9297C110.557 15.9297 111.227 15.5182 111.648 14.6953V10.8125C111.216 10.0156 110.552 9.61719 109.656 9.61719C108.948 9.61719 108.396 9.89062 108 10.4375C107.604 10.9844 107.406 11.7943 107.406 12.8672ZM118.852 17.1562C117.706 17.1562 116.773 16.7812 116.055 16.0312C115.336 15.276 114.977 14.2682 114.977 13.0078V12.7422C114.977 11.9036 115.135 11.1562 115.453 10.5C115.776 9.83854 116.224 9.32292 116.797 8.95312C117.375 8.57812 118 8.39062 118.672 8.39062C119.771 8.39062 120.625 8.7526 121.234 9.47656C121.844 10.2005 122.148 11.237 122.148 12.5859V13.1875H116.422C116.443 14.0208 116.685 14.6953 117.148 15.2109C117.617 15.7214 118.211 15.9766 118.93 15.9766C119.44 15.9766 119.872 15.8724 120.227 15.6641C120.581 15.4557 120.891 15.1797 121.156 14.8359L122.039 15.5234C121.331 16.612 120.268 17.1562 118.852 17.1562ZM118.672 9.57812C118.089 9.57812 117.599 9.79167 117.203 10.2188C116.807 10.6406 116.562 11.2344 116.469 12H120.703V11.8906C120.661 11.1562 120.464 10.5885 120.109 10.1875C119.755 9.78125 119.276 9.57812 118.672 9.57812ZM123.477 12.7031C123.477 11.4062 123.784 10.3646 124.398 9.57812C125.013 8.78646 125.818 8.39062 126.812 8.39062C127.802 8.39062 128.586 8.72917 129.164 9.40625V5H130.609V17H129.281L129.211 16.0938C128.633 16.8021 127.828 17.1562 126.797 17.1562C125.818 17.1562 125.018 16.7552 124.398 15.9531C123.784 15.151 123.477 14.1042 123.477 12.8125V12.7031ZM124.922 12.8672C124.922 13.8255 125.12 14.5755 125.516 15.1172C125.911 15.6589 126.458 15.9297 127.156 15.9297C128.073 15.9297 128.742 15.5182 129.164 14.6953V10.8125C128.732 10.0156 128.068 9.61719 127.172 9.61719C126.464 9.61719 125.911 9.89062 125.516 10.4375C125.12 10.9844 124.922 11.7943 124.922 12.8672Z" fill="#AFABCA"/>
<path d="M11.7333 3.69263C9.85644 3.69263 8.61556 4.71747 8 5.39553C7.38447 4.71753 6.14356 3.69263 4.26666 3.69263C1.70566 3.69263 0 6.07416 0 8.742C0 10.7382 1.00659 14.6271 7.74784 18.244C7.90525 18.3285 8.09466 18.3285 8.25216 18.244C14.9934 14.6271 16 10.7382 16 8.742C16 6.01225 14.2438 3.69263 11.7333 3.69263ZM8 17.1671C4.76191 15.3868 1.06666 12.4203 1.06666 8.742C1.06666 6.69585 2.29538 4.75931 4.26666 4.75931C5.76219 4.75931 6.99953 5.67631 7.54706 6.53972C7.75578 6.87544 8.24597 6.8751 8.45384 6.53828C8.46484 6.5205 9.57691 4.75928 11.7333 4.75928C13.7193 4.75928 14.9333 6.71525 14.9333 8.74197C14.9333 12.4204 11.2382 15.3867 8 17.1671Z" fill="#AFABCA"/>
</svg>
