<svg width="85" height="24" viewBox="0 0 85 24" fill="none" xmlns="http://www.w3.org/2000/svg">
<path d="M30.4922 12.3984H27.8203V17H26.3125V5.625H30.0781C31.3594 5.625 32.3438 5.91667 33.0312 6.5C33.724 7.08333 34.0703 7.93229 34.0703 9.04688C34.0703 9.75521 33.8776 10.3724 33.4922 10.8984C33.112 11.4245 32.5807 11.8177 31.8984 12.0781L34.5703 16.9062V17H32.9609L30.4922 12.3984ZM27.8203 11.1719H30.125C30.8698 11.1719 31.4609 10.9792 31.8984 10.5938C32.3411 10.2083 32.5625 9.69271 32.5625 9.04688C32.5625 8.34375 32.3516 7.80469 31.9297 7.42969C31.513 7.05469 30.9089 6.86458 30.1172 6.85938H27.8203V11.1719ZM35.5703 12.6953C35.5703 11.8672 35.7318 11.1224 36.0547 10.4609C36.3828 9.79948 36.8359 9.28906 37.4141 8.92969C37.9974 8.57031 38.6615 8.39062 39.4062 8.39062C40.5573 8.39062 41.487 8.78906 42.1953 9.58594C42.9089 10.3828 43.2656 11.4427 43.2656 12.7656V12.8672C43.2656 13.6901 43.1068 14.4297 42.7891 15.0859C42.4766 15.737 42.026 16.2448 41.4375 16.6094C40.8542 16.974 40.1823 17.1562 39.4219 17.1562C38.276 17.1562 37.3464 16.7578 36.6328 15.9609C35.9245 15.1641 35.5703 14.1094 35.5703 12.7969V12.6953ZM37.0234 12.8672C37.0234 13.8047 37.2396 14.5573 37.6719 15.125C38.1094 15.6927 38.6927 15.9766 39.4219 15.9766C40.1562 15.9766 40.7396 15.6901 41.1719 15.1172C41.6042 14.5391 41.8203 13.7318 41.8203 12.6953C41.8203 11.7682 41.599 11.0182 41.1562 10.4453C40.7188 9.86719 40.1354 9.57812 39.4062 9.57812C38.6927 9.57812 38.1172 9.86198 37.6797 10.4297C37.2422 10.9974 37.0234 11.8099 37.0234 12.8672ZM50.2969 16.1641C49.7344 16.8255 48.9089 17.1562 47.8203 17.1562C46.9193 17.1562 46.2318 16.8958 45.7578 16.375C45.2891 15.849 45.0521 15.0729 45.0469 14.0469V8.54688H46.4922V14.0078C46.4922 15.2891 47.013 15.9297 48.0547 15.9297C49.1589 15.9297 49.8932 15.5182 50.2578 14.6953V8.54688H51.7031V17H50.3281L50.2969 16.1641ZM55.4766 17H54.0312V5H55.4766V17ZM61.3047 17.1562C60.1589 17.1562 59.2266 16.7812 58.5078 16.0312C57.7891 15.276 57.4297 14.2682 57.4297 13.0078V12.7422C57.4297 11.9036 57.5885 11.1562 57.9062 10.5C58.2292 9.83854 58.6771 9.32292 59.25 8.95312C59.8281 8.57812 60.4531 8.39062 61.125 8.39062C62.224 8.39062 63.0781 8.7526 63.6875 9.47656C64.2969 10.2005 64.6016 11.237 64.6016 12.5859V13.1875H58.875C58.8958 14.0208 59.138 14.6953 59.6016 15.2109C60.0703 15.7214 60.6641 15.9766 61.3828 15.9766C61.8932 15.9766 62.3255 15.8724 62.6797 15.6641C63.0339 15.4557 63.3438 15.1797 63.6094 14.8359L64.4922 15.5234C63.7839 16.612 62.7214 17.1562 61.3047 17.1562ZM61.125 9.57812C60.5417 9.57812 60.0521 9.79167 59.6562 10.2188C59.2604 10.6406 59.0156 11.2344 58.9219 12H63.1562V11.8906C63.1146 11.1562 62.9167 10.5885 62.5625 10.1875C62.2083 9.78125 61.7292 9.57812 61.125 9.57812ZM68.2422 6.5V8.54688H69.8203V9.66406H68.2422V14.9062C68.2422 15.2448 68.3125 15.5 68.4531 15.6719C68.5938 15.8385 68.8333 15.9219 69.1719 15.9219C69.3385 15.9219 69.5677 15.8906 69.8594 15.8281V17C69.4792 17.1042 69.1094 17.1562 68.75 17.1562C68.1042 17.1562 67.6172 16.9609 67.2891 16.5703C66.9609 16.1797 66.7969 15.625 66.7969 14.9062V9.66406H65.2578V8.54688H66.7969V6.5H68.2422ZM73.4766 6.5V8.54688H75.0547V9.66406H73.4766V14.9062C73.4766 15.2448 73.5469 15.5 73.6875 15.6719C73.8281 15.8385 74.0677 15.9219 74.4062 15.9219C74.5729 15.9219 74.8021 15.8906 75.0938 15.8281V17C74.7135 17.1042 74.3438 17.1562 73.9844 17.1562C73.3385 17.1562 72.8516 16.9609 72.5234 16.5703C72.1953 16.1797 72.0312 15.625 72.0312 14.9062V9.66406H70.4922V8.54688H72.0312V6.5H73.4766ZM80.2578 17.1562C79.112 17.1562 78.1797 16.7812 77.4609 16.0312C76.7422 15.276 76.3828 14.2682 76.3828 13.0078V12.7422C76.3828 11.9036 76.5417 11.1562 76.8594 10.5C77.1823 9.83854 77.6302 9.32292 78.2031 8.95312C78.7812 8.57812 79.4062 8.39062 80.0781 8.39062C81.1771 8.39062 82.0312 8.7526 82.6406 9.47656C83.25 10.2005 83.5547 11.237 83.5547 12.5859V13.1875H77.8281C77.849 14.0208 78.0911 14.6953 78.5547 15.2109C79.0234 15.7214 79.6172 15.9766 80.3359 15.9766C80.8464 15.9766 81.2786 15.8724 81.6328 15.6641C81.987 15.4557 82.2969 15.1797 82.5625 14.8359L83.4453 15.5234C82.737 16.612 81.6745 17.1562 80.2578 17.1562ZM80.0781 9.57812C79.4948 9.57812 79.0052 9.79167 78.6094 10.2188C78.2135 10.6406 77.9688 11.2344 77.875 12H82.1094V11.8906C82.0677 11.1562 81.8698 10.5885 81.5156 10.1875C81.1615 9.78125 80.6823 9.57812 80.0781 9.57812Z" fill="#AFABCA"/>
<path d="M3.15383 11.2338C3.02452 11.2338 2.92 11.1291 2.92 11C2.92 10.8709 3.02452 10.7661 3.15383 10.7661H3.86118C3.87475 10.4687 3.91404 10.178 3.976 9.89577L3.29249 9.71266C3.16786 9.67945 3.09374 9.55106 3.12717 9.42642C3.16038 9.30133 3.28876 9.22766 3.41339 9.26085L4.09643 9.44396C4.18599 9.16242 4.29963 8.89186 4.43434 8.63368L3.82027 8.27916C3.70827 8.21462 3.66991 8.07174 3.73444 7.95974C3.79944 7.84774 3.94257 7.80962 4.0541 7.87416L4.66885 8.2289C4.82741 7.98196 5.00533 7.74881 5.20272 7.53298L4.70089 7.03113C4.60969 6.93993 4.60969 6.79189 4.70089 6.70047C4.79233 6.60927 4.94033 6.60927 5.03153 6.70047L5.53336 7.20232C5.74918 7.00518 5.98257 6.827 6.2295 6.66844L5.87477 6.05388C5.80999 5.9421 5.84836 5.79899 5.96035 5.73421C6.07188 5.66968 6.21523 5.70801 6.27979 5.82004L6.6343 6.43389C6.89246 6.29942 7.16301 6.18577 7.44455 6.09622L7.26122 5.41361C7.22779 5.28873 7.30167 5.16059 7.42654 5.12716C7.5507 5.09395 7.67955 5.16785 7.71298 5.29227L7.89631 5.9758C8.17856 5.91384 8.46898 5.87479 8.76665 5.86123L8.76641 5.15385C8.76641 5.02478 8.87092 4.92001 9.00023 4.92001C9.1293 4.92001 9.23406 5.02478 9.23406 5.15385L9.23428 5.86123C9.53149 5.87479 9.82216 5.91409 10.1044 5.97605L10.2875 5.29252C10.3209 5.16788 10.4489 5.09351 10.5737 5.12719C10.6986 5.1604 10.7727 5.28879 10.7391 5.41342L10.5562 6.09671C10.8377 6.18627 11.1083 6.29991 11.3664 6.43438L11.7207 5.82029C11.7852 5.70829 11.9281 5.66992 12.0399 5.73446C12.1519 5.79899 12.1903 5.94213 12.1257 6.05391L11.771 6.66893C12.0179 6.82771 12.2511 7.00567 12.4669 7.20303L12.9685 6.70097C13.0599 6.60952 13.2079 6.60977 13.2994 6.70072C13.3906 6.79214 13.3906 6.94018 13.2994 7.03162L12.7978 7.53369C12.9947 7.74952 13.1729 7.98292 13.3312 8.22986L13.9459 7.8744C14.0577 7.80962 14.2008 7.84799 14.2654 7.95999C14.3299 8.07177 14.2918 8.21465 14.18 8.27943L13.5657 8.63442C13.7002 8.8926 13.8138 9.16316 13.9034 9.4447L14.5864 9.26091C14.7106 9.22794 14.8392 9.30135 14.8729 9.42623C14.9063 9.55087 14.8324 9.67925 14.7078 9.71269L14.0238 9.89648C14.0857 10.1787 14.1248 10.4692 14.1384 10.7666L14.846 10.7662H14.8462C14.9752 10.7662 15.0798 10.8707 15.08 10.9998C15.08 11.1291 14.9755 11.2339 14.8464 11.2339L14.1383 11.2343C14.1248 11.5318 14.0855 11.8225 14.0235 12.1047L14.7072 12.2871C14.8321 12.3206 14.9062 12.4487 14.873 12.5736C14.845 12.6781 14.7505 12.7471 14.6471 12.7471C14.627 12.7471 14.6069 12.7445 14.5868 12.7391L13.9028 12.5565C13.8133 12.8378 13.6996 13.1084 13.5652 13.3666L14.1795 13.7204C14.2915 13.7849 14.3298 13.928 14.2655 14.0398C14.2222 14.1149 14.1437 14.1569 14.0625 14.1569C14.023 14.1569 13.983 14.1469 13.9461 14.1258L13.3306 13.7711C13.172 14.018 12.9941 14.2512 12.7967 14.467L13.299 14.9684C13.3905 15.0596 13.3907 15.2076 13.2995 15.299C13.2537 15.3449 13.1938 15.3678 13.1339 15.3678C13.0741 15.3678 13.0142 15.3451 12.9686 15.2995L12.4661 14.7979C12.2503 14.9948 12.0171 15.173 11.7702 15.3313L12.1256 15.9459C12.1902 16.0577 12.1521 16.2005 12.0401 16.2653C12.0033 16.2866 11.9631 16.2966 11.9234 16.2966C11.8427 16.2966 11.7641 16.255 11.7207 16.1799L11.3657 15.5658C11.1075 15.7003 10.837 15.814 10.5554 15.9035L10.739 16.5861C10.7727 16.711 10.6988 16.8391 10.5739 16.8728C10.5538 16.8782 10.5332 16.8808 10.5131 16.8808C10.41 16.8808 10.3155 16.812 10.2874 16.7077L10.1036 16.0239C9.82139 16.0862 9.53073 16.1252 9.23352 16.1388L9.23398 16.8459C9.23398 16.9752 9.12947 17.08 9.00037 17.08H9.00015C8.87109 17.08 8.76632 16.9755 8.76632 16.8464L8.76586 16.1388C8.46865 16.1252 8.17776 16.0862 7.89551 16.0239L7.7129 16.7075C7.68506 16.812 7.5906 16.881 7.48724 16.881C7.46713 16.881 7.44679 16.8784 7.42668 16.8731C7.3018 16.8396 7.22793 16.7115 7.26111 16.5866L7.44375 15.9035C7.16243 15.814 6.89166 15.7003 6.63375 15.5659L6.27973 16.18C6.23671 16.255 6.1579 16.2969 6.07701 16.2969C6.03749 16.2969 5.99726 16.2868 5.96054 16.2658C5.84855 16.2013 5.80996 16.0581 5.87472 15.9463L6.22898 15.3313C5.98227 15.1728 5.74891 14.9948 5.53309 14.7974L5.03197 15.2993C4.98637 15.3451 4.92628 15.368 4.8664 15.368C4.80653 15.368 4.7469 15.3451 4.70108 15.2995C4.60988 15.2083 4.60988 15.0603 4.70083 14.9689L5.20241 14.4668C5.00506 14.251 4.8271 14.0178 4.66855 13.7709L4.05473 14.1259C4.01754 14.1472 3.97731 14.1572 3.9378 14.1572C3.85688 14.1572 3.77831 14.1153 3.73507 14.0403C3.67029 13.9285 3.70866 13.7856 3.82043 13.7208L4.43401 13.3661C4.29954 13.1079 4.18591 12.8371 4.09635 12.5558L3.41402 12.7391C3.39369 12.7447 3.37311 12.7473 3.35321 12.7473C3.2501 12.7473 3.15561 12.6786 3.12755 12.574C3.09387 12.4494 3.168 12.321 3.29265 12.2876L3.97592 12.104C3.91371 11.8217 3.87466 11.5311 3.8611 11.2339H3.15383V11.2338ZM8.99977 15.6769C11.5785 15.6769 13.6765 13.5789 13.6765 11C13.6765 8.42111 11.5785 6.32304 8.99977 6.32304C6.42099 6.32304 4.323 8.42111 4.323 11C4.323 13.5789 6.42099 15.6769 8.99977 15.6769Z" fill="#AFABCA"/>
<path d="M6.184 10.296C6.48953 10.296 6.74745 10.4927 6.84458 10.7654H7.61312C7.71262 10.177 8.17704 9.71263 8.76535 9.61313V8.84484C8.4929 8.74746 8.296 8.48956 8.296 8.18401C8.296 7.79588 8.61187 7.48001 9 7.48001C9.38814 7.48001 9.704 7.79588 9.704 8.18401C9.704 8.48954 9.50735 8.74746 9.23466 8.84459V9.61313C9.82297 9.71263 10.2874 10.177 10.3869 10.7654H11.1552C11.2526 10.4927 11.5105 10.296 11.816 10.296C12.2041 10.296 12.52 10.6119 12.52 11C12.52 11.3881 12.2041 11.704 11.816 11.704C11.5105 11.704 11.2526 11.5074 11.1552 11.2347H10.3869C10.2874 11.823 9.82297 12.2874 9.23466 12.3869V13.1552C9.50735 13.2526 9.704 13.5105 9.704 13.816C9.704 14.2041 9.38814 14.52 9 14.52C8.61187 14.52 8.296 14.2041 8.296 13.816C8.296 13.5105 8.49288 13.2526 8.76535 13.1552V12.3869C8.17704 12.2874 7.71262 11.823 7.61312 11.2347H6.84458C6.74742 11.5074 6.48953 11.704 6.184 11.704C5.79587 11.704 5.48 11.3881 5.48 11C5.48 10.6119 5.79587 10.296 6.184 10.296ZM11.816 11.2347C11.9453 11.2347 12.0507 11.1293 12.0507 11C12.0507 10.8707 11.9453 10.7654 11.816 10.7654C11.6867 10.7654 11.5813 10.8707 11.5813 11C11.5813 11.1293 11.6867 11.2347 11.816 11.2347ZM9 7.94935C8.8707 7.94935 8.76535 8.05471 8.76535 8.18401C8.76535 8.31332 8.8707 8.41867 9 8.41867C9.12931 8.41867 9.23466 8.31332 9.23466 8.18401C9.23466 8.05471 9.12931 7.94935 9 7.94935ZM9 14.0507C9.12931 14.0507 9.23466 13.9453 9.23466 13.816C9.23466 13.6867 9.12931 13.5814 9 13.5814C8.8707 13.5814 8.76535 13.6867 8.76535 13.816C8.76535 13.9453 8.8707 14.0507 9 14.0507ZM9 11.9387C9.51769 11.9387 9.93866 11.5177 9.93866 11C9.93866 10.4823 9.51766 10.0614 9 10.0614C8.48232 10.0614 8.06135 10.4824 8.06135 11C8.06135 11.5177 8.48232 11.9387 9 11.9387ZM6.184 11.2347C6.31353 11.2347 6.41866 11.1293 6.41866 11C6.41866 10.8707 6.31353 10.7654 6.184 10.7654C6.05448 10.7654 5.94935 10.8707 5.94935 11C5.94935 11.1293 6.05448 11.2347 6.184 11.2347Z" fill="#AFABCA"/>
<path d="M9 2.875C13.4802 2.875 17.125 6.51978 17.125 11C17.125 15.4802 13.4802 19.125 9 19.125C4.51978 19.125 0.875 15.4802 0.875 11C0.875 6.51978 4.51978 2.875 9 2.875ZM9 18.3417C13.048 18.3417 16.3417 15.048 16.3417 11C16.3417 6.95197 13.048 3.65834 9 3.65834C4.95197 3.65834 1.65834 6.95197 1.65834 11C1.65834 15.048 4.95197 18.3417 9 18.3417Z" fill="#AFABCA" stroke="#AFABCA" stroke-width="0.25"/>
</svg>
