<svg width="79" height="24" viewBox="0 0 79 24" fill="none" xmlns="http://www.w3.org/2000/svg">
<path d="M29.4922 12.3984H26.8203V17H25.3125V5.625H29.0781C30.3594 5.625 31.3438 5.91667 32.0312 6.5C32.724 7.08333 33.0703 7.93229 33.0703 9.04688C33.0703 9.75521 32.8776 10.3724 32.4922 10.8984C32.112 11.4245 31.5807 11.8177 30.8984 12.0781L33.5703 16.9062V17H31.9609L29.4922 12.3984ZM26.8203 11.1719H29.125C29.8698 11.1719 30.4609 10.9792 30.8984 10.5938C31.3411 10.2083 31.5625 9.69271 31.5625 9.04688C31.5625 8.34375 31.3516 7.80469 30.9297 7.42969C30.513 7.05469 29.9089 6.86458 29.1172 6.85938H26.8203V11.1719ZM40.1719 16.1641C39.6094 16.8255 38.7839 17.1562 37.6953 17.1562C36.7943 17.1562 36.1068 16.8958 35.6328 16.375C35.1641 15.849 34.9271 15.0729 34.9219 14.0469V8.54688H36.3672V14.0078C36.3672 15.2891 36.888 15.9297 37.9297 15.9297C39.0339 15.9297 39.7682 15.5182 40.1328 14.6953V8.54688H41.5781V17H40.2031L40.1719 16.1641ZM45.1406 8.54688L45.1797 9.48438C45.7995 8.75521 46.6354 8.39062 47.6875 8.39062C48.8698 8.39062 49.6745 8.84375 50.1016 9.75C50.3828 9.34375 50.7474 9.01562 51.1953 8.76562C51.6484 8.51562 52.1823 8.39062 52.7969 8.39062C54.651 8.39062 55.5938 9.3724 55.625 11.3359V17H54.1797V11.4219C54.1797 10.8177 54.0417 10.3672 53.7656 10.0703C53.4896 9.76823 53.026 9.61719 52.375 9.61719C51.8385 9.61719 51.3932 9.77865 51.0391 10.1016C50.6849 10.4193 50.4792 10.849 50.4219 11.3906V17H48.9688V11.4609C48.9688 10.2318 48.3672 9.61719 47.1641 9.61719C46.2161 9.61719 45.5677 10.0208 45.2188 10.8281V17H43.7734V8.54688H45.1406ZM59.1719 8.54688L59.2109 9.48438C59.8307 8.75521 60.6667 8.39062 61.7188 8.39062C62.901 8.39062 63.7057 8.84375 64.1328 9.75C64.4141 9.34375 64.7786 9.01562 65.2266 8.76562C65.6797 8.51562 66.2135 8.39062 66.8281 8.39062C68.6823 8.39062 69.625 9.3724 69.6562 11.3359V17H68.2109V11.4219C68.2109 10.8177 68.0729 10.3672 67.7969 10.0703C67.5208 9.76823 67.0573 9.61719 66.4062 9.61719C65.8698 9.61719 65.4245 9.77865 65.0703 10.1016C64.7161 10.4193 64.5104 10.849 64.4531 11.3906V17H63V11.4609C63 10.2318 62.3984 9.61719 61.1953 9.61719C60.2474 9.61719 59.599 10.0208 59.25 10.8281V17H57.8047V8.54688H59.1719ZM74.6094 14.8828L76.5781 8.54688H78.125L74.7266 18.3047C74.2005 19.7109 73.3646 20.4141 72.2188 20.4141L71.9453 20.3906L71.4062 20.2891V19.1172L71.7969 19.1484C72.2865 19.1484 72.6667 19.0495 72.9375 18.8516C73.2135 18.6536 73.4401 18.2917 73.6172 17.7656L73.9375 16.9062L70.9219 8.54688H72.5L74.6094 14.8828Z" fill="#AFABCA"/>
<path d="M12.2077 12.6648C11.8182 12.2888 11.2921 12.0716 10.7449 12.0716C9.58382 12.0716 8.63951 13.0186 8.63951 14.1826C8.63951 14.4875 8.74425 14.8393 8.95132 15.242C9.15859 15.6452 9.46999 16.1025 9.88729 16.6194L9.91878 16.6584L9.95771 16.6268L10.3208 16.3321L10.3595 16.3007L10.3282 16.2619C9.39346 15.104 9.20663 14.4873 9.20663 14.1826C9.20663 13.3319 9.89685 12.64 10.7449 12.64C11.2363 12.64 11.6863 12.8669 11.9801 13.263L11.9801 13.263L12.1675 13.5156L12.2077 13.5697L12.2478 13.5156L12.4353 13.263L12.4353 13.263C12.7291 12.8669 13.1791 12.64 13.6705 12.64C14.5186 12.64 15.2088 13.3319 15.2088 14.1826C15.2088 14.44 15.0849 14.7684 14.8764 15.1355C14.6688 15.5009 14.3811 15.898 14.0619 16.2911C13.4383 17.0591 12.6977 17.8072 12.2083 18.2659C11.8945 17.9697 11.2406 17.3335 10.6238 16.6159L10.5911 16.5778L10.5531 16.6106L10.1993 16.9164L10.1615 16.949L10.194 16.9868C10.7264 17.6062 11.4267 18.3298 12.1739 19.0052L12.2074 19.0355L12.2409 19.0052C12.7631 18.5333 13.6447 17.6864 14.3961 16.7808C14.7718 16.3281 15.1159 15.8596 15.3663 15.4151C15.6161 14.9718 15.7759 14.5468 15.7759 14.1826C15.7759 13.0186 14.8316 12.0716 13.6705 12.0716C13.1233 12.0716 12.5973 12.2888 12.2077 12.6648ZM12.0203 13.2332L12.1766 13.4438L12.1675 13.456L12.2077 13.4858L12.2478 13.456L12.2388 13.4438L12.3951 13.2332C12.6983 12.8245 13.1632 12.59 13.6705 12.59C14.5463 12.59 15.2588 13.3044 15.2588 14.1826C15.2588 15.2663 13.1875 17.4217 12.2081 18.3345L12.0203 13.2332Z" fill="#AFABCA" stroke="#AFABCA" stroke-width="0.1"/>
<path d="M13.3493 10.5509H12.4912V9.45525C12.8761 9.80818 13.3863 10.018 13.9261 10.018C15.0974 10.018 16.05 9.06261 16.05 7.88848C16.05 6.81217 15.2496 5.91979 14.2141 5.77841C14.2915 5.55493 14.3315 5.31892 14.3315 5.07954C14.3316 3.9054 13.379 2.95 12.2076 2.95C11.0363 2.95 10.0837 3.90541 10.0837 5.07954C10.0837 5.31893 10.1238 5.55493 10.2012 5.77844C9.16565 5.91979 8.36528 6.81217 8.36528 7.88848C8.36528 9.06265 9.3179 10.018 10.4892 10.018C11.029 10.018 11.5392 9.8082 11.9241 9.45525V10.5509H11.066H11.016V10.6009V11.0694V11.1194H11.066H13.3493H13.3993V11.0694V10.6009V10.5509H13.3493ZM11.0809 6.37138L11.1796 6.37953L11.1276 6.29526L10.8835 5.90033C10.8835 5.90033 10.8835 5.90033 10.8835 5.90033C10.7314 5.6541 10.6509 5.37029 10.6509 5.07954C10.6509 4.21866 11.3494 3.51841 12.2076 3.51841C13.0659 3.51841 13.7644 4.21866 13.7644 5.07954C13.7644 5.37029 13.6839 5.6541 13.5318 5.90033L13.2877 6.29526L13.2356 6.37954L13.3344 6.37138C13.4323 6.36329 13.5116 6.35665 13.5766 6.3512C13.8162 6.33113 13.8616 6.32733 13.9261 6.32733C14.7843 6.32733 15.4828 7.02758 15.4828 7.88848C15.4828 8.74939 14.7843 9.4496 13.9261 9.4496C13.2861 9.4496 12.7017 9.0467 12.4724 8.44718L12.2543 7.87705L12.2076 7.75496L12.1609 7.87705L11.9429 8.44718C11.7135 9.0467 11.1291 9.4496 10.4892 9.4496C9.63097 9.4496 8.93243 8.74936 8.93243 7.88848C8.93243 7.02761 9.63097 6.32733 10.4892 6.32733C10.5519 6.32733 10.5746 6.32922 10.8385 6.35123C10.9033 6.35664 10.9828 6.36327 11.0809 6.37138Z" fill="#AFABCA" stroke="#AFABCA" stroke-width="0.1"/>
<path d="M1.65874 15.5043L1.63447 15.5352L1.65874 15.5661L4.38107 19.0308L4.42038 19.0808L4.4597 19.0308L7.18199 15.5661L7.20626 15.5352L7.18199 15.5043L4.4597 12.0397L4.42038 11.9896L4.38107 12.0397L1.65874 15.5043ZM6.48435 15.5352L4.42035 18.1621L2.35638 15.5352L4.42038 12.9084L6.48435 15.5352Z" fill="#AFABCA" stroke="#AFABCA" stroke-width="0.1"/>
<path d="M6.21561 9.2751C6.18814 9.2785 5.95849 9.30273 5.66425 9.21083M6.21561 9.2751C6.30119 9.25751 7.4579 8.98996 7.36652 7.45003C7.28122 6.01182 5.01477 4.08486 4.41944 3.60246M6.21561 9.2751L6.20946 9.22547C6.20892 9.22554 6.20827 9.22562 6.20751 9.22571M6.21561 9.2751L6.20554 9.22612C6.20614 9.226 6.20679 9.22586 6.20751 9.22571M5.66425 9.21083L4.21356 8.28627C3.63059 9.37737 2.70353 9.28528 2.62334 9.2751M5.66425 9.21083C5.23022 9.07536 4.8807 8.76428 4.62533 8.28627L4.44779 7.95395L5.66425 9.21083ZM4.41944 3.60246C3.82412 4.08486 1.55766 6.01182 1.47233 7.45003C1.3813 8.98424 2.52907 9.25548 2.62334 9.2751M4.41944 3.60246L4.38796 3.6413C4.39799 3.64943 4.40849 3.65796 4.41944 3.66689M4.41944 3.60246L4.45092 3.6413C4.4409 3.64943 4.4304 3.65796 4.41944 3.66689M2.62334 9.2751L2.63352 9.22614C2.63293 9.22602 2.63228 9.22588 2.63159 9.22574M2.62334 9.2751L2.62964 9.22549C2.63023 9.22557 2.63088 9.22565 2.63159 9.22574M2.63159 9.22574C2.58228 9.21524 2.28617 9.14357 2.01204 8.89359C1.73621 8.64206 1.47759 8.20553 1.52224 7.45299C1.5429 7.10494 1.69609 6.72294 1.928 6.33563C2.15952 5.94896 2.46715 5.56085 2.79175 5.20132C3.41901 4.50658 4.106 3.92252 4.41944 3.66689M2.63159 9.22574C2.71603 9.23602 3.60561 9.31802 4.16946 8.26271L4.37534 7.87734L4.41944 7.79479L4.46354 7.87734L4.66943 8.26271C4.91989 8.73152 5.26 9.03228 5.67915 9.1631L5.67916 9.1631C5.95766 9.25009 6.17584 9.2294 6.20751 9.22571M4.41944 3.66689C4.73288 3.92252 5.41988 4.50658 6.04713 5.20132C6.37173 5.56085 6.67935 5.94896 6.91087 6.33563C7.14278 6.72294 7.29597 7.10494 7.31661 7.45299C7.36143 8.20831 7.10072 8.64531 6.82383 8.8964C6.54906 9.14558 6.25336 9.21604 6.20751 9.22571M4.44983 2.96904L4.41941 2.94573L4.38899 2.96904C3.77606 3.43885 2.9428 4.15977 2.2508 4.95695C1.56087 5.75175 1.00279 6.63192 0.956087 7.41925C0.893988 8.46613 1.31882 9.05584 1.69027 9.366L1.72232 9.32762L1.69027 9.366C2.09217 9.70154 2.51258 9.78187 2.53362 9.78575L2.53433 9.78587C2.59309 9.79583 2.67722 9.79913 2.7348 9.79913C3.02832 9.79913 3.60797 9.72717 4.13584 9.23749V10.5509H3.27781H3.22781V10.6009V11.0693V11.1193H3.27781H5.56105H5.61105V11.0693V10.6009V10.5509H5.56105H4.70298V9.23728C5.428 9.90995 6.25004 9.79451 6.29778 9.787L6.29829 9.78692L6.30442 9.78588L6.30443 9.78589L6.3052 9.78575C6.32624 9.78187 6.74668 9.70158 7.14855 9.366C7.52 9.05584 7.94484 8.46613 7.8827 7.41925C7.83602 6.63197 7.27797 5.75182 6.58806 4.95702C5.89608 4.15984 5.06283 3.43889 4.44983 2.96904Z" fill="#AFABCA" stroke="#AFABCA" stroke-width="0.1"/>
</svg>
