<svg width="44" height="44" viewBox="0 0 44 44" fill="none" xmlns="http://www.w3.org/2000/svg">
<path fill-rule="evenodd" clip-rule="evenodd" d="M13 20.9268C13 16.5561 16.5561 13 20.9268 13C25.2978 13 28.8536 16.5561 28.8536 20.9268C28.8536 22.8494 28.1657 24.6144 27.023 25.9883L30.7856 29.7509C31.0714 30.0365 31.0714 30.5 30.7856 30.7856C30.6426 30.9285 30.4553 31 30.2683 31C30.081 31 29.8939 30.9285 29.7509 30.7856L25.9883 27.023C24.6144 28.1657 22.8494 28.8536 20.9268 28.8536C16.5561 28.8536 13 25.2978 13 20.9268ZM14.4634 20.9269C14.4634 24.4908 17.3629 27.3903 20.9268 27.3903C24.4907 27.3903 27.3902 24.4907 27.3902 20.9268C27.3902 17.3629 24.4907 14.4634 20.9268 14.4634C17.3629 14.4634 14.4634 17.363 14.4634 20.9269Z" fill="white"/>
</svg>
