<svg width="60" height="24" viewBox="0 0 60 24" fill="none" xmlns="http://www.w3.org/2000/svg">
<path d="M28.6719 11.9297C27.3854 11.5599 26.4479 11.1068 25.8594 10.5703C25.276 10.0286 24.9844 9.36198 24.9844 8.57031C24.9844 7.67448 25.3411 6.9349 26.0547 6.35156C26.7734 5.76302 27.7057 5.46875 28.8516 5.46875C29.6328 5.46875 30.3281 5.61979 30.9375 5.92188C31.5521 6.22396 32.026 6.64062 32.3594 7.17188C32.6979 7.70312 32.8672 8.28385 32.8672 8.91406H31.3594C31.3594 8.22656 31.1406 7.6875 30.7031 7.29688C30.2656 6.90104 29.6484 6.70312 28.8516 6.70312C28.112 6.70312 27.5339 6.86719 27.1172 7.19531C26.7057 7.51823 26.5 7.96875 26.5 8.54688C26.5 9.01042 26.6953 9.40365 27.0859 9.72656C27.4818 10.0443 28.151 10.3359 29.0938 10.6016C30.0417 10.8672 30.7812 11.1615 31.3125 11.4844C31.849 11.8021 32.2448 12.1745 32.5 12.6016C32.7604 13.0286 32.8906 13.5312 32.8906 14.1094C32.8906 15.0312 32.5312 15.7708 31.8125 16.3281C31.0938 16.8802 30.1328 17.1562 28.9297 17.1562C28.1484 17.1562 27.4193 17.0078 26.7422 16.7109C26.0651 16.4089 25.5417 15.9974 25.1719 15.4766C24.8073 14.9557 24.625 14.3646 24.625 13.7031H26.1328C26.1328 14.3906 26.3854 14.9349 26.8906 15.3359C27.401 15.7318 28.0807 15.9297 28.9297 15.9297C29.7214 15.9297 30.3281 15.7682 30.75 15.4453C31.1719 15.1224 31.3828 14.6823 31.3828 14.125C31.3828 13.5677 31.1875 13.138 30.7969 12.8359C30.4062 12.5286 29.6979 12.2266 28.6719 11.9297ZM36.1641 17H34.7188V5H36.1641V17ZM38.1016 12.6953C38.1016 11.8672 38.263 11.1224 38.5859 10.4609C38.9141 9.79948 39.3672 9.28906 39.9453 8.92969C40.5286 8.57031 41.1927 8.39062 41.9375 8.39062C43.0885 8.39062 44.0182 8.78906 44.7266 9.58594C45.4401 10.3828 45.7969 11.4427 45.7969 12.7656V12.8672C45.7969 13.6901 45.638 14.4297 45.3203 15.0859C45.0078 15.737 44.5573 16.2448 43.9688 16.6094C43.3854 16.974 42.7135 17.1562 41.9531 17.1562C40.8073 17.1562 39.8776 16.7578 39.1641 15.9609C38.4557 15.1641 38.1016 14.1094 38.1016 12.7969V12.6953ZM39.5547 12.8672C39.5547 13.8047 39.7708 14.5573 40.2031 15.125C40.6406 15.6927 41.224 15.9766 41.9531 15.9766C42.6875 15.9766 43.2708 15.6901 43.7031 15.1172C44.1354 14.5391 44.3516 13.7318 44.3516 12.6953C44.3516 11.7682 44.1302 11.0182 43.6875 10.4453C43.25 9.86719 42.6667 9.57812 41.9375 9.57812C41.224 9.57812 40.6484 9.86198 40.2109 10.4297C39.7734 10.9974 39.5547 11.8099 39.5547 12.8672ZM49.5703 6.5V8.54688H51.1484V9.66406H49.5703V14.9062C49.5703 15.2448 49.6406 15.5 49.7812 15.6719C49.9219 15.8385 50.1615 15.9219 50.5 15.9219C50.6667 15.9219 50.8958 15.8906 51.1875 15.8281V17C50.8073 17.1042 50.4375 17.1562 50.0781 17.1562C49.4323 17.1562 48.9453 16.9609 48.6172 16.5703C48.2891 16.1797 48.125 15.625 48.125 14.9062V9.66406H46.5859V8.54688H48.125V6.5H49.5703ZM57.7656 14.7578C57.7656 14.3672 57.6172 14.0651 57.3203 13.8516C57.0286 13.6328 56.5156 13.4453 55.7812 13.2891C55.0521 13.1328 54.4714 12.9453 54.0391 12.7266C53.612 12.5078 53.2943 12.2474 53.0859 11.9453C52.8828 11.6432 52.7812 11.2839 52.7812 10.8672C52.7812 10.1745 53.0729 9.58854 53.6562 9.10938C54.2448 8.63021 54.9948 8.39062 55.9062 8.39062C56.8646 8.39062 57.6406 8.63802 58.2344 9.13281C58.8333 9.6276 59.1328 10.2604 59.1328 11.0312H57.6797C57.6797 10.6354 57.5104 10.2943 57.1719 10.0078C56.8385 9.72135 56.4167 9.57812 55.9062 9.57812C55.3802 9.57812 54.9688 9.69271 54.6719 9.92188C54.375 10.151 54.2266 10.4505 54.2266 10.8203C54.2266 11.1693 54.3646 11.4323 54.6406 11.6094C54.9167 11.7865 55.4141 11.9557 56.1328 12.1172C56.8568 12.2786 57.4427 12.4714 57.8906 12.6953C58.3385 12.9193 58.6693 13.1901 58.8828 13.5078C59.1016 13.8203 59.2109 14.2031 59.2109 14.6562C59.2109 15.4115 58.9089 16.0182 58.3047 16.4766C57.7005 16.9297 56.9167 17.1562 55.9531 17.1562C55.276 17.1562 54.6771 17.0365 54.1562 16.7969C53.6354 16.5573 53.2266 16.224 52.9297 15.7969C52.638 15.3646 52.4922 14.8984 52.4922 14.3984H53.9375C53.9635 14.8828 54.1562 15.2682 54.5156 15.5547C54.8802 15.8359 55.3594 15.9766 55.9531 15.9766C56.5 15.9766 56.9375 15.8672 57.2656 15.6484C57.599 15.4245 57.7656 15.1276 57.7656 14.7578Z" fill="#AFABCA"/>
<g clip-path="url(#clip0)">
<path d="M14.4782 3.2453L14.4783 3.24533C14.6023 3.40465 14.8373 3.70265 15.0678 3.98674C15.3001 4.27315 15.5226 4.5387 15.6245 4.63816L14.4782 3.2453ZM14.4782 3.2453C14.3568 3.08955 14.1423 3.04103 13.9657 3.1298C13.9657 3.1298 13.9657 3.12981 13.9657 3.12981L11.5595 4.33863C11.1756 4.08211 10.3049 3.5623 9.10764 3.22071C7.74682 2.83241 5.71248 2.6191 3.49314 3.64996V3.52025C3.49314 3.4013 3.44197 3.28804 3.35264 3.20943C3.26331 3.13081 3.14433 3.09443 3.02648 3.10956C3.02648 3.10956 3.02647 3.10956 3.02647 3.10956L0.612148 3.41912L14.4782 3.2453ZM0.251179 3.84877L0.251179 3.84877C0.241291 3.63342 0.398268 3.44652 0.612138 3.41912L0.251179 3.84877ZM0.251179 3.84877L0.505211 9.37756L0.505211 9.37757M0.251179 3.84877L0.505211 9.37757M0.505211 9.37757C0.515387 9.59835 0.697153 9.77226 0.918206 9.77259L3.03503 9.77559H3.03517M0.505211 9.37757L3.03517 9.77559M3.03517 9.77559H3.03517M3.03517 9.77559H3.03517M4.89851 8.40715C5.57364 8.60528 6.19232 8.73087 6.73742 8.78043M4.89851 8.40715C4.24536 8.21547 3.77542 8.22843 3.53961 8.44456C3.28601 8.6769 3.31379 9.15172 3.34351 9.29975M4.89851 8.40715L4.87035 8.50311C5.55005 8.70257 6.17527 8.82973 6.72836 8.88002L6.72837 8.88002C6.76296 8.88317 6.79692 8.88597 6.83027 8.88847M4.89851 8.40715L6.83027 8.88847M6.73742 8.78043L3.34351 9.29975M6.73742 8.78043C6.80363 8.78645 6.86746 8.79122 6.92897 8.79488C6.8965 8.82521 6.86359 8.85641 6.83027 8.88847M6.73742 8.78043L6.96618 8.89711C6.92206 8.89481 6.87676 8.89195 6.83027 8.88847M3.34351 9.29975L3.44156 9.28006C3.44155 9.28006 3.44155 9.28005 3.44155 9.28005L3.34351 9.29975ZM6.83027 8.88847C6.1495 9.5435 5.30009 10.5594 4.64047 11.9937C3.72888 13.9759 3.41209 16.2422 3.69496 18.7271M6.83027 8.88847L15.6245 4.63819C15.7049 4.71657 15.7499 4.82422 15.7494 4.93631L15.7494 4.93635C15.7488 5.04858 15.7028 5.15575 15.6217 5.23337C14.4947 6.31296 13.6721 7.67807 13.1782 9.29312C12.7798 10.5954 12.5921 12.0635 12.6217 13.6573C12.6471 15.0198 12.8286 16.2398 13.0046 17.1219C13.0927 17.5629 13.1793 17.9192 13.2442 18.1662C13.2767 18.2898 13.3037 18.386 13.3228 18.4518C13.3324 18.4847 13.3399 18.5101 13.3452 18.5274L13.3513 18.5474L13.353 18.5527L13.3534 18.5542L13.3536 18.5547L13.3536 18.5548C13.3937 18.6806 13.3712 18.8179 13.2935 18.9244L13.2934 18.9245C13.2156 19.0311 13.0917 19.0941 12.9598 19.0944H12.9597L12.9164 19.0944C12.5123 19.0951 9.40164 19.1 6.95276 19.1C5.63932 19.1 4.51569 19.0985 4.10209 19.0943C3.89317 19.0921 3.71858 18.9347 3.69496 18.7271M3.69496 18.7271C3.69497 18.7271 3.69497 18.7271 3.69497 18.7271L3.79432 18.7158L3.69496 18.7271ZM8.36453 8.70497L8.36402 8.70528C8.36407 8.70525 8.36398 8.70531 8.36372 8.70546C8.35319 8.71199 8.07389 8.88495 7.67408 9.23681C7.02 9.81251 6.09209 10.8188 5.39265 12.3397C4.59138 14.0822 4.28386 16.0744 4.4805 18.2687C6.08173 18.2757 10.803 18.2695 12.4135 18.2672C12.1999 17.4362 11.8319 15.7239 11.7937 13.6727C11.7626 11.9949 11.9614 10.4397 12.3862 9.05093C12.8791 7.43949 13.6782 6.05089 14.7646 4.91925C14.529 4.64265 14.2327 4.27192 14.035 4.0216L11.7096 5.18982L11.7096 5.18983C11.5674 5.26125 11.3969 5.24489 11.2708 5.14764L11.2708 5.14763L11.2705 5.14743L11.2702 5.14719L11.268 5.14553L11.2595 5.13919C11.252 5.13366 11.2409 5.12556 11.2264 5.11515C11.1972 5.09432 11.1541 5.06424 11.0979 5.02693C10.9855 4.95229 10.8208 4.84876 10.6105 4.73244C10.1896 4.4997 9.58743 4.21633 8.85777 4.01046C6.92219 3.46447 5.04825 3.69219 3.28256 4.68846C3.1544 4.76078 2.99745 4.75961 2.87033 4.68543L8.36453 8.70497ZM8.36453 8.70497C8.55753 8.58857 8.63142 8.33165 8.5119 8.13316M8.36453 8.70497L8.5119 8.13316M3.03517 9.77559H3.03518M3.03517 9.77559H3.03518M3.03518 9.77559H3.03518M3.03518 9.77559H3.03518M3.03518 9.77559H3.03518M3.03518 9.77559H3.03518M3.03518 9.77559H3.03519M3.03518 9.77559H3.03519M3.03519 9.77559H3.03519M3.03519 9.77559H3.03519M3.03519 9.77559H3.0352M3.03519 9.77559H3.0352M3.0352 9.77559H3.0352M3.0352 9.77559H3.0352M3.0352 9.77559H3.03521M3.0352 9.77559H3.03521M3.03521 9.77559H3.03521M3.03521 9.77559H3.03521M3.03521 9.77559H3.03521M3.03521 9.77559H3.03521M3.03521 9.77559H3.03522M3.03521 9.77559H3.03522M3.03522 9.77559H3.03522M3.03522 9.77559H3.03522M3.03522 9.77559H3.03522M3.03522 9.77559H3.03522M3.03522 9.77559H3.03523M3.03522 9.77559H3.03523M3.03523 9.77559H3.03523M3.03523 9.77559H3.03523M3.03523 9.77559H3.03524M3.03523 9.77559H3.03524M3.03524 9.77559H3.03524M3.03524 9.77559H3.03524M3.03524 9.77559H3.03524M3.03524 9.77559H3.03524M3.03524 9.77559H3.03525M3.03524 9.77559H3.03525M3.03525 9.77559H3.03525M3.03525 9.77559H3.03525M3.03525 9.77559H3.03526M3.03525 9.77559H3.03526M3.03526 9.77559H3.03526M3.03526 9.77559H3.03526M3.03526 9.77559H3.03526M3.03526 9.77559H3.03526M3.03526 9.77559H3.03527M3.03526 9.77559H3.03527M3.03527 9.77559H3.03527M3.03527 9.77559H3.03527M3.03527 9.77559H3.03527M3.03527 9.77559H3.03527M3.03527 9.77559H3.03528M3.03527 9.77559H3.03528M3.03528 9.77559H3.03528M3.03528 9.77559H3.03528M3.03528 9.77559H3.03529M3.03528 9.77559H3.03529M3.03529 9.77559H3.03529M3.03529 9.77559H3.03529M3.03529 9.77559H3.03529M3.03529 9.77559H3.03529M3.03529 9.77559H3.0353M3.03529 9.77559H3.0353M3.0353 9.77559H3.0353M3.0353 9.77559H3.0353M3.0353 9.77559H3.03531M3.0353 9.77559H3.03531M3.03531 9.77559H3.03531M3.03531 9.77559H3.03531M3.03531 9.77559H3.03531M3.03531 9.77559H3.03531M3.03531 9.77559H3.03532M3.03531 9.77559H3.03532M3.03532 9.77559H3.03532M3.03532 9.77559H3.03532M3.03532 9.77559H3.03533M3.03532 9.77559H3.03533M3.03533 9.77559H3.03533M3.03533 9.77559H3.03533M3.03533 9.77559H3.03533M3.03533 9.77559H3.03533M3.03533 9.77559H3.03534M3.03533 9.77559H3.03534M3.03534 9.77559H3.03534M3.03534 9.77559H3.03534M3.03534 9.77559H3.03535M3.03534 9.77559H3.03535M3.03535 9.77559H3.03535M3.03535 9.77559H3.03535M3.03535 9.77559H3.03535M3.03535 9.77559H3.03535M3.03535 9.77559H3.03536M3.03535 9.77559H3.03536M3.03536 9.77559H3.03536M3.03536 9.77559H3.03536M3.03536 9.77559H3.03536M3.03536 9.77559H3.03536M3.03536 9.77559H3.03537M3.03536 9.77559H3.03537M3.03537 9.77559H3.03537M3.03537 9.77559H3.03537M3.03537 9.77559H3.03538M3.03537 9.77559H3.03538M3.03538 9.77559H3.03538M3.03538 9.77559H3.03538M3.03538 9.77559H3.03538M3.03538 9.77559H3.03538M3.03538 9.77559H3.03539M3.03538 9.77559H3.03539M3.03539 9.77559H3.03539M3.03539 9.77559H3.03539M3.03539 9.77559H3.0354M3.03539 9.77559H3.0354M3.0354 9.77559H3.0354M3.0354 9.77559H3.0354M3.0354 9.77559H3.0354M3.0354 9.77559H3.0354M3.0354 9.77559H3.03541M3.0354 9.77559H3.03541M3.03541 9.77559H3.03541M3.03541 9.77559H3.03541M3.03541 9.77559H3.03541M3.03541 9.77559H3.03541M3.03541 9.77559H3.03542M3.03541 9.77559H3.03542M3.03542 9.77559H3.03542M3.03542 9.77559H3.03542M3.03542 9.77559H3.03543M3.03542 9.77559H3.03543M3.03543 9.77559H3.03543M3.03543 9.77559H3.03543M3.03543 9.77559H3.03543M3.03543 9.77559H3.03543M3.03543 9.77559H3.03544M3.03543 9.77559H3.03544M3.03544 9.77559H3.03544M3.03544 9.77559H3.03544M3.03544 9.77559H3.03545M3.03544 9.77559H3.03545M3.03545 9.77559H3.03545M3.03545 9.77559H3.03545M3.03545 9.77559H3.03545M3.03545 9.77559H3.03545M3.03545 9.77559H3.03546M3.03545 9.77559H3.03546M3.03546 9.77559H3.03546M3.03546 9.77559H3.03546M3.03546 9.77559H3.03547M3.03546 9.77559H3.03547M3.03547 9.77559H3.03547M3.03547 9.77559H3.03547M3.03547 9.77559H3.03547M3.03547 9.77559H3.03547M3.03547 9.77559H3.03548M3.03547 9.77559H3.03548M3.03548 9.77559H3.03548M3.03548 9.77559H3.03548M3.03548 9.77559H3.03549M3.03548 9.77559H3.03549M3.03549 9.77559H3.03549M3.03549 9.77559H3.03549M3.03549 9.77559H3.03549M3.03549 9.77559H3.03549M3.03549 9.77559H3.0355M3.03549 9.77559H3.0355M3.0355 9.77559H3.0355M3.0355 9.77559H3.0355M3.0355 9.77559H3.03551M3.0355 9.77559H3.03551M3.03551 9.77559H3.03551M3.03551 9.77559H3.03551M3.03551 9.77559H3.03552M3.03551 9.77559H3.03552M3.03552 9.77559H3.03552M3.03552 9.77559H3.03552M3.03552 9.77559H3.03553M3.03552 9.77559H3.03553M3.03553 9.77559H3.03553M3.03553 9.77559H3.03553M3.03553 9.77559H3.03553M3.03553 9.77559H3.03553M3.03553 9.77559H3.03554M3.03553 9.77559H3.03554M3.03554 9.77559H3.03554M3.03554 9.77559H3.03554M3.03554 9.77559H3.03555M3.03554 9.77559H3.03555M3.03555 9.77559H3.03555M3.03555 9.77559H3.03555M3.03555 9.77559H3.03556M3.03555 9.77559H3.03556M3.03556 9.77559H3.03556M3.03556 9.77559H3.03556M3.03556 9.77559H3.03556M3.03556 9.77559H3.03556M3.03556 9.77559H3.03557M3.03556 9.77559H3.03557M3.03557 9.77559H3.03557M3.03557 9.77559H3.03557M3.03557 9.77559H3.03558M3.03557 9.77559H3.03558M3.03558 9.77559H3.03558M3.03558 9.77559H3.03558M3.03558 9.77559H3.03559M3.03558 9.77559H3.03559M3.03559 9.77559H3.03559M3.03559 9.77559H3.03559M3.03559 9.77559H3.03559M3.03559 9.77559H3.03559M3.03559 9.77559H3.0356M3.03559 9.77559H3.0356M3.0356 9.77559H3.0356M3.0356 9.77559H3.0356M3.0356 9.77559H3.03561M3.0356 9.77559H3.03561M3.03561 9.77559H3.03561M3.03561 9.77559H3.03561M3.03561 9.77559H3.03561M3.03561 9.77559H3.03561M3.03561 9.77559H3.03562M3.03561 9.77559H3.03562M3.03562 9.77559H3.03562M3.03562 9.77559H3.03562M3.03562 9.77559H3.03562M3.03562 9.77559H3.03562M3.03562 9.77559H3.03563M3.03562 9.77559H3.03563M3.03563 9.77559H3.03563M3.03563 9.77559H3.03563M3.03563 9.77559C3.15955 9.77559 3.2771 9.72007 3.35575 9.62415M3.03563 9.77559L3.35575 9.62415M3.35575 9.62415C3.35573 9.62417 3.35572 9.62419 3.35571 9.6242L3.27842 9.56075C3.21879 9.63347 3.12964 9.67559 3.03564 9.67559H3.03517L0.918355 9.67259L3.35575 9.62415ZM8.5119 8.13316C8.39775 7.94343 8.15762 7.87134 7.96091 7.98201M8.5119 8.13316L7.96091 7.98201M7.96091 7.98201C7.91388 8.00093 7.56981 8.12515 6.80322 8.05544C6.30676 8.01027 5.73501 7.89396 5.10339 7.70861M7.96091 7.98201L5.10339 7.70861M5.10339 7.70861C5.10339 7.70861 5.10339 7.70861 5.1034 7.70861L5.07523 7.80456L5.10339 7.70861ZM5.10339 7.70861C4.20449 7.44475 3.49965 7.49359 3.04764 7.90777M5.10339 7.70861L3.04764 7.90777M3.04764 7.90777C2.71486 8.21269 2.61984 8.63056 2.60151 8.94689M3.04764 7.90777L2.60151 8.94689M2.60151 8.94689L1.31425 8.94507L1.09589 4.19196L2.66504 3.99076V4.32787C2.66504 4.47506 2.74318 4.61124 2.87033 4.68543L2.60151 8.94689Z" fill="#AFABCA" stroke="#AFABCA" stroke-width="0.2"/>
</g>
<defs>
<clipPath id="clip0">
<rect width="16" height="16" fill="white" transform="translate(0 3)"/>
</clipPath>
</defs>
</svg>
