<svg width="117" height="24" viewBox="0 0 117 24" fill="none" xmlns="http://www.w3.org/2000/svg">
<path d="M32.1797 6.85938H28.5234V17H27.0312V6.85938H23.3828V5.625H32.1797V6.85938ZM37.9688 17C37.8854 16.8333 37.8177 16.5365 37.7656 16.1094C37.0938 16.8073 36.2917 17.1562 35.3594 17.1562C34.526 17.1562 33.8411 16.9219 33.3047 16.4531C32.7734 15.9792 32.5078 15.3802 32.5078 14.6562C32.5078 13.776 32.8411 13.0938 33.5078 12.6094C34.1797 12.1198 35.1224 11.875 36.3359 11.875H37.7422V11.2109C37.7422 10.7057 37.5911 10.3047 37.2891 10.0078C36.987 9.70573 36.5417 9.55469 35.9531 9.55469C35.4375 9.55469 35.0052 9.6849 34.6562 9.94531C34.3073 10.2057 34.1328 10.5208 34.1328 10.8906H32.6797C32.6797 10.4688 32.8281 10.0625 33.125 9.67188C33.4271 9.27604 33.8333 8.96354 34.3438 8.73438C34.8594 8.50521 35.4245 8.39062 36.0391 8.39062C37.013 8.39062 37.776 8.63542 38.3281 9.125C38.8802 9.60938 39.1667 10.2786 39.1875 11.1328V15.0234C39.1875 15.7995 39.2865 16.4167 39.4844 16.875V17H37.9688ZM35.5703 15.8984C36.0234 15.8984 36.4531 15.7812 36.8594 15.5469C37.2656 15.3125 37.5599 15.0078 37.7422 14.6328V12.8984H36.6094C34.8385 12.8984 33.9531 13.4167 33.9531 14.4531C33.9531 14.9062 34.1042 15.2604 34.4062 15.5156C34.7083 15.7708 35.0964 15.8984 35.5703 15.8984ZM48.6094 12.8672C48.6094 14.1589 48.3125 15.1979 47.7188 15.9844C47.125 16.7656 46.3281 17.1562 45.3281 17.1562C44.2604 17.1562 43.4349 16.7786 42.8516 16.0234L42.7812 17H41.4531V5H42.8984V9.47656C43.4818 8.7526 44.2865 8.39062 45.3125 8.39062C46.3385 8.39062 47.1432 8.77865 47.7266 9.55469C48.3151 10.3307 48.6094 11.3932 48.6094 12.7422V12.8672ZM47.1641 12.7031C47.1641 11.7188 46.974 10.9583 46.5938 10.4219C46.2135 9.88542 45.6667 9.61719 44.9531 9.61719C44 9.61719 43.3151 10.0599 42.8984 10.9453V14.6016C43.3411 15.487 44.0312 15.9297 44.9688 15.9297C45.6615 15.9297 46.2005 15.6615 46.5859 15.125C46.9714 14.5885 47.1641 13.7812 47.1641 12.7031ZM52.0078 17H50.5625V5H52.0078V17ZM57.8359 17.1562C56.6901 17.1562 55.7578 16.7812 55.0391 16.0312C54.3203 15.276 53.9609 14.2682 53.9609 13.0078V12.7422C53.9609 11.9036 54.1198 11.1562 54.4375 10.5C54.7604 9.83854 55.2083 9.32292 55.7812 8.95312C56.3594 8.57812 56.9844 8.39062 57.6562 8.39062C58.7552 8.39062 59.6094 8.7526 60.2188 9.47656C60.8281 10.2005 61.1328 11.237 61.1328 12.5859V13.1875H55.4062C55.4271 14.0208 55.6693 14.6953 56.1328 15.2109C56.6016 15.7214 57.1953 15.9766 57.9141 15.9766C58.4245 15.9766 58.8568 15.8724 59.2109 15.6641C59.5651 15.4557 59.875 15.1797 60.1406 14.8359L61.0234 15.5234C60.3151 16.612 59.2526 17.1562 57.8359 17.1562ZM57.6562 9.57812C57.0729 9.57812 56.5833 9.79167 56.1875 10.2188C55.7917 10.6406 55.5469 11.2344 55.4531 12H59.6875V11.8906C59.6458 11.1562 59.4479 10.5885 59.0938 10.1875C58.7396 9.78125 58.2604 9.57812 57.6562 9.57812ZM75.4062 15.5078C75.0208 16.0599 74.4818 16.474 73.7891 16.75C73.1016 17.0208 72.2995 17.1562 71.3828 17.1562C70.4557 17.1562 69.6328 16.9401 68.9141 16.5078C68.1953 16.0703 67.638 15.4505 67.2422 14.6484C66.8516 13.8464 66.651 12.9167 66.6406 11.8594V10.8672C66.6406 9.15365 67.0391 7.82552 67.8359 6.88281C68.638 5.9401 69.763 5.46875 71.2109 5.46875C72.3984 5.46875 73.3542 5.77344 74.0781 6.38281C74.8021 6.98698 75.2448 7.84635 75.4062 8.96094H73.9062C73.625 7.45573 72.7292 6.70312 71.2188 6.70312C70.2135 6.70312 69.4505 7.05729 68.9297 7.76562C68.4141 8.46875 68.1536 9.48958 68.1484 10.8281V11.7578C68.1484 13.0339 68.4401 14.0495 69.0234 14.8047C69.6068 15.5547 70.3958 15.9297 71.3906 15.9297C71.9531 15.9297 72.4453 15.8672 72.8672 15.7422C73.2891 15.6172 73.638 15.4062 73.9141 15.1094V12.5547H71.2812V11.3359H75.4062V15.5078ZM82.9062 17C82.8229 16.8333 82.7552 16.5365 82.7031 16.1094C82.0312 16.8073 81.2292 17.1562 80.2969 17.1562C79.4635 17.1562 78.7786 16.9219 78.2422 16.4531C77.7109 15.9792 77.4453 15.3802 77.4453 14.6562C77.4453 13.776 77.7786 13.0938 78.4453 12.6094C79.1172 12.1198 80.0599 11.875 81.2734 11.875H82.6797V11.2109C82.6797 10.7057 82.5286 10.3047 82.2266 10.0078C81.9245 9.70573 81.4792 9.55469 80.8906 9.55469C80.375 9.55469 79.9427 9.6849 79.5938 9.94531C79.2448 10.2057 79.0703 10.5208 79.0703 10.8906H77.6172C77.6172 10.4688 77.7656 10.0625 78.0625 9.67188C78.3646 9.27604 78.7708 8.96354 79.2812 8.73438C79.7969 8.50521 80.362 8.39062 80.9766 8.39062C81.9505 8.39062 82.7135 8.63542 83.2656 9.125C83.8177 9.60938 84.1042 10.2786 84.125 11.1328V15.0234C84.125 15.7995 84.224 16.4167 84.4219 16.875V17H82.9062ZM80.5078 15.8984C80.9609 15.8984 81.3906 15.7812 81.7969 15.5469C82.2031 15.3125 82.4974 15.0078 82.6797 14.6328V12.8984H81.5469C79.776 12.8984 78.8906 13.4167 78.8906 14.4531C78.8906 14.9062 79.0417 15.2604 79.3438 15.5156C79.6458 15.7708 80.0339 15.8984 80.5078 15.8984ZM87.75 8.54688L87.7891 9.48438C88.4089 8.75521 89.2448 8.39062 90.2969 8.39062C91.4792 8.39062 92.2839 8.84375 92.7109 9.75C92.9922 9.34375 93.3568 9.01562 93.8047 8.76562C94.2578 8.51562 94.7917 8.39062 95.4062 8.39062C97.2604 8.39062 98.2031 9.3724 98.2344 11.3359V17H96.7891V11.4219C96.7891 10.8177 96.651 10.3672 96.375 10.0703C96.099 9.76823 95.6354 9.61719 94.9844 9.61719C94.4479 9.61719 94.0026 9.77865 93.6484 10.1016C93.2943 10.4193 93.0885 10.849 93.0312 11.3906V17H91.5781V11.4609C91.5781 10.2318 90.9766 9.61719 89.7734 9.61719C88.8255 9.61719 88.1771 10.0208 87.8281 10.8281V17H86.3828V8.54688H87.75ZM103.93 17.1562C102.784 17.1562 101.852 16.7812 101.133 16.0312C100.414 15.276 100.055 14.2682 100.055 13.0078V12.7422C100.055 11.9036 100.214 11.1562 100.531 10.5C100.854 9.83854 101.302 9.32292 101.875 8.95312C102.453 8.57812 103.078 8.39062 103.75 8.39062C104.849 8.39062 105.703 8.7526 106.312 9.47656C106.922 10.2005 107.227 11.237 107.227 12.5859V13.1875H101.5C101.521 14.0208 101.763 14.6953 102.227 15.2109C102.695 15.7214 103.289 15.9766 104.008 15.9766C104.518 15.9766 104.951 15.8724 105.305 15.6641C105.659 15.4557 105.969 15.1797 106.234 14.8359L107.117 15.5234C106.409 16.612 105.346 17.1562 103.93 17.1562ZM103.75 9.57812C103.167 9.57812 102.677 9.79167 102.281 10.2188C101.885 10.6406 101.641 11.2344 101.547 12H105.781V11.8906C105.74 11.1562 105.542 10.5885 105.188 10.1875C104.833 9.78125 104.354 9.57812 103.75 9.57812ZM113.828 14.7578C113.828 14.3672 113.68 14.0651 113.383 13.8516C113.091 13.6328 112.578 13.4453 111.844 13.2891C111.115 13.1328 110.534 12.9453 110.102 12.7266C109.674 12.5078 109.357 12.2474 109.148 11.9453C108.945 11.6432 108.844 11.2839 108.844 10.8672C108.844 10.1745 109.135 9.58854 109.719 9.10938C110.307 8.63021 111.057 8.39062 111.969 8.39062C112.927 8.39062 113.703 8.63802 114.297 9.13281C114.896 9.6276 115.195 10.2604 115.195 11.0312H113.742C113.742 10.6354 113.573 10.2943 113.234 10.0078C112.901 9.72135 112.479 9.57812 111.969 9.57812C111.443 9.57812 111.031 9.69271 110.734 9.92188C110.438 10.151 110.289 10.4505 110.289 10.8203C110.289 11.1693 110.427 11.4323 110.703 11.6094C110.979 11.7865 111.477 11.9557 112.195 12.1172C112.919 12.2786 113.505 12.4714 113.953 12.6953C114.401 12.9193 114.732 13.1901 114.945 13.5078C115.164 13.8203 115.273 14.2031 115.273 14.6562C115.273 15.4115 114.971 16.0182 114.367 16.4766C113.763 16.9297 112.979 17.1562 112.016 17.1562C111.339 17.1562 110.74 17.0365 110.219 16.7969C109.698 16.5573 109.289 16.224 108.992 15.7969C108.701 15.3646 108.555 14.8984 108.555 14.3984H110C110.026 14.8828 110.219 15.2682 110.578 15.5547C110.943 15.8359 111.422 15.9766 112.016 15.9766C112.562 15.9766 113 15.8672 113.328 15.6484C113.661 15.4245 113.828 15.1276 113.828 14.7578Z" fill="#AFABCA"/>
<path d="M8.04476 2.9398L8.00003 2.90656L7.95529 2.9398C6.7015 3.87162 4.99714 5.30147 3.582 6.8822C2.87439 7.6726 2.23777 8.50219 1.76596 9.32742C1.29447 10.1521 0.985101 10.9766 0.937422 11.756C0.810748 13.8267 1.67701 14.9902 2.43149 15.6011L2.47869 15.5428L2.4315 15.6011C3.24903 16.2629 4.10415 16.4211 4.1449 16.4284L4.14593 16.4286C4.26375 16.4479 4.434 16.4545 4.55139 16.4545C5.15615 16.4545 6.3605 16.3088 7.44687 15.3042V17.9952H5.663H5.588V18.0702V19V19.075H5.663H10.3371H10.4121V19V18.0702V17.9952H10.3371H8.55318V15.3038C10.0394 16.6782 11.7455 16.4453 11.8407 16.4308L11.8415 16.4306L11.854 16.4286L11.854 16.4286L11.8552 16.4284C11.8959 16.4211 12.7511 16.263 13.5686 15.6011C14.323 14.9902 15.1893 13.8267 15.0626 11.756C15.0149 10.9767 14.7056 10.1522 14.2341 9.32752C13.7623 8.50232 13.1257 7.67274 12.4181 6.88234C11.003 5.30161 9.29868 3.87172 8.04476 2.9398ZM10.5701 15.2392L10.5701 15.2392C9.70344 14.9769 9.00229 14.3743 8.48726 13.4396L8.06578 12.6746L8.00009 12.5554L7.9344 12.6746L7.51292 13.4396C6.34846 15.5528 4.5063 15.3849 4.33523 15.3645C4.23542 15.344 3.62103 15.2011 3.0525 14.6984C2.48179 14.1938 1.95001 13.3204 2.04179 11.8204C2.08438 11.1245 2.40002 10.3626 2.87574 9.59221C3.35082 8.82288 3.98173 8.05118 4.64689 7.33683C5.94449 5.94326 7.36663 4.77404 8.00009 4.274C8.63355 4.77404 10.0557 5.94326 11.3533 7.33683C12.0184 8.05118 12.6493 8.82288 13.1244 9.59221C13.6001 10.3626 13.9158 11.1245 13.9583 11.8204C14.0505 13.3259 13.5144 14.2003 12.9415 14.7041C12.3714 15.2053 11.7576 15.3457 11.6653 15.3644C11.6028 15.3716 11.1494 15.4146 10.5701 15.2392Z" fill="#AFABCA" stroke="#AFABCA" stroke-width="0.15"/>
</svg>
