<svg width="114" height="24" viewBox="0 0 114 24" fill="none" xmlns="http://www.w3.org/2000/svg">
<path d="M29.0859 15.0078L32.3359 5.625H33.9766L29.7578 17H28.4297L24.2188 5.625H25.8516L29.0859 15.0078ZM36.8516 17H35.4062V8.54688H36.8516V17ZM35.2891 6.30469C35.2891 6.07031 35.3594 5.8724 35.5 5.71094C35.6458 5.54948 35.8594 5.46875 36.1406 5.46875C36.4219 5.46875 36.6354 5.54948 36.7812 5.71094C36.9271 5.8724 37 6.07031 37 6.30469C37 6.53906 36.9271 6.73438 36.7812 6.89062C36.6354 7.04688 36.4219 7.125 36.1406 7.125C35.8594 7.125 35.6458 7.04688 35.5 6.89062C35.3594 6.73438 35.2891 6.53906 35.2891 6.30469ZM43.2578 9.84375C43.0391 9.80729 42.8021 9.78906 42.5469 9.78906C41.599 9.78906 40.9557 10.1927 40.6172 11V17H39.1719V8.54688H40.5781L40.6016 9.52344C41.0755 8.76823 41.7474 8.39062 42.6172 8.39062C42.8984 8.39062 43.112 8.42708 43.2578 8.5V9.84375ZM46.9453 6.5V8.54688H48.5234V9.66406H46.9453V14.9062C46.9453 15.2448 47.0156 15.5 47.1562 15.6719C47.2969 15.8385 47.5365 15.9219 47.875 15.9219C48.0417 15.9219 48.2708 15.8906 48.5625 15.8281V17C48.1823 17.1042 47.8125 17.1562 47.4531 17.1562C46.8073 17.1562 46.3203 16.9609 45.9922 16.5703C45.6641 16.1797 45.5 15.625 45.5 14.9062V9.66406H43.9609V8.54688H45.5V6.5H46.9453ZM55.4375 16.1641C54.875 16.8255 54.0495 17.1562 52.9609 17.1562C52.0599 17.1562 51.3724 16.8958 50.8984 16.375C50.4297 15.849 50.1927 15.0729 50.1875 14.0469V8.54688H51.6328V14.0078C51.6328 15.2891 52.1536 15.9297 53.1953 15.9297C54.2995 15.9297 55.0339 15.5182 55.3984 14.6953V8.54688H56.8438V17H55.4688L55.4375 16.1641ZM64.2656 17C64.1823 16.8333 64.1146 16.5365 64.0625 16.1094C63.3906 16.8073 62.5885 17.1562 61.6562 17.1562C60.8229 17.1562 60.138 16.9219 59.6016 16.4531C59.0703 15.9792 58.8047 15.3802 58.8047 14.6562C58.8047 13.776 59.138 13.0938 59.8047 12.6094C60.4766 12.1198 61.4193 11.875 62.6328 11.875H64.0391V11.2109C64.0391 10.7057 63.888 10.3047 63.5859 10.0078C63.2839 9.70573 62.8385 9.55469 62.25 9.55469C61.7344 9.55469 61.3021 9.6849 60.9531 9.94531C60.6042 10.2057 60.4297 10.5208 60.4297 10.8906H58.9766C58.9766 10.4688 59.125 10.0625 59.4219 9.67188C59.724 9.27604 60.1302 8.96354 60.6406 8.73438C61.1562 8.50521 61.7214 8.39062 62.3359 8.39062C63.3099 8.39062 64.0729 8.63542 64.625 9.125C65.1771 9.60938 65.4635 10.2786 65.4844 11.1328V15.0234C65.4844 15.7995 65.5833 16.4167 65.7812 16.875V17H64.2656ZM61.8672 15.8984C62.3203 15.8984 62.75 15.7812 63.1562 15.5469C63.5625 15.3125 63.8568 15.0078 64.0391 14.6328V12.8984H62.9062C61.1354 12.8984 60.25 13.4167 60.25 14.4531C60.25 14.9062 60.401 15.2604 60.7031 15.5156C61.0052 15.7708 61.3932 15.8984 61.8672 15.8984ZM69.3203 17H67.875V5H69.3203V17ZM79.1875 11.9297C77.901 11.5599 76.9635 11.1068 76.375 10.5703C75.7917 10.0286 75.5 9.36198 75.5 8.57031C75.5 7.67448 75.8568 6.9349 76.5703 6.35156C77.2891 5.76302 78.2214 5.46875 79.3672 5.46875C80.1484 5.46875 80.8438 5.61979 81.4531 5.92188C82.0677 6.22396 82.5417 6.64062 82.875 7.17188C83.2135 7.70312 83.3828 8.28385 83.3828 8.91406H81.875C81.875 8.22656 81.6562 7.6875 81.2188 7.29688C80.7812 6.90104 80.1641 6.70312 79.3672 6.70312C78.6276 6.70312 78.0495 6.86719 77.6328 7.19531C77.2214 7.51823 77.0156 7.96875 77.0156 8.54688C77.0156 9.01042 77.2109 9.40365 77.6016 9.72656C77.9974 10.0443 78.6667 10.3359 79.6094 10.6016C80.5573 10.8672 81.2969 11.1615 81.8281 11.4844C82.3646 11.8021 82.7604 12.1745 83.0156 12.6016C83.276 13.0286 83.4062 13.5312 83.4062 14.1094C83.4062 15.0312 83.0469 15.7708 82.3281 16.3281C81.6094 16.8802 80.6484 17.1562 79.4453 17.1562C78.6641 17.1562 77.9349 17.0078 77.2578 16.7109C76.5807 16.4089 76.0573 15.9974 75.6875 15.4766C75.3229 14.9557 75.1406 14.3646 75.1406 13.7031H76.6484C76.6484 14.3906 76.901 14.9349 77.4062 15.3359C77.9167 15.7318 78.5964 15.9297 79.4453 15.9297C80.237 15.9297 80.8438 15.7682 81.2656 15.4453C81.6875 15.1224 81.8984 14.6823 81.8984 14.125C81.8984 13.5677 81.7031 13.138 81.3125 12.8359C80.9219 12.5286 80.2135 12.2266 79.1875 11.9297ZM92.25 12.8672C92.25 14.1536 91.9557 15.1901 91.3672 15.9766C90.7786 16.763 89.9818 17.1562 88.9766 17.1562C87.9505 17.1562 87.1432 16.8307 86.5547 16.1797V20.25H85.1094V8.54688H86.4297L86.5 9.48438C87.0885 8.75521 87.9062 8.39062 88.9531 8.39062C89.9688 8.39062 90.7708 8.77344 91.3594 9.53906C91.9531 10.3047 92.25 11.3698 92.25 12.7344V12.8672ZM90.8047 12.7031C90.8047 11.75 90.6016 10.9974 90.1953 10.4453C89.7891 9.89323 89.2318 9.61719 88.5234 9.61719C87.6484 9.61719 86.9922 10.0052 86.5547 10.7812V14.8203C86.987 15.5911 87.6484 15.9766 88.5391 15.9766C89.2318 15.9766 89.7812 15.7031 90.1875 15.1562C90.599 14.6042 90.8047 13.7865 90.8047 12.7031ZM93.7109 12.6953C93.7109 11.8672 93.8724 11.1224 94.1953 10.4609C94.5234 9.79948 94.9766 9.28906 95.5547 8.92969C96.138 8.57031 96.8021 8.39062 97.5469 8.39062C98.6979 8.39062 99.6276 8.78906 100.336 9.58594C101.049 10.3828 101.406 11.4427 101.406 12.7656V12.8672C101.406 13.6901 101.247 14.4297 100.93 15.0859C100.617 15.737 100.167 16.2448 99.5781 16.6094C98.9948 16.974 98.3229 17.1562 97.5625 17.1562C96.4167 17.1562 95.487 16.7578 94.7734 15.9609C94.0651 15.1641 93.7109 14.1094 93.7109 12.7969V12.6953ZM95.1641 12.8672C95.1641 13.8047 95.3802 14.5573 95.8125 15.125C96.25 15.6927 96.8333 15.9766 97.5625 15.9766C98.2969 15.9766 98.8802 15.6901 99.3125 15.1172C99.7448 14.5391 99.9609 13.7318 99.9609 12.6953C99.9609 11.7682 99.7396 11.0182 99.2969 10.4453C98.8594 9.86719 98.276 9.57812 97.5469 9.57812C96.8333 9.57812 96.2578 9.86198 95.8203 10.4297C95.3828 10.9974 95.1641 11.8099 95.1641 12.8672ZM107.305 9.84375C107.086 9.80729 106.849 9.78906 106.594 9.78906C105.646 9.78906 105.003 10.1927 104.664 11V17H103.219V8.54688H104.625L104.648 9.52344C105.122 8.76823 105.794 8.39062 106.664 8.39062C106.945 8.39062 107.159 8.42708 107.305 8.5V9.84375ZM110.992 6.5V8.54688H112.57V9.66406H110.992V14.9062C110.992 15.2448 111.062 15.5 111.203 15.6719C111.344 15.8385 111.583 15.9219 111.922 15.9219C112.089 15.9219 112.318 15.8906 112.609 15.8281V17C112.229 17.1042 111.859 17.1562 111.5 17.1562C110.854 17.1562 110.367 16.9609 110.039 16.5703C109.711 16.1797 109.547 15.625 109.547 14.9062V9.66406H108.008V8.54688H109.547V6.5H110.992Z" fill="#AFABCA"/>
<path d="M8.00013 3.53995H8.00001C3.88002 3.53995 0.540015 6.87995 0.540015 11C0.540015 15.12 3.88002 18.46 8.00001 18.46C12.12 18.46 15.46 15.12 15.46 11V10.9998C15.4554 6.88185 12.1181 3.54457 8.00013 3.53995ZM9.56848 17.5843C8.60607 17.8148 7.60474 17.8308 6.63542 17.6312L5.23054 15.4318L6.45535 13.7986H9.54496L10.7901 15.4433L9.56848 17.5843ZM10.8187 4.84707C11.9383 5.36275 12.8969 6.1725 13.5924 7.19017L13.1052 9.26134L10.5224 10.1222L8.34535 8.3808V5.83636L10.8187 4.84707ZM14.7342 11.6732C14.6281 12.7428 14.267 13.7715 13.6814 14.6728L11.3514 15.0407L10.0917 13.3766L10.7416 10.7776L13.2823 9.93094L14.7342 11.6732ZM4.65911 15.0423L2.31864 14.6728C1.73302 13.7712 1.37209 12.7423 1.26607 11.6724L2.71682 9.93023L5.25742 10.7769L5.90747 13.3776L4.65911 15.0423ZM2.22701 9.44043L1.24248 10.6208C1.29129 9.7328 1.5158 8.86305 1.90303 8.06229L2.22701 9.44043ZM9.44772 13.108H6.55233L5.93597 10.64L8.00001 8.9889L10.0645 10.6407L9.44772 13.108ZM13.773 9.43947L14.097 8.06133C14.4842 8.86209 14.7087 9.73176 14.7575 10.6199L13.773 9.43947ZM7.99983 5.23097L6.13672 4.49317C7.35049 4.14417 8.63814 4.1431 9.85252 4.48998L7.99983 5.23097ZM2.40761 7.19018C3.1008 6.17625 4.05514 5.36862 5.16983 4.85266L7.65468 5.83743V8.3808L5.47758 10.1222L2.89484 9.26134L2.40761 7.19018ZM4.60339 15.7329L5.62919 17.3397C4.58588 16.9473 3.65498 16.3041 2.91892 15.4668L4.60339 15.7329ZM11.4241 15.728L13.0821 15.4665C12.3866 16.2574 11.5167 16.8759 10.5413 17.273L11.4241 15.728Z" fill="#AFABCA" stroke="#AFABCA" stroke-width="0.2"/>
</svg>
