<svg width="100" height="24" viewBox="0 0 100 24" fill="none" xmlns="http://www.w3.org/2000/svg">
<path fill-rule="evenodd" clip-rule="evenodd" d="M10.4167 17.0634C10.8167 17.0634 11.1667 16.9765 11.5 16.8202C11.8333 16.6465 12.1 16.4381 12.3333 16.1428C12.5667 15.8649 12.7333 15.5349 12.8667 15.1528C12.9833 14.7707 13.05 14.3712 13.05 13.937C13.05 13.3465 12.8833 12.8601 12.5667 12.4607C12.25 12.0612 11.7833 11.8701 11.1667 11.8701C10.8 11.8701 10.45 11.957 10.1167 12.1133C9.78333 12.287 9.5 12.5128 9.26666 12.7907C9.03333 13.0859 8.83333 13.4159 8.7 13.798C8.56667 14.1802 8.5 14.5796 8.5 14.9965C8.5 15.6044 8.68333 16.1081 9.03333 16.4902C9.35 16.8723 9.81666 17.0634 10.4167 17.0634Z" fill="#E8561B"/>
<path fill-rule="evenodd" clip-rule="evenodd" d="M20.3333 11.7314C20 11.7314 19.7 11.7836 19.4333 11.9225C19.1667 12.0441 18.9333 12.2004 18.7333 12.3915C18.5333 12.5825 18.3667 12.8083 18.25 13.0341C18.1167 13.2599 18.0333 13.4857 18 13.6941H21.9833C22 13.6246 22 13.5378 22 13.4857C22 13.4162 22 13.3467 22 13.2772C22 12.843 21.85 12.4783 21.5667 12.183C21.2833 11.8704 20.8667 11.7314 20.3333 11.7314Z" fill="#E8561B"/>
<path fill-rule="evenodd" clip-rule="evenodd" d="M35.7169 4.61037C33.9335 0.250867 25.7335 -0.634926 14.5002 4.29774C12.7836 5.04458 11.2336 5.84354 9.81691 6.65986L8.90025 11.7488H8.93358C9.25025 11.2799 9.63358 10.9151 10.1169 10.6546C10.6002 10.3941 11.1169 10.2551 11.7002 10.2551C12.1836 10.2551 12.6336 10.342 13.0336 10.4983C13.4336 10.672 13.7669 10.8978 14.0502 11.2104C14.3336 11.523 14.5502 11.8878 14.7002 12.3046C14.8502 12.7215 14.9336 13.1904 14.9336 13.7115C14.9336 14.4062 14.8336 15.0489 14.6169 15.6394C14.4002 16.2299 14.1169 16.7683 13.7502 17.2199C13.3836 17.6715 12.9336 18.0189 12.4169 18.2794C11.9002 18.5399 11.3336 18.6789 10.7169 18.6789C10.1502 18.6789 9.60025 18.5399 9.10025 18.2794C8.60025 18.0189 8.21692 17.6194 7.96692 17.1157H7.93358L7.71692 18.4878H5.96692L7.73358 7.99723C1.45026 12.2352 -0.999729 16.9594 0.366934 20.3115C2.15026 24.671 11.5002 24.7231 21.2669 20.3984C22.8502 19.6863 24.3502 18.922 25.7502 18.0884C25.4502 17.7583 25.3002 17.3415 25.3002 16.8031C25.3002 16.6468 25.3169 16.4731 25.3169 16.2994C25.3335 16.1257 25.3502 15.952 25.3835 15.7957L26.0335 12.0962H24.6669L24.9335 10.4983H26.2669L26.6502 8.17092H28.5002L28.1169 10.4983H29.8335L29.5669 12.0962H27.8669L27.2002 15.8304C27.1669 15.9868 27.1502 16.1431 27.1502 16.2994C27.1502 16.5773 27.2335 16.7857 27.4002 16.8899C27.4335 16.9073 27.4835 16.942 27.5169 16.9594C33.6169 12.8604 37.0835 7.94513 35.7169 4.61037ZM23.6669 14.1978C23.6335 14.5104 23.5835 14.8057 23.5169 15.0836H17.8336C17.8169 15.1357 17.8169 15.2052 17.8169 15.2747C17.8169 15.5352 17.8669 15.7783 17.9669 16.0041C18.0669 16.2299 18.2002 16.421 18.3836 16.5773C18.5669 16.7336 18.7836 16.8726 19.0169 16.9594C19.2669 17.0462 19.5336 17.0983 19.8169 17.0983C20.3002 17.0983 20.7169 17.0115 21.0669 16.8204C21.4169 16.6294 21.7169 16.3689 22.0002 16.0562L23.0669 17.0983C22.1169 18.1578 20.9669 18.6962 19.6002 18.6962C19.0836 18.6962 18.6002 18.6094 18.1669 18.4531C17.7336 18.2968 17.3502 18.0536 17.0336 17.7583C16.7169 17.4631 16.4669 17.0983 16.2836 16.6468C16.1002 16.2126 16.0169 15.7089 16.0169 15.1357C16.0169 14.441 16.1336 13.8157 16.3502 13.2078C16.5669 12.6173 16.8836 12.0962 17.2836 11.6446C17.6836 11.193 18.1502 10.8457 18.7002 10.6025C19.2502 10.3594 19.8502 10.2204 20.5002 10.2204C20.9502 10.2204 21.3836 10.2899 21.7669 10.4288C22.1502 10.5678 22.5002 10.7588 22.7835 11.0194C23.0669 11.2799 23.3002 11.6099 23.4502 12.0094C23.6169 12.4088 23.6835 12.8778 23.6835 13.4162C23.7002 13.642 23.6835 13.8852 23.6669 14.1978Z" fill="#E8561B"/>
<path d="M42.3334 11.6967L42.5333 10.4809H44.3167L43.1 17.793C42.9834 18.4877 42.8167 19.1304 42.5834 19.7035C42.3667 20.2767 42.0667 20.7804 41.6834 21.1798C41.3167 21.5967 40.85 21.9093 40.3 22.1351C39.75 22.3609 39.0834 22.4651 38.3 22.4651C37.9834 22.4651 37.65 22.4304 37.3167 22.3782C36.9834 22.3261 36.6334 22.2219 36.3167 22.1004C35.9834 21.9788 35.6667 21.8225 35.3834 21.6488C35.0834 21.4751 34.8334 21.2667 34.6167 21.0409L35.8667 19.6167C36.1667 19.9814 36.5334 20.2593 36.9667 20.4677C37.4 20.6588 37.8667 20.763 38.35 20.763C38.8167 20.763 39.2167 20.6935 39.5334 20.5546C39.8667 20.4156 40.1334 20.2246 40.35 19.9814C40.5667 19.7382 40.75 19.443 40.8834 19.0956C41.0167 18.7482 41.1167 18.3835 41.2 17.984L41.3334 17.3414H41.3167C41.0334 17.7235 40.6667 18.0361 40.2167 18.2619C39.7667 18.4877 39.25 18.6093 38.6667 18.6093C38.1834 18.6093 37.7334 18.5225 37.3334 18.3661C36.9334 18.1925 36.6 17.9667 36.3167 17.6714C36.0334 17.3761 35.8167 17.0114 35.6667 16.5946C35.5167 16.1777 35.4334 15.7088 35.4334 15.2051C35.4334 14.5277 35.5334 13.8851 35.75 13.2946C35.95 12.704 36.25 12.1656 36.6167 11.714C36.9834 11.2625 37.4334 10.9151 37.95 10.6546C38.4667 10.394 39.0334 10.2725 39.65 10.2725C40.35 10.2725 40.9167 10.4114 41.35 10.6719C41.7834 10.9325 42.1 11.2798 42.3 11.6967H42.3334ZM37.35 14.9446C37.35 15.5351 37.5167 16.0214 37.8334 16.4209C38.1667 16.8204 38.6167 17.0114 39.2334 17.0114C39.6 17.0114 39.95 16.9246 40.2834 16.7682C40.6167 16.5946 40.9 16.3688 41.1334 16.0909C41.3667 15.7956 41.5667 15.4656 41.7 15.1009C41.8334 14.7188 41.9 14.3193 41.9 13.9025C41.9 13.2946 41.7334 12.7909 41.3667 12.4088C41.0167 12.0267 40.5334 11.8356 39.95 11.8356C39.55 11.8356 39.2 11.9225 38.8667 12.0788C38.55 12.2525 38.2667 12.4609 38.0334 12.7561C37.8 13.034 37.6334 13.364 37.5 13.7461C37.4167 14.1109 37.35 14.5104 37.35 14.9446Z" fill="#E8561B"/>
<path d="M50.4668 13.4165C50.4834 13.2775 50.5001 13.1733 50.5001 13.1038C50.5001 13.0344 50.5168 12.9649 50.5168 12.8954C50.5168 12.5133 50.4001 12.2354 50.1501 12.0617C49.9168 11.888 49.5501 11.8186 49.0834 11.8186C48.7168 11.8186 48.3168 11.888 47.9335 12.0443C47.5335 12.2007 47.1835 12.3917 46.8668 12.6175L46.1501 11.2975C46.5835 10.9675 47.0835 10.7243 47.6501 10.5333C48.2168 10.3422 48.7834 10.2554 49.3668 10.2554C49.7334 10.2554 50.0834 10.2901 50.4501 10.377C50.8168 10.4638 51.1334 10.6027 51.4168 10.7764C51.7001 10.9675 51.9168 11.2107 52.1001 11.5233C52.2668 11.8359 52.3501 12.2007 52.3501 12.6696C52.3501 12.7738 52.3501 12.8954 52.3334 13.0344C52.3168 13.1733 52.3001 13.3123 52.2834 13.4165L51.7168 16.6644C51.6668 16.9771 51.6168 17.2897 51.5834 17.6371C51.5501 17.9671 51.5334 18.245 51.5334 18.4708H49.8168C49.8168 18.1755 49.8501 17.8629 49.9168 17.5155H49.8834C49.2834 18.2623 48.4501 18.6271 47.3835 18.6271C47.1168 18.6271 46.8335 18.5923 46.5501 18.5229C46.2668 18.4534 46.0001 18.3492 45.7668 18.1755C45.5335 18.0192 45.3335 17.7934 45.1835 17.5329C45.0335 17.255 44.9668 16.9249 44.9668 16.5081C44.9668 15.8481 45.1335 15.327 45.4668 14.9275C45.8001 14.5281 46.2335 14.1981 46.7668 13.9723C47.3001 13.7465 47.9001 13.5902 48.5501 13.5207C49.2001 13.4512 49.8334 13.4165 50.4668 13.4165ZM50.0668 14.806C49.7001 14.806 49.3334 14.8233 48.9334 14.8407C48.5501 14.8754 48.1834 14.9275 47.8668 15.0318C47.5335 15.136 47.2835 15.2749 47.0668 15.466C46.8668 15.6397 46.7501 15.9002 46.7501 16.2128C46.7501 16.4039 46.7835 16.5602 46.8501 16.6818C46.9168 16.8034 47.0168 16.9076 47.1335 16.9944C47.2501 17.0639 47.3835 17.1334 47.5335 17.1681C47.6834 17.2028 47.8335 17.2202 48.0001 17.2202C48.2834 17.2202 48.5501 17.1681 48.8001 17.0639C49.0501 16.9597 49.2668 16.8207 49.4501 16.6644C49.6334 16.4907 49.7834 16.2997 49.9168 16.0565C50.0334 15.8307 50.1334 15.5876 50.1834 15.3097L50.2834 14.806H50.0668Z" fill="#E8561B"/>
<path d="M54.6667 11.384C54.7167 11.054 54.7501 10.7588 54.7667 10.4809H56.5167C56.5001 10.6025 56.4834 10.7935 56.4501 11.0714C56.4167 11.3319 56.4001 11.5577 56.3667 11.7314H56.4001C56.6334 11.3493 56.9334 11.0193 57.3167 10.724C57.7001 10.4288 58.1834 10.2725 58.7667 10.2725C59.4001 10.2725 59.9167 10.4114 60.3 10.7067C60.6834 11.0019 60.95 11.3667 61.0667 11.8356C61.4 11.3493 61.7834 10.9672 62.2334 10.6893C62.6834 10.4114 63.2 10.2725 63.7834 10.2725C64.2334 10.2725 64.6167 10.3419 64.9334 10.4635C65.25 10.6025 65.5167 10.7761 65.7334 11.0019C65.95 11.2277 66.1 11.4883 66.2 11.8009C66.3 12.1135 66.35 12.4261 66.35 12.7561C66.35 13.034 66.3334 13.2772 66.2834 13.503L65.4334 18.4703H63.5667L64.3 14.0761C64.3167 13.9372 64.3334 13.8156 64.35 13.6767C64.3667 13.5377 64.3667 13.4161 64.3667 13.2772C64.3667 13.1035 64.35 12.9298 64.3 12.7561C64.25 12.5825 64.1834 12.4435 64.1 12.3219C64 12.2004 63.8667 12.0961 63.7167 12.0267C63.5667 11.9572 63.35 11.9051 63.1 11.9051C62.8 11.9051 62.5334 11.9746 62.3 12.0961C62.0667 12.2351 61.8667 12.4088 61.6834 12.6172C61.5 12.8256 61.3667 13.0688 61.2667 13.3293C61.1667 13.5898 61.0834 13.8503 61.05 14.1109L60.3167 18.4703H58.4334L59.2501 13.6419C59.2834 13.4682 59.3001 13.3293 59.3001 13.1904C59.3001 12.8082 59.2001 12.513 59.0167 12.2698C58.8334 12.0267 58.5334 11.9051 58.1167 11.9051C57.8334 11.9051 57.5667 11.9746 57.3334 12.0961C57.1001 12.2177 56.9001 12.3914 56.7334 12.5825C56.5667 12.7735 56.4167 13.0167 56.3167 13.2772C56.2001 13.5377 56.1334 13.7982 56.0834 14.0588L55.3334 18.453H53.4834L54.5334 12.183C54.5834 11.9919 54.6167 11.714 54.6667 11.384Z" fill="#E8561B"/>
<path d="M69.4334 15.0837C69.4167 15.1358 69.4167 15.2053 69.4167 15.2574C69.4167 15.5179 69.4667 15.7611 69.5667 15.9869C69.6667 16.2127 69.8 16.4037 69.9834 16.56C70.1667 16.7164 70.3834 16.8553 70.6167 16.9422C70.8667 17.029 71.1334 17.0811 71.4167 17.0811C71.9 17.0811 72.3333 16.9943 72.6667 16.8032C73.0167 16.6122 73.3167 16.3516 73.6 16.039L74.6667 17.0811C73.7167 18.1406 72.5667 18.679 71.2 18.679C70.6833 18.679 70.2 18.5922 69.7667 18.4359C69.3334 18.2795 68.95 18.0364 68.6334 17.7411C68.3167 17.4458 68.0667 17.0811 67.8834 16.6295C67.7 16.1953 67.6167 15.6916 67.6167 15.1184C67.6167 14.4237 67.7334 13.7811 67.95 13.1905C68.1667 12.6 68.4834 12.0789 68.8834 11.6274C69.2834 11.1758 69.75 10.8458 70.3 10.5852C70.85 10.3421 71.45 10.2031 72.1 10.2031C72.55 10.2031 72.9833 10.2726 73.3667 10.3942C73.75 10.5331 74.1 10.7242 74.3833 11.0021C74.6667 11.2626 74.9 11.5926 75.05 11.9921C75.2167 12.3916 75.2833 12.8605 75.2833 13.399C75.2833 13.5726 75.2667 13.8158 75.2333 14.1458C75.2 14.4584 75.15 14.7537 75.0833 15.0316H69.4334V15.0837ZM73.5833 13.6942C73.6 13.6247 73.6 13.5379 73.6 13.4858C73.6 13.4163 73.6 13.3468 73.6 13.2774C73.6 12.8432 73.45 12.4784 73.1667 12.1831C72.8667 11.8879 72.4667 11.7316 71.9333 11.7316C71.6 11.7316 71.3 11.7837 71.0333 11.9226C70.7667 12.0442 70.5334 12.2005 70.3334 12.3916C70.1334 12.5826 69.9667 12.8084 69.85 13.0342C69.7167 13.26 69.6334 13.4858 69.6 13.6942H73.5833Z" fill="#E8561B"/>
<path d="M77.05 16.178C77.2167 16.508 77.45 16.7511 77.7667 16.9248C78.0834 17.0985 78.4334 17.1854 78.8167 17.1854C79.25 17.1854 79.6 17.0985 79.8667 16.9248C80.1334 16.7511 80.25 16.508 80.25 16.1953C80.25 15.9001 80.15 15.6917 79.9334 15.5527C79.7334 15.4138 79.4 15.2748 78.9334 15.1185C78.5667 14.9969 78.25 14.8753 77.9834 14.7364C77.7167 14.6148 77.4834 14.4585 77.3 14.2848C77.1167 14.1111 76.9834 13.9201 76.9 13.6943C76.8167 13.4685 76.7667 13.208 76.7667 12.9127C76.7667 12.5306 76.85 12.1658 77.0167 11.8532C77.1834 11.5232 77.4167 11.2627 77.7167 11.0195C78.0167 10.7937 78.3667 10.6027 78.7667 10.4811C79.1667 10.3595 79.6167 10.29 80.1 10.29C80.7 10.29 81.2334 10.4116 81.7167 10.6374C82.2 10.8632 82.5834 11.2106 82.8667 11.6795L81.4167 12.5827C81.2834 12.3569 81.1 12.1832 80.8667 12.0269C80.65 11.8706 80.3334 11.8011 79.95 11.8011C79.7834 11.8011 79.6334 11.8185 79.4667 11.8532C79.3 11.8879 79.15 11.94 79.0334 12.0095C78.9 12.079 78.8 12.1832 78.7167 12.3048C78.6334 12.4264 78.6 12.5827 78.6 12.7564C78.6 13.0169 78.7 13.208 78.9167 13.3295C79.1167 13.4511 79.4334 13.5727 79.8334 13.6943C80.55 13.9027 81.1 14.198 81.5 14.5453C81.9 14.9101 82.0834 15.4138 82.0834 16.0911C82.0834 16.5427 82 16.9248 81.8167 17.2722C81.6334 17.6022 81.4 17.8975 81.0834 18.1233C80.7834 18.349 80.4334 18.5227 80.0334 18.6443C79.6334 18.7659 79.2167 18.818 78.7667 18.818C77.9334 18.818 77.2667 18.6617 76.7667 18.3664C76.2667 18.0538 75.8667 17.689 75.6167 17.2201L77.05 16.178Z" fill="#E8561B"/>
<path d="M85.3832 17.2722C85.3832 17.6195 85.2665 17.9148 85.0332 18.1579C84.7998 18.4011 84.5165 18.54 84.1999 18.54C83.8832 18.54 83.5999 18.4358 83.3832 18.2274C83.1499 18.019 83.0332 17.7237 83.0332 17.3416C83.0332 16.9769 83.1499 16.6816 83.3999 16.4385C83.6499 16.1953 83.9332 16.0737 84.2499 16.0737C84.5665 16.0737 84.8332 16.1779 85.0498 16.4037C85.2832 16.6122 85.3832 16.9074 85.3832 17.2722Z" fill="#E8561B"/>
<path d="M86.5669 12.0786L86.8336 10.4807H88.1669L88.5502 8.15332H90.4002L90.0169 10.4807H91.7502L91.4835 12.0786H89.7835L89.1169 15.8129C89.0835 15.9865 89.0669 16.1255 89.0669 16.2818C89.0669 16.5771 89.1502 16.7681 89.3169 16.8723C89.4835 16.9765 89.7002 17.0287 89.9835 17.0287C90.1169 17.0287 90.2335 17.0287 90.3669 16.9939C90.4835 16.9765 90.6002 16.9592 90.7169 16.9244L90.6002 18.4008C90.4335 18.4702 90.2502 18.5224 90.0335 18.5571C89.8169 18.5918 89.6169 18.6092 89.4335 18.6092C88.6169 18.6092 88.0502 18.4355 87.7002 18.1055C87.3502 17.7755 87.1836 17.3239 87.1836 16.7681C87.1836 16.6118 87.2002 16.4381 87.2002 16.2644C87.2169 16.0908 87.2336 15.9171 87.2669 15.7607L87.9169 12.0612H86.5669V12.0786Z" fill="#E8561B"/>
<path d="M95.4503 18.4705H93.4336L91.9336 10.481H93.9003L94.7836 16.3341H94.8169L98.0169 10.481H100L95.4503 18.4705Z" fill="#E8561B"/>
</svg>
