<svg width="100" height="25" viewBox="0 0 100 25" fill="none" xmlns="http://www.w3.org/2000/svg">
<path d="M99.9999 10.5095H99.4535L99.4926 8.88478H99.4584C99.2926 9.39893 99.1267 9.95935 98.9706 10.5044H98.4828L97.9414 8.84879H97.9121C97.9121 9.36294 97.9414 9.9285 97.956 10.4786H97.4048V8.28323H98.2926L98.6926 9.64572H98.717L99.0974 8.27295H99.9999V10.5095Z" fill="white"/>
<path d="M61.3171 10.3088C61.3464 12.7253 61.3903 15.1418 61.4195 17.5738H59.0684V8.11853H63.1171L63.1756 8.27792C63.9853 10.5676 64.7983 12.859 65.6146 15.1521C65.6258 15.1937 65.6422 15.2334 65.6634 15.2704C65.6634 15.2704 65.7073 15.3012 65.7561 15.3269C65.7561 14.1084 65.7268 12.9104 65.717 11.7279C65.7073 10.5453 65.6829 9.34221 65.6682 8.12881C65.7853 8.09796 67.7755 8.08254 68.0438 8.12881V17.5892H63.9512C63.9512 17.5378 63.9073 17.4812 63.8878 17.4195C63.0846 15.1024 62.2764 12.787 61.4634 10.4733C61.4539 10.432 61.4392 10.3923 61.4195 10.3551C61.4195 10.3242 61.3659 10.314 61.3366 10.2883L61.3171 10.3088Z" fill="white"/>
<path d="M41.3711 8.11348H46.2931C46.7905 8.10863 47.2853 8.19206 47.7565 8.36027C48.0525 8.45113 48.317 8.63073 48.518 8.87719C48.7189 9.12366 48.8475 9.42637 48.8882 9.74848C49.0089 10.4486 48.9721 11.1689 48.7809 11.8514C48.7422 12.0005 48.6721 12.1385 48.5758 12.2551C48.4795 12.3717 48.3595 12.4639 48.2248 12.5249C48.0476 12.6 47.8669 12.6652 47.6833 12.7203C47.6359 12.7297 47.592 12.7528 47.5565 12.7871L47.6296 12.818C47.8199 12.8694 48.015 12.9002 48.2004 12.9671C48.3703 13.0231 48.5252 13.1209 48.6524 13.2523C48.7796 13.3836 48.8755 13.5449 48.9321 13.7229C49.032 14.0151 49.0863 14.3224 49.093 14.6329C49.1256 15.1512 49.0812 15.6716 48.9613 16.1754C48.9269 16.304 48.8829 16.4295 48.8296 16.5507C48.6975 16.8719 48.4554 17.1289 48.1516 17.2705C47.8092 17.4312 47.4426 17.5269 47.0687 17.5533C46.7662 17.5533 46.4638 17.5893 46.1614 17.5893H41.4004C41.3516 17.4608 41.337 8.3757 41.3711 8.11348ZM43.7858 13.6766V15.4916H43.8833C44.4541 15.4916 45.0248 15.4916 45.5955 15.4916C45.8136 15.4805 46.0306 15.4513 46.2443 15.4042C46.3325 15.3905 46.4149 15.3495 46.481 15.2863C46.547 15.2231 46.5937 15.1407 46.615 15.0494C46.71 14.7262 46.71 14.3803 46.615 14.0571C46.5972 13.9842 46.5603 13.9181 46.5086 13.8663C46.4568 13.8144 46.3923 13.779 46.3223 13.764C46.1628 13.7194 45.9993 13.6919 45.8345 13.6817C45.1809 13.6817 44.5272 13.6817 43.8833 13.6817L43.7858 13.6766ZM43.7858 10.2164V11.9336C43.8541 11.9336 43.9126 11.9336 43.9711 11.9336C44.4297 11.9336 44.8833 11.9336 45.337 11.9336C45.6196 11.9427 45.9021 11.9098 46.176 11.8359C46.2587 11.8188 46.3346 11.7758 46.3938 11.7125C46.4529 11.6492 46.4926 11.5686 46.5077 11.4812C46.5711 11.211 46.5711 10.9287 46.5077 10.6585C46.4892 10.5638 46.4438 10.4772 46.3776 10.4102C46.3115 10.3432 46.2275 10.2989 46.137 10.2832C46.0035 10.2565 45.868 10.2428 45.7321 10.2421H43.7809L43.7858 10.2164Z" fill="white"/>
<path d="M82.9707 13.9183C82.9707 14.0108 83.0487 13.9903 83.0877 14.0006C83.272 14.0325 83.4544 14.0754 83.6341 14.1291C83.8696 14.2087 84.0796 14.3556 84.2407 14.5535C84.4017 14.7513 84.5075 14.9925 84.5463 15.25C84.5853 15.4426 84.6049 15.6391 84.6048 15.8361C84.6048 16.3811 84.6048 16.9261 84.6048 17.4659C84.6048 17.5019 84.6048 17.5328 84.6048 17.5739H82.1658V16.2577C82.1668 16.0286 82.1254 15.8016 82.0438 15.5893C82.0021 15.4713 81.9321 15.3666 81.8406 15.2855C81.7492 15.2044 81.6394 15.1497 81.5219 15.1266C81.4224 15.1044 81.3211 15.0924 81.2195 15.0906H79.4731H79.3756V17.5482C79.2536 17.5842 77.239 17.5996 76.9609 17.5482V8.11867H81.6048C82.1664 8.11084 82.7258 8.19407 83.2633 8.36546H83.2926C83.6027 8.45272 83.8834 8.6301 84.1024 8.87738C84.3215 9.12466 84.4702 9.43187 84.5316 9.76395C84.5965 10.0551 84.6421 10.3505 84.6682 10.6483C84.7161 11.303 84.6833 11.9614 84.5707 12.6072C84.5305 12.8411 84.4321 13.0596 84.2855 13.2403C84.139 13.4209 83.9495 13.5573 83.7365 13.6355C83.5463 13.7126 83.3463 13.7743 83.1512 13.8412L82.9707 13.9183ZM79.3609 12.89H81.4877C81.5874 12.8823 81.6857 12.8616 81.7804 12.8283C81.8555 12.8093 81.9242 12.7692 81.9792 12.7121C82.0343 12.655 82.0734 12.5832 82.0926 12.5044C82.1385 12.3202 82.1727 12.1329 82.1951 11.944C82.2291 11.5601 82.2044 11.173 82.1219 10.7974C82.1049 10.6881 82.0549 10.5876 81.9793 10.5107C81.9037 10.4338 81.8066 10.3847 81.7024 10.3707C81.542 10.3332 81.3787 10.3109 81.2146 10.3038H79.8341H79.3463L79.3609 12.89Z" fill="white"/>
<path d="M85.6001 13.2294C85.6001 12.561 85.6001 12.0417 85.644 11.5276C85.6574 11.0421 85.7278 10.5603 85.8538 10.0931C85.9647 9.70895 86.1584 9.35703 86.4196 9.06477C86.6177 8.8519 86.8574 8.68698 87.122 8.58147C87.887 8.26553 88.7004 8.09998 89.522 8.09302C90.0368 8.07839 90.5519 8.10244 91.0634 8.165C91.5679 8.22151 92.0613 8.35847 92.5268 8.57118C93.006 8.80149 93.3843 9.21496 93.5853 9.72803C93.7638 10.1873 93.8741 10.6729 93.9122 11.1677C94.0155 12.3567 93.9844 13.5545 93.8195 14.7359C93.7538 15.2381 93.6361 15.7312 93.4683 16.2064C93.3379 16.5735 93.0916 16.8821 92.7707 17.0804C92.4319 17.2865 92.0625 17.4308 91.6781 17.5072C91.1487 17.6235 90.609 17.6786 90.0683 17.6717C89.6049 17.6717 89.1366 17.6717 88.6732 17.6306C88.0767 17.5887 87.4921 17.4355 86.9464 17.1781C86.5618 16.9924 86.2462 16.6779 86.0489 16.2835C85.8298 15.8782 85.6982 15.4271 85.6635 14.9621C85.6294 14.3246 85.6196 13.6973 85.6001 13.2294ZM91.5024 12.7461C91.5024 12.4942 91.5024 12.232 91.5024 11.98C91.5008 11.6826 91.4698 11.3863 91.4098 11.0957C91.3762 10.8881 91.2795 10.6977 91.1344 10.553C90.9892 10.4084 90.8034 10.3173 90.6049 10.2936H90.5464C90.1851 10.2474 89.8198 10.2474 89.4586 10.2936C89.2305 10.3072 89.0037 10.3398 88.7805 10.3913C88.6494 10.4144 88.5288 10.4814 88.4366 10.5823C88.3444 10.6832 88.2854 10.8127 88.2683 10.9517C88.2099 11.2225 88.1708 11.4974 88.1513 11.7744C88.1171 12.3708 88.1074 12.9775 88.1025 13.579C88.0943 13.9899 88.1403 14.4 88.2391 14.7976C88.2684 14.9383 88.3347 15.0674 88.4305 15.1702C88.5263 15.273 88.6476 15.3452 88.7805 15.3786C88.9609 15.4307 89.1454 15.4651 89.3318 15.4814C89.7796 15.5219 90.2308 15.4872 90.6683 15.3786C90.8463 15.3424 91.01 15.2512 91.1386 15.1166C91.2671 14.982 91.3548 14.8101 91.3903 14.6228C91.4706 14.2866 91.5099 13.9411 91.5073 13.5945C91.5024 13.3117 91.5024 13.0289 91.5024 12.7461Z" fill="white"/>
<path d="M28.0595 11.6818V8.12388H30.4692V17.5894H28.0644V13.8978C27.9473 13.8618 25.1376 13.8567 24.9425 13.8978V17.5637C24.8254 17.5997 22.7376 17.61 22.5376 17.5637V8.1393C22.64 8.10331 24.7278 8.09817 24.9327 8.1393V11.6921L28.0595 11.6818Z" fill="white"/>
<path d="M55.5028 15.9543H52.2882L51.8589 17.5893H49.376C49.376 17.4711 51.9321 8.42197 52.0491 8.12891H55.6979C56.6149 11.2687 57.5255 14.4221 58.4296 17.5893H55.9906L55.5028 15.9543ZM55.015 14.1137C54.6394 12.746 54.2686 11.4041 53.9028 10.0621C53.7564 10.5094 53.6345 10.9567 53.5125 11.4041C53.3906 11.8514 53.2686 12.3038 53.1516 12.7563C53.0345 13.2087 52.8979 13.6458 52.8003 14.1137H55.015Z" fill="white"/>
<path d="M37.8348 15.9543H34.6202L34.1909 17.5893H31.708C31.708 17.4711 34.2641 8.42197 34.3812 8.12891H38.0299C38.947 11.2687 39.8575 14.4221 40.7616 17.5893H38.3226L37.8348 15.9543ZM37.347 14.1137C36.9714 12.746 36.6007 11.4041 36.2348 10.0621C36.0885 10.5094 35.9665 10.9567 35.8446 11.4041C35.7226 11.8514 35.6007 12.3038 35.4836 12.7563C35.3665 13.2087 35.2299 13.6458 35.1324 14.1137H37.347Z" fill="white"/>
<path d="M71.6396 13.6716V15.4917C72.103 15.4917 72.5615 15.4917 73.0201 15.4917H75.8005V17.5483C75.6981 17.5843 69.5664 17.5997 69.2445 17.5483C69.2152 17.4352 69.2055 8.32437 69.2445 8.09814H75.7079C75.7371 8.20612 75.7469 9.92339 75.7079 10.1548H71.6591C71.6219 10.7231 71.6219 11.2934 71.6591 11.8617C71.9713 11.8617 72.2884 11.8617 72.6054 11.8617H75.464V13.615C75.2835 13.615 75.103 13.615 74.9225 13.615H71.6494L71.6396 13.6716Z" fill="white"/>
<path d="M97.0731 8.28349V8.79764C96.8878 8.83363 96.7024 8.79764 96.5073 8.79764V10.4943C96.3121 10.4943 96.1365 10.4943 95.9316 10.4943C95.9316 9.92362 95.9316 9.3632 95.9316 8.78221H95.4146V8.26807L97.0731 8.28349Z" fill="white"/>
<path d="M7.82261 24.8287H7.76626C7.74418 24.8077 7.71955 24.7898 7.693 24.7756L0.102534 20.1522C0.0690761 20.1372 0.0411331 20.1113 0.0228585 20.0783C0.00458394 20.0453 -0.00304664 20.0071 0.00110226 19.9692V10.6103C0.00110226 10.3387 0.00110226 10.067 0.00110226 9.80134C0.00905849 9.71242 0.03397 9.62608 0.074359 9.54744C0.129777 9.44752 0.214769 9.36925 0.316455 9.3245C0.418142 9.27975 0.530981 9.27095 0.637868 9.29944C0.74587 9.32548 0.842597 9.38827 0.912942 9.47801C0.983286 9.56774 1.02328 9.67936 1.02669 9.79543C1.02669 10.0789 1.02669 10.3859 1.02669 10.6457C1.01913 10.7214 1.02683 10.7979 1.04929 10.8703C1.07176 10.9427 1.10849 11.0093 1.1571 11.0658C1.20572 11.1224 1.26513 11.1676 1.33148 11.1986C1.39784 11.2295 1.46967 11.2455 1.5423 11.2455C1.61493 11.2455 1.68676 11.2295 1.75311 11.1986C1.81947 11.1676 1.87888 11.1224 1.92749 11.0658C1.97611 11.0093 2.01284 10.9427 2.0353 10.8703C2.05777 10.7979 2.06547 10.7214 2.05791 10.6457V8.81526C2.05791 8.57317 2.05791 8.33698 2.05791 8.09489C2.06232 7.95132 2.12025 7.81527 2.21927 7.71593C2.3183 7.61658 2.45053 7.56185 2.58761 7.56347C2.72361 7.56347 2.85404 7.62008 2.95021 7.72085C3.04638 7.82162 3.1004 7.95829 3.1004 8.10079C3.1004 8.20117 3.1004 8.29565 3.1004 8.39603C3.1004 8.63221 3.1004 8.8684 3.1004 9.10459C3.10855 9.17943 3.13196 9.25157 3.16905 9.31611C3.20614 9.38064 3.25604 9.43607 3.31536 9.47863C3.37468 9.52119 3.44204 9.54989 3.51287 9.56278C3.5837 9.57567 3.65635 9.57245 3.7259 9.55334C3.85021 9.52369 3.95973 9.44708 4.03353 9.33815C4.10734 9.22923 4.14025 9.09563 4.12599 8.96288V5.55589C4.12466 5.47526 4.14048 5.39533 4.1723 5.32191C4.20412 5.24848 4.25114 5.1834 4.30995 5.13139C4.36877 5.07938 4.43789 5.04174 4.51231 5.0212C4.58673 5.00066 4.66458 4.99774 4.74021 5.01266C4.86853 5.03841 4.98323 5.11295 5.06228 5.22194C5.14133 5.33093 5.17915 5.46668 5.16848 5.60312V7.82328C5.16603 7.90065 5.1805 7.97758 5.21078 8.04819C5.24106 8.11881 5.28634 8.18123 5.34317 8.2307C5.41742 8.30363 5.5111 8.35116 5.61175 8.36698C5.7124 8.3828 5.81527 8.36616 5.90668 8.31927C5.99986 8.27934 6.07906 8.21031 6.1335 8.12157C6.18794 8.03284 6.21499 7.92869 6.21097 7.82328V6.2054C6.20466 6.12969 6.21357 6.05344 6.23714 5.98157C6.26071 5.9097 6.29841 5.84381 6.3478 5.78816C6.39719 5.73251 6.45718 5.68834 6.52388 5.6585C6.59058 5.62866 6.66252 5.61382 6.73504 5.61493C6.80683 5.61553 6.87774 5.63157 6.94337 5.66208C7.009 5.69258 7.06795 5.73689 7.11656 5.79225C7.16517 5.84762 7.20241 5.91286 7.22596 5.98393C7.24951 6.055 7.25887 6.13038 7.25346 6.2054C7.25346 6.44749 7.25346 6.69549 7.25346 6.93758C7.2459 7.01327 7.2536 7.08979 7.27607 7.16216C7.29854 7.23454 7.33527 7.30116 7.38388 7.35771C7.43249 7.41426 7.4919 7.45947 7.55826 7.49042C7.62462 7.52137 7.69644 7.53736 7.76907 7.53736C7.84171 7.53736 7.91353 7.52137 7.97989 7.49042C8.04625 7.45947 8.10566 7.41426 8.15427 7.35771C8.20288 7.30116 8.23961 7.23454 8.26208 7.16216C8.28454 7.08979 8.29225 7.01327 8.28469 6.93758V4.85323C8.27925 4.77772 8.28877 4.70184 8.31266 4.63037C8.33655 4.5589 8.37429 4.49338 8.42351 4.43793C8.47272 4.38248 8.53235 4.33829 8.59865 4.30814C8.66495 4.278 8.73648 4.26255 8.80875 4.26276C8.88105 4.26156 8.95278 4.27639 9.01922 4.30629C9.08567 4.33618 9.14533 4.38046 9.19429 4.43622C9.24324 4.49198 9.28039 4.55796 9.3033 4.62983C9.3262 4.7017 9.33434 4.77783 9.32718 4.85323V6.71911C9.32718 6.91986 9.32718 7.12653 9.32718 7.30957C9.33081 7.40889 9.36284 7.50477 9.41911 7.58479C9.47537 7.66481 9.55329 7.72527 9.64274 7.75832C9.72374 7.79174 9.81141 7.80348 9.89783 7.79249C9.98424 7.7815 10.0667 7.74813 10.1377 7.69539C10.2087 7.64265 10.2661 7.5722 10.3046 7.49041C10.3432 7.40862 10.3616 7.31806 10.3584 7.2269C10.3584 6.94938 10.3584 6.63644 10.3584 6.38254C10.3606 6.29411 10.3818 6.20734 10.4204 6.12864C10.4733 6.02003 10.56 5.93353 10.6661 5.88335C10.7721 5.83317 10.8914 5.82231 11.0041 5.85253C11.1169 5.88276 11.2165 5.95228 11.2865 6.04967C11.3566 6.14707 11.3929 6.26653 11.3896 6.38844C11.3896 7.14424 11.3896 7.89413 11.3896 8.64993C11.3821 8.72562 11.3898 8.80214 11.4122 8.87452C11.4347 8.94689 11.4714 9.01351 11.52 9.07006C11.5687 9.12661 11.6281 9.17182 11.6944 9.20277C11.7608 9.23372 11.8326 9.24972 11.9052 9.24972C11.9779 9.24972 12.0497 9.23372 12.116 9.20277C12.1824 9.17182 12.2418 9.12661 12.2904 9.07006C12.339 9.01351 12.3758 8.94689 12.3982 8.87452C12.4207 8.80214 12.4284 8.72562 12.4208 8.64993C12.4153 8.6088 12.4153 8.56706 12.4208 8.52593C12.4365 8.37246 12.5098 8.23181 12.6244 8.13492C12.7391 8.03803 12.8858 7.99283 13.0322 8.00927C13.1787 8.02572 13.3129 8.10245 13.4054 8.2226C13.4979 8.34274 13.541 8.49646 13.5253 8.64993V9.96667C13.5199 10.0422 13.5294 10.1181 13.5533 10.1895C13.5772 10.261 13.6149 10.3265 13.6641 10.382C13.7134 10.4374 13.773 10.4816 13.8393 10.5118C13.9056 10.5419 13.9771 10.5574 14.0494 10.5571C14.121 10.5566 14.1916 10.5405 14.257 10.51C14.3224 10.4794 14.381 10.435 14.4291 10.3795C14.4773 10.3241 14.514 10.2587 14.5369 10.1877C14.5598 10.1166 14.5684 10.0414 14.5622 9.96667C14.5622 9.89581 14.5622 9.83086 14.5622 9.76C14.5584 9.68363 14.57 9.60728 14.596 9.53585C14.6221 9.46442 14.6621 9.39947 14.7135 9.34518C14.7649 9.2909 14.8266 9.24845 14.8945 9.22058C14.9625 9.19271 15.0353 9.18002 15.1082 9.18332C15.1811 9.18663 15.2526 9.20585 15.318 9.23977C15.3834 9.27368 15.4413 9.32154 15.4881 9.38028C15.5348 9.43902 15.5693 9.50734 15.5894 9.58086C15.6095 9.65438 15.6147 9.73149 15.6047 9.80724C15.6047 11.3346 15.6047 12.8639 15.6047 14.3952C15.6047 16.261 15.6047 18.123 15.6047 19.981C15.6077 20.0149 15.6007 20.049 15.5846 20.0786C15.5684 20.1082 15.544 20.1318 15.5145 20.1463L7.89023 24.7401L7.82261 24.8287ZM11.4516 12.3876H9.01725V14.4365H6.56598V12.3581H4.13162V18.4517H6.56598V16.5149H9.01725V18.4517H11.4516V12.3876Z" fill="url(#paint0_linear)"/>
<path d="M9.26544 1.95714V2.67327C9.27252 2.74409 9.26524 2.81567 9.24408 2.88337C9.22292 2.95108 9.18835 3.01339 9.14262 3.06628C9.09688 3.11918 9.04099 3.16147 8.97857 3.19041C8.91615 3.21936 8.84859 3.23431 8.78028 3.23431C8.71196 3.23431 8.6444 3.21936 8.58198 3.19041C8.51956 3.16147 8.46367 3.11918 8.41793 3.06628C8.37219 3.01339 8.33763 2.95108 8.31647 2.88337C8.29531 2.81567 8.28803 2.74409 8.2951 2.67327V1.22462C8.28803 1.1538 8.29531 1.08221 8.31647 1.01451C8.33763 0.946808 8.37219 0.884493 8.41793 0.831601C8.46367 0.77871 8.51956 0.736421 8.58198 0.707476C8.6444 0.678531 8.71196 0.663574 8.78028 0.663574C8.84859 0.663574 8.91615 0.678531 8.97857 0.707476C9.04099 0.736421 9.09688 0.77871 9.14262 0.831601C9.18835 0.884493 9.22292 0.946808 9.24408 1.01451C9.26524 1.08221 9.27252 1.1538 9.26544 1.22462V1.95714Z" fill="#F3733E"/>
<path d="M7.31427 3.47015V4.2028C7.32135 4.27526 7.31407 4.34849 7.29291 4.41776C7.27175 4.48702 7.23718 4.55078 7.19144 4.60489C7.14571 4.659 7.08982 4.70227 7.0274 4.73188C6.96498 4.76149 6.89742 4.77679 6.8291 4.77679C6.76078 4.77679 6.69323 4.76149 6.63081 4.73188C6.56839 4.70227 6.5125 4.659 6.46676 4.60489C6.42102 4.55078 6.38645 4.48702 6.36529 4.41776C6.34413 4.34849 6.33686 4.27526 6.34393 4.2028V2.73191C6.34177 2.66272 6.35288 2.59379 6.37656 2.52934C6.40024 2.46489 6.43601 2.40626 6.48167 2.35705C6.52733 2.30784 6.58192 2.26908 6.64211 2.24314C6.7023 2.2172 6.76682 2.20462 6.83172 2.20618C6.89599 2.20617 6.9596 2.21984 7.01884 2.24639C7.07808 2.27295 7.13175 2.31185 7.1767 2.36082C7.22165 2.40979 7.25697 2.46784 7.2806 2.53156C7.30422 2.59529 7.31567 2.6634 7.31427 2.73191V3.47015Z" fill="#F26345"/>
<path d="M7.31693 0.658075C7.31796 0.760229 7.29011 0.860392 7.23691 0.945787C7.18371 1.03118 7.10759 1.09794 7.01824 1.13754C6.9289 1.17714 6.83039 1.18778 6.73528 1.16812C6.64017 1.14846 6.55277 1.09938 6.48424 1.02714C6.41571 0.954903 6.36914 0.862783 6.35049 0.762533C6.33184 0.662284 6.34194 0.558449 6.3795 0.464276C6.41707 0.370103 6.48041 0.289862 6.56142 0.233788C6.64244 0.177715 6.73746 0.148351 6.83438 0.149443C6.96236 0.149443 7.0851 0.203032 7.17559 0.298419C7.26609 0.393805 7.31693 0.523177 7.31693 0.658075Z" fill="#F26744"/>
<path d="M10.7073 4.26549C10.7719 4.25799 10.8372 4.26563 10.899 4.28791C10.9608 4.31019 11.0176 4.34662 11.0659 4.39483C11.1142 4.44305 11.1528 4.50197 11.1792 4.56778C11.2056 4.63359 11.2192 4.70482 11.2192 4.77686C11.2192 4.84889 11.2056 4.92012 11.1792 4.98593C11.1528 5.05175 11.1142 5.11067 11.0659 5.15888C11.0176 5.20709 10.9608 5.24352 10.899 5.2658C10.8372 5.28808 10.7719 5.29572 10.7073 5.28822C10.5851 5.28537 10.4687 5.23028 10.3823 5.13447C10.2959 5.03866 10.2462 4.90953 10.2437 4.77406C10.2463 4.63912 10.2961 4.5106 10.3826 4.41569C10.4692 4.32078 10.5856 4.26691 10.7073 4.26549Z" fill="#F47F39"/>
<path d="M22.6567 23.3688L23.0855 23.3206C23.1083 23.5636 23.1598 23.7534 23.2398 23.8899C23.3217 24.0245 23.438 24.133 23.5885 24.2153C23.739 24.2976 23.9086 24.3388 24.0973 24.3388C24.3678 24.3388 24.5774 24.2695 24.7261 24.131C24.8766 23.9904 24.9519 23.8086 24.9519 23.5857C24.9519 23.4551 24.9242 23.3416 24.869 23.2452C24.8156 23.1468 24.7337 23.0665 24.6232 23.0042C24.5146 22.942 24.2783 22.8546 23.9143 22.7421C23.5904 22.6417 23.3599 22.5403 23.2227 22.4379C23.0855 22.3354 22.9788 22.2059 22.9025 22.0492C22.8263 21.8906 22.7882 21.7118 22.7882 21.513C22.7882 21.1555 22.8978 20.8633 23.1169 20.6363C23.336 20.4094 23.6314 20.2959 24.0029 20.2959C24.2583 20.2959 24.4812 20.3491 24.6718 20.4556C24.8642 20.562 25.0128 20.7147 25.1176 20.9135C25.2244 21.1123 25.2815 21.3463 25.2891 21.6154L24.8518 21.6576C24.829 21.3704 24.747 21.1575 24.606 21.0189C24.4669 20.8803 24.2707 20.8111 24.0172 20.8111C23.76 20.8111 23.5637 20.8723 23.4285 20.9948C23.2932 21.1153 23.2255 21.272 23.2255 21.4648C23.2255 21.6435 23.2751 21.7821 23.3741 21.8805C23.4732 21.9789 23.6962 22.0784 24.043 22.1788C24.3821 22.2772 24.6203 22.3625 24.7575 22.4349C24.9671 22.5473 25.1253 22.6959 25.232 22.8807C25.3387 23.0635 25.392 23.2824 25.392 23.5375C25.392 23.7905 25.3358 24.0215 25.2234 24.2304C25.111 24.4372 24.9576 24.5949 24.7632 24.7033C24.5708 24.8118 24.3383 24.866 24.0658 24.866C23.6409 24.866 23.3017 24.7315 23.0483 24.4623C22.7968 24.1932 22.6663 23.8287 22.6567 23.3688Z" fill="white"/>
<path d="M26.185 24.7877V20.3712H26.6395V22.1848H28.4258V20.3712H28.8803V24.7877H28.4258V22.706H26.6395V24.7877H26.185Z" fill="white"/>
<path d="M29.8362 24.7877V20.3712H32.32V20.8924H30.2906V22.2451H32.1913V22.7632H30.2906V24.2665H32.4V24.7877H29.8362Z" fill="white"/>
<path d="M33.213 24.7877V20.3712H35.6968V20.8924H33.6674V22.2451H35.5681V22.7632H33.6674V24.2665H35.7768V24.7877H33.213Z" fill="white"/>
<path d="M36.5783 24.7877V20.3712H38.1018C38.42 20.3712 38.6543 20.4124 38.8049 20.4947C38.9573 20.5771 39.0821 20.7147 39.1793 20.9075C39.2765 21.0983 39.3251 21.3202 39.3251 21.5732C39.3251 21.9066 39.2422 22.1768 39.0764 22.3836C38.9125 22.5905 38.6734 22.7221 38.359 22.7783C38.4867 22.8586 38.5838 22.94 38.6505 23.0223C38.7858 23.191 38.9049 23.3788 39.0078 23.5857L39.608 24.7877H39.0364L38.5791 23.8689C38.4019 23.5093 38.2675 23.2673 38.1761 23.1428C38.0865 23.0183 37.9989 22.9349 37.9131 22.8928C37.8293 22.8486 37.7111 22.8265 37.5587 22.8265H37.0328V24.7877H36.5783ZM37.0328 22.3204H38.0103C38.2237 22.3204 38.3857 22.2933 38.4962 22.239C38.6067 22.1848 38.6944 22.0994 38.7591 21.983C38.8239 21.8665 38.8563 21.7309 38.8563 21.5763C38.8563 21.3533 38.7944 21.1786 38.6705 21.0521C38.5467 20.9235 38.3628 20.8593 38.1189 20.8593H37.0328V22.3204Z" fill="white"/>
<path d="M43.3519 23.0554V22.5373L44.8067 22.5343V24.1731C44.5838 24.4021 44.3532 24.5748 44.1151 24.6913C43.8769 24.8058 43.632 24.863 43.3805 24.863C43.0451 24.863 42.746 24.7746 42.483 24.5979C42.2201 24.4212 42.0114 24.1631 41.8571 23.8237C41.7046 23.4842 41.6284 23.0765 41.6284 22.6005C41.6284 22.1185 41.7056 21.6988 41.8599 21.3413C42.0143 20.9838 42.2163 20.7207 42.4659 20.552C42.7155 20.3813 43.0108 20.2959 43.3519 20.2959C43.6034 20.2959 43.8235 20.3451 44.0122 20.4435C44.2008 20.5419 44.3561 20.6815 44.4781 20.8623C44.6 21.043 44.6915 21.2911 44.7524 21.6064L44.3437 21.751C44.2885 21.5019 44.2189 21.3162 44.1351 21.1937C44.0512 21.0691 43.9407 20.9717 43.8035 20.9014C43.6663 20.8311 43.512 20.796 43.3405 20.796C43.0909 20.796 42.8756 20.8603 42.6945 20.9888C42.5154 21.1153 42.3706 21.3132 42.2601 21.5823C42.1515 21.8514 42.0972 22.1798 42.0972 22.5674C42.0972 23.1579 42.2144 23.6007 42.4487 23.896C42.6831 24.1892 42.988 24.3358 43.3634 24.3358C43.5425 24.3358 43.7254 24.2906 43.9121 24.2002C44.1008 24.1099 44.2503 24.0024 44.3609 23.8779V23.0554H43.3519Z" fill="white"/>
<path d="M45.271 24.7877L46.5915 20.3712H47.0803L48.4865 24.7877H47.9663L47.5662 23.4501H46.1313L45.7541 24.7877H45.271ZM46.2628 22.9741H47.4261L47.0688 21.751C46.9583 21.3754 46.8773 21.0701 46.8259 20.8352C46.7821 21.1183 46.7201 21.3995 46.6401 21.6787L46.2628 22.9741Z" fill="white"/>
<path d="M49.0108 24.7877V20.3712H49.6939L50.5085 23.4983L50.6714 24.152C50.7114 23.9894 50.7724 23.7534 50.8543 23.4441L51.6775 20.3712H52.2892V24.7877H51.8519V21.0912L50.8515 24.7877H50.4428L49.4481 21.028V24.7877H49.0108Z" fill="white"/>
<path d="M53.2879 24.7877V20.3712H53.7424V24.7877H53.2879Z" fill="white"/>
<path d="M54.7011 24.7877V20.3712H55.167L56.9734 23.8387V20.3712H57.4079V24.7877H56.942L55.1384 21.3172V24.7877H54.7011Z" fill="white"/>
<path d="M59.9729 23.0554V22.5373L61.4277 22.5343V24.1731C61.2048 24.4021 60.9742 24.5748 60.736 24.6913C60.4979 24.8058 60.253 24.863 60.0015 24.863C59.6661 24.863 59.367 24.7746 59.104 24.5979C58.8411 24.4212 58.6324 24.1631 58.4781 23.8237C58.3256 23.4842 58.2494 23.0765 58.2494 22.6005C58.2494 22.1185 58.3266 21.6988 58.4809 21.3413C58.6353 20.9838 58.8373 20.7207 59.0869 20.552C59.3365 20.3813 59.6318 20.2959 59.9729 20.2959C60.2244 20.2959 60.4445 20.3451 60.6332 20.4435C60.8218 20.5419 60.9771 20.6815 61.099 20.8623C61.221 21.043 61.3125 21.2911 61.3734 21.6064L60.9647 21.751C60.9094 21.5019 60.8399 21.3162 60.7561 21.1937C60.6722 21.0691 60.5617 20.9717 60.4245 20.9014C60.2873 20.8311 60.133 20.796 59.9615 20.796C59.7119 20.796 59.4965 20.8603 59.3155 20.9888C59.1364 21.1153 58.9916 21.3132 58.8811 21.5823C58.7725 21.8514 58.7182 22.1798 58.7182 22.5674C58.7182 23.1579 58.8354 23.6007 59.0697 23.896C59.3041 24.1892 59.609 24.3358 59.9843 24.3358C60.1635 24.3358 60.3464 24.2906 60.5331 24.2002C60.7218 24.1099 60.8713 24.0024 60.9819 23.8779V23.0554H59.9729Z" fill="white"/>
<defs>
<linearGradient id="paint0_linear" x1="0.00110231" y1="14.5369" x2="15.5821" y2="14.5369" gradientUnits="userSpaceOnUse">
<stop stop-color="#EE324D"/>
<stop offset="1" stop-color="#F89827"/>
</linearGradient>
</defs>
</svg>
