<svg width="100" height="56" viewBox="0 0 100 56" fill="none" xmlns="http://www.w3.org/2000/svg">
<path d="M1 2.56689V8.47546H8.02306V6.06159C8.02306 6.06159 7.49895 2.60292 4.07477 2.56689C2.39762 2.56689 1 2.56689 1 2.56689Z" fill="#FF0D1B"/>
<path d="M1 11.8623H5.19287C5.19287 11.8623 7.60377 12.1866 7.8833 14.9607C7.8833 18.5635 7.8833 38.703 7.8833 38.703H1V11.8623Z" fill="#FF0D1B"/>
<path d="M11.4473 39.0632H17.8763V21.6617C17.8763 21.6617 18.0161 17.6627 22.3837 17.7347C26.7512 17.8068 26.7862 21.6617 26.7862 21.6617V35.6045C26.7862 35.6045 26.8211 38.775 29.6863 39.0632C32.5863 39.0632 33.4598 39.0632 33.4598 39.0632V20.3287C33.4598 20.3287 33.5647 11.682 22.4536 11.682C11.7268 11.5019 11.6569 19.9684 11.6569 19.9684L11.4473 39.0632Z" fill="#FF0D1B"/>
<path d="M59.735 21.2293C58.8266 16.3656 55.4024 12.5826 50.2661 12.0062C45.1299 11.4297 42.7888 14.348 42.7888 14.348C42.7888 14.348 43.1033 8.15121 42.7888 5.52118C42.4744 2.89114 39.5394 2.56689 39.5394 2.56689H36.1851C36.1851 2.56689 36.1851 24.688 36.1851 28.3988C36.6393 31.8215 40.4478 38.1984 45.9684 38.6668C51.489 39.1351 53.4108 38.3425 56.6952 35.4963C59.9796 32.6501 60.6435 26.0931 59.735 21.2293ZM48.1697 33.4788C45.1997 33.4788 42.7888 29.84 42.7888 25.3725C42.7888 20.9051 45.1997 17.2662 48.1697 17.2662C51.1396 17.2662 53.5505 20.9051 53.5505 25.3725C53.5505 29.84 51.1396 33.4788 48.1697 33.4788Z" fill="white"/>
<path d="M78.498 30.3086C78.498 30.3086 77.7642 34.9562 73.4665 34.8841C69.1688 34.776 68.3303 29.6601 68.4351 27.3903H84.6825C84.6825 27.3903 85.9403 18.6716 80.6643 14.5284C75.3883 10.3852 68.6447 12.9071 68.6447 12.9071C68.6447 12.9071 61.3771 15.5732 61.5867 25.4088C61.8313 35.2444 66.723 38.4149 72.3135 38.9913C77.904 39.5677 81.6426 36.001 81.6426 36.001C81.6426 36.001 84.0186 33.8753 84.7873 30.3086C82.4463 30.3446 78.498 30.3086 78.498 30.3086ZM73.6412 17.7349C78.6727 17.879 78.3233 23.4633 78.3233 23.4633H68.4351C68.4351 21.9501 68.9242 17.5908 73.6412 17.7349Z" fill="white"/>
<path d="M87.4778 3.10645V31.2442C87.4778 31.2442 86.8838 38.7019 93.0683 39.0262C96.807 39.1343 98.0998 39.0982 98.0998 39.0982V34.7749H95.9684C95.9684 34.7749 94.0117 34.7749 93.9418 31.7125C93.8719 28.6502 93.9418 17.5536 93.9418 17.5536C93.9418 17.5536 97.8901 18.058 98.3793 12.6538C96.0732 12.6538 93.9768 12.6538 93.9768 12.6538V6.06073C93.9768 6.06073 94.0467 3.57481 91.5309 3.1785C89.3646 3.10645 87.4778 3.10645 87.4778 3.10645Z" fill="white"/>
<path d="M23.1871 43.8183C21.3353 43.7822 19.2389 43.8183 19.2039 43.8183C18.3304 43.8543 16.7231 44.2866 16.4436 45.7638V45.8358V49.1504V49.1864C16.4785 49.8709 17.0725 51.1319 18.9943 51.1679C20.3569 51.204 23.257 51.1679 24.6197 51.1679C24.0607 51.9606 22.069 51.9966 21.51 51.9605C21.1256 51.9245 20.7762 52.2127 20.7762 52.6091C20.7413 53.0054 21.0208 53.3656 21.4052 53.4017C21.6148 53.4017 21.8245 53.4377 22.0341 53.4377C23.6763 53.4377 25.9125 52.9333 26.1571 51.0238V46.088L26.1221 46.016C25.9125 45.2594 25.0739 43.8543 23.1871 43.8183ZM24.7245 49.7268C23.4317 49.7268 20.3569 49.7629 18.9943 49.7268C17.981 49.6908 17.8412 49.2224 17.8063 49.0783V45.9799C18.0159 45.3314 19.2389 45.2233 19.2389 45.2233C19.2738 45.2233 21.3353 45.1873 23.1871 45.2233C24.3052 45.2594 24.6896 46.016 24.7595 46.2321V49.7268H24.7245Z" fill="white"/>
<path d="M37.3382 43.8184H35.5912C35.2068 43.8184 34.8924 44.1426 34.8924 44.5389C34.8924 44.9352 35.2068 45.2595 35.5912 45.2595H37.1635C37.5478 45.3315 38.2467 45.5837 38.3165 45.944C37.0237 45.944 33.5996 45.908 32.2019 45.944C30.1754 45.98 29.5464 47.205 29.4766 47.8895V49.2225V49.2946C29.6163 50.9158 31.4682 51.3482 32.5513 51.3482C32.726 51.3482 34.0538 51.3842 35.3815 51.3842C36.1153 51.3842 36.8141 51.3842 37.3731 51.3122C39.0852 51.168 39.7142 49.9071 39.784 49.2586V49.1505C39.784 49.0424 39.819 46.8807 39.6443 45.7639C39.5045 44.1786 37.5478 43.8544 37.3382 43.8184ZM38.4563 49.0784C38.4214 49.2225 38.2117 49.835 37.3033 49.9071C35.7659 50.0152 32.6562 49.9071 32.6212 49.9071H32.5863C32.2718 49.9071 30.979 49.763 30.8742 49.1865V47.9976C30.9091 47.8895 31.1188 47.4211 32.2019 47.3851C33.5996 47.3491 37.2334 47.3851 38.3864 47.3851C38.4563 48.1417 38.4563 48.8983 38.4563 49.0784Z" fill="white"/>
<path d="M67.1773 43.5305C66.9327 43.5305 63.9278 43.4224 62.3555 43.5305C60.6434 43.6746 60.0144 44.9355 59.9446 45.584V45.6561C59.9446 45.7642 59.8048 47.9619 59.9446 49.1148C60.1542 50.7 62.2506 51.0242 62.4952 51.0603H64.6266C65.0109 51.0603 65.3254 50.736 65.3254 50.3397C65.3254 49.9434 65.0109 49.6192 64.6266 49.6192H62.635C62.1808 49.5471 61.4121 49.2589 61.3422 48.8986C61.3072 48.7545 61.3072 48.6104 61.3072 48.4663C62.3205 48.4663 66.164 48.5023 67.6664 48.4663C70.1123 48.4302 70.3219 47.2053 70.3219 46.9531V45.6201V45.548C70.1123 43.9628 68.2604 43.5305 67.1773 43.5305ZM68.8544 46.773C68.7496 46.845 68.4351 47.0252 67.5616 47.0252C66.0941 47.0612 62.2157 47.0252 61.2374 47.0252C61.2374 46.4487 61.2723 45.9443 61.3072 45.8002C61.3422 45.6201 61.5518 45.0436 62.4603 44.9716C63.9977 44.8635 67.1074 44.9716 67.1423 44.9716H67.1773C67.4917 44.9716 68.7845 45.1157 68.8894 45.6921V46.773H68.8544Z" fill="white"/>
<path d="M53.236 43.8181C52.2926 43.7821 50.7552 43.9623 49.8467 44.5387C49.3576 44.1424 48.519 43.7821 47.0165 43.7461C44.0815 43.674 43.2779 45.6195 43.2429 45.6916L43.208 45.8357V50.4833C43.208 50.8796 43.5225 51.2039 43.9068 51.2039C44.2912 51.2039 44.6056 50.8796 44.6056 50.4833V46.1239C44.7803 45.8717 45.3743 45.1152 46.9816 45.1512C48.4491 45.1872 48.9732 45.5835 49.113 45.7637V50.4473C49.113 50.8436 49.4274 51.1678 49.8118 51.1678C50.1961 51.1678 50.5106 50.8436 50.5106 50.4473V45.7637C50.8251 45.5475 51.9432 45.1512 53.1661 45.1872H53.201H53.236C54.4589 45.1872 55.0179 45.9078 55.1577 46.16V50.4112C55.1577 50.8076 55.4722 51.1318 55.8565 51.1318C56.2409 51.1318 56.5553 50.8076 56.5553 50.4112V45.8357L56.4854 45.6916C56.4505 45.6916 55.6818 43.8181 53.236 43.8181Z" fill="white"/>
<path d="M81.2935 47.4572C80.5597 46.7366 79.4416 46.7366 79.2669 46.7366C79.0922 46.7366 76.0174 46.7366 75.4933 46.7366C75.1789 46.7366 74.7596 46.6285 74.5849 46.4124C74.515 46.3403 74.4451 46.1962 74.4451 45.908C74.48 45.2955 75.5283 45.2595 75.5283 45.2595H77.4849C77.8693 45.2595 78.1837 44.9352 78.1837 44.5389C78.1837 44.1426 77.8693 43.8184 77.4849 43.8184H75.5632C75.5632 43.8184 75.5632 43.8184 75.5283 43.8184C74.6897 43.8184 73.1174 44.2507 73.0475 45.8359C73.0125 46.4484 73.1872 46.9888 73.5366 47.3851C74.1306 48.0696 75.074 48.1417 75.4234 48.1777C75.9825 48.1777 79.1271 48.1777 79.2669 48.1777C79.4416 48.1777 80.0356 48.2138 80.3151 48.502C80.385 48.574 80.4898 48.6821 80.4898 48.9343C80.4898 49.3306 80.4199 49.799 79.826 49.871C79.5814 49.871 76.0524 49.871 73.7463 49.871C73.3619 49.871 73.0475 50.1953 73.0475 50.5916C73.0475 50.9879 73.3619 51.3121 73.7463 51.3121C74.7945 51.3121 76.6114 51.3121 78.044 51.3121C79.0573 51.3121 79.8609 51.3121 79.9308 51.3121C80.8742 51.2401 81.9573 50.5556 81.9224 48.8983C81.8875 48.3218 81.6778 47.8174 81.2935 47.4572Z" fill="white"/>
</svg>
