<svg width="100" height="49" viewBox="0 0 100 49" fill="none" xmlns="http://www.w3.org/2000/svg">
<path d="M57.2514 4.16406H64.5289L63.4817 36.5392H55.9948L57.2514 4.16406Z" fill="url(#paint0_linear)"/>
<path d="M16.4661 4.51025H23.7959L22.7488 29.8832C22.7488 29.8832 21.8064 36.7257 14.7907 37.338C7.77501 37.9504 2.95825 36.0867 2.95825 36.0867V30.3092C2.95825 30.3092 13.6127 35.5542 15.2619 27.3007C16.2567 18.2484 16.4661 4.51025 16.4661 4.51025Z" fill="url(#paint1_linear)"/>
<path d="M21.7541 23.3071C20.2096 13.4561 26.9897 4.19086 36.9112 2.5934C46.8327 0.995939 56.0735 7.67864 57.618 17.503C59.1625 27.3274 52.3824 36.6193 42.4609 38.2167C32.5395 39.8142 23.2724 33.1315 21.7541 23.3071Z" fill="url(#paint2_linear)"/>
<path d="M40.7068 4.5102L32.7225 20.4049L40.7068 37.4711C40.7068 37.4711 51.9633 39.0153 56.7539 26.4486C61.5445 13.882 50.7592 2.00752 40.7068 4.5102Z" fill="#270A17"/>
<path d="M35.419 20.4053L43.0106 4.93652C43.0106 4.93652 53.3247 5.04302 57.0944 14.4414C60.8902 23.8398 54.1101 36.4597 43.0106 36.513C40.8116 32.8921 35.419 20.4053 35.419 20.4053Z" fill="url(#paint3_linear)"/>
<path d="M37.1467 20.4052L44.7121 5.14941C44.7121 5.14941 58.4556 6.93324 57.8273 20.9909C57.2252 35.0485 43.6126 35.6609 43.6126 35.6609L37.1467 20.4052Z" fill="url(#paint4_linear)"/>
<path d="M66.9896 4.16406H75.3666L90.1833 28.2857L91.1519 4.16406H97.6964L96.2304 36.5392H87.8273L72.7488 12.3111L71.7278 36.5392H65.4189L66.9896 4.16406Z" fill="url(#paint5_linear)"/>
<path d="M47.304 43.8878H45.9689V43.2222H48.0369V46.1242C47.9846 46.1508 47.8799 46.1775 47.7752 46.2307C47.6704 46.284 47.5134 46.284 47.3563 46.3372C47.1992 46.3638 47.0422 46.3905 46.8589 46.4171C46.6757 46.4437 46.5186 46.4437 46.3354 46.4437C45.838 46.4437 45.393 46.3638 45.0003 46.2307C44.6076 46.0976 44.2935 45.8846 44.0317 45.645C43.7699 45.3787 43.5605 45.0859 43.4296 44.7131C43.2987 44.3404 43.2202 43.941 43.2202 43.4884C43.2202 43.0092 43.2987 42.5566 43.4296 42.1572C43.5867 41.7578 43.7961 41.4117 44.0841 41.1455C44.372 40.8792 44.7123 40.6396 45.105 40.4799C45.4977 40.3201 45.9427 40.2402 46.4139 40.2402C46.5448 40.2402 46.6757 40.2402 46.8066 40.2669C46.9375 40.2669 47.0684 40.2935 47.1731 40.3201C47.2778 40.3467 47.4087 40.3734 47.4872 40.4C47.5919 40.4266 47.6704 40.4532 47.749 40.4799V41.1188C47.5657 41.0656 47.3825 41.0123 47.1469 40.9591C46.9113 40.9058 46.7019 40.9058 46.4663 40.9058C46.1259 40.9058 45.8118 40.9591 45.4977 41.0656C45.1835 41.1721 44.9218 41.3318 44.6862 41.5448C44.4505 41.7578 44.2673 42.0241 44.1364 42.3169C44.0055 42.6098 43.927 43.0092 43.927 43.4352C43.927 43.8611 43.9793 44.2073 44.1102 44.5001C44.2149 44.793 44.3982 45.0592 44.6076 45.2456C44.817 45.432 45.0788 45.5917 45.3668 45.6716C45.6547 45.7515 45.9951 45.8047 46.3615 45.8047C46.5186 45.8047 46.7019 45.8047 46.8589 45.7781C47.016 45.7515 47.1731 45.7248 47.304 45.6982V43.8878Z" fill="white"/>
<path d="M55.1573 46.3098L57.5395 40.3193H58.1677L60.5499 46.3098H59.7646L59.0578 44.4994H56.5971L55.8902 46.3098H55.1573ZM57.8798 41.2778C57.618 42.0233 57.3562 42.6889 57.1206 43.3013L56.9112 43.8604H58.8484L58.6128 43.3013C58.3772 42.6889 58.1416 41.9967 57.8798 41.2778Z" fill="white"/>
<path d="M70.8905 46.3095H70.5502L69.058 42.7419C68.8486 42.2627 68.6392 41.7035 68.4559 41.1444H68.4297C68.4821 41.9698 68.4821 42.7419 68.4821 43.4341V46.3362H67.7753V40.3457H68.7962L70.1837 43.727C70.3407 44.1264 70.524 44.579 70.7072 45.1381H70.7334C70.9428 44.5257 71.1261 44.0731 71.257 43.727L72.6444 40.3457H73.6654V46.3362H72.9585V43.4341C72.9585 42.7685 72.9847 41.9964 73.0109 41.1444H72.9847C72.7753 41.7568 72.5659 42.2893 72.3826 42.7419L70.8905 46.3095Z" fill="white"/>
<path d="M82.1992 45.6706H85.2096V46.3362H81.4662V40.3457H85.0264V41.0113H82.1992V42.9549H84.7384V43.6205H82.1992V45.6706Z" fill="white"/>
<path d="M93.2987 41.9168C93.2987 42.1032 93.3249 42.2363 93.4034 42.3428C93.482 42.4493 93.5605 42.5558 93.6914 42.6357C93.8223 42.7155 93.9532 42.7688 94.1102 42.822C94.2673 42.8753 94.4244 42.9019 94.6076 42.9552C94.8432 43.0084 95.0526 43.0617 95.2882 43.1415C95.4977 43.2214 95.7071 43.3013 95.8903 43.4344C96.0736 43.5675 96.2045 43.7006 96.3092 43.9136C96.4139 44.1266 96.4663 44.3663 96.4663 44.6591C96.4663 44.9786 96.4139 45.2449 96.283 45.4578C96.1783 45.6708 95.9951 45.8572 95.8118 46.017C95.6024 46.1501 95.3668 46.2566 95.0788 46.3365C94.7909 46.4163 94.5029 46.4429 94.1626 46.4429C94.0055 46.4429 93.8485 46.4429 93.6914 46.4163C93.5343 46.3897 93.3773 46.3631 93.2464 46.3365C93.1155 46.3098 92.9584 46.2566 92.8537 46.23C92.749 46.1767 92.6443 46.1501 92.5657 46.0968V45.4312C92.6704 45.4845 92.8013 45.5377 92.9322 45.591C93.0631 45.6442 93.194 45.6708 93.3511 45.6975C93.482 45.7241 93.639 45.7507 93.7699 45.7773C93.9008 45.804 94.0579 45.804 94.1626 45.804C94.372 45.804 94.5553 45.7773 94.7385 45.7507C94.9218 45.7241 95.0788 45.6442 95.2359 45.5643C95.393 45.4845 95.4977 45.378 95.5762 45.2182C95.6547 45.0585 95.7071 44.8987 95.7071 44.6857C95.7071 44.4994 95.6809 44.3663 95.6024 44.2331C95.5239 44.1266 95.4453 44.0201 95.3144 43.9403C95.1835 43.8604 95.0526 43.8071 94.8956 43.7539C94.7385 43.7006 94.5814 43.674 94.3982 43.6208C94.1626 43.5675 93.9532 43.5143 93.7176 43.4344C93.482 43.3545 93.2987 43.2747 93.1416 43.1682C92.9584 43.0617 92.8275 42.9019 92.7228 42.7155C92.6181 42.5292 92.5657 42.2896 92.5657 41.9967C92.5657 41.7038 92.6181 41.4376 92.7228 41.2246C92.8275 41.0116 92.9846 40.8252 93.1678 40.6921C93.3511 40.559 93.5605 40.4525 93.8223 40.3726C94.0579 40.2927 94.3197 40.2661 94.6076 40.2661C94.9218 40.2661 95.2097 40.2927 95.4715 40.346C95.7333 40.3992 95.9951 40.4791 96.2045 40.5856V41.2512C95.9689 41.1447 95.7071 41.0648 95.4453 40.985C95.1835 40.9317 94.8956 40.8785 94.6076 40.8785C94.372 40.8785 94.1888 40.9051 94.0317 40.9583C93.8746 41.0116 93.7437 41.0648 93.6129 41.1713C93.5081 41.2512 93.4296 41.3843 93.3773 41.4908C93.3249 41.624 93.2987 41.7571 93.2987 41.9168Z" fill="white"/>
<path opacity="0.2" d="M28.9268 12.9771C28.9268 12.9771 31.2304 8.98345 33.3247 7.43924C35.6545 5.68203 39.8692 4.48394 39.8692 3.73846C39.8692 2.38062 31.8064 2.75336 27.3037 7.75873C22.8011 12.7641 20.2357 20.5917 26.3875 21.7099C32.5393 22.8281 30.9425 20.2988 30.6283 20.2988C30.3142 20.2988 24.2147 21.0443 28.9268 12.9771Z" fill="url(#paint6_linear)"/>
<path d="M51.9273 12.7288C52.4624 12.2566 52.0744 10.9105 51.0606 9.72218C50.0469 8.53382 48.7913 7.95323 48.2563 8.42538C47.7212 8.89752 48.1092 10.2436 49.123 11.432C50.1367 12.6203 51.3922 13.2009 51.9273 12.7288Z" fill="#FF9912"/>
<path d="M55.3409 22.8648C56.0441 22.7772 56.4615 21.4401 56.2733 19.8783C56.085 18.3166 55.3624 17.1217 54.6592 17.2094C53.956 17.2971 53.5386 18.6342 53.7268 20.1959C53.9151 21.7576 54.6378 22.9525 55.3409 22.8648Z" fill="#FF9912"/>
<path d="M54.9945 18.8297C56.0736 18.2961 56.0261 15.934 54.8884 13.5538C53.7506 11.1736 51.9534 9.67656 50.8743 10.2101C49.7951 10.7437 49.8426 13.1058 50.9804 15.4861C52.1182 17.8663 53.9153 19.3633 54.9945 18.8297Z" fill="#FFCB00"/>
<defs>
<linearGradient id="paint0_linear" x1="59.7525" y1="24.1171" x2="63.6301" y2="1.15263" gradientUnits="userSpaceOnUse">
<stop stop-color="#D44100"/>
<stop offset="1" stop-color="#FFA043"/>
</linearGradient>
<linearGradient id="paint1_linear" x1="1.36645" y1="34.1965" x2="29.2875" y2="11.1607" gradientUnits="userSpaceOnUse">
<stop stop-color="#1F181D"/>
<stop offset="1" stop-color="#9D0064"/>
</linearGradient>
<linearGradient id="paint2_linear" x1="27.8777" y1="34.2138" x2="51.9148" y2="7.00511" gradientUnits="userSpaceOnUse">
<stop stop-color="#1F181D"/>
<stop offset="1" stop-color="#9D0064"/>
</linearGradient>
<linearGradient id="paint3_linear" x1="36.413" y1="28.5567" x2="56.1824" y2="12.2464" gradientUnits="userSpaceOnUse">
<stop stop-color="#3F1800"/>
<stop offset="1" stop-color="#FF4400"/>
</linearGradient>
<linearGradient id="paint4_linear" x1="37.4597" y1="28.214" x2="56.3413" y2="12.6361" gradientUnits="userSpaceOnUse">
<stop stop-color="#D44100"/>
<stop offset="1" stop-color="#FFC743"/>
</linearGradient>
<linearGradient id="paint5_linear" x1="76.5605" y1="30.588" x2="90.3652" y2="3.52956" gradientUnits="userSpaceOnUse">
<stop stop-color="#D44100"/>
<stop offset="1" stop-color="#FFC743"/>
</linearGradient>
<linearGradient id="paint6_linear" x1="23.1204" y1="19.6344" x2="40.9419" y2="4.93103" gradientUnits="userSpaceOnUse">
<stop stop-color="#A6185B"/>
<stop offset="1" stop-color="#FF00FF"/>
</linearGradient>
</defs>
</svg>
