<svg width="100" height="31" viewBox="0 0 100 31" fill="none" xmlns="http://www.w3.org/2000/svg">
<g clip-path="url(#clip0)">
<path d="M10.8599 1.88184H15.3599L5.25987 22.8489H0.839874L10.8599 1.88184Z" fill="#00B73E"/>
<path d="M98.6998 18.4292H94.0398V22.8698H98.6998V18.4292Z" fill="#00B73E"/>
<path d="M16.4999 1.88184H20.9999L10.8999 22.8489H6.45993L16.4999 1.88184Z" fill="white"/>
<path d="M27 7.18115V11.6217L20.36 14.5123V15.3082L27 17.9265V22.8488L15.14 16.2927L16.9 12.7319L27 7.18115Z" fill="white"/>
<path d="M32.8999 7.13916H28.2399V11.5797H32.8999V7.13916Z" fill="white"/>
<path d="M32.8999 12.9624H28.2399V22.8699H32.8999V12.9624Z" fill="white"/>
<path d="M51.7799 22.8487C51.7799 22.8487 51.7599 21.6757 51.7799 18.9946C51.7999 16.3135 48.2999 16.2507 48.2999 16.2507V16.0412C51.7599 16.0412 51.6399 13.9256 51.6399 13.9256C51.6399 13.9256 51.6599 12.7527 51.6399 10.2601C51.5999 7.41141 48.7999 7.11816 48.7999 7.11816H34.6599V22.8277H38.8399V18.2196C38.8399 18.2196 42.8799 18.1986 45.1999 18.2196C47.4999 18.4081 47.4799 19.9162 47.4799 19.9162V22.8277H51.7799V22.8487ZM46.4599 15.2662C45.3199 15.2662 38.4399 15.2662 38.4399 15.2662V10.8047H46.3999C46.3999 10.8047 47.5799 10.8256 47.6199 11.852C47.6599 12.8783 47.6199 13.9466 47.6199 13.9466C47.6199 13.9466 47.6799 15.2034 46.4599 15.2662Z" fill="white"/>
<path d="M67.9601 7.13916H57.2201C54.9201 7.13916 53.0201 9.14998 53.0201 11.6216V18.3663C53.0201 20.8379 54.9201 22.8487 57.2201 22.8487H67.9601C70.2601 22.8487 72.1601 20.8379 72.1601 18.3663V11.6216C72.1601 9.17093 70.2801 7.13916 67.9601 7.13916ZM67.9401 16.9C67.9401 18.073 67.0401 19.0365 65.9401 19.0365H59.2401C58.1401 19.0365 57.2401 18.073 57.2401 16.9V13.1088C57.2401 11.9358 58.1401 10.9723 59.2401 10.9723H65.9401C67.0401 10.9723 67.9401 11.9358 67.9401 13.1088V16.9Z" fill="white"/>
<path d="M74.0599 22.8487H77.6599V11.475L85.6999 22.8487H92.5999V7.13916H88.3999V18.6805L80.5599 7.13916H74.0599V22.8487Z" fill="white"/>
<path d="M28.5798 24.7548V23.896H29.2998V24.7548H28.5798ZM28.5798 30.0332V25.5926H29.2998V30.0332H28.5798Z" fill="#00B73E"/>
<path d="M33.7398 30.0331V25.5925H34.3798V26.2209C34.6998 25.7391 35.1398 25.4878 35.7398 25.4878C35.9998 25.4878 36.2398 25.5297 36.4398 25.6344C36.6598 25.7391 36.8198 25.8648 36.9198 26.0114C37.0198 26.1581 37.0998 26.3466 37.1398 26.577C37.1598 26.7236 37.1798 26.954 37.1798 27.3101V30.0331H36.4598V27.331C36.4598 27.0169 36.4398 26.7865 36.3798 26.6398C36.3198 26.4932 36.2198 26.3675 36.0798 26.2837C35.9398 26.2 35.7798 26.1581 35.5798 26.1581C35.2798 26.1581 34.9998 26.2628 34.7798 26.4723C34.5598 26.6817 34.4398 27.0588 34.4398 27.6243V30.054H33.7398V30.0331Z" fill="#00B73E"/>
<path d="M43.2198 29.3418L43.3198 30.0121C43.1198 30.0539 42.9398 30.0749 42.7798 30.0749C42.5198 30.0749 42.3198 30.033 42.1798 29.9492C42.0398 29.8654 41.9398 29.7398 41.8798 29.6141C41.8198 29.4884 41.7998 29.1742 41.7998 28.7343V26.1789H41.2798V25.5924H41.7998V24.4823L42.5198 24.0215V25.5715H43.2398V26.158H42.5198V28.7553C42.5198 28.9648 42.5398 29.1114 42.5598 29.1742C42.5798 29.2371 42.6198 29.2789 42.6798 29.3208C42.7398 29.3627 42.8198 29.3837 42.9198 29.3837C42.9798 29.3837 43.0998 29.3627 43.2198 29.3418Z" fill="#00B73E"/>
<path d="M50.1797 28.5878L50.9197 28.6925C50.7997 29.1534 50.5797 29.5094 50.2597 29.7608C49.9397 30.0122 49.5397 30.1378 49.0397 30.1378C48.4197 30.1378 47.9197 29.9284 47.5597 29.5304C47.1997 29.1324 47.0197 28.5669 47.0197 27.8547C47.0197 27.1006 47.1997 26.5351 47.5797 26.1162C47.9397 25.6973 48.4197 25.4878 49.0197 25.4878C49.5797 25.4878 50.0597 25.6973 50.4197 26.0952C50.7797 26.4932 50.9597 27.0588 50.9597 27.8128C50.9597 27.8547 50.9597 27.9175 50.9597 28.0223H47.7997C47.8197 28.504 47.9597 28.8811 48.1997 29.1534C48.4397 29.4047 48.7397 29.5513 49.0797 29.5513C49.3397 29.5513 49.5597 29.4885 49.7597 29.3419C49.9197 29.1534 50.0797 28.923 50.1797 28.5878ZM47.8197 27.3729H50.1997C50.1597 26.9959 50.0797 26.7236 49.9197 26.5351C49.6997 26.2419 49.3997 26.0952 49.0197 26.0952C48.6797 26.0952 48.4197 26.2209 48.1797 26.4513C47.9797 26.6817 47.8397 26.9959 47.8197 27.3729Z" fill="#00B73E"/>
<path d="M55.1799 30.0331V25.5925H55.8199V26.2628C55.9799 25.9486 56.1399 25.7391 56.2799 25.6344C56.4199 25.5297 56.5799 25.4878 56.7399 25.4878C56.9799 25.4878 57.2199 25.5716 57.4799 25.7391L57.2399 26.4304C57.0599 26.3256 56.8799 26.2628 56.7199 26.2628C56.5599 26.2628 56.4199 26.3047 56.2999 26.4094C56.1799 26.5142 56.0799 26.6398 56.0399 26.8283C55.9599 27.1006 55.9199 27.3939 55.9199 27.7081V30.0331H55.1799Z" fill="#00B73E"/>
<path d="M64.0398 29.4676C63.7798 29.698 63.5198 29.8655 63.2798 29.9703C63.0398 30.075 62.7598 30.1169 62.4798 30.1169C62.0198 30.1169 61.6598 29.9912 61.3998 29.7608C61.1398 29.5304 61.0198 29.2162 61.0198 28.8392C61.0198 28.6297 61.0598 28.4203 61.1598 28.2527C61.2598 28.0851 61.3798 27.9385 61.5398 27.8128C61.6998 27.7081 61.8598 27.6243 62.0598 27.5615C62.1998 27.5196 62.4198 27.4777 62.6998 27.4567C63.2798 27.3939 63.6998 27.2892 63.9798 27.2054C63.9798 27.1006 63.9798 27.0378 63.9798 27.0169C63.9798 26.7027 63.9198 26.4932 63.7798 26.3675C63.5998 26.2 63.3198 26.1162 62.9598 26.1162C62.6198 26.1162 62.3798 26.179 62.2198 26.3047C62.0598 26.4304 61.9398 26.6398 61.8598 26.954L61.1598 26.8493C61.2198 26.5351 61.3198 26.2837 61.4798 26.0952C61.6398 25.9067 61.8398 25.7601 62.1198 25.6554C62.3998 25.5506 62.7198 25.4878 63.0798 25.4878C63.4398 25.4878 63.7398 25.5297 63.9598 25.6135C64.1798 25.6973 64.3598 25.8229 64.4598 25.9486C64.5598 26.0743 64.6398 26.2628 64.6798 26.4513C64.6998 26.577 64.7198 26.8074 64.7198 27.1425V28.148C64.7198 28.8392 64.7398 29.3 64.7598 29.4676C64.7998 29.6561 64.8598 29.8236 64.9398 29.9912H64.1798C64.0998 29.8655 64.0598 29.677 64.0398 29.4676ZM63.9798 27.7919C63.7198 27.8966 63.3198 28.0013 62.7998 28.0851C62.4998 28.127 62.2998 28.1898 62.1798 28.2317C62.0598 28.2736 61.9598 28.3784 61.8998 28.4831C61.8398 28.5878 61.7998 28.7135 61.7998 28.8392C61.7998 29.0486 61.8798 29.2162 62.0198 29.3419C62.1598 29.4676 62.3798 29.5513 62.6598 29.5513C62.9398 29.5513 63.1798 29.4885 63.3998 29.3628C63.6198 29.2371 63.7798 29.0696 63.8798 28.8392C63.9598 28.6716 63.9998 28.4202 63.9998 28.0851V27.7919H63.9798Z" fill="#00B73E"/>
<path d="M71.9398 28.3993L72.6398 28.504C72.5598 29.0067 72.3598 29.4047 72.0398 29.698C71.7198 29.9912 71.3398 30.1378 70.8598 30.1378C70.2798 30.1378 69.8198 29.9493 69.4598 29.5513C69.0998 29.1534 68.9398 28.5878 68.9398 27.8338C68.9398 27.352 69.0198 26.9331 69.1598 26.577C69.3198 26.2209 69.5398 25.9486 69.8598 25.7601C70.1798 25.5716 70.4998 25.4878 70.8798 25.4878C71.3398 25.4878 71.7198 25.6135 72.0198 25.8439C72.3198 26.0952 72.4998 26.4304 72.5798 26.8912L71.8798 26.9959C71.8198 26.7027 71.6998 26.4723 71.5198 26.3256C71.3598 26.179 71.1398 26.0952 70.8998 26.0952C70.5398 26.0952 70.2398 26.2209 70.0198 26.4932C69.7998 26.7655 69.6798 27.2054 69.6798 27.7919C69.6798 28.3993 69.7798 28.8182 69.9998 29.0905C70.2198 29.3628 70.4998 29.4885 70.8598 29.4885C71.1398 29.4885 71.3798 29.4047 71.5598 29.2162C71.7798 29.0486 71.8998 28.7763 71.9398 28.3993Z" fill="#00B73E"/>
<path d="M78.1999 29.3418L78.2999 30.0121C78.0999 30.0539 77.9199 30.0749 77.7599 30.0749C77.4999 30.0749 77.2999 30.033 77.1599 29.9492C77.0199 29.8654 76.9199 29.7398 76.8599 29.6141C76.7999 29.4884 76.7799 29.1742 76.7799 28.7343V26.1789H76.2599V25.5924H76.7799V24.4823L77.4999 24.0215V25.5715H78.2199V26.158H77.4999V28.7553C77.4999 28.9648 77.5199 29.1114 77.5399 29.1742C77.5599 29.2371 77.5999 29.2789 77.6599 29.3208C77.7199 29.3627 77.7999 29.3837 77.8999 29.3837C77.9599 29.3837 78.0599 29.3627 78.1999 29.3418Z" fill="#00B73E"/>
<path d="M82.2598 24.7548V23.896H82.9798V24.7548H82.2598ZM82.2598 30.0332V25.5926H82.9798V30.0332H82.2598Z" fill="#00B73E"/>
<path d="M88.5997 30.0333L86.9797 25.5928H87.7397L88.6597 28.2529C88.7597 28.5462 88.8397 28.8394 88.9397 29.1536C88.9997 28.9232 89.0997 28.63 89.1997 28.3158L90.1397 25.6137H90.8797L89.2797 30.0543H88.5997V30.0333Z" fill="#00B73E"/>
<path d="M97.7796 28.5878L98.5196 28.6925C98.3996 29.1534 98.1796 29.5094 97.8596 29.7608C97.5396 30.0122 97.1396 30.1378 96.6396 30.1378C96.0196 30.1378 95.5196 29.9284 95.1596 29.5304C94.7996 29.1324 94.6196 28.5669 94.6196 27.8547C94.6196 27.1006 94.7996 26.5351 95.1796 26.1162C95.5396 25.6973 96.0196 25.4878 96.6196 25.4878C97.1796 25.4878 97.6596 25.6973 98.0196 26.0952C98.3796 26.4932 98.5596 27.0588 98.5596 27.8128C98.5596 27.8547 98.5596 27.9175 98.5596 28.0223H95.3996C95.4196 28.504 95.5596 28.8811 95.7996 29.1534C96.0396 29.4047 96.3396 29.5513 96.6796 29.5513C96.9396 29.5513 97.1596 29.4885 97.3596 29.3419C97.5196 29.1534 97.6596 28.923 97.7796 28.5878ZM95.4196 27.3729H97.7796C97.7396 26.9959 97.6596 26.7236 97.4996 26.5351C97.2796 26.2419 96.9796 26.0952 96.5996 26.0952C96.2596 26.0952 95.9996 26.2209 95.7596 26.4513C95.5596 26.6817 95.4396 26.9959 95.4196 27.3729Z" fill="#00B73E"/>
</g>
<defs>
<clipPath id="clip0">
<rect width="100" height="30.8955" fill="white" transform="translate(0 0.0595703)"/>
</clipPath>
</defs>
</svg>
