<svg width="100" height="49" viewBox="0 0 100 49" fill="none" xmlns="http://www.w3.org/2000/svg">
<g clip-path="url(#clip0)">
<path d="M6.64904 15.6811L17.5943 20.9581C17.337 20.7807 12.1317 17.1531 10.5278 14.2823C8.87843 11.3436 8.99949 9.16706 10.3916 7.06356C11.7837 4.96006 15.2337 3.63428 20.4794 3.984C25.725 4.33371 31.4952 5.97789 35.8228 10.0074C35.8228 10.0074 32.1307 3.21671 22.734 1.31678C13.3372 -0.583158 6.1043 3.25325 1.93301 7.18361C0.828398 8.22753 0.258439 9.21926 0.0718155 10.1692C0.157561 13.0609 6.64904 15.6811 6.64904 15.6811Z" fill="#2F98D5"/>
<path d="M10.3916 41.9511C8.99444 39.8476 8.87843 37.671 10.5278 34.7324C12.1771 31.7937 17.6043 28.0513 17.6043 28.0513L6.64904 33.3335C6.64904 33.3335 0.152518 35.9538 0.0718155 38.8454C0.258439 39.7954 0.828398 40.7871 1.93301 41.831C6.1043 45.7614 13.3322 49.5926 22.7289 47.6927C32.1307 45.7979 35.8228 39.0072 35.8228 39.0072C31.4952 43.0368 25.725 44.6862 20.4794 45.0307C15.2337 45.3804 11.7837 44.0598 10.3916 41.9511Z" fill="#F9AE00"/>
<path d="M6.64888 33.3337L17.6042 28.0515C17.6042 28.0515 20.7163 26.329 20.7163 24.6222C20.7163 24.5856 20.7163 24.5439 20.7112 24.5074C20.7112 24.4708 20.7163 24.4291 20.7163 24.3925C20.7163 22.6857 17.6042 20.9632 17.6042 20.9632C17.6042 20.9632 17.5992 20.958 17.5941 20.958L6.64888 15.681C6.64888 15.681 0.157409 13.066 0.0716633 10.1743C-0.447857 12.7998 1.96312 15.0703 3.95041 17.0172C6.60853 19.6114 7.7888 22.1898 7.76863 24.5074C7.7888 26.8249 6.60853 29.4033 3.95041 32.0027C1.96312 33.9444 -0.447857 36.2149 0.0716633 38.8456C0.152365 35.954 6.64888 33.3337 6.64888 33.3337Z" fill="#E40E20"/>
<path d="M26.8651 25.6505C26.8651 25.9219 26.9962 26.1255 27.2585 26.256C27.5208 26.3917 27.8486 26.4596 28.2521 26.4648C28.6506 26.47 29.044 26.4491 29.4274 26.4126C29.8107 26.3708 30.1739 26.3291 30.5118 26.2769C30.8548 26.2247 31.0465 26.1986 31.0969 26.1986C31.1322 26.9554 30.9859 27.493 30.6631 27.8062C30.3403 28.1194 29.6897 28.276 28.7111 28.276C27.3644 28.276 26.3758 27.9941 25.7403 27.4252C25.1098 26.8563 24.792 25.8802 24.792 24.4813C24.792 23.7819 24.8778 23.1921 25.0493 22.7119C25.2208 22.2265 25.473 21.8611 25.8059 21.6053C26.1388 21.3548 26.507 21.1721 26.9155 21.0677C27.3241 20.9633 27.8032 20.9111 28.348 20.9111C29.3921 20.9111 30.1638 21.1408 30.653 21.6001C31.1473 22.0594 31.3945 22.7902 31.3945 23.7924C31.3945 24.1786 31.3239 24.4813 31.1776 24.7162C31.0364 24.9459 30.8447 25.1025 30.6177 25.1808C30.3857 25.2591 30.1083 25.3165 29.7855 25.353C29.4627 25.3895 29.1399 25.4 28.8272 25.3843C28.5094 25.3687 28.1714 25.3843 27.8032 25.4313C27.4401 25.4731 27.1223 25.5461 26.8651 25.6505ZM26.7995 24.2778C26.9407 24.1734 27.1778 24.1055 27.5006 24.069C27.8234 24.0325 28.1261 24.0168 28.4085 24.0116C28.691 24.0064 28.9432 23.9437 29.16 23.8289C29.3769 23.7088 29.4829 23.5262 29.4778 23.2756C29.4778 23.0512 29.3063 22.8633 28.9583 22.7119C28.4791 22.5031 28.01 22.4875 27.5561 22.6597C26.9256 22.8946 26.6734 23.4322 26.7995 24.2778Z" fill="white"/>
<path d="M39.5353 23.4009V28.1612C39.2428 28.1768 38.9856 28.1768 38.7788 28.1559C38.5669 28.1351 38.3702 28.0829 38.1785 28.0046C37.9869 27.9263 37.8507 27.7958 37.7599 27.6183C37.6691 27.4408 37.6338 27.2164 37.6388 26.945V24.1212V24.0951V23.4426C37.5127 22.8058 36.9377 22.5553 35.9189 22.6858C35.3893 22.7536 35.0816 22.8058 34.9958 22.8424C35.0211 22.9885 35.0362 23.166 35.0362 23.3643V26.945C35.0463 27.2164 35.0009 27.4408 34.9101 27.6183C34.8193 27.7958 34.6781 27.9263 34.4915 28.0046C34.3048 28.0829 34.1081 28.1351 33.8963 28.1559C33.6844 28.1768 33.4322 28.182 33.1397 28.1612V21.7932C33.1397 21.2243 34.0224 20.9215 35.7827 20.8798C38.2794 20.8119 39.5303 21.6523 39.5353 23.4009Z" fill="white"/>
<path d="M46.1479 18.0815C46.274 18.1755 46.4304 18.2381 46.622 18.2642C46.8137 18.2903 46.9852 18.306 47.1415 18.306C47.2979 18.306 47.4492 18.3321 47.5904 18.3791C47.7317 18.426 47.8426 18.5409 47.9233 18.7236C48.004 18.9062 48.0444 19.1724 48.0444 19.5222V27.2367C48.0343 27.2472 47.994 27.2941 47.9233 27.3881C47.8527 27.482 47.7872 27.5551 47.7266 27.6125C47.6661 27.67 47.5602 27.743 47.3988 27.837C47.2374 27.9309 47.0608 27.9988 46.8692 28.051C46.6775 28.1032 46.4152 28.1502 46.0874 28.1971C45.7595 28.2389 45.3863 28.265 44.9777 28.265C43.6814 28.265 42.7483 27.9727 42.1834 27.3933C41.6185 26.8139 41.336 25.8483 41.336 24.4964C41.336 23.9745 41.4016 23.5047 41.5378 23.0924C41.674 22.68 41.8505 22.3407 42.0724 22.0798C42.2944 21.8188 42.5566 21.5996 42.8643 21.4273C43.167 21.2551 43.4746 21.1298 43.7874 21.0619C44.1001 20.9941 44.4229 20.9575 44.7608 20.9575C45.4115 20.9575 45.8705 21.0619 46.1529 21.2707V18.0815H46.1479ZM46.1479 24.6165V22.7583C46.0369 22.7218 45.9159 22.6905 45.7898 22.6644C45.6586 22.6383 45.4972 22.6174 45.3056 22.6069C45.1139 22.5913 44.9273 22.5965 44.7558 22.6122C44.5843 22.6278 44.4027 22.68 44.2211 22.7687C44.0345 22.8575 43.8781 22.9723 43.742 23.1132C43.6058 23.2594 43.4999 23.4577 43.4141 23.7135C43.3284 23.9693 43.288 24.272 43.288 24.6217C43.288 24.9505 43.3385 25.2428 43.4393 25.4829C43.5402 25.7283 43.6663 25.9162 43.8126 26.0467C43.9588 26.1771 44.1404 26.2763 44.3573 26.339C44.5742 26.4016 44.7659 26.4433 44.9374 26.459C45.1089 26.4747 45.2955 26.4694 45.4972 26.4433C45.699 26.4225 45.8402 26.4016 45.9209 26.3859C46.0016 26.3703 46.0722 26.3494 46.1429 26.3337H46.158C46.1529 26.3442 46.1529 25.77 46.1479 24.6165Z" fill="white"/>
<path d="M49.8348 24.5385C49.8248 24.4863 49.8197 24.4184 49.8147 24.3297C49.8096 24.2409 49.8248 24.0739 49.855 23.8181C49.8853 23.5676 49.9307 23.3223 50.0013 23.0926C50.0669 22.863 50.1879 22.6072 50.3544 22.3253C50.5208 22.0487 50.7327 21.8086 50.9798 21.605C51.227 21.4067 51.5649 21.2344 51.9835 21.104C52.4022 20.9682 52.8864 20.9004 53.4261 20.9004C53.8044 20.9004 54.1524 20.9317 54.4752 20.9943C54.793 21.057 55.0704 21.1405 55.3024 21.2449C55.5344 21.3493 55.7412 21.4798 55.9228 21.6364C56.1044 21.7929 56.2557 21.9495 56.3717 22.1009C56.4877 22.2523 56.5886 22.435 56.6693 22.6437C56.75 22.8525 56.8105 23.0352 56.8509 23.1866C56.8912 23.3379 56.9215 23.5154 56.9417 23.7242C56.9568 23.9278 56.9669 24.0843 56.9719 24.1887C56.977 24.2931 56.977 24.4288 56.9719 24.5854C56.9669 24.7472 56.9669 24.836 56.9669 24.8516C56.9669 24.9926 56.9618 25.1178 56.9517 25.2327C56.9417 25.3475 56.9164 25.525 56.8761 25.7703C56.8357 26.0156 56.7752 26.2348 56.6996 26.4227C56.6239 26.6159 56.5028 26.8246 56.3414 27.0491C56.175 27.2735 55.9833 27.4667 55.7614 27.618C55.5395 27.7694 55.2469 27.8999 54.8888 28.0043C54.5307 28.1087 54.1272 28.1609 53.6833 28.1609C53.2193 28.1609 52.8057 28.1295 52.4425 28.0669C52.0794 28.0043 51.7717 27.926 51.5195 27.8268C51.2673 27.7276 51.0454 27.5919 50.8537 27.4145C50.662 27.2422 50.5107 27.0595 50.3947 26.8768C50.2787 26.6942 50.1778 26.4697 50.1022 26.1983C50.0265 25.9269 49.971 25.6711 49.9307 25.4206C49.8903 25.17 49.8601 24.8829 49.8348 24.5385ZM51.7162 24.6585C51.7414 24.9612 51.7767 25.2066 51.8221 25.384C51.8675 25.5615 51.9533 25.739 52.0743 25.9112C52.1954 26.0835 52.382 26.2139 52.6241 26.2922C52.8662 26.3705 53.1789 26.4123 53.5572 26.4123C53.8498 26.4123 54.107 26.3653 54.3138 26.2661C54.5256 26.1722 54.682 26.0626 54.7829 25.9373C54.8838 25.8173 54.9645 25.6659 55.025 25.4936C55.0855 25.3214 55.1158 25.1909 55.1259 25.1022C55.136 25.0134 55.141 24.9195 55.141 24.8151C55.141 24.8047 55.141 24.7629 55.141 24.6794C55.141 24.5959 55.141 24.528 55.141 24.4706C55.141 24.4132 55.136 24.3297 55.1259 24.2148C55.1158 24.1 55.1006 24.0061 55.0805 23.9225C55.0603 23.839 55.03 23.7399 54.9897 23.6302C54.9493 23.5154 54.9039 23.4215 54.8485 23.3379C54.793 23.2544 54.7224 23.1709 54.6316 23.0822C54.5408 22.9935 54.4449 22.9256 54.334 22.8682C54.223 22.8108 54.0919 22.7638 53.9355 22.7325C53.7792 22.6959 53.6077 22.6803 53.4261 22.6803C53.0881 22.6803 52.8006 22.7273 52.5686 22.8264C52.3316 22.9204 52.1601 23.0352 52.0491 23.1605C51.9381 23.2857 51.8574 23.4528 51.7969 23.6563C51.7364 23.8599 51.7061 24.0217 51.7011 24.1313C51.696 24.2462 51.7011 24.3871 51.7061 24.5646C51.7162 24.6063 51.7162 24.6428 51.7162 24.6585Z" fill="white"/>
<path d="M63.3928 20.9058C63.3827 20.9214 63.3877 21.0154 63.3978 21.1824C63.413 21.3494 63.4079 21.506 63.3928 21.6574C63.3776 21.8088 63.3423 21.9758 63.2919 22.148C63.2415 22.3203 63.1406 22.4612 62.9842 22.5656C62.8279 22.67 62.6261 22.7222 62.384 22.7222C62.0309 22.7222 61.7586 22.7378 61.5619 22.7639C61.3702 22.79 61.1936 22.8579 61.0423 22.9623C60.891 23.0667 60.7901 23.2128 60.7397 23.406C60.6893 23.5991 60.664 23.8601 60.664 24.1889V28.375C60.5127 28.2602 60.311 28.1715 60.0638 28.1088C59.8167 28.041 59.6048 27.994 59.4333 27.9575C59.2619 27.9209 59.1055 27.8217 58.9743 27.6495C58.8382 27.4772 58.7726 27.2319 58.7726 26.9083V23.406C58.7726 23.3538 58.7726 23.2807 58.7776 23.1919C58.7827 23.098 58.7978 22.9727 58.823 22.8109C58.8482 22.6491 58.8886 22.4873 58.9491 22.3255C59.0097 22.1637 59.0954 21.9967 59.2165 21.8244C59.3325 21.6522 59.4787 21.4956 59.6452 21.3651C59.8116 21.2346 60.0285 21.125 60.2958 21.0363C60.5632 20.9475 60.8557 20.9058 61.1886 20.9058C61.7535 20.9058 62.1722 20.9058 62.4395 20.9058C62.7068 20.9058 62.8581 20.9058 62.8833 20.9058C62.9086 20.9058 62.959 20.9058 63.0296 20.9058C63.0901 20.9058 63.2162 20.9058 63.3928 20.9058Z" fill="white"/>
<path d="M66.8329 31.0526C66.6816 30.9378 66.4798 30.8699 66.2327 30.849C65.9855 30.8282 65.7737 30.8177 65.6022 30.8177C65.4307 30.8177 65.2743 30.7238 65.1432 30.5359C65.007 30.3479 64.9415 30.04 64.9415 29.612V21.8974C64.9515 21.887 64.9919 21.84 65.0625 21.746C65.1331 21.6521 65.1987 21.5842 65.2592 21.532C65.3197 21.4798 65.4257 21.4068 65.5871 21.3076C65.7485 21.2136 65.925 21.1353 66.1167 21.0831C66.3083 21.0309 66.5706 20.984 66.8985 20.937C67.2263 20.8952 67.5996 20.8691 68.0081 20.8691C69.3044 20.8691 70.2375 21.1614 70.8024 21.7408C71.3674 22.3202 71.6498 23.2858 71.6498 24.6377C71.6498 25.2901 71.5489 25.8591 71.3472 26.3393C71.1454 26.8195 70.8731 27.1849 70.5301 27.4458C70.1871 27.7016 69.829 27.8895 69.4456 28.0096C69.0623 28.1296 68.6537 28.187 68.225 28.187C67.645 28.187 67.1809 28.1244 66.8329 28.0043V31.0526ZM66.8329 24.5124V26.3706C66.9691 26.4124 67.1154 26.4489 67.2667 26.475C67.423 26.5011 67.6198 26.522 67.8518 26.5429C68.0888 26.5585 68.3057 26.5324 68.5075 26.4646C68.7092 26.3967 68.9009 26.2923 69.0875 26.1618C69.2741 26.0313 69.4204 25.8225 69.5314 25.5355C69.6424 25.2484 69.6978 24.9039 69.6978 24.502C69.6978 24.1732 69.6474 23.8809 69.5415 23.6408C69.4356 23.3954 69.3145 23.2075 69.1733 23.077C69.032 22.9465 68.8505 22.8474 68.6235 22.7847C68.3965 22.7169 68.2048 22.6803 68.0535 22.6647C67.9022 22.649 67.7105 22.6595 67.4836 22.6856C67.2566 22.7117 67.1154 22.7273 67.0649 22.7378C67.0145 22.7482 66.9388 22.7639 66.838 22.79H66.8228C66.8228 22.79 66.8228 23.3641 66.8329 24.5124Z" fill="white"/>
<path d="M75.3216 21.1563C75.7352 20.9841 76.4262 20.8953 77.3947 20.8953C77.8688 20.8953 78.2723 20.9789 78.6052 21.1459C78.9431 21.3129 79.1852 21.5008 79.3365 21.7148C79.4879 21.9288 79.6039 22.1741 79.6846 22.4456C79.7653 22.7222 79.8107 22.9258 79.8157 23.0615C79.8258 23.1972 79.8258 23.312 79.8157 23.406V28.1663C78.5497 28.3385 77.9192 27.9366 77.9192 26.9501C77.9192 26.5847 77.9192 26.1045 77.9192 25.5095C77.9293 24.2098 77.8688 23.4216 77.7427 23.1346C77.6166 22.8527 77.2181 22.7013 76.5574 22.6857C76.1438 22.6857 75.7302 22.764 75.3166 22.9205V26.9501C75.3317 27.472 75.1753 27.8165 74.8425 27.9784C74.5096 28.1402 74.0354 28.2028 73.4201 28.1663V17.9619C73.5714 18.0767 73.7731 18.1446 74.0203 18.1655C74.2674 18.1864 74.4793 18.1968 74.6508 18.1968C74.8223 18.1968 74.9786 18.2907 75.1098 18.4787C75.246 18.6666 75.3115 18.9745 75.3115 19.4025V21.1563H75.3216Z" fill="white"/>
<path d="M81.929 20.1593C81.7374 19.9505 81.6365 19.7 81.6365 19.4129C81.6365 19.1258 81.7374 18.8805 81.9341 18.6717C82.1308 18.4682 82.3679 18.3638 82.6503 18.3638C82.9277 18.3638 83.1648 18.4682 83.3666 18.6717C83.5633 18.8753 83.6641 19.1206 83.6641 19.4129C83.6641 19.7 83.5633 19.9453 83.3666 20.1541C83.1698 20.3577 82.9328 20.4621 82.6503 20.4621C82.3729 20.4621 82.1308 20.3629 81.929 20.1593ZM83.5834 22.2106C83.5834 21.7826 83.5179 21.4747 83.3817 21.2868C83.2455 21.0988 83.0942 21.0049 82.9227 21.0049C82.7512 21.0049 82.5393 20.9945 82.2922 20.9736C82.045 20.9527 81.8433 20.8848 81.692 20.77V28.1558C82.3073 28.1923 82.7815 28.1297 83.1144 27.9679C83.4473 27.806 83.6036 27.4668 83.5885 26.9396V22.2106H83.5834Z" fill="white"/>
<path d="M91.8503 23.4009V28.1612C91.5578 28.1768 91.3005 28.1768 91.0937 28.1559C90.8819 28.1351 90.6852 28.0829 90.4935 28.0046C90.3018 27.9263 90.1657 27.7958 90.0749 27.6183C89.9841 27.4408 89.9488 27.2164 89.9538 26.945V24.1212V24.0951V23.4426C89.8277 22.8058 89.2527 22.5553 88.2339 22.6858C87.7042 22.7536 87.3966 22.8058 87.3108 22.8424C87.336 22.9885 87.3512 23.166 87.3512 23.3643V26.945C87.3613 27.2164 87.3159 27.4408 87.2251 27.6183C87.1343 27.7958 86.9931 27.9263 86.8064 28.0046C86.6198 28.0829 86.4231 28.1351 86.2112 28.1559C85.9994 28.1768 85.7472 28.182 85.4547 28.1612V21.7932C85.4547 21.2243 86.3373 20.9215 88.0977 20.8798C90.5893 20.8119 91.8402 21.6523 91.8503 23.4009Z" fill="white"/>
<path d="M94.1503 22.7379C94.1503 22.7118 94.1453 22.6752 94.1352 22.6335C94.1251 22.5917 94.1251 22.503 94.1302 22.3777C94.1352 22.2524 94.1453 22.1324 94.1705 22.0176C94.1907 21.9027 94.2361 21.7775 94.2966 21.6313C94.3622 21.4852 94.4429 21.3651 94.5488 21.2659C94.6547 21.1668 94.796 21.0832 94.9775 21.0102C95.1591 20.9423 95.371 20.9058 95.6181 20.9058C95.6938 20.9058 95.8098 20.9058 95.9712 20.9058C96.1881 20.8953 96.415 20.8953 96.6471 20.9058C96.8791 20.9162 97.1111 20.9267 97.3431 20.9371C97.5751 20.9528 97.8021 20.9893 98.019 21.0467C98.2359 21.1093 98.4477 21.1824 98.6444 21.2712C98.8411 21.3599 99.0227 21.4852 99.1892 21.6417C99.3556 21.8036 99.4969 21.9862 99.6179 22.195C99.739 22.4038 99.8348 22.6596 99.9004 22.9675C99.9659 23.2703 100.001 23.6148 100.001 24.001V24.095V24.1889V24.2933V24.3873V24.4917V24.596V24.7161V24.8466V24.9771V25.1337V25.3425V25.4468C100.001 25.807 99.9609 26.1306 99.8852 26.4229C99.8096 26.7152 99.7137 26.9501 99.6028 27.138C99.4868 27.3207 99.3455 27.4825 99.1791 27.6234C99.0126 27.7644 98.8512 27.8635 98.705 27.9314C98.5587 27.9992 98.3872 28.0514 98.1955 28.088C98.0039 28.1297 97.8526 28.1506 97.7466 28.161C97.6407 28.1715 97.5146 28.1767 97.3734 28.1767H95.6282C95.603 28.1767 95.5626 28.1767 95.5122 28.1715C95.4618 28.1663 95.3659 28.1558 95.2297 28.1297C95.0885 28.1089 94.9574 28.0775 94.8313 28.0306C94.7052 27.9888 94.5639 27.9157 94.4076 27.8166C94.2512 27.7174 94.1201 27.5973 94.0091 27.4616C93.8982 27.3259 93.8074 27.1484 93.7317 26.9344C93.656 26.7152 93.6157 26.4699 93.6157 26.2037C93.6157 25.7235 93.6762 25.3216 93.7922 24.9927C93.9082 24.6639 94.0898 24.4134 94.3269 24.2359C94.569 24.0584 94.8363 23.9332 95.1289 23.8653C95.4214 23.7974 95.7795 23.7609 96.2032 23.7609C96.9346 23.7609 97.4339 23.7087 97.7012 23.6095C97.9686 23.5104 98.0997 23.3538 98.0997 23.145C98.0997 22.8475 97.8223 22.6491 97.2725 22.5447C96.7227 22.4403 96.1376 22.4195 95.5172 22.4769C94.9019 22.5239 94.4429 22.6126 94.1503 22.7379ZM98.1552 24.7109C98.1199 24.7526 98.0745 24.8048 98.0089 24.8675C97.9433 24.9301 97.8021 25.0084 97.5852 25.1076C97.3683 25.2067 97.1363 25.2589 96.9043 25.2589C96.4907 25.2589 96.1578 25.3111 95.9006 25.4155C95.6433 25.5199 95.5172 25.6661 95.5172 25.8592C95.5172 26.0836 95.608 26.2559 95.7946 26.3707C95.9813 26.4855 96.3495 26.543 96.9043 26.543C97.1313 26.543 97.3078 26.543 97.4289 26.5377C97.5499 26.5325 97.6659 26.5012 97.7719 26.4386C97.8778 26.3759 97.9484 26.3185 97.9938 26.2663C98.0341 26.2141 98.0694 26.1045 98.0997 25.9323C98.13 25.76 98.1451 25.5982 98.1501 25.4416C98.1501 25.285 98.1552 25.0397 98.1552 24.7109Z" fill="white"/>
</g>
<defs>
<clipPath id="clip0">
<rect width="100" height="47.3731" fill="white" transform="translate(0 0.820801)"/>
</clipPath>
</defs>
</svg>
