<svg width="90" height="56" viewBox="0 0 90 56" fill="none" xmlns="http://www.w3.org/2000/svg">
<path d="M44.9565 0.507493C42.8913 0.507489 40.8464 0.925692 38.9389 1.73817C37.0313 2.55064 35.2985 3.74144 33.8396 5.2424C32.3807 6.74336 31.2244 8.52502 30.4369 10.4854C29.6494 12.4458 29.246 14.5464 29.25 16.6671C29.2473 18.2493 29.4797 19.8227 29.9392 21.333C30.227 20.9208 30.5147 20.5086 30.7722 20.0654C31.8703 18.4168 32.9305 16.7526 34.0059 15.0573L34.7632 13.7898C35.0207 13.3698 35.2781 12.9266 35.5205 12.5144C36.0354 11.659 36.5277 10.7958 36.9897 9.94038C37.2168 9.49712 37.4516 9.08497 37.747 8.63393C38.0423 8.1829 38.2089 7.77852 38.4361 7.33526C38.6633 6.892 38.8981 6.44874 39.1025 6.02881L39.7462 4.7068L39.8068 4.62126C39.9763 4.27726 40.2688 4.01392 40.6231 3.88636C40.9774 3.75881 41.3661 3.77693 41.7076 3.93693C41.965 4.08128 42.1775 4.29718 42.3209 4.5599C42.4642 4.82261 42.5325 5.12148 42.518 5.42224C42.518 6.19989 42.3741 6.97754 42.3135 7.75519C42.2529 8.53284 42.2302 9.31049 42.1696 10.0881C42.1166 11.6434 42.0863 13.2532 42.0863 14.824C42.0863 16.3949 42.1696 17.9346 42.3135 19.4899C42.4044 20.2676 42.518 20.9752 42.6618 21.714C42.7624 22.371 42.9537 23.0099 43.2298 23.6115C43.3152 23.8002 43.4332 23.9715 43.5782 24.1169C43.6615 24.1792 43.5782 24.1169 43.6615 24.1169H43.7221H43.7751H43.8584C43.9005 24.0911 43.941 24.0625 43.9795 24.0314C44.2091 23.8465 44.4197 23.638 44.6081 23.4093C45.0729 22.8585 45.4981 22.2737 45.8804 21.6596C46.2817 21.0452 46.6377 20.3609 47.0315 19.6766C47.7888 18.3157 48.4703 16.9237 49.1368 15.5084C49.4548 14.7929 49.8032 14.0853 50.1137 13.3465C50.4242 12.6077 50.7801 11.869 51.1058 11.1691C51.2544 10.8178 51.5306 10.5399 51.8758 10.3947C52.2209 10.2494 52.6076 10.2483 52.9536 10.3914C53.1791 10.4794 53.3778 10.6272 53.5295 10.8199C53.6812 11.0125 53.7803 11.243 53.8169 11.4879C53.8249 11.7067 53.8451 11.9248 53.8775 12.1411L53.9608 12.8177C54.0214 13.2609 54.0744 13.712 54.1653 14.1552C54.304 15.0402 54.4859 15.9175 54.7105 16.7837C54.9392 17.6538 55.2277 18.5062 55.5738 19.3344C55.9158 20.1675 56.3612 20.9516 56.8991 21.6673C56.954 21.7472 56.9789 21.8447 56.9691 21.9419C56.9594 22.0392 56.9157 22.1295 56.8461 22.1961C56.7817 22.2526 56.6998 22.2836 56.6151 22.2836C56.5305 22.2836 56.4486 22.2526 56.3841 22.1961C55.6685 21.5447 55.0304 20.8086 54.4833 20.0032C53.9436 19.2023 53.4603 18.3629 53.0369 17.4914C52.7491 16.9004 52.5219 16.3093 52.2796 15.7183C52.113 16.0683 51.9691 16.426 51.7949 16.7526C51.0376 18.1679 50.3485 19.5988 49.5381 21.0452C49.1525 21.7975 48.7305 22.5294 48.2734 23.2382C47.82 23.9757 47.3138 24.6775 46.7588 25.3379C46.4349 25.7159 46.0775 26.0621 45.691 26.3721C45.5794 26.4706 45.4544 26.5518 45.32 26.6132L45.0625 26.761L44.9186 26.8232H44.8277H44.7747H44.6611C44.5872 26.8583 44.5076 26.8794 44.4264 26.8854L43.9114 26.9709C43.5304 27.0154 43.1447 26.9837 42.7754 26.8776C42.4302 26.7497 42.1097 26.5602 41.8288 26.3177C41.3872 25.9303 41.0243 25.4573 40.761 24.9257C40.3537 24.0924 40.0606 23.2052 39.8901 22.2895C39.7235 21.4652 39.6023 20.602 39.519 19.7777C39.3449 18.1135 39.2918 16.4882 39.2616 14.8318V12.4989C38.9738 13.0665 38.686 13.6264 38.3982 14.1552C38.1105 14.684 37.9363 15.0495 37.6409 15.4928L36.9215 16.8226C35.9446 18.5956 34.9374 20.3453 33.8923 22.0951C33.2259 23.2149 32.5367 24.3425 31.84 25.4389C33.325 27.789 35.3799 29.7018 37.8029 30.9893C40.2258 32.2768 42.9333 32.8947 45.6592 32.7823C48.3852 32.6699 51.0357 31.8311 53.3503 30.3482C55.6649 28.8653 57.5638 26.7895 58.8605 24.3247C60.1573 21.86 60.8071 19.0912 60.7461 16.2905C60.6851 13.4897 59.9154 10.7535 58.5127 8.35073C57.11 5.94796 55.1226 3.96136 52.7458 2.5862C50.369 1.21105 47.6846 0.494672 44.9565 0.507493Z" fill="url(#paint0_linear)"/>
<path d="M9.24435 51.9179V41.5853H8.99108L5.70602 51.9479H4.87917L1.59411 41.5853H1.35574V51.9179H0V40.498H2.40607L5.32612 49.5785L8.19402 40.498H10.6299V51.9479H9.26669L9.24435 51.9179Z" fill="url(#paint1_linear)"/>
<path d="M12.5889 41.9826V40.4829H14.0787V41.9826H12.5889ZM12.5889 51.9177V43.0998H14.034V51.9177H12.5889Z" fill="url(#paint2_linear)"/>
<path d="M22.8317 49.0384C22.8317 50.748 22.1762 52.0377 19.3381 52.0377C15.77 52.0377 15.5688 49.9832 15.5688 47.4713C15.5688 44.9593 15.77 42.9048 19.3381 42.9048C22.1762 42.9048 22.8317 44.217 22.8317 45.9041H21.4685C21.4685 44.5019 20.9843 43.8196 19.3381 43.8196C17.1034 43.8196 17.014 45.0193 17.014 47.4113C17.014 49.8032 17.1332 51.0105 19.3381 51.0105C20.9843 51.0105 21.4685 50.3206 21.4685 48.9259L22.8317 49.0384Z" fill="url(#paint3_linear)"/>
<path d="M25.6326 44.022C26.3338 43.4921 27.1514 43.1398 28.0163 42.9947C28.1874 42.9835 28.3591 42.9835 28.5303 42.9947C28.7537 42.9947 28.9549 42.9947 29.2081 42.9947L29.0964 44.052C28.8881 44.0377 28.679 44.0377 28.4707 44.052C28.2922 44.0377 28.1128 44.0377 27.9343 44.052C27.1458 44.1987 26.4 44.5216 25.7518 44.9968V51.9327H24.3066V43.0997H25.4389L25.6326 44.022Z" fill="url(#paint4_linear)"/>
<path d="M37.3198 47.5235C37.3198 50.0354 37.1187 52.09 33.491 52.09C29.8632 52.09 29.6621 50.0204 29.6621 47.5235C29.6621 45.0266 29.8632 42.957 33.491 42.957C37.1187 42.957 37.3198 45.0116 37.3198 47.5235ZM31.1072 47.5235C31.1072 49.923 31.219 51.1152 33.491 51.1152C35.763 51.1152 35.8747 49.9455 35.8747 47.5235C35.8747 45.1015 35.7555 43.9243 33.491 43.9243C31.2264 43.9243 31.1072 45.094 31.1072 47.5235Z" fill="url(#paint5_linear)"/>
<path d="M39.9569 53.972C40.6353 54.038 41.3165 54.068 41.998 54.062C44.2327 54.062 44.4935 53.4622 44.5233 51.1152C43.7678 51.5859 42.913 51.871 42.0278 51.9475C38.8172 52 38.6235 50.2604 38.6235 47.5235C38.6235 44.7866 38.7949 42.957 41.8863 42.957C42.8832 43.0162 43.8446 43.3508 44.6648 43.9243L44.8063 43.1295H45.9386V50.9502C45.9386 54.1145 45.2309 55.0893 42.3332 55.0893C41.4904 55.079 40.6492 55.0113 39.8154 54.8868L39.9569 53.972ZM44.5605 44.7266C43.9027 44.258 43.1297 43.9805 42.3258 43.9243C40.2028 43.9243 40.091 45.124 40.091 47.5235C40.091 49.923 40.2326 50.9727 42.3258 50.9727C43.103 50.8938 43.852 50.6373 44.5158 50.2229L44.5605 44.7266Z" fill="url(#paint6_linear)"/>
<path d="M53.7901 51.9175L53.6486 51.1152C52.8687 51.6866 51.9442 52.0245 50.9818 52.09C47.7786 52.1424 47.585 50.3204 47.585 47.5235C47.585 44.7266 47.7488 42.957 50.9296 42.957C51.8917 43.0115 52.8211 43.3276 53.6188 43.8718L53.7603 43.122H54.9V51.9175H53.7901ZM53.4996 44.6666C52.8431 44.2426 52.0941 43.9853 51.317 43.9168C49.194 43.9168 49.0822 45.1165 49.0822 47.516C49.0822 49.9155 49.2238 51.1077 51.317 51.1077C52.0988 51.0344 52.8495 50.7636 53.4996 50.3204V44.6666Z" fill="url(#paint7_linear)"/>
<path d="M57.9692 43.8718C58.7001 43.36 59.5489 43.0451 60.4349 42.957C61.9247 42.8971 62.6696 43.302 63.0421 43.9243C63.8026 43.3809 64.6912 43.0474 65.6195 42.957C68.5991 42.8671 68.83 44.4117 68.83 46.5487V51.9175H67.3774V46.6687C67.3774 44.8391 67.2657 43.9543 65.314 43.9543C64.5746 44.0328 63.8696 44.3099 63.273 44.7566C63.4137 45.3937 63.4688 46.0469 63.4369 46.6987V51.9474H62.1929V46.6387C62.1929 44.8091 62.0811 43.9243 60.122 43.9243C59.4122 44.014 58.7333 44.2709 58.1406 44.6741V51.925H56.688V43.0995H57.8277L57.9692 43.8718Z" fill="url(#paint8_linear)"/>
<path d="M70.6322 41.9826V40.4829H72.122V41.9826H70.6322ZM70.6322 51.9177V43.0998H72.0773V51.9177H70.6322Z" fill="url(#paint9_linear)"/>
<path d="M75.1389 43.8721C75.9424 43.357 76.8569 43.0433 77.8057 42.9574C81.0088 42.8674 81.2099 44.412 81.2099 46.549V51.9177H79.7648V46.669C79.7648 44.8394 79.6232 43.9546 77.53 43.9546C76.7528 44.0222 76.0036 44.2796 75.3475 44.7044V51.9552H73.9023V43.0998H75.0346L75.1389 43.8721Z" fill="url(#paint10_linear)"/>
<path d="M84.0404 53.972C84.7187 54.038 85.4 54.068 86.0815 54.062C88.3162 54.062 88.5769 53.4622 88.6067 51.1152C87.8513 51.5859 86.9964 51.871 86.1113 51.9475C82.9082 52 82.707 50.2604 82.707 47.5235C82.707 44.7866 82.8784 42.957 85.9697 42.957C86.9669 43.0146 87.9288 43.3494 88.7483 43.9243L88.8898 43.1295H89.9997V50.9502C89.9997 54.1145 89.292 55.0893 86.4018 55.0893C85.5565 55.0793 84.7128 55.0116 83.8765 54.8868L84.0404 53.972ZM88.5769 44.7266C87.9346 44.2659 87.1804 43.9887 86.3943 43.9243C84.2639 43.9243 84.1596 45.124 84.1596 47.5235C84.1596 49.923 84.3011 50.9727 86.3943 50.9727C87.1692 50.8937 87.9158 50.6372 88.5769 50.2229V44.7266Z" fill="url(#paint11_linear)"/>
<defs>
<linearGradient id="paint0_linear" x1="26.7964" y1="21.1074" x2="153.997" y2="-8.73465" gradientUnits="userSpaceOnUse">
<stop stop-color="#21E418"/>
<stop offset="0.3" stop-color="#31B6E9"/>
<stop offset="0.98" stop-color="#21E418"/>
</linearGradient>
<linearGradient id="paint1_linear" x1="730.485" y1="-959.306" x2="2524.37" y2="-558.068" gradientUnits="userSpaceOnUse">
<stop stop-color="#21E418"/>
<stop offset="0.3" stop-color="#31B6E9"/>
<stop offset="0.98" stop-color="#21E418"/>
</linearGradient>
<linearGradient id="paint2_linear" x1="115.847" y1="-985.906" x2="379.583" y2="-977.628" gradientUnits="userSpaceOnUse">
<stop stop-color="#21E418"/>
<stop offset="0.3" stop-color="#31B6E9"/>
<stop offset="0.98" stop-color="#21E418"/>
</linearGradient>
<linearGradient id="paint3_linear" x1="524.987" y1="-808.467" x2="1766.41" y2="-570.62" gradientUnits="userSpaceOnUse">
<stop stop-color="#21E418"/>
<stop offset="0.3" stop-color="#31B6E9"/>
<stop offset="0.98" stop-color="#21E418"/>
</linearGradient>
<linearGradient id="paint4_linear" x1="370.205" y1="-806.833" x2="1223.88" y2="-694.152" gradientUnits="userSpaceOnUse">
<stop stop-color="#21E418"/>
<stop offset="0.3" stop-color="#31B6E9"/>
<stop offset="0.98" stop-color="#21E418"/>
</linearGradient>
<linearGradient id="paint5_linear" x1="574.815" y1="-848.235" x2="1878.57" y2="-584.865" gradientUnits="userSpaceOnUse">
<stop stop-color="#21E418"/>
<stop offset="0.3" stop-color="#31B6E9"/>
<stop offset="0.98" stop-color="#21E418"/>
</linearGradient>
<linearGradient id="paint6_linear" x1="567.429" y1="-1196.23" x2="1836.88" y2="-1011.83" gradientUnits="userSpaceOnUse">
<stop stop-color="#21E418"/>
<stop offset="0.3" stop-color="#31B6E9"/>
<stop offset="0.98" stop-color="#21E418"/>
</linearGradient>
<linearGradient id="paint7_linear" x1="578.439" y1="-900.497" x2="1828.15" y2="-659.37" gradientUnits="userSpaceOnUse">
<stop stop-color="#21E418"/>
<stop offset="0.3" stop-color="#31B6E9"/>
<stop offset="0.98" stop-color="#21E418"/>
</linearGradient>
<linearGradient id="paint8_linear" x1="947.184" y1="-915.152" x2="2893.19" y2="-282.567" gradientUnits="userSpaceOnUse">
<stop stop-color="#21E418"/>
<stop offset="0.3" stop-color="#31B6E9"/>
<stop offset="0.98" stop-color="#21E418"/>
</linearGradient>
<linearGradient id="paint9_linear" x1="180.252" y1="-1188.65" x2="443.981" y2="-1180.37" gradientUnits="userSpaceOnUse">
<stop stop-color="#21E418"/>
<stop offset="0.3" stop-color="#31B6E9"/>
<stop offset="0.98" stop-color="#21E418"/>
</linearGradient>
<linearGradient id="paint10_linear" x1="617.804" y1="-956.403" x2="1864.99" y2="-712.533" gradientUnits="userSpaceOnUse">
<stop stop-color="#21E418"/>
<stop offset="0.3" stop-color="#31B6E9"/>
<stop offset="0.98" stop-color="#21E418"/>
</linearGradient>
<linearGradient id="paint11_linear" x1="633.595" y1="-1359.65" x2="1899.32" y2="-1176.35" gradientUnits="userSpaceOnUse">
<stop stop-color="#21E418"/>
<stop offset="0.3" stop-color="#31B6E9"/>
<stop offset="0.98" stop-color="#21E418"/>
</linearGradient>
</defs>
</svg>
