<svg width="90" height="58" viewBox="0 0 90 58" fill="none" xmlns="http://www.w3.org/2000/svg">
<path d="M3.8223 18.0562C4.24191 15.9233 6.44481 15.3901 7.49381 15.3901H71.4828C73.9305 11.8352 79.1405 4.299 80.3993 2.59268C81.9728 0.459789 85.1198 -0.0734354 88.2668 2.05946C90.7844 3.76578 90.0152 6.32525 89.3158 7.3917L84.0708 15.3901C87.8472 15.3901 88.4417 17.523 88.2668 18.5894C87.043 26.2323 84.4904 42.1579 84.0708 44.7174C83.6512 47.2769 81.0986 47.9167 79.8748 47.9167H68.3358C68.6854 48.45 69.4897 49.5164 69.9093 49.5164C70.4338 49.5164 70.9583 48.9832 73.5808 49.5164C75.6788 49.943 75.504 52.1825 75.1543 53.249C74.6298 54.1377 73.371 56.1284 72.5318 56.9815C71.6926 57.8347 69.7344 56.9815 68.8603 56.4483L52.0762 47.9167H2.7733C-0.163907 47.9167 -0.198873 45.4283 0.150794 44.1842C1.1998 36.3635 3.4027 20.1891 3.8223 18.0562Z" fill="white"/>
<path d="M83.6371 2.59909C84.4847 2.5479 85.3113 2.81238 86.0498 3.2219C86.6834 3.58876 87.2667 4.09639 87.5814 4.77892C87.7828 5.18417 87.8164 5.73446 87.5604 6.12265C87.2667 6.59615 86.9394 7.04406 86.6625 7.53036C86.5492 7.16351 86.4485 6.80944 86.2303 6.48524C85.7351 5.73019 84.9379 5.2055 84.1239 4.86424C83.2343 4.48031 82.2063 4.39073 81.2748 4.67654C81.5979 4.21583 81.8916 3.72953 82.2189 3.26882C82.5504 2.79959 83.0916 2.62042 83.6371 2.59909Z" fill="#D91D31"/>
<path d="M82.5921 4.80908C83.6746 4.88587 84.7362 5.35937 85.5167 6.12721C85.9363 6.54953 86.2888 7.08702 86.3055 7.70556C86.2971 8.18332 85.9069 8.63123 85.6635 9.01515C84.1488 11.3187 82.6298 13.6222 81.1235 15.9343C80.9095 14.7868 80.0703 14.0275 79.1052 13.5028C78.0771 12.9525 76.8981 12.7307 75.7651 13.0677C77.2631 10.8111 78.7401 8.54592 80.2255 6.28505C80.4899 5.90539 80.729 5.41483 81.1025 5.13755C81.5263 4.85601 82.0969 4.77496 82.5921 4.80908Z" fill="#D91D31"/>
<path d="M76.6758 13.2122C77.5696 13.161 78.4549 13.4597 79.2144 13.9246C79.7767 14.2701 80.2844 14.7266 80.5823 15.3323C80.8257 15.8272 80.8508 16.4158 80.5026 16.868C78.1696 16.8552 75.8366 16.868 73.5078 16.8595C73.5666 16.5993 73.6127 16.3476 73.7638 16.1258C74.1414 15.5414 74.5358 14.974 74.9051 14.3853C75.0771 14.1166 75.2617 13.8052 75.5093 13.6004C75.8408 13.3359 76.2604 13.2336 76.6758 13.2122Z" fill="#D91D31"/>
<path d="M17.1473 18.5956C17.5081 18.5614 17.8732 18.5828 18.234 18.5828C20.7852 18.5956 23.3406 18.5785 25.8917 18.5913C25.7239 19.9905 25.4889 21.3854 25.3001 22.7846C23.949 22.7888 22.5979 22.7888 21.2467 22.7846C21.1209 23.6036 20.9614 24.4226 20.8817 25.2459C22.0734 25.2459 23.265 25.2459 24.4609 25.2459C24.3224 26.6494 24.0203 28.0357 23.8441 29.4392C22.6314 29.452 21.4188 29.4435 20.2061 29.4435C20.0803 30.3393 19.9082 31.2308 19.8243 32.1352C21.1586 32.1394 22.493 32.1394 23.8273 32.1352C23.6469 33.5343 23.4245 34.925 23.2189 36.3199C21.4691 36.3284 19.7236 36.3199 17.9739 36.3284C17.2186 34.0121 16.4675 31.6958 15.729 29.3752C16.3416 29.0169 16.9081 28.6372 17.3738 28.0869C18.1795 27.1229 18.7124 25.9156 18.9012 24.67C19.0858 23.4756 19.132 22.2471 18.7333 21.0953C18.427 20.2166 17.8312 19.5042 17.0843 18.9752C17.1011 18.843 17.1221 18.7193 17.1473 18.5956Z" fill="#D91D31"/>
<path d="M62.871 18.5827C64.4109 18.5742 65.9551 18.5785 67.495 18.5785C67.2307 20.5365 66.9076 22.486 66.6097 24.4397C66.5341 24.9942 66.4083 25.5317 66.3873 26.0906C66.7439 25.2928 67.1552 24.5207 67.537 23.7316C68.393 22.0125 69.2364 20.2891 70.1008 18.5742C71.7624 18.5828 73.4282 18.5657 75.0898 18.587C73.4072 21.4408 71.7204 24.2861 70.0378 27.1357C70.2266 27.8523 70.4574 28.5562 70.6756 29.2643C71.3973 31.6148 72.0939 33.9695 72.8324 36.3114C71.133 36.3242 69.4336 36.3157 67.73 36.3157C67.3608 34.5539 67.0125 32.7921 66.6306 31.0303C66.4208 30.0748 66.2614 29.1107 66.0264 28.1637C65.9887 28.4965 65.9551 28.8292 65.9005 29.1577C65.5145 31.5422 65.1872 33.9311 64.797 36.3157C63.2151 36.3114 61.6332 36.3199 60.0513 36.3114C60.4919 33.6367 60.8569 30.9536 61.2891 28.2789C61.7507 25.1435 62.2542 22.0167 62.7116 18.8814C62.7535 18.796 62.7283 18.5401 62.871 18.5827Z" fill="#424242"/>
<path d="M76.0924 18.5919C76.3904 18.562 76.6967 18.5791 76.9946 18.5791C79.6171 18.5833 82.2438 18.5748 84.8663 18.5833C84.6272 19.9825 84.4593 21.3902 84.2285 22.7894C82.8816 22.7809 81.5347 22.7851 80.1878 22.7851C80.0577 23.6042 79.9276 24.4189 79.7891 25.238C80.9976 25.2337 82.2019 25.238 83.4103 25.2337C83.2509 26.6414 82.9571 28.0278 82.7935 29.4355C81.5767 29.4526 80.3598 29.4398 79.1472 29.444C79.0045 30.3398 78.8786 31.2399 78.7275 32.1315C80.0787 32.1272 81.4256 32.1272 82.7767 32.1315C82.5669 33.5264 82.3739 34.9256 82.1599 36.3205C79.2269 36.329 76.2939 36.329 73.3608 36.3205C73.8098 33.5818 74.1875 30.8304 74.628 28.0918C75.0351 25.302 75.484 22.5207 75.8952 19.7351C75.9624 19.3512 75.9834 18.9587 76.0924 18.5919Z" fill="#424242"/>
<path d="M17.206 27.0421C18.02 25.8136 18.276 24.4016 18.2802 22.9427C18.2592 22.0384 18.0787 21.1682 17.5291 20.4302C16.9374 19.6282 16.0814 19.1888 15.1457 18.9286C13.4044 18.4807 11.7763 18.6001 10.0014 18.5831C9.15379 18.5916 8.30199 18.566 7.4502 18.5959C6.55225 24.4997 5.6501 30.4078 4.75635 36.316C6.33405 36.3117 7.91596 36.3288 9.49366 36.3074C9.80837 33.8375 10.3203 31.3719 10.5301 28.8722C10.7441 29.6784 10.8826 30.506 11.0546 31.325C11.3777 32.9886 11.7134 34.6566 12.0574 36.316C13.761 36.3117 15.4646 36.316 17.1682 36.3117C16.3961 33.8461 15.5821 31.3975 14.7974 28.9362C15.7793 28.5693 16.6437 27.955 17.206 27.0421ZM13.4883 24.5339C13.333 25.3955 12.8966 26.189 12.1078 26.5942C11.7343 26.7947 11.3651 26.7691 10.9581 26.7777C11.1049 25.596 11.3105 24.4229 11.4742 23.2456C11.5203 22.964 11.5455 22.6612 11.6462 22.3924C12.1665 22.4138 12.7498 22.482 13.1358 22.8787C13.5554 23.2925 13.5806 23.9793 13.4883 24.5339Z" fill="#D91D31"/>
<path d="M47.1401 28.9407C48.08 28.5824 48.9066 27.9894 49.4731 27.1363C50.3627 25.8309 50.6438 24.291 50.5976 22.7297C50.5599 21.8979 50.3501 21.0831 49.8507 20.4134C49.2801 19.6285 48.336 19.155 47.4254 18.9161C46.2128 18.6175 45.0002 18.5791 43.7623 18.5876C42.4238 18.5961 41.0853 18.5705 39.7468 18.6004C39.7174 18.8777 39.6922 19.155 39.6503 19.4322C38.7691 25.0588 37.9467 30.6982 37.0571 36.3248C38.639 36.3333 40.2209 36.3248 41.8028 36.3291C42.0797 34.5417 42.3567 32.7543 42.6252 30.967C42.7301 30.2802 42.7427 29.5848 42.8938 28.9066C43.3763 31.385 43.8714 33.8592 44.375 36.3291C46.0869 36.3205 47.7989 36.3333 49.5067 36.3205C49.0199 34.8104 48.5248 33.3046 48.0465 31.7945C47.7401 30.8433 47.4171 29.9005 47.1401 28.9407ZM45.8352 24.2313C45.7638 25.1825 45.2855 26.1893 44.3917 26.5988C44.0309 26.7865 43.6658 26.7651 43.2714 26.7737C43.4938 25.3233 43.7036 23.8644 43.9302 22.414C44.4337 22.4439 44.8911 22.4396 45.3107 22.7638C45.7806 23.1094 45.8687 23.6767 45.8352 24.2313Z" fill="#424242"/>
<path d="M59.6782 33.8118C59.4558 29.4863 59.1831 25.084 58.9523 20.7755C58.8768 20.046 58.9145 19.3081 58.818 18.5786C56.8962 18.5999 54.9703 18.5573 53.0485 18.5999C52.6079 19.7133 52.1799 20.831 51.7477 21.9486C51.5673 22.4349 51.3239 22.8359 51.3281 23.3691C51.3113 25.0413 50.8162 26.6794 49.7672 27.9804C49.5322 28.2748 49.1798 28.5094 49.0581 28.8635C48.8693 29.3498 48.672 29.8361 48.4874 30.3266C48.4161 30.4973 48.4329 30.621 48.4916 30.7916C49.0958 32.6302 49.6875 34.4772 50.2791 36.3201C50.5393 36.3201 50.7952 36.3158 51.0554 36.3115C51.282 35.5522 51.5379 34.8057 51.7771 34.0549C52.8219 34.0507 53.8709 34.0549 54.9157 34.0549C54.9073 34.81 54.9115 35.5608 54.9115 36.3115C56.5522 36.3115 58.197 36.3329 59.8376 36.2987C59.7327 35.4712 59.7621 34.6393 59.6782 33.8118ZM55.1633 24.026C55.0626 24.9816 55.1213 25.9627 55.0374 26.914C54.9661 28.0316 55.05 29.1706 54.9199 30.284C54.2737 30.2669 53.6317 30.2754 52.9856 30.2754C53.7366 27.7885 54.5842 25.31 55.1885 22.7804C55.2094 23.1942 55.201 23.608 55.1633 24.026Z" fill="#424242"/>
<path d="M37.2631 23.2414C36.9652 21.9702 36.2854 20.8099 35.2658 20.0079C33.8769 18.9244 32.1901 18.5874 30.4739 18.5874C29.2025 18.596 27.9185 18.5618 26.6472 18.6045C26.5464 19.0055 26.5129 19.4278 26.4457 19.8373C25.6107 25.3274 24.7631 30.826 23.9365 36.3161C25.1282 36.3246 26.3241 36.3161 27.5199 36.3204C28.25 36.3204 29.0053 36.3332 29.7312 36.2265C31.5565 36.009 33.3566 35.1856 34.6196 33.8121C35.9204 32.4044 36.7428 30.5061 37.1204 28.6291C37.4939 26.8546 37.7079 25.0245 37.2631 23.2414ZM32.5006 27.4518C32.2908 28.8126 31.9467 30.2715 30.9816 31.2952C30.5117 31.7858 29.9956 32.0076 29.3242 32.0546C29.3872 31.355 29.5172 30.6682 29.6179 29.9728C29.9662 27.8101 30.2893 25.6473 30.6082 23.4803C30.6376 23.3182 30.6585 23.1604 30.7299 23.0111C31.46 23.0111 32.1062 23.4419 32.3537 24.1458C32.723 25.161 32.6475 26.3938 32.5006 27.4518Z" fill="#D91D31"/>
<path d="M61.4655 38.2486C62.397 38.2316 63.3285 38.2444 64.26 38.2444C63.0222 40.1512 61.7508 42.0409 60.5256 43.9605C59.8542 43.5552 59.3045 42.8556 58.5576 42.6637C59.3381 41.4394 60.1479 40.2365 60.941 39.0207C61.1088 38.7562 61.2766 38.4918 61.4655 38.2486Z" fill="#D91D31"/>
<path d="M6.095 39.148C6.32578 39.293 6.35515 39.613 6.32158 39.8604C6.29221 40.0694 6.27543 40.3168 6.17892 40.5045C6.04885 40.5728 5.85583 40.5429 5.70898 40.5642C5.75094 40.2827 5.79709 40.0054 5.84744 39.7281C5.65443 39.5234 5.50338 39.4167 5.21386 39.5276C4.86979 39.694 4.86979 40.2272 4.79426 40.5557C4.66419 41.5667 4.38726 42.5649 4.3411 43.5844C4.66838 43.7124 4.93273 43.7849 5.15511 43.4436C5.35232 42.9531 5.38589 42.3814 5.46142 41.861C5.3733 41.8312 5.28099 41.797 5.19288 41.7672C5.23064 41.6264 5.2726 41.4899 5.31036 41.3491C5.56212 41.3491 5.81387 41.3534 6.06144 41.3534C5.91877 42.0444 5.83485 42.7526 5.67121 43.4394C5.5789 43.8531 5.25162 44.1304 4.83622 44.1432C4.57188 44.1517 4.18166 44.1901 3.98445 43.9726C3.74947 43.738 3.8292 43.3839 3.86277 43.0938C4.04319 42.0743 4.22362 41.0548 4.39984 40.031C4.46698 39.6897 4.5509 39.3698 4.86979 39.1778C5.24323 38.9816 5.72576 38.956 6.095 39.148Z" fill="#424242"/>
<path d="M15.8718 39.1146C16.0396 39.0975 16.2075 39.0975 16.3753 39.0933C16.4593 40.4242 16.5767 41.7551 16.6439 43.0903C17.2187 41.7722 17.7558 40.4327 18.3055 39.1018C18.4818 39.1018 18.658 39.0975 18.8342 39.0975C18.5363 40.7612 18.2636 42.4291 17.9489 44.0927C17.8062 44.0927 17.6635 44.0927 17.5209 44.097C17.6006 43.4699 17.7349 42.8514 17.8356 42.2243C17.9195 41.6484 18.0831 41.111 18.0747 40.5223C17.6635 41.7167 17.1138 42.8599 16.6691 44.0458C16.5516 44.0415 16.4341 44.0373 16.3166 44.033C16.2956 42.9879 16.1362 41.9513 16.1487 40.9062L15.9935 40.8806C15.8592 41.9385 15.6368 42.9836 15.469 44.0373C15.3137 44.0415 15.1543 44.0458 14.999 44.0501C15.2844 42.412 15.5445 40.7441 15.8718 39.1146Z" fill="#424242"/>
<path d="M23.0304 39.1185C23.1857 39.1014 23.3451 39.1014 23.5004 39.0972C23.2906 40.475 23.0178 41.8443 22.7954 43.2179C22.7493 43.5165 22.6863 43.8108 22.615 44.1009C22.4639 44.0967 22.3129 44.0967 22.166 44.0924C22.3758 42.7316 22.6444 41.3794 22.8542 40.0186C22.9087 39.72 22.9381 39.4086 23.0304 39.1185Z" fill="#424242"/>
<path d="M29.6975 39.1231C29.8402 39.1018 29.9871 39.0975 30.1339 39.0933C29.836 40.7441 29.5507 42.3992 29.2654 44.0543C29.0891 44.0501 28.9129 44.0501 28.7367 44.0458C28.6611 42.8727 28.5227 41.6996 28.4807 40.5266C28.2038 41.7082 28.1031 42.9325 27.7968 44.1098C27.6709 44.1055 27.5492 44.1013 27.4233 44.097C27.4569 43.4187 27.6122 42.7661 27.7171 42.0964C27.8849 41.0982 28.0779 40.1042 28.2374 39.1061C28.4094 39.1061 28.5814 39.1061 28.7493 39.1061C28.8583 40.3218 28.9884 41.529 28.9842 42.7533C29.2234 42.2073 29.2444 41.5631 29.3661 40.9659C29.4877 40.3517 29.5507 39.7289 29.6975 39.1231Z" fill="#424242"/>
<path d="M35.1142 39.0117C35.4205 39.0203 35.752 39.097 35.8863 39.417C35.9702 39.7753 35.8527 40.2062 35.7856 40.5645C35.6345 40.5602 35.4835 40.5517 35.3324 40.5474C35.3576 40.2531 35.4205 39.9374 35.3702 39.6473C35.2359 39.4511 34.9758 39.4554 34.7785 39.5364C34.531 39.6729 34.4974 39.9843 34.4429 40.2318C34.2792 41.2641 34.0736 42.2879 33.9268 43.3245C33.9058 43.8151 34.6107 43.798 34.766 43.4098C34.9422 42.9192 34.9632 42.3689 35.0807 41.8613C34.9925 41.8357 34.9002 41.8101 34.8121 41.7845C34.8331 41.6395 34.8583 41.4944 34.8792 41.3494C35.131 41.3494 35.387 41.3494 35.6387 41.3494C35.5716 41.9082 35.4583 42.4585 35.366 43.0131C35.2988 43.3586 35.2485 43.6871 34.9716 43.9302C34.6988 44.1862 34.296 44.1563 33.9561 44.135C33.7128 44.1222 33.4442 43.9174 33.4526 43.653C33.4274 43.3245 33.482 42.9832 33.5365 42.659C33.696 41.8101 33.8428 40.9569 33.9855 40.108C34.0401 39.8137 34.0904 39.5108 34.317 39.2933C34.5058 39.0842 34.8457 39.0245 35.1142 39.0117Z" fill="#424242"/>
<path d="M50.0233 39.1568C50.4932 39.2677 50.875 39.5961 51.1184 40.0099C51.1016 40.1507 51.0261 40.2829 50.9799 40.4152C50.1491 40.2019 49.3351 39.9203 48.5085 39.69C48.3113 39.6303 48.1183 39.545 47.9253 39.4596C48.5841 39.1781 49.31 38.9904 50.0233 39.1568Z" fill="#D91D31"/>
<path d="M11.3779 39.1144C10.866 40.7439 10.2576 42.4246 9.80859 44.0926C9.94706 44.1011 10.0562 44.1054 10.1988 44.1139L10.6226 42.9664C10.9583 42.9664 11.2898 42.9664 11.6254 42.9664L11.5499 44.0456C11.7261 44.0499 11.8982 44.0542 12.0744 44.0584C12.0702 43.4911 12.2045 40.1936 12.2255 39.1059C11.9485 39.1016 11.6464 39.0973 11.3779 39.1144ZM11.6296 42.5014C11.3401 42.5014 11.0548 42.5014 10.7653 42.5014C11.0716 41.516 11.7513 39.4471 11.7849 39.3405L11.6296 42.5014Z" fill="#424242"/>
<path d="M47.4888 39.6729C48.0468 39.8008 48.5839 40.0013 49.1336 40.1591C52.117 41.0763 55.1003 41.9934 58.0837 42.9191C58.4362 43.0343 58.86 43.1111 59.1537 43.3414C62.5231 45.9563 65.8925 48.5755 69.2661 51.1819C69.5052 51.3526 69.5598 51.5957 69.6605 51.8559C70.0213 52.8797 70.4032 53.895 70.764 54.9145C70.4284 54.7652 70.0969 54.5946 69.7738 54.4154C62.779 50.6914 55.7675 46.9716 48.7811 43.2433C48.3531 42.0532 47.9042 40.8673 47.4888 39.6729Z" fill="#D91D31"/>
<path d="M72.1951 51.1949C72.6356 51.3442 72.8832 51.6727 73.1727 52.014C72.5307 53.0335 71.8594 54.0402 71.188 55.0427C70.7643 53.844 70.3111 52.6581 69.8789 51.4637C70.6132 51.1437 71.4062 50.9262 72.1951 51.1949Z" fill="#D91D31"/>
</svg>
