<svg width="101" height="17" viewBox="0 0 101 17" fill="none" xmlns="http://www.w3.org/2000/svg">
<path d="M0.615895 0.268627H7.75617C8.16067 0.266214 8.56334 0.323847 8.95129 0.439685C11.666 1.28095 13.6098 3.07004 14.8548 5.73684C14.9186 5.87425 15.06 6.05372 14.9158 6.18552C14.7717 6.31732 14.6386 6.13785 14.5055 6.05933C13.7395 5.55923 12.8689 5.24625 11.9627 5.14515C9.64452 4.94886 7.32359 5.10309 5.00543 5.05822C4.72814 5.05822 4.63108 5.19563 4.61445 5.48166C4.58117 5.96679 4.85846 6.02007 5.20785 6.02007C7.57593 6.02007 9.944 6.02007 12.3121 6.02007C12.6076 6.0139 12.9029 6.03738 13.1939 6.09017C13.7151 6.19877 14.1818 6.48967 14.5119 6.91176C14.8421 7.33384 15.0145 7.8601 14.999 8.39804C14.999 10.9536 14.999 13.5092 14.999 16.0648C14.999 16.7434 14.999 16.7462 14.3419 16.7462H7.98355C4.76696 16.7462 1.3729 14.3318 0.158365 11.1826C0.108452 11.0508 -0.019103 10.9022 0.0945867 10.7732C0.208276 10.6442 0.371879 10.8041 0.502206 10.8826C1.3843 11.4747 2.41363 11.8032 3.472 11.8304C5.63766 11.85 7.8033 11.8304 9.96896 11.85C10.2462 11.85 10.4487 11.7771 10.4542 11.4098C10.4598 11.0424 10.249 10.9527 9.94678 10.9387C7.98355 10.8573 6.02032 10.9134 4.05986 10.905C3.39116 10.9417 2.72098 10.9417 2.05227 10.905C1.49931 10.8361 0.989068 10.5691 0.614118 10.1524C0.239168 9.73565 0.0243478 9.1968 0.00862686 8.6336C-0.0107836 6.06494 0.00862686 3.49347 0.00862686 0.924813C0.00338943 0.756436 0.0643645 0.592825 0.178192 0.469829C0.292019 0.346832 0.449415 0.274481 0.615895 0.268627Z" fill="url(#paint0_linear)"/>
<path d="M30.0165 14.6829V6.66838C30.0165 6.57803 30.0165 6.48768 30.0165 6.40067C30.0165 6.20324 30.0165 5.98907 30.289 5.99911C30.5615 6.00915 30.532 6.20324 30.532 6.38729C30.532 6.62153 30.532 6.85912 30.532 7.05656C30.5418 7.06688 30.5535 7.07509 30.5665 7.08069C30.5794 7.0863 30.5934 7.08919 30.6075 7.08919C30.6216 7.08919 30.6355 7.0863 30.6485 7.08069C30.6614 7.07509 30.6732 7.06688 30.683 7.05656C30.6914 7.04664 30.6981 7.03532 30.7027 7.02309C31.0974 6.48099 31.6563 6.08636 32.2929 5.90009C32.9295 5.71382 33.6086 5.74626 34.2254 5.99242C35.3121 6.35717 36.0639 7.46147 36.1492 8.87363C36.2642 9.90614 35.9896 10.9446 35.381 11.7783C34.4191 13.0365 31.7697 13.1168 30.7848 11.7247C30.7145 11.619 30.6117 11.5401 30.4926 11.5005V14.6862L30.0165 14.6829ZM33.142 6.35048C31.7697 6.35048 30.8438 7.19376 30.6108 8.63269C30.5587 9.04595 30.5587 9.46428 30.6108 9.87754C30.8143 12.0727 32.7513 12.5546 34.0382 12.0895C35.2694 11.631 35.8472 10.2824 35.5813 8.56576C35.3646 7.16699 34.4716 6.35717 33.1518 6.35048H33.142ZM23.503 3.37556C24.3023 3.30122 25.1057 3.46268 25.8175 3.84071C26.1485 4.02596 26.4288 4.29259 26.6329 4.61636C26.837 4.94013 26.9585 5.31078 26.9863 5.69459C27.006 5.87529 27.0651 6.11288 26.7992 6.16308C26.5332 6.21328 26.4971 5.98238 26.4709 5.77155C26.4306 5.3313 26.2472 4.91736 25.9498 4.59545C25.6524 4.27353 25.2581 4.06208 24.8293 3.99464C23.9506 3.79158 23.0371 3.80304 22.1635 4.0281C21.9319 4.06991 21.711 4.15907 21.5141 4.29019C21.3172 4.42131 21.1483 4.59169 21.0177 4.79107C20.893 4.98724 20.8135 5.20969 20.7853 5.4417C20.757 5.6737 20.7808 5.90921 20.8547 6.1305C20.9287 6.3518 21.0509 6.55312 21.2122 6.71931C21.3735 6.88551 21.5697 7.01226 21.786 7.09002C22.4054 7.32443 23.0468 7.49374 23.7 7.59532C24.5463 7.73727 25.3708 7.99152 26.1524 8.3516C26.4864 8.51868 26.7658 8.78075 26.9569 9.10616C27.148 9.43157 27.2426 9.8064 27.2292 10.1854C27.2664 10.5503 27.1968 10.9182 27.0291 11.2427C26.8614 11.5673 26.6032 11.834 26.287 12.0092C25.4896 12.4757 24.5841 12.7156 23.6647 12.7038C22.7454 12.692 21.846 12.429 21.0604 11.9422C20.2659 11.4771 20 10.6372 20 9.69349C20 9.52282 20.0394 9.40235 20.2265 9.38897C20.4137 9.37558 20.5023 9.48936 20.522 9.6801C20.5311 9.88893 20.5541 10.0969 20.5909 10.3025C20.6575 10.656 20.816 10.9848 21.0499 11.2544C21.2838 11.524 21.5845 11.7246 21.9206 11.8352C23.1282 12.3038 24.4657 12.2846 25.6599 11.7816C26.0322 11.6418 26.3396 11.3651 26.5219 11.006C26.7041 10.6468 26.748 10.2312 26.6449 9.84073C26.6069 9.60098 26.5064 9.37603 26.3539 9.18942C26.2015 9.0028 26.0026 8.86138 25.7781 8.77993C25.0365 8.5088 24.2746 8.29952 23.4997 8.15416C22.8387 8.0164 22.1898 7.8239 21.5594 7.57859C21.3002 7.48024 21.0632 7.32939 20.8627 7.13514C20.6622 6.9409 20.5023 6.70727 20.3928 6.44836C20.2833 6.18944 20.2264 5.9106 20.2254 5.62865C20.2245 5.34669 20.2796 5.06747 20.3874 4.8078C20.4837 4.54733 20.6347 4.31145 20.8297 4.11665C21.0248 3.92186 21.2593 3.77286 21.5168 3.68008C22.1486 3.42585 22.829 3.32171 23.5063 3.37556H23.503ZM60.575 6.90597C60.8637 6.5283 61.2492 6.23935 61.689 6.07104C62.1287 5.90274 62.6055 5.86163 63.0668 5.95226C63.3579 5.98545 63.6373 6.08782 63.8825 6.25114C64.1276 6.41446 64.3318 6.63417 64.4785 6.89259C64.5835 7.07329 64.6623 7.10006 64.7707 6.89259C65.378 5.7816 67.2067 5.67117 68.1161 6.22331C68.4028 6.40203 68.6372 6.65591 68.7949 6.95845C68.9525 7.261 69.0276 7.60112 69.0124 7.94334C69.0386 9.37558 69.0124 10.8112 69.0124 12.2434C69.0124 12.4375 69.0124 12.6651 68.7563 12.6651C68.5002 12.6651 68.4969 12.4408 68.4969 12.2468C68.4969 11.186 68.4969 10.1252 68.4969 9.06437C68.4969 8.84017 68.4969 8.61596 68.4969 8.3951C68.4772 7.17368 67.9913 6.51779 67.0622 6.44417C65.8147 6.34713 64.9381 6.98294 64.8035 8.17089C64.6558 9.47932 64.774 10.7944 64.7444 12.1096C64.7444 12.1832 64.7444 12.2601 64.7444 12.3338C64.7444 12.5078 64.7444 12.6684 64.5244 12.6684C64.3045 12.6684 64.2257 12.5379 64.2224 12.3338C64.2224 11.8552 64.2224 11.3767 64.2224 10.9015C64.2224 10.0515 64.2224 9.19823 64.2224 8.34825C64.2224 7.27072 63.8711 6.71857 63.0898 6.50441C62.6586 6.36941 62.1945 6.39449 61.7798 6.57522C61.3651 6.75594 61.0266 7.08061 60.8245 7.49158C60.6153 7.9049 60.5114 8.36519 60.5224 8.83012C60.5224 9.94558 60.5224 11.061 60.5224 12.1765C60.5224 12.3706 60.5815 12.6416 60.2861 12.6584C59.9906 12.6751 60.007 12.3906 60.007 12.1765C60.007 10.3092 60.007 8.44195 60.007 6.57468C60.007 6.36721 59.9381 6.07273 60.2664 6.07273C60.5947 6.07273 60.5027 6.37055 60.529 6.57468C60.5421 6.68176 60.5553 6.76542 60.575 6.90597ZM75.2731 9.58306C74.449 9.58306 73.6316 9.58306 72.7977 9.58306C72.5285 9.58306 72.4333 9.66002 72.4694 9.97123C72.5712 11.3934 73.3985 12.2233 74.7347 12.2802C75.8739 12.3304 76.8095 12.0058 77.3611 10.858C77.3762 10.8182 77.399 10.7819 77.4283 10.7514C77.4575 10.7209 77.4926 10.6968 77.5313 10.6805C77.57 10.6642 77.6115 10.6561 77.6534 10.6567C77.6952 10.6573 77.7365 10.6666 77.7748 10.684H77.7912C78.0177 10.7877 77.87 10.9651 77.8142 11.099C77.6246 11.5701 77.3083 11.9772 76.9017 12.2732C76.4951 12.5692 76.0148 12.7422 75.516 12.7721C75.0568 12.8323 74.591 12.8154 74.1372 12.7219C73.6672 12.6451 73.2291 12.4314 72.8756 12.1067C72.522 11.7819 72.2681 11.3599 72.1444 10.8915C71.711 9.41574 71.7602 7.99019 72.8338 6.80223C73.6972 5.84852 75.2501 5.61428 76.5141 6.19989C77.5745 6.6918 78.1556 7.77268 78.1556 9.1748C78.1556 9.48267 78.0341 9.55963 77.778 9.55629C76.954 9.55629 76.1365 9.55629 75.3026 9.55629L75.2731 9.58306ZM74.9218 9.0376H76.8916C77.5154 9.0376 77.6073 8.91044 77.4366 8.27128C77.1083 7.02979 76.0938 6.35382 74.7314 6.45421C74.1619 6.50106 73.6259 6.74725 73.2142 7.15102C72.8025 7.55479 72.5405 8.09128 72.4727 8.6695C72.4365 8.95059 72.5153 9.04764 72.778 9.04095C73.4904 9.04095 74.2061 9.04095 74.9185 9.04095L74.9218 9.0376ZM94.9844 7.2473C94.9844 6.91266 94.9844 6.62822 94.9844 6.35382C94.9844 6.16308 94.9581 5.93218 95.2306 5.93218C95.5031 5.93218 95.4998 6.143 95.4998 6.34378C95.4998 7.13352 95.4998 7.92661 95.4998 8.71635C95.4998 9.88088 95.4998 11.0588 95.4998 12.2066C95.4998 12.4007 95.5655 12.6751 95.2635 12.6818C94.9614 12.6885 94.991 12.4107 94.9844 12.1932C94.9778 11.9757 94.9844 11.7548 94.9844 11.5239C94.7973 11.5474 94.7513 11.6879 94.6561 11.7816C94.202 12.3047 93.5904 12.6595 92.9173 12.7903C92.2442 12.9211 91.5475 12.8205 90.9364 12.5044C90.6087 12.3354 90.3185 12.0997 90.0836 11.812C89.8487 11.5242 89.6742 11.1904 89.5707 10.8312C89.3702 10.2769 89.2882 9.6854 89.3301 9.09618C89.372 8.50697 89.5368 7.93367 89.8136 7.41462C90.0528 7.00075 90.3839 6.64983 90.7803 6.39002C91.1766 6.13022 91.6272 5.96878 92.0959 5.91866C92.5646 5.86855 93.0383 5.93115 93.4789 6.10146C93.9196 6.27176 94.3149 6.54502 94.6331 6.89928C94.725 7.00302 94.8301 7.10006 94.9877 7.26068L94.9844 7.2473ZM92.358 6.45087C91.9806 6.41844 91.6017 6.49206 91.2626 6.66375C90.9234 6.83543 90.6368 7.0986 90.4341 7.42466C90.0839 7.94157 89.8774 8.54539 89.8363 9.17218C89.7953 9.79898 89.9213 10.4254 90.201 10.9852C90.34 11.3225 90.5626 11.6174 90.8468 11.8408C91.1311 12.0643 91.4674 12.2088 91.8228 12.2601C93.507 12.5546 94.8728 11.4236 94.9581 9.59979C95.0435 7.77602 94.0816 6.42075 92.3744 6.44752L92.358 6.45087ZM53.8743 12.8089C51.9504 12.8089 50.6996 11.4704 50.6832 9.36889C50.6668 7.26738 51.9964 5.89872 53.9203 5.89872C55.8441 5.89872 57.072 7.30084 57.0753 9.39231C57.0785 11.4838 55.8441 12.8123 53.8907 12.8123L53.8743 12.8089ZM53.9104 6.45087C52.3149 6.45087 51.2085 7.61874 51.2085 9.31535C51.2085 11.099 52.2689 12.3271 53.8349 12.3271C55.4567 12.3271 56.5565 11.1726 56.5598 9.43582C56.5598 7.58863 55.5585 6.45087 53.917 6.44752L53.9104 6.45087ZM81.6159 6.98294C82.4432 5.94222 83.5004 5.75482 84.6691 6.01919C85.8379 6.28355 86.4026 7.08667 86.4091 8.31144C86.4157 9.53621 86.4091 10.8513 86.4091 12.1196C86.4102 12.2394 86.4025 12.3591 86.3861 12.4777C86.3833 12.5089 86.3744 12.5393 86.3599 12.567C86.3454 12.5947 86.3257 12.6193 86.3019 12.6392C86.2781 12.6591 86.2507 12.674 86.2212 12.683C86.1917 12.6921 86.1607 12.6951 86.1301 12.6918H86.1104C86.0821 12.6914 86.0541 12.6852 86.0282 12.6737C86.0022 12.6621 85.9788 12.6454 85.9592 12.6246C85.9397 12.6037 85.9244 12.5791 85.9143 12.5521C85.9042 12.5252 85.8994 12.4965 85.9003 12.4676C85.9003 12.3471 85.9003 12.23 85.9003 12.1096C85.9003 10.9584 85.9003 9.80838 85.9003 8.65946C85.9003 6.98628 84.6954 6.0493 83.1721 6.5546C82.1248 6.88924 81.5732 7.76264 81.5601 9.09449C81.5601 10.0649 81.5601 11.0354 81.5601 12.0058C81.5601 12.1263 81.5601 12.2434 81.5601 12.3639C81.5601 12.5446 81.5141 12.6985 81.3106 12.6985C81.107 12.6985 81.0479 12.5647 81.0447 12.3639C81.0447 12.2434 81.0447 12.1263 81.0447 12.0058V6.76542C81.0447 6.66169 81.0447 6.55795 81.0447 6.45087C81.0447 6.25678 81.084 6.08277 81.3171 6.08946C81.5502 6.09615 81.5535 6.25343 81.5667 6.4241C81.5513 6.60884 81.5748 6.79481 81.6356 6.96955L81.6159 6.98294ZM43.1125 6.89928C44.0252 5.56074 46.5531 5.62097 47.3805 6.62153C47.7108 6.98129 47.9021 7.45088 47.9189 7.94334C47.9189 9.37558 47.9189 10.8078 47.9189 12.2434C47.9189 12.4241 47.9419 12.6182 47.6891 12.6282C47.4363 12.6383 47.3936 12.4609 47.3936 12.2468C47.3936 10.9618 47.3542 9.67675 47.3936 8.3951C47.4428 7.05656 46.4809 6.29359 45.2925 6.38729C43.8611 6.5111 43.106 7.41462 43.0994 8.94725C43.0994 10.008 43.0994 11.0655 43.0994 12.1263C43.0994 12.3237 43.1552 12.5914 42.8597 12.6048C42.5643 12.6182 42.584 12.3304 42.584 12.1196C42.584 10.2088 42.584 8.29806 42.584 6.38729C42.584 6.20324 42.5544 6.0058 42.8138 6.00915C43.0731 6.01249 43.1027 6.15304 43.106 6.36051C43.1092 6.56799 43.106 6.71523 43.106 6.88924L43.1125 6.89928ZM98.5005 8.11066V4.24896C98.5005 4.11511 98.5005 3.98125 98.5005 3.8474C98.493 3.78319 98.5105 3.71854 98.5491 3.66727C98.5878 3.61599 98.6446 3.58216 98.7074 3.573H98.7632C98.7934 3.57211 98.8234 3.57729 98.8516 3.58824C98.8798 3.5992 98.9057 3.61571 98.9276 3.63685C98.9496 3.65798 98.9672 3.68331 98.9796 3.7114C98.9919 3.73949 98.9987 3.76979 98.9995 3.80055C99.0001 3.81058 99.0001 3.82064 98.9995 3.83067C98.9995 3.95114 98.9995 4.06826 98.9995 4.18873C98.9995 6.80335 98.9995 9.41685 98.9995 12.0292C98.9995 12.0727 98.9995 12.1196 98.9995 12.1631C98.9799 12.3739 99.0554 12.665 98.7435 12.6784C98.4316 12.6918 98.4874 12.3873 98.4874 12.1832C98.4874 10.8246 98.4874 9.46593 98.4874 8.10397L98.5005 8.11066ZM39.6883 9.24842C39.6883 10.1887 39.6883 11.1291 39.6883 12.0694C39.6883 12.2702 39.7244 12.5279 39.4224 12.5212C39.1204 12.5145 39.1729 12.2501 39.1729 12.0527C39.1729 10.1564 39.1729 8.26013 39.1729 6.36386C39.1729 6.16308 39.1368 5.90541 39.4388 5.9121C39.7409 5.9188 39.6883 6.18316 39.6883 6.38059C39.6916 7.33765 39.6883 8.29136 39.6883 9.24842Z" fill="white"/>
<defs>
<linearGradient id="paint0_linear" x1="15.0795" y1="10.5012" x2="-0.0860372" y2="6.48096" gradientUnits="userSpaceOnUse">
<stop stop-color="#34BCD5"/>
<stop offset="1" stop-color="#A1509E"/>
</linearGradient>
</defs>
</svg>
