<svg width="100" height="34" viewBox="0 0 100 34" fill="none" xmlns="http://www.w3.org/2000/svg">
<g clip-path="url(#clip0)">
<path d="M39.1368 19.4479C39.1368 20.4486 39.8838 21.2099 40.7969 21.2099C41.0044 21.2099 41.2119 21.1664 41.6892 20.9706L42.3947 22.7761C41.7099 23.0589 41.2741 23.1459 40.7969 23.1459C38.8463 23.1459 37.2484 21.4927 37.2484 19.4262V7.39697H39.1368V10.4206H42.3947V12.3783H39.1368V19.4479Z" fill="white"/>
<path d="M43.6395 19.4478V13.4223C43.6395 11.3558 45.2374 9.70264 47.188 9.70264C49.1386 9.70264 50.7364 11.3558 50.7364 13.4223V19.4478C50.7364 21.5143 49.1386 23.1675 47.188 23.1675C45.2374 23.1675 43.6395 21.5143 43.6395 19.4478ZM47.188 11.6386C46.2957 11.6386 45.5279 12.4435 45.5279 13.4006V19.4261C45.5279 20.3832 46.2957 21.188 47.188 21.188C48.101 21.188 48.8481 20.4049 48.8481 19.4261V13.4223C48.8688 12.4217 48.1218 11.6386 47.188 11.6386Z" fill="white"/>
<path d="M61.444 13.0093C61.444 12.2697 60.8629 11.6389 60.1366 11.6389C59.4311 11.6389 58.8293 12.2697 58.8293 13.0093V22.9068H56.9617V13.0093C56.9617 12.2697 56.3807 11.6389 55.6544 11.6389C54.9488 11.6389 54.347 12.2697 54.347 13.0093V22.9068H52.4794V13.0093C52.4794 11.1603 53.8905 9.68115 55.6544 9.68115C56.5259 9.68115 57.3145 10.0292 57.8955 10.6383C58.4558 10.0292 59.2443 9.68115 60.1159 9.68115C61.9005 9.68115 63.3116 11.1603 63.3116 13.0093V22.9068H61.4232L61.444 13.0093Z" fill="white"/>
<path d="M73.3763 13.422C73.3763 12.4649 72.6292 11.6818 71.7162 11.6818C70.8239 11.6818 70.0561 12.4649 70.0561 13.422V22.9279H68.1677V4.93848H70.0561V10.1156C70.5541 9.83282 71.1144 9.6588 71.7162 9.6588C73.6668 9.6588 75.2646 11.312 75.2646 13.3785V22.8844H73.3763V13.422Z" fill="white"/>
<path d="M76.9452 19.4478V13.4223C76.9452 11.3558 78.543 9.70264 80.4936 9.70264C82.4443 9.70264 84.0421 11.3558 84.0421 13.4223V19.4478C84.0421 21.5143 82.4443 23.1675 80.4936 23.1675C78.543 23.1675 76.9452 21.5143 76.9452 19.4478ZM80.4936 11.6386C79.6013 11.6386 78.8336 12.4435 78.8336 13.4006V19.4261C78.8336 20.3832 79.6013 21.188 80.4936 21.188C81.4067 21.188 82.1537 20.4049 82.1537 19.4261V13.4223C82.1745 12.4217 81.4275 11.6386 80.4936 11.6386Z" fill="white"/>
<path d="M89.2715 11.6386C88.3792 11.6386 87.6114 12.4435 87.6114 13.4006V22.9065H85.7438V13.4223C85.7438 11.3558 87.3209 9.70264 89.2715 9.70264C90.5166 9.70264 91.6786 10.377 92.4464 11.7474L90.8486 12.748C90.4128 11.9649 89.894 11.6386 89.2715 11.6386Z" fill="white"/>
<path d="M98.1322 13.4223C98.1322 12.4652 97.3644 11.6604 96.4721 11.6604C95.559 11.6604 94.812 12.4435 94.812 13.4223V22.9282H92.9236V13.4223C92.9236 11.3558 94.5214 9.70264 96.4721 9.70264C98.4227 9.70264 99.9998 11.3558 99.9998 13.4223V22.9282H98.1322V13.4223Z" fill="white"/>
<path d="M52.9776 32.3035V28.8666C52.9776 28.0618 53.6001 27.4092 54.3679 27.4092C54.9282 27.4092 55.4262 27.7572 55.6753 28.388L55.0735 28.6708C54.9282 28.301 54.6584 28.127 54.3679 28.127C53.9737 28.127 53.6416 28.4751 53.6416 28.8884V32.3253C53.6416 32.7386 53.9737 33.0866 54.3679 33.0866C54.7622 33.0866 55.0942 32.7386 55.0942 32.3253V31.5857H54.0359V30.8896H55.7375V32.3253C55.7375 33.1301 55.115 33.7827 54.3472 33.7827C53.6001 33.761 52.9776 33.1084 52.9776 32.3035Z" fill="#21B3E8"/>
<path d="M60.8008 31.7382H59.3482V33.6742H58.6841V28.8886C58.6841 28.0837 59.3067 27.4312 60.0745 27.4312C60.8423 27.4312 61.4648 28.0837 61.4648 28.8886V33.6742H60.8008V31.7382ZM60.0745 28.1272C59.6802 28.1272 59.3482 28.4753 59.3482 28.8886V31.0421H60.8008V28.8886C60.8008 28.4535 60.4687 28.1272 60.0745 28.1272Z" fill="#21B3E8"/>
<path d="M67.3581 29.6061L66.445 32.3687H66.0922L65.1792 29.6061V33.6738H64.5151V27.4961H65.1792L66.2582 30.8025L67.3581 27.4961H68.0221V33.6738H67.3581V29.6061Z" fill="#21B3E8"/>
<path d="M72.2346 27.4961H71.5706V33.6738H72.2346V27.4961Z" fill="#21B3E8"/>
<path d="M76.3849 29.5191V33.6738H75.7208V27.4961H76.3641L77.8167 31.6508V27.4961H78.4807V33.6738H77.8374L76.3849 29.5191Z" fill="#21B3E8"/>
<path d="M81.5105 32.3035V28.8666C81.5105 28.0618 82.133 27.4092 82.9008 27.4092C83.4611 27.4092 83.9591 27.7572 84.2082 28.388L83.6064 28.6708C83.4611 28.301 83.1913 28.127 82.9008 28.127C82.5066 28.127 82.1745 28.4751 82.1745 28.8884V32.3253C82.1745 32.7386 82.5066 33.0866 82.9008 33.0866C83.2951 33.0866 83.6271 32.7386 83.6271 32.3253V31.5857H82.5688V30.8896H84.2704V32.3253C84.2704 33.1301 83.6479 33.7827 82.8801 33.7827C82.133 33.761 81.5105 33.1084 81.5105 32.3035Z" fill="#21B3E8"/>
<path d="M4.62739 5.56949C-1.51496 11.9648 -1.55647 22.3625 4.54439 28.8013C3.40307 27.6049 3.40307 25.6472 4.56514 24.4725C5.70645 23.2761 7.55331 23.2761 8.69463 24.4943C4.87641 20.4701 4.89716 13.9443 8.73613 9.94178C12.5751 5.93929 18.8005 5.96104 22.6187 9.98528C23.76 11.1817 25.6068 11.2034 26.7482 10.007C27.8895 8.81064 27.9102 6.87465 26.7689 5.67826C23.7185 2.41536 19.6928 0.805664 15.667 0.805664C11.6828 0.805664 7.67782 2.39361 4.62739 5.56949Z" fill="url(#paint0_linear)"/>
<path d="M26.7689 9.98525C25.6276 11.1816 23.7807 11.1816 22.6394 9.96349C26.4576 13.9877 26.4369 20.5135 22.5979 24.516C18.7589 28.5185 12.5336 28.4967 8.71534 24.4725L8.69459 24.4508C8.63234 24.3855 8.57008 24.3202 8.50783 24.2767C8.42483 24.2115 8.36257 24.1462 8.27957 24.1027C8.27957 24.1027 8.27957 24.1027 8.25882 24.1027C8.17581 24.0592 8.11356 23.9939 8.03055 23.9504H8.0098C7.159 23.4936 6.16295 23.4936 5.31215 23.9504C5.2914 23.9722 5.24989 23.9939 5.22914 23.9939C5.08388 24.081 4.95938 24.168 4.83487 24.2767C4.75186 24.342 4.68961 24.4072 4.60661 24.4943C3.46529 25.6907 3.44454 27.6266 4.58586 28.823C10.6867 35.2618 20.6058 35.3053 26.7481 28.91C32.8905 22.5148 32.932 12.117 26.8311 5.67822C27.9309 6.85287 27.9102 8.8106 26.7689 9.98525Z" fill="url(#paint1_linear)"/>
</g>
<defs>
<linearGradient id="paint0_linear" x1="27.6363" y1="14.8059" x2="-0.00011478" y2="14.8059" gradientUnits="userSpaceOnUse">
<stop stop-color="#C7E3F8"/>
<stop offset="0.28" stop-color="#26B1E7"/>
<stop offset="1" stop-color="#223B86"/>
</linearGradient>
<linearGradient id="paint1_linear" x1="3.70156" y1="19.6561" x2="31.3381" y2="19.6561" gradientUnits="userSpaceOnUse">
<stop stop-color="#C7E3F8"/>
<stop offset="0.28" stop-color="#26B1E7"/>
<stop offset="1" stop-color="#223B86"/>
</linearGradient>
<clipPath id="clip0">
<rect width="100" height="32.9553" fill="white" transform="translate(0 0.805664)"/>
</clipPath>
</defs>
</svg>
