<svg width="100" height="14" viewBox="0 0 100 14" fill="none" xmlns="http://www.w3.org/2000/svg">
<path d="M0.875977 1.44336H2.94773L6.18169 8.1488L9.3988 1.44336H11.4874L6.18169 12.7092L0.875977 1.44336Z" fill="white"/>
<path d="M15.193 1.44336H17.2647L20.4987 8.1488L23.7158 1.44336H25.8044L20.4987 12.7092L15.193 1.44336Z" fill="white"/>
<path d="M60.8389 12.7092H58.7503L55.5332 6.02181L52.2993 12.7092H50.2275L55.5332 1.44336L60.8389 12.7092Z" fill="white"/>
<path d="M14.1825 1.44336H12.3803V12.7092H14.1825V1.44336Z" fill="white"/>
<path d="M75.4255 1.44336H73.6232V12.7092H75.4255V1.44336Z" fill="white"/>
<path d="M49.2339 3.47999V1.55127H43.4734C43.4734 1.55127 39.2625 1.8577 38.8751 6.63443C38.4877 11.4112 42.7491 12.6189 43.0354 12.6189C43.3218 12.6189 49.2339 12.6189 49.2339 12.6189V6.54431H44.0461V8.56315H47.4148V10.6H43.4565C43.4565 10.6 40.5426 9.93308 40.7953 6.81469C41.0479 3.69629 43.7597 3.44394 43.7597 3.44394L49.2339 3.47999Z" fill="white"/>
<path d="M99.2419 3.47999V1.55127H93.4815C93.4815 1.55127 89.2706 1.8577 88.8832 6.63443C88.4958 11.4112 92.7572 12.6189 93.0435 12.6189C93.3299 12.6189 99.2419 12.6189 99.2419 12.6189V6.54431H94.0541V8.56315H97.4228V10.6H93.4646C93.4646 10.6 90.5507 9.93308 90.8033 6.81469C91.056 3.69629 93.7678 3.44394 93.7678 3.44394L99.2419 3.47999Z" fill="white"/>
<path d="M63.5509 12.6008H61.7318V1.55127L66.9196 5.82329L72.1242 1.55127V12.6008H70.322V5.51685L66.9196 8.34684L63.5509 5.51685V12.6008Z" fill="white"/>
<path d="M77.0254 12.7092H78.8614V5.57117L87.4179 12.7092V1.44336H85.5314V8.54536L77.0254 1.55151V12.7092Z" fill="white"/>
<path d="M31.6828 13.6464C35.0689 13.6464 37.8138 10.7088 37.8138 7.08516C37.8138 3.46149 35.0689 0.523926 31.6828 0.523926C28.2967 0.523926 25.5517 3.46149 25.5517 7.08516C25.5517 10.7088 28.2967 13.6464 31.6828 13.6464Z" fill="url(#paint0_linear)"/>
<path d="M31.6827 2.02002L27.5897 3.91269L31.6996 6.52637L35.8094 3.91269L31.6827 2.02002ZM31.7164 4.39937C31.2448 4.39937 30.8574 4.16504 30.8574 3.87663C30.8574 3.58823 31.2448 3.3539 31.7164 3.3539C32.188 3.3539 32.5754 3.58823 32.5754 3.87663C32.5754 4.16504 32.188 4.39937 31.7164 4.39937Z" fill="#201600"/>
<path d="M27.3203 4.27344V9.5729L31.4133 12.1325V6.88712L27.3203 4.27344ZM28.533 9.55488C28.3141 9.68106 27.9941 9.53685 27.8256 9.21239C27.6572 8.88794 27.7077 8.5094 27.9435 8.38323C28.1793 8.25705 28.4825 8.40125 28.651 8.72571C28.8025 9.05017 28.752 9.4287 28.533 9.55488ZM29.4931 8.79781C29.2742 8.92399 28.9541 8.77979 28.7857 8.45533C28.6173 8.13087 28.6678 7.75234 28.9036 7.62616C29.1394 7.49998 29.4426 7.64419 29.611 7.96864C29.7626 8.2931 29.7121 8.67163 29.4931 8.79781ZM30.5543 8.04074C30.3353 8.16692 30.0153 8.02272 29.8468 7.69826C29.6784 7.3738 29.7289 6.99527 29.9647 6.86909C30.1837 6.74292 30.5037 6.88712 30.6722 7.21158C30.8406 7.53603 30.7901 7.89654 30.5543 8.04074Z" fill="#201600"/>
<path d="M31.9355 6.94119V12.1505L36.0622 9.44671V4.27344L31.9355 6.94119ZM32.5251 7.31972C32.7272 7.01329 33.064 6.90514 33.2662 7.06737C33.4683 7.22959 33.4851 7.60813 33.283 7.89653C33.0809 8.20296 32.744 8.31111 32.5419 8.14889C32.3398 7.98666 32.3229 7.60813 32.5251 7.31972ZM33.3335 10.4561C33.1314 10.7626 32.7946 10.8707 32.5924 10.7085C32.3903 10.5463 32.3735 10.1677 32.5756 9.87932C32.7777 9.57289 33.1146 9.46474 33.3167 9.62696C33.5357 9.78919 33.5357 10.1497 33.3335 10.4561ZM34.361 8.54544C34.1589 8.85187 33.822 8.96003 33.6199 8.7978C33.4178 8.63557 33.4009 8.25704 33.603 7.96863C33.8052 7.6622 34.142 7.55405 34.3442 7.71628C34.5463 7.87851 34.5631 8.23901 34.361 8.54544ZM35.439 9.17633C35.2369 9.48276 34.9 9.59091 34.6979 9.42869C34.4957 9.26646 34.4789 8.88792 34.681 8.59952C34.8831 8.31111 35.22 8.18494 35.4221 8.34716C35.6243 8.50939 35.6411 8.8699 35.439 9.17633ZM35.439 6.65278C35.2369 6.95921 34.9 7.06737 34.6979 6.90514C34.4957 6.74291 34.4789 6.36438 34.681 6.07597C34.8831 5.76954 35.22 5.66139 35.4221 5.82362C35.6243 5.98584 35.6411 6.34635 35.439 6.65278Z" fill="#201600"/>
<defs>
<linearGradient id="paint0_linear" x1="26.997" y1="2.86447" x2="36.9032" y2="10.6318" gradientUnits="userSpaceOnUse">
<stop stop-color="#FFCC56"/>
<stop offset="1" stop-color="#BF8143"/>
</linearGradient>
</defs>
</svg>
