<svg width="90" height="53" viewBox="0 0 90 53" fill="none" xmlns="http://www.w3.org/2000/svg">
<path fill-rule="evenodd" clip-rule="evenodd" d="M0 40.4987C0 40.1046 0.312359 39.7852 0.697674 39.7852H89.3023C89.6876 39.7852 90 40.1046 90 40.4987C90 40.8929 89.6876 41.2123 89.3023 41.2123H0.697674C0.312359 41.2123 0 40.8929 0 40.4987Z" fill="white"/>
<path d="M32.0168 30.917C29.9238 30.917 28.1098 29.4898 27.6912 27.4204C26.7843 24.4232 24.6912 22.4965 22.5982 20.5698C22.1098 19.9989 21.3424 19.9275 20.7842 20.3557C20.7145 20.4271 20.6447 20.4984 20.5749 20.5698C19.1098 21.997 17.7145 23.4955 16.5284 25.1368C14.7842 27.7058 13.3889 30.4888 11.854 33.1292C10.1796 36.0549 6.9005 37.5535 3.69119 36.8399C1.947 36.4831 0.62142 35.1273 0.202815 33.3433C-0.355326 31.702 0.272581 29.8466 1.66793 28.8476C3.13305 27.7772 4.66794 26.9208 6.34236 26.2786C10.6679 24.4946 14.5749 21.8543 17.9238 18.5717C18.9005 17.644 18.9005 17.3586 17.854 16.4309C14.5749 13.6478 10.6679 11.6497 6.55166 10.5793C5.71445 10.3653 4.87724 10.0085 4.1098 9.5803C2.71445 8.79534 1.66793 7.72494 1.66793 5.94093C1.59817 4.08556 2.50514 2.37292 4.04003 1.44524C6.27259 0.0180325 9.13306 0.303473 11.0168 2.08748C12.0633 3.22924 13.04 4.37101 13.8773 5.65549C15.6214 8.1531 17.2261 10.7934 19.1098 13.1483C20.9935 15.5032 21.4121 15.5746 23.4354 13.2197C25.7377 10.508 28.3191 8.01038 29.9238 4.65645C30.761 2.9438 32.7843 2.44428 34.7378 3.15788C36.2726 3.6574 37.3192 5.22733 37.1099 6.86861C36.9005 8.5099 35.854 9.50894 34.3889 10.0085C31.4587 11.0789 28.8075 12.6488 26.3657 14.6469C23.0866 17.1445 23.6447 17.5726 26.5749 19.428C28.947 20.7839 31.4587 21.997 33.9703 22.996C35.2261 23.5669 36.3424 24.2091 36.6913 25.7077C37.1796 28.4194 34.9471 30.917 32.0168 30.917Z" fill="#FF5C00"/>
<path d="M81.3424 5.8697C83.1564 5.8697 84.9703 5.79834 86.854 5.8697C88.8773 5.94106 89.9238 7.86779 88.8773 9.58043C88.3889 10.1513 87.761 10.5081 86.9936 10.5795C83.9936 10.6508 80.9936 10.5795 77.9936 10.6508C75.3424 10.6508 73.1796 11.7212 71.854 14.1475C69.6912 18.0723 72.6215 22.9248 77.2261 23.1389C78.4122 23.2102 79.5982 23.2102 80.7843 23.1389C82.7377 23.0675 83.5052 22.2112 83.575 20.2131C83.575 19.7136 83.575 19.2854 83.575 18.7859C83.575 16.9305 84.2029 16.2883 86.0866 16.2883C86.6447 16.2883 87.1331 16.2883 87.6912 16.3597C88.5982 16.431 89.2959 17.2873 89.2261 18.215C89.2261 20.8554 89.2261 23.4243 89.2261 26.0647C89.2959 26.9923 88.5982 27.7773 87.6912 27.8487C87.6215 27.8487 87.5517 27.8487 87.4819 27.8487C83.7145 27.8487 79.8773 27.9914 76.0401 27.7773C73.4587 27.5632 71.0168 26.5642 69.0633 24.8515C62.7842 19.6422 64.0401 10.3654 71.575 7.01146C73.2494 6.36922 75.0633 5.94106 76.8773 5.79834C78.3424 5.79834 79.8773 5.79834 81.3424 5.8697Z" fill="white"/>
<path d="M39.6211 17.0017C39.6211 14.0759 39.6211 11.1502 39.6211 8.22442C39.6211 6.58314 40.1792 5.9409 41.7839 5.9409C46.6676 5.9409 51.6211 5.86954 56.5048 5.9409C60.2025 6.01226 62.9235 8.15305 63.5514 11.3643C63.97 13.3623 63.2723 15.4318 61.8072 16.7876C60.5514 18.0721 58.9467 18.8571 57.2025 19.0711C55.3886 19.2139 53.5746 19.2852 51.7606 19.2139C50.0165 19.1425 49.3885 18.3575 49.4583 16.5022C49.5281 15.075 50.2955 14.5041 51.97 14.5041C52.8072 14.5755 53.6444 14.5755 54.4816 14.5041C55.1095 14.4327 55.6676 14.29 56.2258 13.9332C56.9235 13.5764 57.2025 12.7201 56.9235 12.0065C56.7839 11.7211 56.5746 11.507 56.2955 11.3643C55.7374 11.0075 55.1095 10.7934 54.4816 10.7934C52.3188 10.722 50.2258 10.722 48.063 10.7934C46.1095 10.7934 45.4118 11.5783 45.4118 13.5764V25.7076C45.4118 27.563 44.8537 28.1339 43.0397 28.1339C42.5513 28.1339 42.1327 28.1339 41.6443 28.1339C40.3188 27.9911 39.7606 27.4202 39.7606 25.9931C39.6211 22.9246 39.6211 19.9275 39.6211 17.0017Z" fill="white"/>
<path d="M0.697754 51.9164L2.91648 48.4511L0.905898 45.2758H2.43819L3.7402 47.4093L5.01564 45.2758H6.53465L4.51521 48.501L6.73394 51.9164H5.15293L3.71363 49.6198L2.26991 51.9164H0.697754Z" fill="white"/>
<path d="M7.58848 51.9164V45.2758H9.69206C10.4892 45.2758 11.0088 45.3091 11.2509 45.3755C11.6229 45.4751 11.9344 45.6926 12.1854 46.0278C12.4363 46.3599 12.5618 46.7903 12.5618 47.3187C12.5618 47.7264 12.4895 48.0691 12.3448 48.347C12.2001 48.6248 12.0156 48.8437 11.7912 49.0038C11.5698 49.1608 11.3439 49.265 11.1136 49.3163C10.8007 49.3797 10.3475 49.4114 9.75406 49.4114H8.89934V51.9164H7.58848ZM8.89934 46.3992V48.2836H9.61678C10.1334 48.2836 10.4789 48.2488 10.6531 48.1794C10.8273 48.1099 10.9631 48.0012 11.0605 47.8532C11.1609 47.7053 11.2111 47.5331 11.2111 47.3368C11.2111 47.0953 11.1417 46.896 11.0029 46.7389C10.8642 46.5819 10.6885 46.4838 10.4759 46.4445C10.3194 46.4143 10.005 46.3992 9.53263 46.3992H8.89934Z" fill="white"/>
<path d="M13.8238 51.9164V45.2758H16.5828C17.2766 45.2758 17.78 45.3362 18.0929 45.457C18.4088 45.5748 18.6613 45.7862 18.8502 46.0912C19.0392 46.3962 19.1337 46.745 19.1337 47.1375C19.1337 47.6358 18.9905 48.048 18.7041 48.3741C18.4177 48.6973 17.9896 48.9011 17.4198 48.9857C17.7032 49.1548 17.9365 49.3405 18.1195 49.5428C18.3055 49.7451 18.555 50.1045 18.8679 50.6209L19.6607 51.9164H18.0929L17.1452 50.4714C16.8086 49.955 16.5784 49.6304 16.4544 49.4975C16.3304 49.3616 16.199 49.2695 16.0602 49.2212C15.9214 49.1699 15.7015 49.1442 15.4004 49.1442H15.1346V51.9164H13.8238ZM15.1346 48.0842H16.1045C16.7334 48.0842 17.126 48.0571 17.2825 48.0027C17.439 47.9484 17.5615 47.8547 17.6501 47.7219C17.7387 47.589 17.7829 47.4229 17.7829 47.2236C17.7829 47.0001 17.7239 46.8205 17.6058 46.6846C17.4907 46.5457 17.3268 46.4581 17.1142 46.4219C17.0079 46.4068 16.6891 46.3992 16.1576 46.3992H15.1346V48.0842Z" fill="white"/>
<path d="M20.2893 48.6369C20.2893 47.9604 20.3883 47.3927 20.5861 46.9337C20.7337 46.5955 20.9344 46.292 21.1884 46.0232C21.4452 45.7545 21.7257 45.5552 22.0298 45.4253C22.4343 45.2502 22.9007 45.1626 23.4292 45.1626C24.3858 45.1626 25.1505 45.4661 25.7232 46.0731C26.299 46.68 26.5868 47.5241 26.5868 48.6052C26.5868 49.6772 26.3019 50.5167 25.7321 51.1237C25.1623 51.7276 24.4006 52.0296 23.4469 52.0296C22.4815 52.0296 21.7139 51.7291 21.1441 51.1282C20.5743 50.5242 20.2893 49.6938 20.2893 48.6369ZM21.6401 48.5916C21.6401 49.3435 21.8098 49.9142 22.1494 50.3038C22.4889 50.6903 22.9199 50.8836 23.4425 50.8836C23.9651 50.8836 24.3932 50.6918 24.7268 50.3083C25.0634 49.9218 25.2317 49.3435 25.2317 48.5735C25.2317 47.8125 25.0678 47.2447 24.7401 46.8703C24.4153 46.4958 23.9828 46.3086 23.4425 46.3086C22.9022 46.3086 22.4667 46.4989 22.1361 46.8793C21.8054 47.2568 21.6401 47.8276 21.6401 48.5916Z" fill="white"/>
<path d="M30.816 49.4749V48.356H33.6414V51.0014C33.3668 51.2731 32.9683 51.5132 32.4457 51.7216C31.9261 51.9269 31.3991 52.0296 30.8647 52.0296C30.1856 52.0296 29.5937 51.8847 29.0888 51.5948C28.5839 51.3018 28.2046 50.8851 27.9506 50.3446C27.6967 49.801 27.5698 49.2106 27.5698 48.5735C27.5698 47.8819 27.7115 47.2674 27.9949 46.7299C28.2784 46.1923 28.6932 45.7801 29.2394 45.4933C29.6557 45.2728 30.1738 45.1626 30.7938 45.1626C31.5998 45.1626 32.2287 45.3362 32.6804 45.6835C33.1351 46.0278 33.4274 46.5049 33.5573 47.1149L32.2552 47.364C32.1637 47.0379 31.991 46.7812 31.7371 46.594C31.4861 46.4037 31.1717 46.3086 30.7938 46.3086C30.221 46.3086 29.7649 46.4943 29.4254 46.8658C29.0888 47.2372 28.9205 47.7883 28.9205 48.5191C28.9205 49.3073 29.0918 49.8991 29.4342 50.2947C29.7767 50.6873 30.2255 50.8836 30.7805 50.8836C31.0551 50.8836 31.3297 50.8292 31.6042 50.7205C31.8818 50.6088 32.1194 50.4744 32.3172 50.3174V49.4749H30.816Z" fill="white"/>
<path d="M40.8908 51.9164H39.4648L38.898 50.408H36.3028L35.7669 51.9164H34.3764L36.9051 45.2758H38.2913L40.8908 51.9164ZM38.4773 49.2891L37.5827 46.825L36.7058 49.2891H38.4773Z" fill="white"/>
<path d="M41.7542 51.9164V45.2758H43.7161L44.8941 49.8055L46.0588 45.2758H48.0251V51.9164H46.8073V46.6891L45.5185 51.9164H44.2564L42.9721 46.6891V51.9164H41.7542Z" fill="white"/>
<path d="M49.4687 51.9164V45.2758H50.7795V51.9164H49.4687Z" fill="white"/>
<path d="M52.2275 51.9164V45.2758H53.503L56.1601 49.7104V45.2758H57.378V51.9164H56.0627L53.4454 47.586V51.9164H52.2275Z" fill="white"/>
<path d="M61.9703 49.4749V48.356H64.7957V51.0014C64.5211 51.2731 64.1226 51.5132 63.6 51.7216C63.0804 51.9269 62.5534 52.0296 62.019 52.0296C61.3399 52.0296 60.748 51.8847 60.2431 51.5948C59.7383 51.3018 59.3589 50.8851 59.105 50.3446C58.8511 49.801 58.7241 49.2106 58.7241 48.5735C58.7241 47.8819 58.8658 47.2674 59.1492 46.7299C59.4327 46.1923 59.8475 45.7801 60.3937 45.4933C60.81 45.2728 61.3281 45.1626 61.9481 45.1626C62.7541 45.1626 63.383 45.3362 63.8347 45.6835C64.2894 46.0278 64.5817 46.5049 64.7116 47.1149L63.4096 47.364C63.318 47.0379 63.1453 46.7812 62.8914 46.594C62.6405 46.4037 62.326 46.3086 61.9481 46.3086C61.3754 46.3086 60.9192 46.4943 60.5797 46.8658C60.2431 47.2372 60.0748 47.7883 60.0748 48.5191C60.0748 49.3073 60.2461 49.8991 60.5885 50.2947C60.931 50.6873 61.3798 50.8836 61.9348 50.8836C62.2094 50.8836 62.484 50.8292 62.7586 50.7205C63.0361 50.6088 63.2738 50.4744 63.4716 50.3174V49.4749H61.9703Z" fill="white"/>
<path d="M66.1817 51.9164V50.6435H67.4261V51.9164H66.1817Z" fill="white"/>
<path d="M73.0503 49.4749L74.3213 49.8871C74.1264 50.6118 73.8017 51.1508 73.347 51.5042C72.8953 51.8545 72.321 52.0296 71.6243 52.0296C70.7622 52.0296 70.0536 51.7291 69.4985 51.1282C68.9435 50.5242 68.666 49.6998 68.666 48.655C68.666 47.5497 68.945 46.6921 69.503 46.0821C70.061 45.4691 70.7946 45.1626 71.704 45.1626C72.4982 45.1626 73.1433 45.4027 73.6393 45.8828C73.9345 46.1667 74.1559 46.5743 74.3036 47.1058L73.006 47.4229C72.9292 47.0787 72.7683 46.8069 72.5233 46.6076C72.2812 46.4083 71.9859 46.3086 71.6376 46.3086C71.1563 46.3086 70.7651 46.4853 70.464 46.8386C70.1658 47.1919 70.0167 47.7641 70.0167 48.5553C70.0167 49.3948 70.1643 49.9928 70.4595 50.3491C70.7548 50.7054 71.1386 50.8836 71.611 50.8836C71.9594 50.8836 72.259 50.7703 72.51 50.5439C72.7609 50.3174 72.941 49.961 73.0503 49.4749Z" fill="white"/>
<path d="M75.3662 48.6369C75.3662 47.9604 75.4652 47.3927 75.663 46.9337C75.8106 46.5955 76.0114 46.292 76.2653 46.0232C76.5221 45.7545 76.8026 45.5552 77.1067 45.4253C77.5112 45.2502 77.9777 45.1626 78.5061 45.1626C79.4627 45.1626 80.2274 45.4661 80.8001 46.0731C81.3759 46.68 81.6637 47.5241 81.6637 48.6052C81.6637 49.6772 81.3788 50.5167 80.809 51.1237C80.2392 51.7276 79.4775 52.0296 78.5238 52.0296C77.5584 52.0296 76.7908 51.7291 76.221 51.1282C75.6512 50.5242 75.3662 49.6938 75.3662 48.6369ZM76.717 48.5916C76.717 49.3435 76.8867 49.9142 77.2263 50.3038C77.5658 50.6903 77.9968 50.8836 78.5194 50.8836C79.042 50.8836 79.4701 50.6918 79.8037 50.3083C80.1403 49.9218 80.3086 49.3435 80.3086 48.5735C80.3086 47.8125 80.1447 47.2447 79.817 46.8703C79.4922 46.4958 79.0597 46.3086 78.5194 46.3086C77.9791 46.3086 77.5436 46.4989 77.213 46.8793C76.8823 47.2568 76.717 47.8276 76.717 48.5916Z" fill="white"/>
<path d="M82.8548 51.9164V45.2758H84.8167L85.9947 49.8055L87.1594 45.2758H89.1257V51.9164H87.9079V46.6891L86.6191 51.9164H85.357L84.0727 46.6891V51.9164H82.8548Z" fill="white"/>
</svg>
