<svg width="100" height="44" viewBox="0 0 100 44" fill="none" xmlns="http://www.w3.org/2000/svg">
<rect x="1" y="-1" width="98" height="42" rx="21" transform="matrix(1 0 0 -1 0 42)" stroke="url(#paint0_linear)" stroke-width="2"/>
<path d="M21.5734 24.2656L24.6223 17.0469H27.302L22.4895 27H19.9328L18.2648 17.0469H20.7941L21.5734 24.2656ZM29.5879 27H27.25L28.9795 17.0469H31.3105L29.5879 27ZM38.6961 22.7822H35.0389L34.6219 25.1543H38.949L38.6277 27H31.9627L33.6854 17.0469H40.3641L40.0428 18.8994H35.7088L35.3396 20.998H39.0037L38.6961 22.7822ZM48.4469 23.2607L50.525 17.0469H52.8902L49.2809 27H46.8609L46.4576 21.3604L44.3111 27H41.8912L41.3922 17.0469H43.6686L43.8053 23.2334L46.0885 17.0469H48.0777L48.4469 23.2607ZM62.9172 25.1406H59.7385L58.8566 27H56.2795L61.55 17.0469H63.7512L65.59 27H63.1564L62.9172 25.1406ZM60.6135 23.2881H62.6779L62.2404 19.8564L60.6135 23.2881ZM69.7559 25.1543H73.8096L73.4883 27H67.0967L68.8193 17.0469H71.1641L69.7559 25.1543ZM77.8934 25.1543H81.9471L81.6258 27H75.2342L76.9568 17.0469H79.3016L77.8934 25.1543Z" fill="white"/>
<defs>
<linearGradient id="paint0_linear" x1="0" y1="22" x2="100" y2="22" gradientUnits="userSpaceOnUse">
<stop stop-color="#02B0FF"/>
<stop offset="1" stop-color="#8F00FF"/>
</linearGradient>
</defs>
</svg>
