<svg width="300" height="89" viewBox="0 0 300 89" fill="none" xmlns="http://www.w3.org/2000/svg">
<rect y="0.29834" width="300" height="37.0746" fill="#07062E"/>
<rect y="37.373" width="300" height="51.4925" fill="#07062E"/>
<path d="M40.0938 13.1025V24.4775H37.7422V20.165C37.0286 20.3161 36.2839 20.3916 35.5078 20.3916C34.0651 20.3916 32.9688 20.0765 32.2188 19.4463C31.474 18.8161 31.0911 17.9046 31.0703 16.7119V13.1025H33.4219V16.665C33.4271 17.3161 33.5833 17.7848 33.8906 18.0713C34.2031 18.3577 34.7422 18.501 35.5078 18.501C36.2839 18.501 37.0286 18.4255 37.7422 18.2744V13.1025H40.0938ZM49.7609 13.1025H52.1125V24.4775H49.7609V16.9229L45.2063 24.4775H42.8625V13.1025H45.2063V20.6729L49.7609 13.1025ZM63.2719 15.001H59.7875V24.4775H57.4438V15.001H54.0063V13.1025H63.2719V15.001ZM70.9 22.1338H66.7906L66.0094 24.4775H63.5172L67.7516 13.1025H69.9234L74.1813 24.4775H71.6891L70.9 22.1338ZM67.4234 20.2354H70.2672L68.8375 15.9775L67.4234 20.2354ZM82.8641 13.1025H85.2156V24.4775H82.8641V16.9229L78.3094 24.4775H75.9656V13.1025H78.3094V20.6729L82.8641 13.1025ZM83.3172 10.1104C83.3172 10.8031 83.0672 11.363 82.5672 11.79C82.0724 12.2171 81.4214 12.4307 80.6141 12.4307C79.8068 12.4307 79.1531 12.2197 78.6531 11.7979C78.1583 11.376 77.9109 10.8135 77.9109 10.1104H79.5125C79.5125 10.4385 79.6089 10.6937 79.8016 10.876C79.9995 11.0531 80.2703 11.1416 80.6141 11.1416C80.9526 11.1416 81.2182 11.0531 81.4109 10.876C81.6036 10.6937 81.7 10.4385 81.7 10.1104H83.3172ZM96.6094 15.001H93.125V24.4775H90.7812V15.001H87.3438V13.1025H96.6094V15.001ZM105.597 19.5479H101.097V22.5947H106.378V24.4775H98.7531V13.1025H106.363V15.001H101.097V17.7119H105.597V19.5479ZM122.595 24.4775H120.252V19.6025H115.681V24.4775H113.338V13.1025H115.681V17.7119H120.252V13.1025H122.595V24.4775ZM132.012 22.1338H127.903L127.122 24.4775H124.63L128.864 13.1025H131.036L135.294 24.4775H132.802L132.012 22.1338ZM128.536 20.2354H131.38L129.95 15.9775L128.536 20.2354ZM145.914 20.6885C145.826 21.9124 145.372 22.876 144.555 23.5791C143.742 24.2822 142.669 24.6338 141.336 24.6338C139.878 24.6338 138.729 24.1442 137.891 23.165C137.057 22.1807 136.641 20.8317 136.641 19.1182V18.4229C136.641 17.3291 136.833 16.3656 137.219 15.5322C137.604 14.6989 138.154 14.0609 138.867 13.6182C139.586 13.1702 140.419 12.9463 141.367 12.9463C142.68 12.9463 143.737 13.2979 144.539 14.001C145.341 14.7041 145.805 15.6911 145.93 16.9619H143.586C143.529 16.2275 143.323 15.6963 142.969 15.3682C142.62 15.0348 142.086 14.8682 141.367 14.8682C140.586 14.8682 140 15.1494 139.609 15.7119C139.224 16.2692 139.026 17.1364 139.016 18.3135V19.1729C139.016 20.402 139.201 21.3005 139.57 21.8682C139.945 22.4359 140.534 22.7197 141.336 22.7197C142.06 22.7197 142.599 22.5557 142.953 22.2275C143.312 21.8942 143.518 21.3812 143.57 20.6885H145.914Z" fill="#FEFEFE"/>
<ellipse cx="280" cy="63.1194" rx="19" ry="19.5672" fill="#0087D2"/>
<path d="M277.417 66.3952L277.02 72.1459C277.588 72.1459 277.834 71.8946 278.129 71.5929L280.792 68.9719L286.31 73.1335C287.322 73.7143 288.035 73.4085 288.308 72.1747L291.93 54.6961L291.931 54.6951C292.252 53.1544 291.39 52.5519 290.404 52.9299L269.114 61.3242C267.661 61.905 267.683 62.7392 268.867 63.1172L274.31 64.8607L286.953 56.7136C287.548 56.3078 288.089 56.5323 287.644 56.9381L277.417 66.3952Z" fill="white"/>
<ellipse cx="232" cy="63.1194" rx="19" ry="19.5672" fill="#FF820F"/>
<path d="M230.852 68.1705C229.045 67.9706 227.415 67.4987 226.02 66.3419C225.847 66.198 225.668 66.0592 225.51 65.8985C224.899 65.2767 224.838 64.5646 225.321 63.8307C225.735 63.2027 226.428 63.0347 227.15 63.3953C227.289 63.4652 227.423 63.5524 227.55 63.6461C230.15 65.5402 233.722 65.5925 236.333 63.7313C236.591 63.5211 236.868 63.3498 237.188 63.2623C237.811 63.0927 238.392 63.3353 238.726 63.913C239.108 64.5729 239.103 65.2169 238.633 65.7292C237.911 66.5146 237.043 67.0827 236.078 67.4793C235.166 67.8541 234.167 68.0429 233.178 68.1681C233.328 68.3403 233.398 68.4249 233.491 68.5243C234.834 69.9543 236.182 71.3782 237.52 72.8126C237.976 73.3013 238.071 73.9073 237.82 74.4757C237.546 75.097 236.932 75.5057 236.329 75.462C235.947 75.434 235.65 75.2326 235.385 74.9502C234.372 73.8695 233.34 72.8087 232.347 71.7075C232.059 71.3873 231.92 71.4479 231.665 71.7259C230.646 72.8382 229.61 73.9334 228.568 75.0224C228.1 75.5114 227.543 75.5994 227.001 75.3201C226.424 75.0237 226.057 74.3996 226.085 73.7724C226.105 73.3481 226.302 73.0241 226.576 72.7334C227.905 71.327 229.23 69.917 230.555 68.5083C230.643 68.4146 230.725 68.3152 230.852 68.1705Z" fill="white"/>
<path d="M231.954 63.2716C228.73 63.26 226.086 60.4262 226.105 57.0026C226.123 53.5411 228.769 50.7517 232.025 50.7613C235.288 50.7706 237.907 53.6002 237.891 57.0976C237.874 60.5142 235.212 63.2835 231.954 63.2716ZM234.885 57.0109C234.879 55.3109 233.602 53.9576 232.002 53.9561C230.388 53.9543 229.099 55.3322 229.112 57.0476C229.124 58.7411 230.412 60.0848 232.017 60.0786C233.617 60.0726 234.89 58.7105 234.885 57.0109Z" fill="white"/>
<ellipse cx="184" cy="63.1194" rx="19" ry="19.5672" fill="#00B2FF"/>
<path d="M196.5 55.2592C195.57 55.6727 194.58 55.9468 193.547 56.0799C194.609 55.4366 195.42 54.4258 195.802 53.2074C194.811 53.8063 193.717 54.2293 192.552 54.4654C191.611 53.4498 190.27 52.8208 188.808 52.8208C185.97 52.8208 183.686 55.1562 183.686 58.0192C183.686 58.4311 183.72 58.8272 183.805 59.2043C179.544 58.9936 175.773 56.9228 173.241 53.7683C172.798 54.5462 172.539 55.4366 172.539 56.3952C172.539 58.195 173.453 59.7905 174.816 60.7142C173.992 60.6984 173.184 60.456 172.5 60.0741C172.5 60.09 172.5 60.1106 172.5 60.1312C172.5 62.6567 174.277 64.7544 176.606 65.2376C176.189 65.3533 175.734 65.4087 175.263 65.4087C174.934 65.4087 174.603 65.3897 174.292 65.32C174.956 67.3781 176.841 68.8912 179.081 68.9403C177.338 70.3235 175.123 71.1569 172.727 71.1569C172.306 71.1569 171.903 71.1379 171.5 71.0856C173.77 72.5702 176.461 73.4178 179.363 73.4178C188.794 73.4178 193.95 65.4959 193.95 58.6292C193.95 58.3994 193.942 58.1776 193.931 57.9574C194.948 57.2254 195.803 56.3112 196.5 55.2592Z" fill="white"/>
<ellipse cx="136" cy="63.1194" rx="19" ry="19.5672" fill="#2472FF"/>
<path d="M147.873 68.5162C147.844 68.4549 147.817 68.4041 147.791 68.3635C147.375 67.6302 146.579 66.7302 145.405 65.6632L145.38 65.6388L145.367 65.6268L145.355 65.6145H145.342C144.809 65.1176 144.472 64.7836 144.33 64.6125C144.072 64.2867 144.014 63.9569 144.155 63.6227C144.255 63.3703 144.63 62.8371 145.28 62.0224C145.621 61.5907 145.892 61.2447 146.092 60.984C147.533 59.1106 148.158 57.9134 147.966 57.3921L147.892 57.2702C147.842 57.1969 147.713 57.1298 147.505 57.0686C147.296 57.0075 147.03 56.9974 146.705 57.0381L143.106 57.0625C143.048 57.0423 142.964 57.0441 142.856 57.0686C142.748 57.0931 142.693 57.1054 142.693 57.1054L142.631 57.136L142.581 57.1727C142.539 57.197 142.494 57.2398 142.444 57.3009C142.394 57.3618 142.352 57.4332 142.319 57.5147C141.927 58.5002 141.482 59.4165 140.982 60.2636C140.673 60.7686 140.39 61.2063 140.132 61.577C139.874 61.9475 139.657 62.2204 139.482 62.3954C139.307 62.5706 139.149 62.7109 139.007 62.8169C138.866 62.9229 138.758 62.9677 138.683 62.9513C138.608 62.9349 138.537 62.9187 138.47 62.9024C138.353 62.8291 138.26 62.7293 138.189 62.6031C138.118 62.4768 138.07 62.318 138.045 62.1265C138.02 61.935 138.006 61.7703 138.001 61.6317C137.998 61.4934 137.999 61.2977 138.008 61.0452C138.016 60.7926 138.02 60.6217 138.02 60.5321C138.02 60.2226 138.027 59.8866 138.039 59.5241C138.052 59.1617 138.062 58.8745 138.07 58.663C138.079 58.4512 138.083 58.2271 138.083 57.9909C138.083 57.7547 138.068 57.5695 138.039 57.435C138.01 57.3007 137.966 57.1704 137.908 57.044C137.85 56.9178 137.764 56.8201 137.652 56.7508C137.539 56.6816 137.4 56.6266 137.233 56.5858C136.792 56.4881 136.229 56.4352 135.546 56.427C133.997 56.4108 133.001 56.5086 132.56 56.7204C132.385 56.8098 132.226 56.9321 132.085 57.0868C131.935 57.266 131.914 57.3638 132.022 57.3799C132.522 57.4531 132.876 57.6283 133.084 57.9052L133.159 58.0519C133.218 58.1578 133.276 58.3452 133.334 58.614C133.393 58.8827 133.43 59.18 133.447 59.5056C133.488 60.1003 133.488 60.6094 133.447 61.0328C133.405 61.4565 133.366 61.7863 133.328 62.0225C133.291 62.2587 133.234 62.4501 133.159 62.5967C133.084 62.7433 133.034 62.8329 133.009 62.8654C132.984 62.8979 132.964 62.9184 132.947 62.9265C132.839 62.967 132.726 62.9877 132.61 62.9877C132.493 62.9877 132.351 62.9306 132.185 62.8165C132.018 62.7024 131.845 62.5457 131.666 62.3462C131.487 62.1465 131.285 61.8676 131.06 61.5092C130.835 61.1509 130.602 60.7274 130.36 60.2387L130.161 59.8843C130.036 59.6563 129.865 59.3243 129.648 58.8886C129.432 58.4528 129.24 58.0312 129.073 57.624C129.007 57.4529 128.907 57.3227 128.774 57.2331L128.711 57.1963C128.669 57.1638 128.603 57.1293 128.511 57.0925C128.419 57.0557 128.324 57.0294 128.224 57.0132L124.8 57.0375C124.45 57.0375 124.213 57.115 124.088 57.2697L124.038 57.343C124.013 57.3837 124 57.4489 124 57.5385C124 57.6281 124.025 57.7381 124.075 57.8683C124.575 59.0168 125.118 60.1245 125.706 61.1915C126.293 62.2585 126.803 63.118 127.236 63.7692C127.669 64.4208 128.111 65.0359 128.561 65.614C129.011 66.1924 129.309 66.563 129.454 66.7258C129.6 66.8889 129.715 67.0109 129.798 67.0923L130.11 67.3855C130.31 67.581 130.604 67.8152 130.991 68.088C131.379 68.3609 131.808 68.6297 132.278 68.8946C132.749 69.1591 133.297 69.3749 133.922 69.5419C134.546 69.709 135.155 69.776 135.746 69.7437H137.183C137.475 69.7191 137.695 69.6295 137.845 69.4748L137.895 69.4136C137.929 69.365 137.96 69.2894 137.989 69.1878C138.018 69.086 138.033 68.9738 138.033 68.8518C138.024 68.5017 138.051 68.1861 138.114 67.9051C138.176 67.6242 138.247 67.4124 138.326 67.2698C138.406 67.1273 138.495 67.0071 138.595 66.9096C138.695 66.8119 138.766 66.7527 138.808 66.7323C138.849 66.7118 138.882 66.6979 138.907 66.6896C139.107 66.6245 139.342 66.6875 139.613 66.8791C139.884 67.0705 140.138 67.3069 140.376 67.5878C140.613 67.8689 140.899 68.1843 141.232 68.5345C141.565 68.8848 141.857 69.1452 142.106 69.3165L142.356 69.4631C142.523 69.5609 142.74 69.6505 143.006 69.7319C143.272 69.8133 143.506 69.8337 143.706 69.793L146.905 69.7442C147.221 69.7442 147.467 69.693 147.642 69.5914C147.817 69.4896 147.921 69.3774 147.954 69.2554C147.988 69.1333 147.989 68.9947 147.961 68.8398C147.931 68.6853 147.902 68.5772 147.873 68.5162Z" fill="white"/>
<ellipse cx="88" cy="63.1194" rx="19" ry="19.5672" fill="url(#paint0_linear)"/>
<path d="M92.5862 52.8208H83.4138C80.4286 52.8208 78 55.3219 78 58.3962V67.8425C78 70.9167 80.4286 73.4178 83.4138 73.4178H92.5863C95.5714 73.4178 98 70.9167 98 67.8425V58.3962C98 55.3219 95.5714 52.8208 92.5862 52.8208V52.8208ZM88 68.7511C84.9846 68.7511 82.5314 66.2248 82.5314 63.1193C82.5314 60.0139 84.9846 57.4875 88 57.4875C91.0154 57.4875 93.4686 60.0139 93.4686 63.1193C93.4686 66.2248 91.0154 68.7511 88 68.7511ZM93.5994 58.8156C92.7083 58.8156 91.9835 58.0692 91.9835 57.1515C91.9835 56.2338 92.7083 55.4872 93.5994 55.4872C94.4905 55.4872 95.2154 56.2338 95.2154 57.1515C95.2154 58.0692 94.4905 58.8156 93.5994 58.8156Z" fill="white"/>
<path d="M87.9992 58.6953C85.6304 58.6953 83.7031 60.68 83.7031 63.1197C83.7031 65.5592 85.6304 67.544 87.9992 67.544C90.3681 67.544 92.2953 65.5592 92.2953 63.1197C92.2953 60.68 90.3681 58.6953 87.9992 58.6953Z" fill="white"/>
<path d="M93.5997 56.6948C93.3552 56.6948 93.1562 56.8997 93.1562 57.1515C93.1562 57.4032 93.3552 57.6081 93.5997 57.6081C93.8442 57.6081 94.0432 57.4034 94.0432 57.1515C94.0432 56.8996 93.8442 56.6948 93.5997 56.6948Z" fill="white"/>
<ellipse cx="40" cy="63.1194" rx="19" ry="19.5672" fill="#1F3DA4"/>
<path d="M45.5481 50.7664L42.6699 50.7612C39.4362 50.7612 37.3465 53.1487 37.3465 56.844V59.6485H34.4526C34.2025 59.6485 34 59.8743 34 60.1528V64.2162C34 64.4947 34.2027 64.7202 34.4526 64.7202H37.3465V74.9737C37.3465 75.2521 37.549 75.4776 37.7991 75.4776H41.5749C41.825 75.4776 42.0275 75.2519 42.0275 74.9737V64.7202H45.4112C45.6613 64.7202 45.8638 64.4947 45.8638 64.2162L45.8652 60.1528C45.8652 60.0191 45.8174 59.891 45.7326 59.7964C45.6479 59.7018 45.5324 59.6485 45.4123 59.6485H42.0275V57.2711C42.0275 56.1284 42.272 55.5483 43.6087 55.5483L45.5477 55.5475C45.7975 55.5475 46 55.3217 46 55.0435V51.2704C46 50.9924 45.7977 50.7669 45.5481 50.7664Z" fill="white"/>
<defs>
<linearGradient id="paint0_linear" x1="107" y1="43.5522" x2="67.8826" y2="81.5358" gradientUnits="userSpaceOnUse">
<stop stop-color="#2400FF"/>
<stop offset="0.526042" stop-color="#FF005C"/>
<stop offset="1" stop-color="#FFB800"/>
</linearGradient>
</defs>
</svg>
